<?xml version="1.0" encoding="UTF-8"?>
<svg version="1.1" xmlns="http://www.w3.org/2000/svg" width="80" height="98">
<path d="M0 0 C0.6730719 -0.00039276 1.3461438 -0.00078552 2.03961182 -0.00119019 C13.50649544 0.00672451 24.92908301 0.45202416 36.375 1.125 C37.11903076 1.16847565 37.86306152 1.21195129 38.62963867 1.25674438 C46.27645243 1.71185642 53.89585361 2.24336102 61.5 3.1875 C62.6170483 11.76120006 62.66360826 20.31158102 62.66796875 28.94140625 C62.67119 30.45255056 62.6745547 31.96369457 62.67805481 33.47483826 C62.68400715 36.6257296 62.68589857 39.77659367 62.68530273 42.92749023 C62.68520092 46.94406296 62.69889054 50.9604597 62.71607494 54.9769907 C62.72724354 58.09214569 62.72922051 61.20725862 62.72869301 64.32243156 C62.72986436 65.80264839 62.73423805 67.28286662 62.74202538 68.76306343 C62.77881529 76.47244203 62.67852806 83.73341224 60.5 91.1875 C59.5 92.1875 59.5 92.1875 57.21484375 92.28515625 C56.29832031 92.27355469 55.38179688 92.26195313 54.4375 92.25 C53.05884766 92.23646484 53.05884766 92.23646484 51.65234375 92.22265625 C50.58693359 92.20525391 50.58693359 92.20525391 49.5 92.1875 C48.84 93.8375 48.18 95.4875 47.5 97.1875 C38.54634706 97.59593376 29.94661653 96.49327245 21.11328125 95.21606445 C18.7694108 94.87780133 16.42404353 94.55223468 14.078125 94.22851562 C-13.29530906 90.39219094 -13.29530906 90.39219094 -15.5 88.1875 C-15.82097751 85.86932911 -16.01220956 83.54970643 -16.21875 81.21875 C-16.29065837 79.19569407 -16.29065837 79.19569407 -17.5 78.1875 C-17.59947317 76.11847719 -17.62799632 74.04602154 -17.62939453 71.97460938 C-17.63114685 71.32567719 -17.63289917 70.676745 -17.63470459 70.00814819 C-17.63912726 67.84915538 -17.63618097 65.69024374 -17.6328125 63.53125 C-17.63348608 62.02966293 -17.63445655 60.52807596 -17.63571167 59.02648926 C-17.63718973 55.86888599 -17.63503306 52.71131093 -17.63037109 49.55371094 C-17.62471282 45.52683984 -17.62792712 41.50003597 -17.63394356 37.47316742 C-17.63757982 34.36571763 -17.63639591 31.25828342 -17.63381577 28.15083313 C-17.63315291 26.66783134 -17.63395229 25.18482809 -17.63629532 23.701828 C-17.64561668 16.13341711 -17.54953436 8.69578753 -16.5 1.1875 C-11.20242316 -0.57835895 -5.54418066 -0.00305408 0 0 Z " fill="#6A4938" transform="translate(17.5,-0.1875)"/>
<path d="M0 0 C7.30922933 -0.11440533 14.57878691 0.01510032 21.875 0.4375 C22.5755249 0.47673584 23.2760498 0.51597168 23.99780273 0.55639648 C28.38140802 0.82747759 32.66501288 1.326549 37 2 C37.33 1.34 37.66 0.68 38 0 C44.93 0.495 44.93 0.495 52 1 C52 1.66 52 2.32 52 3 C53.98 3 55.96 3 58 3 C58 4.65 58 6.3 58 8 C54.37 8 50.74 8 47 8 C47 7.34 47 6.68 47 6 C46.34 6 45.68 6 45 6 C45.01160156 6.61746094 45.02320313 7.23492188 45.03515625 7.87109375 C45.09699663 13.67525544 44.74278956 19.24338088 44 25 C42.68 25 41.36 25 40 25 C40 21.37 40 17.74 40 14 C39.34 14 38.68 14 38 14 C38 15.98 38 17.96 38 20 C37.01 20.495 37.01 20.495 36 21 C36 19.02 36 17.04 36 15 C32.7 15 29.4 15 26 15 C26.495 19.95 26.495 19.95 27 25 C29.97 25.33 32.94 25.66 36 26 C36 25.01 36 24.02 36 23 C36.66 23 37.32 23 38 23 C38 24.98 38 26.96 38 29 C38.66 29 39.32 29 40 29 C40 28.34 40 27.68 40 27 C41.32 27 42.64 27 44 27 C44 43.17 44 59.34 44 76 C40 76 40 76 38.25 74.5 C37.8375 74.005 37.425 73.51 37 73 C36.67 73.66 36.34 74.32 36 75 C32.64585201 75.02929977 29.29173747 75.0468989 25.9375 75.0625 C24.99455078 75.07087891 24.05160156 75.07925781 23.08007812 75.08789062 C17.9369232 75.10581103 13.06741573 74.89259611 8 74 C8 73.34 8 72.68 8 72 C7.01 72.495 7.01 72.495 6 73 C3.62216895 72.91161539 1.24654854 72.75653579 -1.125 72.5625 C-2.40632812 72.46066406 -3.68765625 72.35882813 -5.0078125 72.25390625 C-6.48894531 72.12822266 -6.48894531 72.12822266 -8 72 C-7.01 71.505 -7.01 71.505 -6 71 C-6 55.49 -6 39.98 -6 24 C-5.01 24 -4.02 24 -3 24 C-1.79214844 23.98839844 -0.58429687 23.97679688 0.66015625 23.96484375 C8.51884762 23.90753986 16.18819285 24.00802449 24 25 C24 21.37 24 17.74 24 14 C13.77 13.67 3.54 13.34 -7 13 C-7 9.37 -7 5.74 -7 2 C-4.69 2 -2.38 2 0 2 C0 1.34 0 0.68 0 0 Z " fill="#966548" transform="translate(18,1)"/>
<path d="M0 0 C2.97 0 5.94 0 9 0 C10.04729264 8.5909337 10.16360261 17.11290129 10.16796875 25.75390625 C10.17119 27.26505056 10.1745547 28.77619457 10.17805481 30.28733826 C10.18400715 33.4382296 10.18589857 36.58909367 10.18530273 39.73999023 C10.18520092 43.75656296 10.19889054 47.7729597 10.21607494 51.7894907 C10.22724354 54.90464569 10.22922051 58.01975862 10.22869301 61.13493156 C10.22986436 62.61514839 10.23423805 64.09536662 10.24202538 65.57556343 C10.27881529 73.28494203 10.17852806 80.54591224 8 88 C7 89 7 89 4.71484375 89.09765625 C3.79832031 89.08605469 2.88179687 89.07445313 1.9375 89.0625 C0.55884766 89.04896484 0.55884766 89.04896484 -0.84765625 89.03515625 C-1.91306641 89.01775391 -1.91306641 89.01775391 -3 89 C-3.66 90.65 -4.32 92.3 -5 94 C-5.66 94 -6.32 94 -7 94 C-7 64.3 -7 34.6 -7 4 C-6.34 4 -5.68 4 -5 4 C-5 4.66 -5 5.32 -5 6 C-4.37351562 5.91621094 -3.74703125 5.83242187 -3.1015625 5.74609375 C-2.28429687 5.64425781 -1.46703125 5.54242187 -0.625 5.4375 C0.18710938 5.33308594 0.99921875 5.22867187 1.8359375 5.12109375 C4 5 4 5 6 6 C6 4.35 6 2.7 6 1 C4.02 1 2.04 1 0 1 C0 0.67 0 0.34 0 0 Z " fill="#392A17" transform="translate(70,3)"/>
<path d="M0 0 C1.2883374 -0.00193359 2.5766748 -0.00386719 3.90405273 -0.00585938 C5.29150531 -0.00175199 6.6789566 0.00281363 8.06640625 0.0078125 C9.10778244 0.00914185 9.10778244 0.00914185 10.17019653 0.01049805 C21.67871031 0.02779833 33.14468935 0.3681084 44.62890625 1.1328125 C44.62890625 1.7928125 44.62890625 2.4528125 44.62890625 3.1328125 C18.65875335 2.145318 18.65875335 2.145318 7.62890625 1.1328125 C7.62890625 1.7928125 7.62890625 2.4528125 7.62890625 3.1328125 C8.61890625 3.4628125 9.60890625 3.7928125 10.62890625 4.1328125 C2.87890625 4.2578125 2.87890625 4.2578125 0.62890625 3.1328125 C0.62890625 6.7628125 0.62890625 10.3928125 0.62890625 14.1328125 C2.02882813 14.12121094 3.42875 14.10960937 4.87109375 14.09765625 C6.74869657 14.08826824 8.62630085 14.07916913 10.50390625 14.0703125 C11.880625 14.05774414 11.880625 14.05774414 13.28515625 14.04492188 C19.47385938 14.02313067 25.48009244 14.4241924 31.62890625 15.1328125 C31.62890625 18.4328125 31.62890625 21.7328125 31.62890625 25.1328125 C20.73890625 24.4728125 9.84890625 23.8128125 -1.37109375 23.1328125 C-1.37109375 38.9728125 -1.37109375 54.8128125 -1.37109375 71.1328125 C-3.35109375 70.8028125 -5.33109375 70.4728125 -7.37109375 70.1328125 C-9.60135511 66.78742045 -9.64044402 65.6182227 -9.70581055 61.70263672 C-9.72890793 60.59072968 -9.75200531 59.47882263 -9.77580261 58.33322144 C-9.79049088 57.13013336 -9.80517914 55.92704529 -9.8203125 54.6875 C-9.84205032 53.44791534 -9.86378815 52.20833069 -9.88618469 50.93118286 C-9.94141074 47.63030179 -9.98757225 44.32944281 -10.03027344 41.02838135 C-10.05843963 39.01880879 -10.09258284 37.00943617 -10.12915039 35 C-10.19960789 31.12507614 -10.26160144 27.25011814 -10.3203125 23.375 C-10.34107346 22.18405731 -10.36183441 20.99311462 -10.38322449 19.76608276 C-10.45938948 13.45206352 -10.22851923 7.39064563 -9.37109375 1.1328125 C-6.03155624 0.01963333 -3.51810535 0.00343349 0 0 Z " fill="#694F43" transform="translate(10.37109375,-0.1328125)"/>
<path d="M0 0 C7.30922933 -0.11440533 14.57878691 0.01510032 21.875 0.4375 C22.5755249 0.47673584 23.2760498 0.51597168 23.99780273 0.55639648 C28.38140802 0.82747759 32.66501288 1.326549 37 2 C37.33 1.34 37.66 0.68 38 0 C44.93 0.495 44.93 0.495 52 1 C52 1.66 52 2.32 52 3 C53.98 3 55.96 3 58 3 C58 4.65 58 6.3 58 8 C54.37 8 50.74 8 47 8 C47 7.34 47 6.68 47 6 C46.34 6 45.68 6 45 6 C45.01160156 6.61746094 45.02320313 7.23492188 45.03515625 7.87109375 C45.09699663 13.67525544 44.74278956 19.24338088 44 25 C42.68 25 41.36 25 40 25 C40 21.37 40 17.74 40 14 C39.34 14 38.68 14 38 14 C38 15.98 38 17.96 38 20 C37.01 20.495 37.01 20.495 36 21 C36 18.69 36 16.38 36 14 C35.44352783 14.00523682 34.88705566 14.01047363 34.3137207 14.01586914 C20.50638463 14.12738939 6.78479136 13.78931321 -7 13 C-7 9.37 -7 5.74 -7 2 C-4.69 2 -2.38 2 0 2 C0 1.34 0 0.68 0 0 Z " fill="#9C6C4D" transform="translate(18,1)"/>
<path d="M0 0 C0.04628239 8.83153988 0.08184825 17.6630382 0.10362434 26.49467278 C0.11407426 30.59528757 0.12825537 34.69581958 0.15087891 38.79638672 C0.1725644 42.75155581 0.18455952 46.70664511 0.18975449 50.66186905 C0.19345799 52.17299786 0.20068975 53.68412217 0.21146011 55.19521713 C0.22591823 57.30716232 0.22798037 59.41877524 0.22705078 61.53076172 C0.231492 62.73433319 0.23593323 63.93790466 0.24050903 65.177948 C0 68 0 68 -2 70 C-2 69.34 -2 68.68 -2 68 C-2.66 68 -3.32 68 -4 68 C-4.66 69.32 -5.32 70.64 -6 72 C-6.33 71.34 -6.66 70.68 -7 70 C-9.97 70.99 -12.94 71.98 -16 73 C-16.43586109 67.07228916 -16.43586109 67.07228916 -16 64 C-13.6875 61.625 -13.6875 61.625 -11 60 C-8.94058658 58.34794603 -8.09788872 57.51729943 -7.60127258 54.89289856 C-7.59016953 54.08237534 -7.57906647 53.27185211 -7.56762695 52.43676758 C-7.54783279 51.51603958 -7.52803864 50.59531158 -7.50764465 49.64668274 C-7.49805977 48.16061775 -7.49805977 48.16061775 -7.48828125 46.64453125 C-7.47033005 45.62775803 -7.45237885 44.6109848 -7.43388367 43.56340027 C-7.3796646 40.31314248 -7.34584741 37.0630325 -7.3125 33.8125 C-7.27933721 31.61000542 -7.24484853 29.40753037 -7.20898438 27.20507812 C-7.12393126 21.80349188 -7.0571752 16.40195037 -7 11 C-9.97 11.66 -12.94 12.32 -16 13 C-16.29296875 6.1640625 -16.29296875 6.1640625 -16 4 C-12.73355199 1.822368 -10.71229813 1.4575296 -6.875 0.875 C-5.79992187 0.70742187 -4.72484375 0.53984375 -3.6171875 0.3671875 C-1 0 -1 0 0 0 Z " fill="#170E08" transform="translate(80,14)"/>
<path d="M0 0 C0.66 0 1.32 0 2 0 C2 3.63 2 7.26 2 11 C3.32 11 4.64 11 6 11 C6 8.03 6 5.06 6 2 C6.33 2 6.66 2 7 2 C7 28.4 7 54.8 7 82 C4.03 82 1.06 82 -2 82 C-2 81.67 -2 81.34 -2 81 C0.64 81 3.28 81 6 81 C6 78.36 6 75.72 6 73 C4.68 73 3.36 73 2 73 C2 73.66 2 74.32 2 75 C-1.96 75 -5.92 75 -10 75 C-10.33 74.34 -10.66 73.68 -11 73 C-8.525 72.505 -8.525 72.505 -6 72 C-8.31 71.34 -10.62 70.68 -13 70 C-13.495 70.99 -13.495 70.99 -14 72 C-14 68.04 -14 64.08 -14 60 C-8.66666667 60 -3.33333333 60 2 60 C2 60.66 2 61.32 2 62 C3.32 62 4.64 62 6 62 C6 45.83 6 29.66 6 13 C4.68 13 3.36 13 2 13 C2 13.66 2 14.32 2 15 C1.34 15 0.68 15 0 15 C0 13.02 0 11.04 0 9 C-0.66 9 -1.32 9 -2 9 C-2 9.99 -2 10.98 -2 12 C-3.47906892 12.02689216 -4.95827483 12.04634621 -6.4375 12.0625 C-7.67306641 12.07990234 -7.67306641 12.07990234 -8.93359375 12.09765625 C-11 12 -11 12 -12 11 C-12.14257189 7.66381769 -12.04228157 4.34024394 -12 1 C-8.7 1 -5.4 1 -2 1 C-1.67 2.65 -1.34 4.3 -1 6 C-0.67 4.02 -0.34 2.04 0 0 Z " fill="#6A4322" transform="translate(56,15)"/>
<path d="M0 0 C0 0.66 0 1.32 0 2 C0.66 2 1.32 2 2 2 C2.66 1.34 3.32 0.68 4 0 C4.66 2.31 5.32 4.62 6 7 C3.69 6.67 1.38 6.34 -1 6 C-1 6.66 -1 7.32 -1 8 C2.3 8.33 5.6 8.66 9 9 C8.01 9.495 8.01 9.495 7 10 C7 10.66 7 11.32 7 12 C8.65 11.67 10.3 11.34 12 11 C11 14 11 14 9 15 C9 16.98 9 18.96 9 21 C9.99 20.67 10.98 20.34 12 20 C13.74706142 14.75881575 13.32791716 9.31166864 12 4 C15.11673962 6.84571878 15.8949384 8.92837169 16.3125 13.1875 C15.84630555 18.87507231 14.04463343 23.23166839 9.6875 27 C4.70875894 28.85255481 1.25838886 28.52071263 -3.625 26.5 C-7.69402197 23.87304677 -10.29561597 20.52966928 -12 16 C-12.37591119 12.61679932 -12.3121961 9.38559323 -12 6 C-11.67 6.99 -11.34 7.98 -11 9 C-10.01 9.33 -9.02 9.66 -8 10 C-6.8125 13.0625 -6.8125 13.0625 -6 16 C-5.34 14.35 -4.68 12.7 -4 11 C-4.66 10.67 -5.32 10.34 -6 10 C-6 9.01 -6 8.02 -6 7 C-4.68 7 -3.36 7 -2 7 C-1.67 5.02 -1.34 3.04 -1 1 C-3.49552484 1.78130071 -3.49552484 1.78130071 -6 3 C-6.33 3.99 -6.66 4.98 -7 6 C-7.33 5.01 -7.66 4.02 -8 3 C-4.93882432 0.37613513 -4.26826873 0 0 0 Z " fill="#8B5E20" transform="translate(34,38)"/>
<path d="M0 0 C36.83903932 2.98630033 36.83903932 2.98630033 42 6 C39.36 6.33 36.72 6.66 34 7 C37.96 7.33 41.92 7.66 46 8 C46 7.34 46 6.68 46 6 C47.32 6 48.64 6 50 6 C50 8.64 50 11.28 50 14 C34.33083962 14.97424831 17.12808379 13.12167541 2 9 C2 8.34 2 7.68 2 7 C1.34 7 0.68 7 0 7 C0 4.69 0 2.38 0 0 Z " fill="#8C5B3E" transform="translate(12,82)"/>
<path d="M0 0 C2.97 0 5.94 0 9 0 C9.33 3.63 9.66 7.26 10 11 C4.40764331 13.23694268 4.40764331 13.23694268 0.875 13.5625 C-2.90713493 13.85360156 -2.90713493 13.85360156 -6 15 C-5.84152588 16.2367749 -5.68305176 17.4735498 -5.51977539 18.74780273 C-4.88250915 24.50678316 -4.77409671 30.24561176 -4.68359375 36.03515625 C-4.66281265 37.15442001 -4.64203156 38.27368378 -4.62062073 39.42686462 C-4.55568639 42.97201916 -4.49650334 46.5172423 -4.4375 50.0625 C-4.39426131 52.47852248 -4.35064539 54.89453823 -4.30664062 57.31054688 C-4.20006322 63.20696053 -4.09819683 69.10344113 -4 75 C-4.66 75 -5.32 75 -6 75 C-6 77.97 -6 80.94 -6 84 C-5.37351562 83.7834375 -4.74703125 83.566875 -4.1015625 83.34375 C-3.28429687 83.0653125 -2.46703125 82.786875 -1.625 82.5 C-0.81289062 82.2215625 -0.00078125 81.943125 0.8359375 81.65625 C3 81 3 81 5 81 C5.495 80.01 5.495 80.01 6 79 C6.66 79 7.32 79 8 79 C9.25 85.625 9.25 85.625 7 89 C4.6171875 89.29296875 4.6171875 89.29296875 1.875 89.1875 C0.50988281 89.14689453 0.50988281 89.14689453 -0.8828125 89.10546875 C-1.58148438 89.07066406 -2.28015625 89.03585938 -3 89 C-3.66 90.65 -4.32 92.3 -5 94 C-5.66 94 -6.32 94 -7 94 C-7 64.3 -7 34.6 -7 4 C-6.34 4 -5.68 4 -5 4 C-5 4.66 -5 5.32 -5 6 C-4.37351562 5.91621094 -3.74703125 5.83242187 -3.1015625 5.74609375 C-2.28429687 5.64425781 -1.46703125 5.54242187 -0.625 5.4375 C0.18710938 5.33308594 0.99921875 5.22867187 1.8359375 5.12109375 C4 5 4 5 6 6 C6 4.35 6 2.7 6 1 C4.02 1 2.04 1 0 1 C0 0.67 0 0.34 0 0 Z " fill="#2F1A0D" transform="translate(70,3)"/>
<path d="M0 0 C2.64 0.33 5.28 0.66 8 1 C8 16.84 8 32.68 8 49 C6.02 48.67 4.04 48.34 2 48 C-0.10483746 44.84274381 -0.2472059 44.12625389 -0.22705078 40.52856445 C-0.22689972 39.62785721 -0.22674866 38.72714996 -0.22659302 37.79914856 C-0.21627045 36.83031235 -0.20594788 35.86147614 -0.1953125 34.86328125 C-0.1924826 33.86870407 -0.18965271 32.87412689 -0.18673706 31.84941101 C-0.17553489 28.6703187 -0.15043014 25.49150728 -0.125 22.3125 C-0.11497025 20.15820719 -0.10584439 18.00390997 -0.09765625 15.84960938 C-0.07559546 10.56631028 -0.04211756 5.28317521 0 0 Z " fill="#8F5A36" transform="translate(1,22)"/>
<path d="M0 0 C1.00607148 0.99389143 2.00701729 1.99303161 3 3 C3.99 3 4.98 3 6 3 C8.05336642 9.16009926 9.11897635 14.64307094 7 21 C6.67 21.66 6.34 22.32 6 23 C5.01 22.67 4.02 22.34 3 22 C2.3125 19.1875 2.3125 19.1875 2 16 C3.4375 14.125 3.4375 14.125 5 13 C3.68 13 2.36 13 1 13 C1 12.34 1 11.68 1 11 C0.34 10.67 -0.32 10.34 -1 10 C-1.33 10.66 -1.66 11.32 -2 12 C-2 11.34 -2 10.68 -2 10 C-3.65 9.67 -5.3 9.34 -7 9 C-7 8.34 -7 7.68 -7 7 C-5.35 6.67 -3.7 6.34 -2 6 C-2 6.66 -2 7.32 -2 8 C-1.34 8 -0.68 8 0 8 C-2.27415287 4.62911733 -2.27415287 4.62911733 -6 3 C-6 2.34 -6 1.68 -6 1 C-9.465 2.485 -9.465 2.485 -13 4 C-13 4.66 -13 5.32 -13 6 C-12.38125 5.34 -11.7625 4.68 -11.125 4 C-9 2 -9 2 -7 2 C-7.33 3.98 -7.66 5.96 -8 8 C-9.32 8 -10.64 8 -12 8 C-12 8.99 -12 9.98 -12 11 C-11.01 11.33 -10.02 11.66 -9 12 C-9.99 12.495 -9.99 12.495 -11 13 C-11.65772428 16.02934491 -11.65772428 16.02934491 -12 19 C-14 16 -14 16 -14.5 13.375 C-14.665 12.59125 -14.83 11.8075 -15 11 C-15.66 10.67 -16.32 10.34 -17 10 C-16.82696667 5.58765017 -16.34458848 3.4329445 -13.5625 -0.0625 C-9.32856923 -3.19684196 -4.60109206 -1.83726912 0 0 Z " fill="#906322" transform="translate(40,37)"/>
<path d="M0 0 C0.99 0 1.98 0 3 0 C3 15.84 3 31.68 3 48 C1.68 48.66 0.36 49.32 -1 50 C-1.19517575 45.1298636 -1.37336837 40.25947838 -1.53710938 35.38818359 C-1.59483221 33.73763128 -1.6568708 32.08722313 -1.72363281 30.43701172 C-2.14191785 20.01157396 -1.93506337 10.30007186 0 0 Z " fill="#29150A" transform="translate(76,24)"/>
<path d="M0 0 C0.99 0 1.98 0 3 0 C3 15.51 3 31.02 3 47 C2.34 47 1.68 47 1 47 C-0.08069161 31.32997158 -0.10983009 15.70232284 0 0 Z " fill="#946347" transform="translate(6,24)"/>
<path d="M0 0 C4.62 0 9.24 0 14 0 C14 0.66 14 1.32 14 2 C15.98 2 17.96 2 20 2 C20 3.65 20 5.3 20 7 C16.37 7 12.74 7 9 7 C9 6.34 9 5.68 9 5 C8.34 5 7.68 5 7 5 C7 8.3 7 11.6 7 15 C6.67 15 6.34 15 6 15 C6 11.7 6 8.4 6 5 C4.453125 5.020625 2.90625 5.04125 1.3125 5.0625 C-5.15765474 5.07092468 -11.55878748 4.57346248 -18 4 C-18 3.67 -18 3.34 -18 3 C-10.41 2.67 -2.82 2.34 5 2 C2.525 1.505 2.525 1.505 0 1 C0 0.67 0 0.34 0 0 Z " fill="#8E6142" transform="translate(56,2)"/>
<path d="M0 0 C2.97 0 5.94 0 9 0 C9.33 3.63 9.66 7.26 10 11 C6.01774657 12.59290137 3.76460539 13.29883157 -0.3125 13.625 C-1.19550781 13.69976562 -2.07851562 13.77453125 -2.98828125 13.8515625 C-3.65214844 13.90054687 -4.31601563 13.94953125 -5 14 C-5 11.36 -5 8.72 -5 6 C-3.54263913 5.80508548 -2.08405407 5.61930642 -0.625 5.4375 C0.18710938 5.33308594 0.99921875 5.22867187 1.8359375 5.12109375 C4 5 4 5 6 6 C6 4.35 6 2.7 6 1 C4.02 1 2.04 1 0 1 C0 0.67 0 0.34 0 0 Z " fill="#3B2616" transform="translate(70,3)"/>
<path d="M0 0 C3.11673962 2.84571878 3.8949384 4.92837169 4.3125 9.1875 C3.84630555 14.87507231 2.04463343 19.23166839 -2.3125 23 C-5.72079791 24.26820387 -8.39266686 24.34031445 -12 24 C-12.66 23.34 -13.32 22.68 -14 22 C-10.04 21.505 -10.04 21.505 -6 21 C-6 19.02 -6 17.04 -6 15 C-6.99 14.67 -7.98 14.34 -9 14 C-8.67 13.34 -8.34 12.68 -8 12 C-7.34 12 -6.68 12 -6 12 C-5.67 10.68 -5.34 9.36 -5 8 C-3.35 7.67 -1.7 7.34 0 7 C-1 10 -1 10 -3 11 C-3 12.98 -3 14.96 -3 17 C-2.01 16.67 -1.02 16.34 0 16 C1.74706142 10.75881575 1.32791716 5.31166864 0 0 Z " fill="#74471B" transform="translate(46,42)"/>
<path d="M0 0 C3.3 0 6.6 0 10 0 C10.66 2.64 11.32 5.28 12 8 C11.34 8 10.68 8 10 8 C10 8.99 10 9.98 10 11 C8.52093108 11.02689216 7.04172517 11.04634621 5.5625 11.0625 C4.32693359 11.07990234 4.32693359 11.07990234 3.06640625 11.09765625 C1 11 1 11 0 10 C-0.14257189 6.66381769 -0.04228157 3.34024394 0 0 Z " fill="#684934" transform="translate(44,16)"/>
<path d="M0 0 C7.6836945 -0.12733842 15.22532115 0.22975412 22.875 0.9375 C23.88046875 1.02451172 24.8859375 1.11152344 25.921875 1.20117188 C30.35137123 1.59771166 34.64646894 2.06793661 39 3 C39 3.33 39 3.66 39 4 C28.64518362 4 18.30817282 2.98173075 8 2 C8 17.51 8 33.02 8 49 C7.67 49 7.34 49 7 49 C6.67 33.49 6.34 17.98 6 2 C3.03 1.505 3.03 1.505 0 1 C0 0.67 0 0.34 0 0 Z " fill="#5F3A25" transform="translate(3,22)"/>
<path d="M0 0 C0.99 0 1.98 0 3 0 C3 0.66 3 1.32 3 2 C4.32 2 5.64 2 7 2 C7 3.65 7 5.3 7 7 C6.01 7.33 5.02 7.66 4 8 C4.66 8.33 5.32 8.66 6 9 C6 10.98 6 12.96 6 15 C-0.0546875 15.1953125 -0.0546875 15.1953125 -2 15 C-2.66 14.34 -3.32 13.68 -4 13 C-3.195625 12.566875 -2.39125 12.13375 -1.5625 11.6875 C1.27846354 10.19525998 1.27846354 10.19525998 2 7 C0.02 7.99 0.02 7.99 -2 9 C-2.25 3.375 -2.25 3.375 0 0 Z " fill="#936722" transform="translate(34,48)"/>
<path d="M0 0 C0 0.66 0 1.32 0 2 C0.66 2 1.32 2 2 2 C2.66 1.34 3.32 0.68 4 0 C4.66 2.31 5.32 4.62 6 7 C3.69 6.67 1.38 6.34 -1 6 C-1 6.66 -1 7.32 -1 8 C2.3 8.33 5.6 8.66 9 9 C8.01 9.495 8.01 9.495 7 10 C7 10.66 7 11.32 7 12 C5.68 12 4.36 12 3 12 C3 11.34 3 10.68 3 10 C2.01 10 1.02 10 0 10 C-0.33 11.32 -0.66 12.64 -1 14 C-3.5 12.1875 -3.5 12.1875 -6 10 C-6 9.01 -6 8.02 -6 7 C-4.68 7 -3.36 7 -2 7 C-1.67 5.02 -1.34 3.04 -1 1 C-3.49552484 1.78130071 -3.49552484 1.78130071 -6 3 C-6.33 3.99 -6.66 4.98 -7 6 C-7.33 5.01 -7.66 4.02 -8 3 C-4.93882432 0.37613513 -4.26826873 0 0 0 Z " fill="#7A4B19" transform="translate(34,38)"/>
<path d="M0 0 C3.96 0 7.92 0 12 0 C12 0.33 12 0.66 12 1 C8.7 1 5.4 1 2 1 C2.33 4.3 2.66 7.6 3 11 C5.97 11.33 8.94 11.66 12 12 C12 11.01 12 10.02 12 9 C12.66 9 13.32 9 14 9 C14 10.98 14 12.96 14 15 C14.66 15.33 15.32 15.66 16 16 C10.48190035 16.19361753 6.22197736 15.81170643 1 14 C0 13 0 13 -0.09765625 10.05859375 C-0.08605469 8.86363281 -0.07445312 7.66867188 -0.0625 6.4375 C-0.05347656 5.23996094 -0.04445312 4.04242188 -0.03515625 2.80859375 C-0.02355469 1.88175781 -0.01195312 0.95492188 0 0 Z " fill="#825821" transform="translate(42,15)"/>
<path d="M0 0 C2.64 0.33 5.28 0.66 8 1 C8 4.3 8 7.6 8 11 C1.125 10.125 1.125 10.125 0 9 C-0.07179964 7.48071962 -0.08392007 5.95832518 -0.0625 4.4375 C-0.05347656 3.61121094 -0.04445312 2.78492188 -0.03515625 1.93359375 C-0.02355469 1.29550781 -0.01195313 0.65742187 0 0 Z " fill="#8E5A36" transform="translate(1,2)"/>
<path d="M0 0 C17.03032131 -0.10689174 33.9975156 -0.13215116 51 1 C51 1.66 51 2.32 51 3 C25.0298471 2.0125055 25.0298471 2.0125055 14 1 C14 1.66 14 2.32 14 3 C14.99 3.33 15.98 3.66 17 4 C14.36 4 11.72 4 9 4 C9 3.34 9 2.68 9 2 C6.03 1.67 3.06 1.34 0 1 C0 0.67 0 0.34 0 0 Z " fill="#815031" transform="translate(4,0)"/>
<path d="M0 0 C2.64 0.33 5.28 0.66 8 1 C8 3.64 8 6.28 8 9 C5.66705225 9.04241723 3.33297433 9.04092937 1 9 C0 8 0 8 -0.09765625 6.15234375 C-0.06510417 4.1015625 -0.03255208 2.05078125 0 0 Z " fill="#8B5837" transform="translate(2,80)"/>
<path d="M0 0 C2.31 0 4.62 0 7 0 C7.33 1.32 7.66 2.64 8 4 C6.68 4 5.36 4 4 4 C4.99 4.928125 4.99 4.928125 6 5.875 C8 8 8 8 8 10 C5.36 9.67 2.72 9.34 0 9 C0 6.03 0 3.06 0 0 Z " fill="#684C3D" transform="translate(46,76)"/>
<path d="M0 0 C0.66 0 1.32 0 2 0 C1.67 1.98 1.34 3.96 1 6 C-0.32 6 -1.64 6 -3 6 C-3 6.99 -3 7.98 -3 9 C-2.01 9.33 -1.02 9.66 0 10 C-0.99 10.495 -0.99 10.495 -2 11 C-2.65772428 14.02934491 -2.65772428 14.02934491 -3 17 C-5 14 -5 14 -5.5 11.375 C-5.665 10.59125 -5.83 9.8075 -6 9 C-6.66 8.67 -7.32 8.34 -8 8 C-7.67 7.01 -7.34 6.02 -7 5 C-6.01 4.67 -5.02 4.34 -4 4 C-3.319375 3.319375 -2.63875 2.63875 -1.9375 1.9375 C-1.298125 1.298125 -0.65875 0.65875 0 0 Z " fill="#936530" transform="translate(31,39)"/>
<path d="M0 0 C0.66 0 1.32 0 2 0 C3.25 6.625 3.25 6.625 1 10 C-1.97 9.67 -4.94 9.34 -8 9 C-6.68 8.34 -5.36 7.68 -4 7 C-4.33 5.35 -4.66 3.7 -5 2 C-3.68 2 -2.36 2 -1 2 C-0.67 1.34 -0.34 0.68 0 0 Z " fill="#27150B" transform="translate(76,82)"/>
<path d="M0 0 C0.33 0.66 0.66 1.32 1 2 C3.8159849 2.46898963 3.8159849 2.46898963 7.0625 2.625 C8.71958984 2.73714844 8.71958984 2.73714844 10.41015625 2.8515625 C11.26480469 2.90054687 12.11945313 2.94953125 13 3 C13 3.33 13 3.66 13 4 C4.42 4 -4.16 4 -13 4 C-12.67 3.34 -12.34 2.68 -12 2 C-8.04 2 -4.08 2 0 2 C0 1.34 0 0.68 0 0 Z " fill="#A47557" transform="translate(55,1)"/>
<path d="M0 0 C1.32 0 2.64 0 4 0 C4 3.63 4 7.26 4 11 C2.68 11 1.36 11 0 11 C0 7.37 0 3.74 0 0 Z " fill="#694D41" transform="translate(58,77)"/>
<path d="M0 0 C1.32 0.33 2.64 0.66 4 1 C4.125 7.75 4.125 7.75 3 10 C4.32 10.33 5.64 10.66 7 11 C4.69 11 2.38 11 0 11 C0 7.37 0 3.74 0 0 Z " fill="#8F5E40" transform="translate(11,3)"/>
<path d="M0 0 C13.6332574 -0.18451025 13.6332574 -0.18451025 20 1 C19.67 1.66 19.34 2.32 19 3 C12.56744599 3.12086218 6.38226945 2.82351864 0 2 C0 1.34 0 0.68 0 0 Z " fill="#A17158" transform="translate(18,1)"/>
<path d="M0 0 C0.33 0.99 0.66 1.98 1 3 C1.99 3.33 2.98 3.66 4 4 C5.25 11.625 5.25 11.625 3 15 C-0.77755334 10.27805833 -0.30096975 5.74071928 0 0 Z " fill="#7D4E1C" transform="translate(22,44)"/>
<path d="M0 0 C3.96 0 7.92 0 12 0 C12.33 0.66 12.66 1.32 13 2 C12.01 2 11.02 2 10 2 C10 5.3 10 8.6 10 12 C9.34 12 8.68 12 8 12 C8 8.7 8 5.4 8 2 C5.36 1.67 2.72 1.34 0 1 C0 0.67 0 0.34 0 0 Z " fill="#64391F" transform="translate(1,1)"/>
<path d="M0 0 C3.96 0.33 7.92 0.66 12 1 C12 1.33 12 1.66 12 2 C9.69 2 7.38 2 5 2 C5 4.31 5 6.62 5 9 C5.66 9.33 6.32 9.66 7 10 C4.36 10 1.72 10 -1 10 C0.32 9.67 1.64 9.34 3 9 C3 6.36 3 3.72 3 1 C2.01 0.67 1.02 0.34 0 0 Z " fill="#5F3924" transform="translate(7,80)"/>
<path d="M0 0 C1.32 0.33 2.64 0.66 4 1 C4 3.97 4 6.94 4 10 C2.68 10 1.36 10 0 10 C0 6.7 0 3.4 0 0 Z " fill="#6F564C" transform="translate(58,16)"/>
<path d="M0 0 C1.125 1.5625 1.125 1.5625 2 4 C1.125 7.75 1.125 7.75 0 11 C-0.99 10.67 -1.98 10.34 -3 10 C-3.75 7.25 -3.75 7.25 -4 4 C-2.0625 1.625 -2.0625 1.625 0 0 Z " fill="#885A1E" transform="translate(46,49)"/>
<path d="M0 0 C0 1.32 0 2.64 0 4 C-4.07142857 7 -4.07142857 7 -7 7 C-7.1875 4.625 -7.1875 4.625 -7 2 C-4 0 -4 0 0 0 Z " fill="#372918" transform="translate(72,85)"/>
<path d="M0 0 C0 0.99 0 1.98 0 3 C-0.99 3.495 -0.99 3.495 -2 4 C-2 5.98 -2 7.96 -2 10 C-2.99 10.33 -3.98 10.66 -5 11 C-5 10.01 -5 9.02 -5 8 C-5.99 7.67 -6.98 7.34 -8 7 C-7.67 6.34 -7.34 5.68 -7 5 C-6.34 5 -5.68 5 -5 5 C-4.67 3.68 -4.34 2.36 -4 1 C-2.68 0.67 -1.36 0.34 0 0 Z " fill="#7A4A18" transform="translate(45,49)"/>
<path d="M0 0 C0.66 0 1.32 0 2 0 C2 4.95 2 9.9 2 15 C1.34 15 0.68 15 0 15 C-0.75612577 9.76528314 -1.2063366 5.22745859 0 0 Z " fill="#442612" transform="translate(56,15)"/>
<path d="M0 0 C1.75 1.375 1.75 1.375 2.75 4.375 C-3.3046875 4.5703125 -3.3046875 4.5703125 -5.25 4.375 C-5.91 3.715 -6.57 3.055 -7.25 2.375 C-2.86111111 -0.79475309 -2.86111111 -0.79475309 0 0 Z " fill="#9F6D3E" transform="translate(37.25,58.625)"/>
<path d="M0 0 C0.99 0 1.98 0 3 0 C3 3.3 3 6.6 3 10 C2.01 10 1.02 10 0 10 C0 6.7 0 3.4 0 0 Z " fill="#956549" transform="translate(6,3)"/>
<path d="M0 0 C0.66 0.66 1.32 1.32 2 2 C2.99 2 3.98 2 5 2 C4.75 3.875 4.75 3.875 4 6 C1.9375 7.25 1.9375 7.25 0 8 C-1.125 2.25 -1.125 2.25 0 0 Z " fill="#784916" transform="translate(31,53)"/>
<path d="M0 0 C0.66 0 1.32 0 2 0 C1.67 1.65 1.34 3.3 1 5 C-3.54805635 5.17835515 -6.8794254 4.99785435 -11 3 C-8.47946405 1.73973202 -7.1457902 2.08125555 -4.375 2.4375 C-3.14910156 2.59025391 -3.14910156 2.59025391 -1.8984375 2.74609375 C-1.27195312 2.82988281 -0.64546875 2.91367187 0 3 C0 2.01 0 1.02 0 0 Z " fill="#A47B2E" transform="translate(54,24)"/>
<path d="M0 0 C0.66 0 1.32 0 2 0 C1.67 1.98 1.34 3.96 1 6 C-1.31 6 -3.62 6 -6 6 C-4 4 -2 2 0 0 Z " fill="#9C6A3E" transform="translate(31,39)"/>
<path d="M0 0 C2.3828125 0.2421875 2.3828125 0.2421875 5.125 0.875 C6.03507812 1.07867187 6.94515625 1.28234375 7.8828125 1.4921875 C8.58148438 1.65976562 9.28015625 1.82734375 10 2 C9.01 2.33 8.02 2.66 7 3 C6.67 3.99 6.34 4.98 6 6 C5.34 5.67 4.68 5.34 4 5 C4 4.01 4 3.02 4 2 C2.02 2 0.04 2 -2 2 C-1.34 1.34 -0.68 0.68 0 0 Z " fill="#956924" transform="translate(30,35)"/>
<path d="M0 0 C2.62187494 1.04874998 3.79371361 1.64931313 5.25 4.125 C5.4975 4.74375 5.745 5.3625 6 6 C3.69 6 1.38 6 -1 6 C-0.34 5.67 0.32 5.34 1 5 C0.67 3.35 0.34 1.7 0 0 Z " fill="#A16F44" transform="translate(39,40)"/>
<path d="M0 0 C0.99 0 1.98 0 3 0 C3.33 1.65 3.66 3.3 4 5 C0.25 6.125 0.25 6.125 -2 5 C-1.34 3.35 -0.68 1.7 0 0 Z " fill="#9C6A41" transform="translate(34,48)"/>
<path d="M0 0 C3.63 0.66 7.26 1.32 11 2 C11 2.33 11 2.66 11 3 C7.7 3.33 4.4 3.66 1 4 C0.67 2.68 0.34 1.36 0 0 Z " fill="#986F2A" transform="translate(43,85)"/>
<path d="M0 0 C1.74627478 2.61941217 2.38722388 4.03824877 3 7 C0.03 6.505 0.03 6.505 -3 6 C-3 5.01 -3 4.02 -3 3 C-2.01 3 -1.02 3 0 3 C0 2.01 0 1.02 0 0 Z " fill="#754215" transform="translate(37,38)"/>
<path d="M0 0 C3.96 0 7.92 0 12 0 C12.33 0.99 12.66 1.98 13 3 C8.71 2.34 4.42 1.68 0 1 C0 0.67 0 0.34 0 0 Z " fill="#74482A" transform="translate(4,0)"/>
<path d="M0 0 C1.04449911 3.13349732 0.93423645 3.98968256 0 7 C-0.66 7 -1.32 7 -2 7 C-2.33 5.35 -2.66 3.7 -3 2 C-2.01 1.34 -1.02 0.68 0 0 Z " fill="#936043" transform="translate(45,51)"/>
</svg>
