<?xml version="1.0" encoding="UTF-8"?>
<svg version="1.1" xmlns="http://www.w3.org/2000/svg" width="160" height="160">
<path d="M0 0 C0.75732422 0.04833984 1.51464844 0.09667969 2.29492188 0.14648438 C3.08060547 0.20255859 3.86628906 0.25863281 4.67578125 0.31640625 C5.47306641 0.36861328 6.27035156 0.42082031 7.09179688 0.47460938 C9.05764647 0.60409647 11.0230179 0.74080666 12.98828125 0.87890625 C12.63671875 2.80078125 12.63671875 2.80078125 11.98828125 4.87890625 C9.09716337 6.40054724 7.27004713 6.87890625 3.98828125 6.87890625 C3.98828125 7.53890625 3.98828125 8.19890625 3.98828125 8.87890625 C4.72175781 9.14703125 5.45523438 9.41515625 6.2109375 9.69140625 C14.58515553 13.27194392 20.40094211 19.56778084 23.98828125 27.87890625 C24.41220766 31.27031757 24.49303213 32.8694045 22.98828125 35.87890625 C22.94225344 38.38742206 22.94142557 40.87212748 22.98828125 43.37890625 C23.12341639 50.60863598 23.12341639 50.60863598 21.98828125 52.87890625 C21.72875575 57.46385675 22.02803875 60.7278045 23.98828125 64.87890625 C24.31828125 65.86890625 24.64828125 66.85890625 24.98828125 67.87890625 C25.86613281 67.97429687 26.74398437 68.0696875 27.6484375 68.16796875 C31.29051633 68.94324167 33.37504465 70.15514116 36.42578125 72.25390625 C39.59611066 74.37322604 42.54990234 76.26233207 46.11328125 77.62890625 C47.06203125 78.04140625 48.01078125 78.45390625 48.98828125 78.87890625 C50.14603185 82.35215806 50.05694777 85.23958073 49.98828125 88.87890625 C48.99828125 88.87890625 48.00828125 88.87890625 46.98828125 88.87890625 C47.97828125 90.36390625 47.97828125 90.36390625 48.98828125 91.87890625 C46.7285863 96.47786287 44.20834157 98.33175729 39.73828125 100.75390625 C38.64 101.37007813 37.54171875 101.98625 36.41015625 102.62109375 C30.37489471 104.83953464 24.89155465 102.68603076 18.98828125 100.87890625 C19.64828125 102.52890625 20.30828125 104.17890625 20.98828125 105.87890625 C11.03057092 106.25545832 1.54925328 106.08790653 -8.01171875 102.87890625 C-9.04154906 101.9096542 -10.04747638 100.91342868 -11.01171875 99.87890625 C-14.62194974 99.14848772 -14.62194974 99.14848772 -18.01171875 98.87890625 C-18.01171875 99.86890625 -18.01171875 100.85890625 -18.01171875 101.87890625 C-42.52929074 103.98366301 -42.52929074 103.98366301 -53.01171875 96.87890625 C-56.13016327 94.20262924 -57.80680417 91.5177576 -59.07421875 87.56640625 C-58.9900153 82.59840299 -57.76215462 79.01255551 -55.01171875 74.87890625 C-50.55626133 71.16602507 -47.62192514 70.75664037 -41.88671875 70.56640625 C-37.69250001 70.44866639 -37.69250001 70.44866639 -34.234375 68.375 C-32.93027896 66.55277639 -32.93027896 66.55277639 -31.9765625 64.66796875 C-30.89716922 62.66650267 -29.63788492 61.46144358 -28.01171875 59.87890625 C-26.80602278 58.37245761 -25.61943546 56.85057805 -24.44921875 55.31640625 C-22.70539836 53.03256406 -21.04441333 50.91160083 -19.01171875 48.87890625 C-19.01171875 47.80640625 -19.01171875 46.73390625 -19.01171875 45.62890625 C-18.01171875 41.87890625 -18.01171875 41.87890625 -15.8671875 40.2265625 C-14.11980694 39.22111512 -12.34875419 38.25549606 -10.5546875 37.3359375 C-7.89369792 35.81128448 -6.11839425 34.08611724 -4.01171875 31.87890625 C-3.35171875 31.54890625 -2.69171875 31.21890625 -2.01171875 30.87890625 C-3.25411796 26.18539813 -5.78179797 24.10372949 -9.453125 21.2109375 C-11.57359188 19.39870892 -11.96868503 18.25514389 -12.28515625 15.48828125 C-12.59315231 6.81700763 -12.59315231 6.81700763 -9.69921875 3.25390625 C-6.37449377 0.3157772 -4.28115972 -0.28970254 0 0 Z " fill="#030612" transform="translate(84.01171875,21.12109375)"/>
<path d="M0 0 C4.68265761 0.50883504 7.57155809 1.71541152 11.4375 4.375 C14.60782941 6.49431979 17.56162109 8.38342582 21.125 9.75 C22.07375 10.1625 23.0225 10.575 24 11 C25.1577506 14.47325181 25.06866652 17.36067448 25 21 C24.01 21 23.02 21 22 21 C22.99 22.485 22.99 22.485 24 24 C21.74030505 28.59895662 19.22006032 30.45285104 14.75 32.875 C13.10257813 33.79925781 13.10257813 33.79925781 11.421875 34.7421875 C5.38661346 36.96062839 -0.0967266 34.80712451 -6 33 C-5.01 35.475 -5.01 35.475 -4 38 C-13.95771033 38.37655207 -23.43902797 38.20900028 -33 35 C-34.02983031 34.03074795 -35.03575763 33.03452243 -36 32 C-39.61023099 31.26958147 -39.61023099 31.26958147 -43 31 C-43 31.99 -43 32.98 -43 34 C-55.8537466 35.10345388 -66.48229696 35.70120904 -78 29 C-78.33 28.34 -78.66 27.68 -79 27 C-76.85318469 27.47474775 -74.70756772 27.95491749 -72.5625 28.4375 C-71.36753906 28.70433594 -70.17257813 28.97117187 -68.94140625 29.24609375 C-66 30 -66 30 -65 31 C-62.32941149 31.14115161 -59.67567762 31.04247107 -57 31 C-57 30.67 -57 30.34 -57 30 C-55.78441406 29.87882812 -54.56882812 29.75765625 -53.31640625 29.6328125 C-51.73171883 29.46402922 -50.1470861 29.29473184 -48.5625 29.125 C-47.76005859 29.04636719 -46.95761719 28.96773437 -46.13085938 28.88671875 C-44.07829006 28.66154237 -42.03706991 28.33777413 -40 28 C-39.67 27.34 -39.34 26.68 -39 26 C-32.07 26 -25.14 26 -18 26 C-18 25.34 -18 24.68 -18 24 C-17.09121094 23.85304688 -17.09121094 23.85304688 -16.1640625 23.703125 C-9.72341254 22.5537167 -3.98543478 20.62340333 2 18 C3.28021653 12.52998394 2.69989579 9.15084957 0.69140625 3.91796875 C0 2 0 2 0 0 Z " fill="#041E40" transform="translate(109,89)"/>
<path d="M0 0 C0 3 0 3 -2 8 C6.415 9.98 6.415 9.98 15 12 C13.515 21.9 13.515 21.9 12 32 C12.99 32 13.98 32 15 32 C14.67 32.99 14.34 33.98 14 35 C9.38 35.66 4.76 36.32 0 37 C0 37.33 0 37.66 0 38 C-1.74965358 38.05429959 -3.49979787 38.09292823 -5.25 38.125 C-6.22453125 38.14820313 -7.1990625 38.17140625 -8.203125 38.1953125 C-11.08070124 37.99436444 -12.52046932 37.38093945 -15 36 C-16.30307345 35.65026856 -17.61656112 35.33715066 -18.9375 35.0625 C-22.41895013 34.21969084 -25.14941823 33.26369729 -28 31 C-29.70952277 28.12489352 -30.03030759 26.46471635 -29.8125 23.125 C-28.43678382 17.83378391 -27.42344575 14.15087103 -23.0625 10.625 C-19.66909753 8.88126867 -16.65459275 8.80372364 -12.875 8.6875 C-8.64195765 8.57437302 -8.64195765 8.57437302 -5.1875 6.42578125 C-3.68572586 4.29554396 -3.68572586 4.29554396 -2 1 C-1.34 0.67 -0.68 0.34 0 0 Z " fill="#052859" transform="translate(55,83)"/>
<path d="M0 0 C5.06475838 3.37650559 5.68780498 9.27281547 7 15 C7.43182121 18.14149932 7.29234223 18.96299576 6 22 C3.51161307 23.85893681 0.90268489 24.93425407 -2 26 C-3.010625 26.4125 -4.02125 26.825 -5.0625 27.25 C-8 28 -8 28 -15 28 C-15.99 22.06 -16.98 16.12 -18 10 C-13.1171875 9.31640625 -13.1171875 9.31640625 -8.234375 8.6328125 C-5.39116733 8.07653274 -3.36985896 7.64067159 -1 6 C-0.18415432 2.94091587 -0.18415432 2.94091587 0 0 Z " fill="#300BAB" transform="translate(106,85)"/>
<path d="M0 0 C0 3 0 3 -2 8 C6.415 9.98 6.415 9.98 15 12 C14.01 17.94 13.02 23.88 12 30 C-2.54609929 27.92198582 -2.54609929 27.92198582 -6.5625 25.375 C-8.63803904 21.94584855 -8.34719762 18.848107 -8 15 C-7.938125 13.824375 -7.87625 12.64875 -7.8125 11.4375 C-6.80426205 7.17187791 -4.93025674 4.23149809 -2 1 C-1.34 0.67 -0.68 0.34 0 0 Z " fill="#4710CE" transform="translate(55,83)"/>
<path d="M0 0 C2.475 0.495 2.475 0.495 5 1 C5.3125 3.125 5.3125 3.125 5 6 C2.875 8.8125 2.875 8.8125 1.5 10.31640625 C-0.72733526 12.81635806 -2.62075975 15.54678927 -4.5703125 18.265625 C-6 20 -6 20 -9 22 C-9.33 21.01 -9.66 20.02 -10 19 C-10.66 19.33 -11.32 19.66 -12 20 C-12.15448274 22.16275842 -12.22220397 24.33190953 -12.25 26.5 C-12.57672491 32.78464965 -13.77583159 36.37355275 -17.72265625 41.23046875 C-19.29264724 43.0416779 -19.29264724 43.0416779 -19 46 C-21.97 45.01 -24.94 44.02 -28 43 C-27.14455175 36.15641396 -23.97424937 30.87684841 -19.3125 25.9375 C-16.32972854 22.76058968 -16.32972854 22.76058968 -15.6875 18.375 C-15 15 -15 15 -12.875 13.37109375 C-11.12287153 12.35496111 -9.34545056 11.38090302 -7.54296875 10.45703125 C-4.88197917 8.93237823 -3.1066755 7.20721099 -1 5 C-0.34 4.67 0.32 4.34 1 4 C0.67 2.68 0.34 1.36 0 0 Z " fill="#041841" transform="translate(81,48)"/>
<path d="M0 0 C0.75732422 0.04833984 1.51464844 0.09667969 2.29492188 0.14648438 C3.08060547 0.20255859 3.86628906 0.25863281 4.67578125 0.31640625 C5.47306641 0.36861328 6.27035156 0.42082031 7.09179688 0.47460938 C9.05764647 0.60409647 11.0230179 0.74080666 12.98828125 0.87890625 C12.63671875 2.80078125 12.63671875 2.80078125 11.98828125 4.87890625 C9.09716337 6.40054724 7.27004713 6.87890625 3.98828125 6.87890625 C3.98828125 7.53890625 3.98828125 8.19890625 3.98828125 8.87890625 C4.71402344 9.13800781 5.43976563 9.39710937 6.1875 9.6640625 C9.09144074 10.92365186 11.29867108 12.38691831 13.80078125 14.31640625 C14.59097656 14.91324219 15.38117188 15.51007812 16.1953125 16.125 C16.78699219 16.70378906 17.37867187 17.28257813 17.98828125 17.87890625 C17.98828125 18.86890625 17.98828125 19.85890625 17.98828125 20.87890625 C17.59898438 20.48058594 17.2096875 20.08226563 16.80859375 19.671875 C11.99373824 15.11218464 7.40238902 13.35015029 0.98828125 11.87890625 C0.55644531 12.34296875 0.12460938 12.80703125 -0.3203125 13.28515625 C-2.01171875 14.87890625 -2.01171875 14.87890625 -5.07421875 16.37890625 C-8.24197624 17.6947988 -8.24197624 17.6947988 -10.01171875 20.87890625 C-12.98584837 16.41771182 -12.75772796 12.1084308 -12.01171875 6.87890625 C-9.39370625 1.67308909 -5.73662956 -0.38819298 0 0 Z " fill="#042249" transform="translate(84.01171875,21.12109375)"/>
<path d="M0 0 C2.06520348 2.06520348 1.7328598 6.20496813 2.0625 9.0625 C2.5265625 12.9915625 2.5265625 12.9915625 3 17 C-3.27 17 -9.54 17 -16 17 C-16 11.48261078 -15.87401535 7.24409211 -15 2 C-9.76465209 0.25488403 -5.52479577 -0.2857653 0 0 Z " fill="#480D74" transform="translate(86,96)"/>
<path d="M0 0 C1.77394513 4.62956411 2.39577827 8.96357144 2.625 13.875 C2.74875 16.22625 2.8725 18.5775 3 21 C-4.92 21 -12.84 21 -21 21 C-20.14285714 7.14285714 -20.14285714 7.14285714 -18 1 C-12.03325384 -0.32594359 -6.07416385 -0.0884587 0 0 Z M-17 4 C-17.165 4.99 -17.33 5.98 -17.5 7 C-17.5928125 7.556875 -17.685625 8.11375 -17.78125 8.6875 C-18.1050466 12.11049267 -18 15.56172673 -18 19 C-11.73 19 -5.46 19 1 19 C0.690625 16.380625 0.38125 13.76125 0.0625 11.0625 C-0.03281006 10.2362915 -0.12812012 9.41008301 -0.22631836 8.55883789 C-0.37122407 4.97752779 -0.37122407 4.97752779 -2 2 C-7.52479577 1.7142347 -11.76465209 2.25488403 -17 4 Z " fill="#A78716" transform="translate(88,94)"/>
<path d="M0 0 C0 0.99 0 1.98 0 3 C-0.66 3 -1.32 3 -2 3 C-2.0928125 3.804375 -2.0928125 3.804375 -2.1875 4.625 C-3.37061038 8.08332265 -5.13769697 10.75601 -8 13 C-10.76977607 13.79502832 -13.08527369 13.90119572 -16 14 C-15.96519531 14.73605469 -15.93039063 15.47210938 -15.89453125 16.23046875 C-15.61345496 26.36259977 -15.61345496 26.36259977 -19 30 C-19.99 30 -20.98 30 -22 30 C-22.226875 30.721875 -22.45375 31.44375 -22.6875 32.1875 C-24.24831013 35.53209313 -26.3031287 37.51603959 -29 40 C-29.625 38.125 -29.625 38.125 -30 36 C-29.34 35.34 -28.68 34.68 -28 34 C-27.4121875 32.453125 -27.4121875 32.453125 -26.8125 30.875 C-25.51205517 27.62725694 -23.78028446 25.52825401 -21.375 23 C-18.35195654 19.79276562 -18.35195654 19.79276562 -17.6875 15.375 C-17 12 -17 12 -14.875 10.37109375 C-13.12287153 9.35496111 -11.34545056 8.38090302 -9.54296875 7.45703125 C-6.87386057 5.92772656 -5.11543254 4.21299966 -3 2 C-2.01 1.34 -1.02 0.68 0 0 Z " fill="#053C74" transform="translate(83,51)"/>
<path d="M0 0 C2.14681531 0.47474775 4.29243228 0.95491749 6.4375 1.4375 C7.63246094 1.70433594 8.82742187 1.97117187 10.05859375 2.24609375 C13 3 13 3 14 4 C16.67058851 4.14115161 19.32432238 4.04247107 22 4 C22 3.67 22 3.34 22 3 C39.6081977 0.94142156 39.6081977 0.94142156 45 4 C41.93109813 5.53445094 39.29905734 4.54984289 36 4 C36 4.99 36 5.98 36 7 C23.1462534 8.10345388 12.51770304 8.70120904 1 2 C0.67 1.34 0.34 0.68 0 0 Z " fill="#020D1C" transform="translate(30,116)"/>
<path d="M0 0 C4.73580884 0.50990272 7.69584353 1.77563484 11.625 4.4375 C14.68950938 6.49338235 17.65336592 8.43666624 21 10 C18.59454362 11.20272819 17.05003047 11.10071472 14.375 11.0625 C13.14910156 11.04896484 13.14910156 11.04896484 11.8984375 11.03515625 C10.95871094 11.01775391 10.95871094 11.01775391 10 11 C11.32 10.67 12.64 10.34 14 10 C14 9.34 14 8.68 14 8 C11.03 8 8.06 8 5 8 C5 8.99 5 9.98 5 11 C4.34 11 3.68 11 3 11 C2.49632243 9.54293274 1.99717444 8.08429904 1.5 6.625 C1.2215625 5.81289062 0.943125 5.00078125 0.65625 4.1640625 C0 2 0 2 0 0 Z " fill="#033364" transform="translate(109,89)"/>
<path d="M0 0 C0 0.99 0 1.98 0 3 C-0.95712891 3.09087891 -0.95712891 3.09087891 -1.93359375 3.18359375 C-2.75988281 3.26738281 -3.58617188 3.35117188 -4.4375 3.4375 C-5.67306641 3.55931641 -5.67306641 3.55931641 -6.93359375 3.68359375 C-8.98662025 3.78930815 -8.98662025 3.78930815 -10 5 C-11.51469448 5.23192865 -13.03754562 5.41215238 -14.5625 5.5625 C-15.38878906 5.64628906 -16.21507812 5.73007813 -17.06640625 5.81640625 C-18.02353516 5.90728516 -18.02353516 5.90728516 -19 6 C-19.268125 7.258125 -19.53625 8.51625 -19.8125 9.8125 C-20.59532537 12.99448801 -21.25335928 15.00244311 -24 17 C-23.2375531 10.74793545 -22.06056704 5.74700249 -17.125 1.5625 C-11.86018637 -1.10970562 -5.72959149 -0.31017337 0 0 Z " fill="#043E79" transform="translate(49,92)"/>
<path d="M0 0 C0.33 1.98 0.66 3.96 1 6 C0.34 6 -0.32 6 -1 6 C-1.33 5.01 -1.66 4.02 -2 3 C-3.19625 2.979375 -4.3925 2.95875 -5.625 2.9375 C-6.29789063 2.92589844 -6.97078125 2.91429688 -7.6640625 2.90234375 C-10.46424833 3.01940837 -13.23550106 3.53925018 -16 4 C-16.99 8.95 -17.98 13.9 -19 19 C-19.33 19 -19.66 19 -20 19 C-20.20852314 12.59370576 -20.1583195 7.07027358 -18 1 C-12.03325384 -0.32594359 -6.07416385 -0.0884587 0 0 Z " fill="#CAB716" transform="translate(88,94)"/>
<path d="M0 0 C1.1577506 3.47325181 1.06866652 6.36067448 1 10 C-1.64 9.67 -4.28 9.34 -7 9 C-6.690625 8.4225 -6.38125 7.845 -6.0625 7.25 C-5.07416636 5.15705816 -4.4831387 3.25464725 -4 1 C-4.84304687 1.24556641 -4.84304687 1.24556641 -5.703125 1.49609375 C-8.13059056 2.02864997 -10.26889681 2.09898681 -12.75 2.0625 C-13.54921875 2.05347656 -14.3484375 2.04445313 -15.171875 2.03515625 C-15.77515625 2.02355469 -16.3784375 2.01195313 -17 2 C-11.59437651 -0.94961638 -5.92689108 -1.66693812 0 0 Z " fill="#02142A" transform="translate(133,100)"/>
<path d="M0 0 C-1.50687673 4.32867137 -4.27672797 5.67485131 -8.1875 7.8125 C-9.29480469 8.43769531 -10.40210938 9.06289062 -11.54296875 9.70703125 C-15.59238671 11.22155932 -17.8260073 10.92318897 -22 10 C-23.299375 9.814375 -24.59875 9.62875 -25.9375 9.4375 C-26.948125 9.293125 -27.95875 9.14875 -29 9 C-29 8.01 -29 7.02 -29 6 C-27.74896484 6.16048828 -27.74896484 6.16048828 -26.47265625 6.32421875 C-17.73396063 7.25514509 -11.25268465 7.16689282 -4.0625 1.8125 C-2 0 -2 0 0 0 Z " fill="#010810" transform="translate(132,114)"/>
<path d="M0 0 C0 3.20395416 -0.74335022 5.09399739 -2 8 C-0.02 8.66 1.96 9.32 4 10 C4 10.33 4 10.66 4 11 C2.906875 11.20625 1.81375 11.4125 0.6875 11.625 C-3.22165899 12.64275344 -3.22165899 12.64275344 -4.8125 16.0625 C-5.4003125 17.5165625 -5.4003125 17.5165625 -6 19 C-6.66 19.33 -7.32 19.66 -8 20 C-7.85754504 12.11317537 -7.40995102 6.93775112 -2 1 C-1.34 0.67 -0.68 0.34 0 0 Z " fill="#4B49EA" transform="translate(55,83)"/>
<path d="M0 0 C3.40510274 3.09554795 4.90814344 5.46905739 5.1875 10.125 C5 13 5 13 4 15 C3.92934383 17.04055005 3.91578024 19.08334257 3.9375 21.125 C3.95103516 22.76855469 3.95103516 22.76855469 3.96484375 24.4453125 C3.97644531 25.28835937 3.98804687 26.13140625 4 27 C1.525 26.01 1.525 26.01 -1 25 C-1 22.69 -1 20.38 -1 18 C-0.34 17.67 0.32 17.34 1 17 C1.68931344 14.65092125 1.68931344 14.65092125 2.125 11.9375 C2.29257813 11.01839844 2.46015625 10.09929688 2.6328125 9.15234375 C2.75398438 8.44207031 2.87515625 7.73179688 3 7 C2.34 7 1.68 7 1 7 C0.67 4.69 0.34 2.38 0 0 Z " fill="#022750" transform="translate(103,42)"/>
<path d="M0 0 C0.99250545 5.70690634 1.10477512 11.21408489 1 17 C0.01 17.33 -0.98 17.66 -2 18 C-2.8723412 15.00519083 -3.10829766 12.36424089 -3.0625 9.25 C-3.05347656 8.45078125 -3.04445313 7.6515625 -3.03515625 6.828125 C-3.02355469 6.22484375 -3.01195313 5.6215625 -3 5 C-3.66 5 -4.32 5 -5 5 C-4.6875 3.0625 -4.6875 3.0625 -4 1 C-1 0 -1 0 0 0 Z " fill="#021B3B" transform="translate(105,74)"/>
<path d="M0 0 C-3.48498344 3.62781063 -5.63343276 5.33147789 -10.7421875 5.48828125 C-12.45381155 5.4553654 -14.16510644 5.39619208 -15.875 5.3125 C-16.75414063 5.28994141 -17.63328125 5.26738281 -18.5390625 5.24414062 C-20.69345007 5.18559748 -22.8469531 5.09592783 -25 5 C-25 4.67 -25 4.34 -25 4 C-22.36 4 -19.72 4 -17 4 C-17 3.34 -17 2.68 -17 2 C-16.31292969 1.86722656 -15.62585938 1.73445313 -14.91796875 1.59765625 C-13.56638672 1.33275391 -13.56638672 1.33275391 -12.1875 1.0625 C-10.84751953 0.80146484 -10.84751953 0.80146484 -9.48046875 0.53515625 C-2.87066474 -0.89089595 -2.87066474 -0.89089595 0 0 Z " fill="#0E112A" transform="translate(108,111)"/>
<path d="M0 0 C5.94768014 0.48087627 11.69151711 1.28413359 17.52734375 2.5234375 C21.332929 3.25689943 25.1437861 3.62681801 29 4 C29 4.33 29 4.66 29 5 C18.75343542 5.38747513 9.96856181 4.58045976 0 2 C0 1.34 0 0.68 0 0 Z " fill="#020409" transform="translate(76,122)"/>
<path d="M0 0 C3.75234052 2.50156035 3.92967455 4.05709821 5.1875 8.3125 C5.70376953 10.00826172 5.70376953 10.00826172 6.23046875 11.73828125 C6.9178627 14.65185459 7.16168974 17.02825417 7 20 C6.34 20.33 5.68 20.66 5 21 C3.32889958 18.03821227 2.67317248 15.62928808 2.375 12.25 C2.30023438 11.45078125 2.22546875 10.6515625 2.1484375 9.828125 C2.07496094 8.92320313 2.07496094 8.92320313 2 8 C1.01 8 0.02 8 -1 8 C-0.67 5.36 -0.34 2.72 0 0 Z " fill="#2429D2" transform="translate(106,85)"/>
<path d="M0 0 C0.66 1.32 1.32 2.64 2 4 C1.34 4.66 0.68 5.32 0 6 C-0.99 6 -1.98 6 -3 6 C-3.226875 6.721875 -3.45375 7.44375 -3.6875 8.1875 C-5.24831013 11.53209313 -7.3031287 13.51603959 -10 16 C-10.8125 14.3125 -10.8125 14.3125 -11 12 C-8.9375 9.6875 -8.9375 9.6875 -6 7 C-3.95392115 4.70533214 -1.97544904 2.35560418 0 0 Z " fill="#062865" transform="translate(64,75)"/>
<path d="M0 0 C0 0.99 0 1.98 0 3 C-1.24420647 3.5345256 -2.49570936 4.05208611 -3.75 4.5625 C-4.44609375 4.85253906 -5.1421875 5.14257812 -5.859375 5.44140625 C-8.30012784 6.07831803 -9.6403655 5.80248831 -12 5 C-12.33 3.68 -12.66 2.36 -13 1 C-11.58366664 0.83052421 -10.16691467 0.66454493 -8.75 0.5 C-7.56664063 0.36078125 -7.56664063 0.36078125 -6.359375 0.21875 C-4 0 -4 0 0 0 Z " fill="#020510" transform="translate(96,23)"/>
<path d="M0 0 C5.56890517 0.47986031 10.67067568 1.29915181 16 3 C15.67 3.66 15.34 4.32 15 5 C4.8719787 5.6286358 4.8719787 5.6286358 1.3125 3.0625 C0 1 0 1 0 0 Z " fill="#081A47" transform="translate(51,110)"/>
<path d="M0 0 C0.66 0.33 1.32 0.66 2 1 C0.35 2.65 -1.3 4.3 -3 6 C-2.46375 6.268125 -1.9275 6.53625 -1.375 6.8125 C-0.59125 7.204375 0.1925 7.59625 1 8 C2.010625 8.45375 3.02125 8.9075 4.0625 9.375 C6.97426679 10.9857646 8.27004132 12.21284434 10 15 C9.01 15.66 8.02 16.32 7 17 C7 15.68 7 14.36 7 13 C6.29875 12.938125 5.5975 12.87625 4.875 12.8125 C0.9667267 11.70798798 -1.00357248 9.71769008 -4 7 C-3.6875 4.625 -3.6875 4.625 -3 2 C-2.01 1.34 -1.02 0.68 0 0 Z " fill="#020F2A" transform="translate(79,36)"/>
<path d="M0 0 C0.33 0 0.66 0 1 0 C1.28571429 7.42857143 1.28571429 7.42857143 -1 11 C-1.66 11 -2.32 11 -3 11 C-2.67 13.64 -2.34 16.28 -2 19 C-2.99 19 -3.98 19 -5 19 C-5.23339636 15.9658473 -5.35277375 13.02753589 -5 10 C-3.0625 7.8125 -3.0625 7.8125 -1 6 C-0.19684346 2.85518209 -0.19684346 2.85518209 0 0 Z " fill="#010F24" transform="translate(105,49)"/>
<path d="M0 0 C0.33 0 0.66 0 1 0 C1.78810498 6.17348902 0.01952908 9.0759939 -3.6875 13.984375 C-5.27283659 16.01811805 -5.27283659 16.01811805 -5 19 C-5.99 18.67 -6.98 18.34 -8 18 C-7.21388883 13.66656215 -4.91308608 10.82457812 -2.375 7.31640625 C-0.90726674 4.84377607 -0.39922698 2.82952121 0 0 Z " fill="#050F32" transform="translate(67,75)"/>
<path d="M0 0 C0.33 0 0.66 0 1 0 C0.67 3.63 0.34 7.26 0 11 C-6.625 10.25 -6.625 10.25 -10 8 C-8.02 8 -6.04 8 -4 8 C-2.68 5.36 -1.36 2.72 0 0 Z " fill="#4C09AD" transform="translate(67,102)"/>
<path d="M0 0 C0.66 0.33 1.32 0.66 2 1 C2.99 0.814375 3.98 0.62875 5 0.4375 C6.485 0.2209375 6.485 0.2209375 8 0 C8.66 0.66 9.32 1.32 10 2 C8.3603125 2.309375 8.3603125 2.309375 6.6875 2.625 C2.77834101 3.64275344 2.77834101 3.64275344 1.1875 7.0625 C0.5996875 8.5165625 0.5996875 8.5165625 0 10 C-0.99 10.495 -0.99 10.495 -2 11 C-1.125 3.375 -1.125 3.375 0 0 Z " fill="#372DE0" transform="translate(49,92)"/>
<path d="M0 0 C0 3 0 3 -1.37109375 4.4296875 C-2.17740234 5.20699219 -2.17740234 5.20699219 -3 6 C-4.12551673 8.0010248 -4.12551673 8.0010248 -5.0625 10.125 C-6.77935943 13.88967972 -6.77935943 13.88967972 -9 15 C-9 8.25257773 -4.42228951 4.53309859 0 0 Z " fill="#04408A" transform="translate(65,70)"/>
<path d="M0 0 C0.7528125 -0.00515625 1.505625 -0.0103125 2.28125 -0.015625 C4.7296721 0.27749596 6.37304054 1.03183231 8.5 2.25 C3.59873048 4.70063476 -3.25242023 3.12459663 -8.5 2.25 C-5.54497399 0.55757601 -3.40004978 -0.02328801 0 0 Z " fill="#02060D" transform="translate(66.5,117.75)"/>
<path d="M0 0 C0.66 0.33 1.32 0.66 2 1 C1.34 1.66 0.68 2.32 0 3 C-0.56428292 4.8692254 -0.56428292 4.8692254 -0.9375 6.9375 C-1.65594152 10.1043902 -2.27220162 12.01614664 -5 14 C-4.43981302 9.40646673 -3.42668586 3.42668586 0 0 Z " fill="#044975" transform="translate(30,95)"/>
<path d="M0 0 C0 2.97 0 5.94 0 9 C-0.99 8.67 -1.98 8.34 -3 8 C-3 5.69 -3 3.38 -3 1 C-1 0 -1 0 0 0 Z " fill="#021C3C" transform="translate(105,59)"/>
<path d="M0 0 C3.94139078 1.66751148 6.7892812 4.22710649 10 7 C9.67 7.66 9.34 8.32 9 9 C7.68103535 8.07161713 6.37001311 7.13194268 5.0625 6.1875 C4.33160156 5.66542969 3.60070312 5.14335938 2.84765625 4.60546875 C1 3 1 3 0 0 Z " fill="#04152F" transform="translate(93,35)"/>
<path d="M0 0 C1.98 0.99 1.98 0.99 4 2 C3.34 2 2.68 2 2 2 C2.165 3.216875 2.33 4.43375 2.5 5.6875 C2.89454541 8.81607836 3.09869725 11.84168804 3 15 C1.08697693 11.73386305 0.64325339 9.00554752 0.375 5.25 C0.30023438 4.26515625 0.22546875 3.2803125 0.1484375 2.265625 C0.09945312 1.51796875 0.05046875 0.7703125 0 0 Z " fill="#3B0F7F" transform="translate(89,98)"/>
<path d="M0 0 C2.97 0 5.94 0 9 0 C8.01 1.485 8.01 1.485 7 3 C3.875 3.1875 3.875 3.1875 1 3 C0.67 2.01 0.34 1.02 0 0 Z " fill="#4611AA" transform="translate(88,95)"/>
<path d="M0 0 C1.45922693 0.11409593 2.91740598 0.24165544 4.375 0.375 C5.59316406 0.47941406 5.59316406 0.47941406 6.8359375 0.5859375 C9 1 9 1 11 3 C3.57142857 3.28571429 3.57142857 3.28571429 0 1 C0 0.67 0 0.34 0 0 Z " fill="#050C26" transform="translate(54,111)"/>
<path d="M0 0 C4.1424367 1.38081223 5.32203099 3.59825558 8 7 C5.125 6.3125 5.125 6.3125 2 5 C0.625 2.375 0.625 2.375 0 0 Z " fill="#031838" transform="translate(26,110)"/>
</svg>
