<?xml version="1.0" encoding="UTF-8"?>
<svg version="1.1" xmlns="http://www.w3.org/2000/svg" width="70" height="84">
<path d="M0 0 C0.62003906 0.41378906 1.24007812 0.82757813 1.87890625 1.25390625 C2.57113281 1.67800781 3.26335938 2.10210938 3.9765625 2.5390625 C11.4327928 7.54240209 16.87819287 15.45415842 18.87890625 24.25390625 C19.1722026 27.2900666 19.09454042 30.21449133 18.87890625 33.25390625 C18.79769531 34.49140625 18.79769531 34.49140625 18.71484375 35.75390625 C18.17824836 41.95456414 18.17824836 41.95456414 15.87890625 44.25390625 C14.88890625 44.25390625 13.89890625 44.25390625 12.87890625 44.25390625 C10.63733767 47.10681172 9.07674069 49.56909474 8.06640625 53.06640625 C6.28220297 57.85558348 3.09718144 61.33163336 -0.12109375 65.25390625 C-0.80171875 66.12015625 -1.48234375 66.98640625 -2.18359375 67.87890625 C-11.55025186 79.80010748 -11.55025186 79.80010748 -15.93359375 81.06640625 C-16.65546875 81.12828125 -17.37734375 81.19015625 -18.12109375 81.25390625 C-18.45109375 79.93390625 -18.78109375 78.61390625 -19.12109375 77.25390625 C-19.90484375 77.10953125 -20.68859375 76.96515625 -21.49609375 76.81640625 C-24.12109375 76.25390625 -24.12109375 76.25390625 -26.12109375 75.25390625 C-26.12109375 74.59390625 -26.12109375 73.93390625 -26.12109375 73.25390625 C-29.58609375 74.24390625 -29.58609375 74.24390625 -33.12109375 75.25390625 C-35.94837527 72.84754024 -36.79827979 70.70841428 -37.87109375 67.19140625 C-39.30580017 62.99764902 -40.98442513 59.75203567 -43.62109375 56.19140625 C-51.00863429 46.02360852 -52.45274926 36.58157826 -51.12109375 24.25390625 C-49.37355049 14.81022879 -43.83770172 7.52400411 -36.19140625 1.8125 C-26.29546748 -4.14705424 -10.36543747 -5.82168406 0 0 Z " fill="#D14D3C" transform="translate(51.12109375,2.74609375)"/>
<path d="M0 0 C8.76019029 1.27164053 15.22474979 4.64394207 21.08203125 11.40234375 C26.92665322 19.38794303 29.70217731 26.10264367 29 36 C28.94585937 36.825 28.89171875 37.65 28.8359375 38.5 C28.29934211 44.70065789 28.29934211 44.70065789 26 47 C25.01 47 24.02 47 23 47 C20.75843142 49.85290547 19.19783444 52.31518849 18.1875 55.8125 C16.40329672 60.60167723 13.21827519 64.07772711 10 68 C9.319375 68.86625 8.63875 69.7325 7.9375 70.625 C-1.42915811 82.54620123 -1.42915811 82.54620123 -5.8125 83.8125 C-6.534375 83.874375 -7.25625 83.93625 -8 84 C-8.33 82.68 -8.66 81.36 -9 80 C-9.78375 79.855625 -10.5675 79.71125 -11.375 79.5625 C-14 79 -14 79 -16 78 C-16 77.34 -16 76.68 -16 76 C-19.465 76.99 -19.465 76.99 -23 78 C-22.25 70.25 -22.25 70.25 -20 68 C-17.6171875 67.5859375 -17.6171875 67.5859375 -14.875 67.375 C-13.50988281 67.26285156 -13.50988281 67.26285156 -12.1171875 67.1484375 C-11.41851562 67.09945312 -10.71984375 67.05046875 -10 67 C-10 66.34 -10 65.68 -10 65 C-10.74765625 65.08378906 -11.4953125 65.16757813 -12.265625 65.25390625 C-13.74289063 65.40666016 -13.74289063 65.40666016 -15.25 65.5625 C-16.71179688 65.71912109 -16.71179688 65.71912109 -18.203125 65.87890625 C-20.7631352 65.98974468 -22.58148159 65.77738092 -25 65 C-25 63.35 -25 61.7 -25 60 C-24.05125 59.87625 -23.1025 59.7525 -22.125 59.625 C-18.91332809 59.28312823 -18.91332809 59.28312823 -17 57 C-15 59 -15 59 -15 63 C-13.04082341 62.9131252 -11.08258129 62.80495488 -9.125 62.6875 C-8.03445312 62.62949219 -6.94390625 62.57148437 -5.8203125 62.51171875 C-4.42425781 62.25841797 -4.42425781 62.25841797 -3 62 C-2.34 61.01 -1.68 60.02 -1 59 C-1.66 58.319375 -2.32 57.63875 -3 56.9375 C-5.52217356 53.23305758 -5.61871554 51.40834824 -5 47 C-2.48119091 42.06313419 1.3566397 38.03811509 6 35 C6.99 35 7.98 35 9 35 C10.50930183 31.6136749 10.50930183 31.6136749 11 28 C9.02 27.34 7.04 26.68 5 26 C5 25.34 5 24.68 5 24 C6.32 24 7.64 24 9 24 C8.68872484 22.41642541 8.37592711 20.83315007 8.0625 19.25 C7.88847656 18.36828125 7.71445312 17.4865625 7.53515625 16.578125 C7.07631512 14.36764947 6.56663926 12.18487932 6 10 C8.25 9.6875 8.25 9.6875 11 10 C13.75615725 12.75615725 15.42444124 15.11497836 16 19 C16.66 19 17.32 19 18 19 C15.30158067 10.68611741 15.30158067 10.68611741 9 5 C6.03566758 3.57272883 3.04437014 2.24693156 0 1 C0 0.67 0 0.34 0 0 Z " fill="#8D8A88" transform="translate(41,0)"/>
<path d="M0 0 C5.12062347 3.81069654 8.98422787 9.95268362 11 16 C11.66 16 12.32 16 13 16 C13.495 16.99 13.495 16.99 14 18 C14.825 18.309375 15.65 18.61875 16.5 18.9375 C17.325 19.288125 18.15 19.63875 19 20 C19.495 21.485 19.495 21.485 20 23 C18.1059538 26.66971452 15.33097582 27.9641824 11.78125 29.859375 C8.31625619 32.07818682 5.83430892 35.33138215 4 39 C3.45096966 44.70991556 4.48630449 47.49807763 8 52 C6.88671875 53.48828125 6.88671875 53.48828125 5 55 C2.08203125 55.29296875 2.08203125 55.29296875 -1.1875 55.1875 C-2.27417969 55.16042969 -3.36085938 55.13335937 -4.48046875 55.10546875 C-5.72763672 55.05326172 -5.72763672 55.05326172 -7 55 C-7.21785156 54.24847656 -7.43570312 53.49695312 -7.66015625 52.72265625 C-9.35777914 49.27296774 -11.1276266 48.33199593 -14.4375 46.4375 C-21.06272924 42.61762748 -21.06272924 42.61762748 -23 39 C-22.67 37.68 -22.34 36.36 -22 35 C-18.04 35.33 -14.08 35.66 -10 36 C-11.8720939 32.2558122 -12.97740492 30.89367755 -16.0625 28.3125 C-16.77535156 27.71050781 -17.48820312 27.10851562 -18.22265625 26.48828125 C-18.80917969 25.99714844 -19.39570313 25.50601563 -20 25 C-21 24 -21 24 -21.0625 21.4375 C-21.041875 20.633125 -21.02125 19.82875 -21 19 C-20.01 18.67 -19.02 18.34 -18 18 C-15.58203125 19.3984375 -15.58203125 19.3984375 -12.8125 21.375 C-7.98381028 24.60482837 -4.77369054 25.89106244 1 26 C1 24.68 1 23.36 1 22 C0.01 21.67 -0.98 21.34 -2 21 C-4.4375 18.75 -4.4375 18.75 -7 16 C-8.11375 14.8553125 -8.11375 14.8553125 -9.25 13.6875 C-11.61528135 10.05510363 -11.70852578 7.29924482 -12 3 C-8.52201887 -0.47798113 -4.69245183 -0.97602998 0 0 Z " fill="#CBC5C8" transform="translate(33,8)"/>
<path d="M0 0 C0.66 0 1.32 0 2 0 C1.4590458 3.92362983 0.44656336 6.14118845 -2.0625 9.1875 C-2.69027344 9.95964844 -3.31804688 10.73179688 -3.96484375 11.52734375 C-4.63644531 12.34332031 -5.30804688 13.15929687 -6 14 C-7.37534444 15.74972931 -8.75034563 17.49972849 -10.125 19.25 C-17.6890718 28.62128741 -17.6890718 28.62128741 -21.8125 29.8125 C-22.534375 29.874375 -23.25625 29.93625 -24 30 C-24.33 28.68 -24.66 27.36 -25 26 C-25.78375 25.855625 -26.5675 25.71125 -27.375 25.5625 C-30 25 -30 25 -32 24 C-32 23.34 -32 22.68 -32 22 C-34.31 22.66 -36.62 23.32 -39 24 C-38.25 16.25 -38.25 16.25 -36 14 C-33.6171875 13.5859375 -33.6171875 13.5859375 -30.875 13.375 C-29.96492188 13.30023438 -29.05484375 13.22546875 -28.1171875 13.1484375 C-27.06917969 13.07496094 -27.06917969 13.07496094 -26 13 C-26 12.34 -26 11.68 -26 11 C-26.74765625 11.08378906 -27.4953125 11.16757813 -28.265625 11.25390625 C-29.25046875 11.35574219 -30.2353125 11.45757812 -31.25 11.5625 C-32.22453125 11.66691406 -33.1990625 11.77132812 -34.203125 11.87890625 C-36.7631352 11.98974468 -38.58148159 11.77738092 -41 11 C-41 9.35 -41 7.7 -41 6 C-40.05125 5.87625 -39.1025 5.7525 -38.125 5.625 C-34.91332809 5.28312823 -34.91332809 5.28312823 -33 3 C-31 5 -31 5 -31 9 C-17.85209447 9.8046389 -17.85209447 9.8046389 -5.78515625 5.09375 C-4 4 -4 4 -2 4 C-2 3.34 -2 2.68 -2 2 C-1.34 2 -0.68 2 0 2 C0 1.34 0 0.68 0 0 Z " fill="#601813" transform="translate(57,54)"/>
<path d="M0 0 C3.20200471 2.80175412 4.71834225 4.70437434 5.625 8.875 C4.61321822 13.93390891 2.30867122 17.99392161 -1.609375 21.3984375 C-6.16346746 24.34397437 -9.79689063 24.76767187 -15 24 C-18.2336123 21.33226985 -18.89820508 19.69984008 -19.5 15.5625 C-18.61371417 9.24771344 -14.7546968 5.06228625 -9.9296875 1.1484375 C-6.31675339 -1.00177025 -4.13308915 -0.79995274 0 0 Z " fill="#511007" transform="translate(55,35)"/>
<path d="M0 0 C0.99 0.66 1.98 1.32 3 2 C3 3.32 3 4.64 3 6 C5.31 6 7.62 6 10 6 C9.67 9.63 9.34 13.26 9 17 C9.66 17 10.32 17 11 17 C11 18.32 11 19.64 11 21 C11.66 21.33 12.32 21.66 13 22 C12.67 23.65 12.34 25.3 12 27 C11.01 26.67 10.02 26.34 9 26 C9 25.01 9 24.02 9 23 C8.21625 22.855625 7.4325 22.71125 6.625 22.5625 C4 22 4 22 2 21 C2 20.34 2 19.68 2 19 C-0.31 19.66 -2.62 20.32 -5 21 C-4.25 13.25 -4.25 13.25 -2 11 C0.3828125 10.5859375 0.3828125 10.5859375 3.125 10.375 C4.03507812 10.30023438 4.94515625 10.22546875 5.8828125 10.1484375 C6.93082031 10.07496094 6.93082031 10.07496094 8 10 C8 9.34 8 8.68 8 8 C7.25234375 8.08378906 6.5046875 8.16757813 5.734375 8.25390625 C4.74953125 8.35574219 3.7646875 8.45757812 2.75 8.5625 C1.77546875 8.66691406 0.8009375 8.77132812 -0.203125 8.87890625 C-2.7631352 8.98974468 -4.58148159 8.77738092 -7 8 C-7 6.35 -7 4.7 -7 3 C-5.5459375 2.814375 -5.5459375 2.814375 -4.0625 2.625 C-2.5465625 2.315625 -2.5465625 2.315625 -1 2 C-0.67 1.34 -0.34 0.68 0 0 Z " fill="#8B241B" transform="translate(23,57)"/>
<path d="M0 0 C8.76019029 1.27164053 15.22474979 4.64394207 21.08203125 11.40234375 C26.92665322 19.38794303 29.70217731 26.10264367 29 36 C28.94585937 36.825 28.89171875 37.65 28.8359375 38.5 C28.29934211 44.70065789 28.29934211 44.70065789 26 47 C23.875 46.625 23.875 46.625 22 46 C22.185625 44.865625 22.37125 43.73125 22.5625 42.5625 C23.43018357 35.06667802 22.55942406 27.49628247 22 20 C20.35 20 18.7 20 17 20 C16.87625 19.113125 16.7525 18.22625 16.625 17.3125 C15.8055461 12.96939433 15.10863995 10.10863995 11.9375 6.9375 C8.15421934 4.44214467 4.18455601 2.71393579 0 1 C0 0.67 0 0.34 0 0 Z " fill="#571813" transform="translate(41,0)"/>
<path d="M0 0 C1.32 0 2.64 0 4 0 C5.71756752 3.43513503 5.51398907 7.27193422 5.75 11.0625 C5.85248047 12.29516602 5.85248047 12.29516602 5.95703125 13.55273438 C6.38915237 20.59409267 5.13090081 26.50532268 1.4375 32.5625 C0.963125 33.036875 0.48875 33.51125 0 34 C-0.66 34 -1.32 34 -2 34 C-2 34.66 -2 35.32 -2 36 C-2.66 36 -3.32 36 -4 36 C-4 36.66 -4 37.32 -4 38 C-11.4671045 42.31090569 -17.29015546 45.04055665 -26 44 C-26 43.67 -26 43.34 -26 43 C-25.05125 42.71125 -24.1025 42.4225 -23.125 42.125 C-19.94788422 41.23174891 -19.94788422 41.23174891 -18 39 C-15.7578125 38.4375 -15.7578125 38.4375 -13.125 38 C-9.73431467 37.43319887 -6.96279893 36.78561543 -4 35 C-2.81669817 33.13355094 -2.81669817 33.13355094 -2 31 C-1.62875 30.38125 -1.2575 29.7625 -0.875 29.125 C0.31845927 26.22659892 0.31754893 24.11197952 0 21 C-1.38885248 18.18219466 -1.38885248 18.18219466 -3 16 C-1.68 15.67 -0.36 15.34 1 15 C1.02703381 13.06257659 1.04641125 11.12504521 1.0625 9.1875 C1.07410156 8.10855469 1.08570312 7.02960937 1.09765625 5.91796875 C1.13624766 2.93487831 1.13624766 2.93487831 0 0 Z " fill="#605B57" transform="translate(59,20)"/>
<path d="M0 0 C3.30011723 2.88760258 4.78979192 4.71247552 5.5 9.0625 C4.94678393 12.31264444 3.89014904 14.32228886 2 17 C0.73973202 14.47946405 1.08125555 13.1457902 1.4375 10.375 C1.53933594 9.55773438 1.64117187 8.74046875 1.74609375 7.8984375 C1.82988281 7.27195312 1.91367187 6.64546875 2 6 C-1.7373856 3.5084096 -3.57331583 3.54206715 -8 4 C-11.40850414 6.12084702 -13.81386655 8.1181087 -15 12 C-15.20225241 14.71976267 -15.13473404 17.2604078 -15 20 C-13.94021067 21.28612676 -13.94021067 21.28612676 -11.49609375 21.09765625 C-10.48675781 21.08605469 -9.47742188 21.07445313 -8.4375 21.0625 C-7.42558594 21.05347656 -6.41367187 21.04445313 -5.37109375 21.03515625 C-4.58863281 21.02355469 -3.80617188 21.01195313 -3 21 C-3.33 21.66 -3.66 22.32 -4 23 C-7.7138825 24.23796083 -11.14613605 24.67462005 -15 24 C-18.2336123 21.33226985 -18.89820508 19.69984008 -19.5 15.5625 C-18.61371417 9.24771344 -14.7546968 5.06228625 -9.9296875 1.1484375 C-6.31675339 -1.00177025 -4.13308915 -0.79995274 0 0 Z " fill="#3C1B12" transform="translate(55,35)"/>
<path d="M0 0 C0.66 0.33 1.32 0.66 2 1 C1.67 2.98 1.34 4.96 1 7 C0.01 7.33 -0.98 7.66 -2 8 C-2 7.01 -2 6.02 -2 5 C-4.91517292 6.07401108 -6.77810176 6.77810176 -9 9 C-9.39764263 10.98821313 -9.73775349 12.98944339 -10 15 C-9.34 15.33 -8.68 15.66 -8 16 C-11.01031744 16.93423645 -11.86650268 17.04449911 -15 16 C-15.45760607 10.2799241 -14.63848132 7.44703273 -11 3 C-7.61336967 -0.50341069 -4.7409096 -0.35117849 0 0 Z " fill="#8E1A00" transform="translate(54,38)"/>
<path d="M0 0 C0.99 0.66 1.98 1.32 3 2 C3 3.32 3 4.64 3 6 C5.31 6 7.62 6 10 6 C9.125 10.875 9.125 10.875 8 12 C6.48530552 12.23192865 4.96245438 12.41215238 3.4375 12.5625 C2.61121094 12.64628906 1.78492188 12.73007813 0.93359375 12.81640625 C0.29550781 12.87699219 -0.34257812 12.93757813 -1 13 C-1.66 14.65 -2.32 16.3 -3 18 C-3.33 18 -3.66 18 -4 18 C-4.125 15.625 -4.125 15.625 -4 13 C-1.50494038 10.50494038 -0.32671112 10.64051624 3.125 10.375 C4.03507812 10.30023438 4.94515625 10.22546875 5.8828125 10.1484375 C6.93082031 10.07496094 6.93082031 10.07496094 8 10 C8 9.34 8 8.68 8 8 C7.25234375 8.08378906 6.5046875 8.16757813 5.734375 8.25390625 C4.74953125 8.35574219 3.7646875 8.45757812 2.75 8.5625 C1.77546875 8.66691406 0.8009375 8.77132812 -0.203125 8.87890625 C-2.7631352 8.98974468 -4.58148159 8.77738092 -7 8 C-7 6.35 -7 4.7 -7 3 C-5.5459375 2.814375 -5.5459375 2.814375 -4.0625 2.625 C-2.5465625 2.315625 -2.5465625 2.315625 -1 2 C-0.67 1.34 -0.34 0.68 0 0 Z " fill="#AE3226" transform="translate(23,57)"/>
<path d="M0 0 C0 0.99 0 1.98 0 3 C0.66 3 1.32 3 2 3 C1.64301497 5.64168921 1.247692 7.60890736 -0.1875 9.875 C-2 11 -2 11 -5.1875 10.6875 C-6.115625 10.460625 -7.04375 10.23375 -8 10 C-8.32899743 6.38102827 -8.44576634 4.60496861 -6.25 1.625 C-4 0 -4 0 0 0 Z " fill="#141110" transform="translate(52,43)"/>
<path d="M0 0 C0.33 0 0.66 0 1 0 C1.08636719 0.58007812 1.17273438 1.16015625 1.26171875 1.7578125 C2.56621635 9.01034047 5.49523396 13.08670734 11.3125 17.625 C12.199375 18.40875 13.08625 19.1925 14 20 C14 21.32 14 22.64 14 24 C11.36 24 8.72 24 6 24 C6.33 21.69 6.66 19.38 7 17 C6.34 17 5.68 17 5 17 C3.5625 14.8125 3.5625 14.8125 2 12 C1.443125 11.195625 0.88625 10.39125 0.3125 9.5625 C-1.26107698 6.49027828 -1.30981131 4.4079244 -1 1 C-0.67 0.67 -0.34 0.34 0 0 Z " fill="#AB574F" transform="translate(20,10)"/>
<path d="M0 0 C2.4375 0.8125 2.4375 0.8125 5 2 C5.33 2.99 5.66 3.98 6 5 C4.68 5 3.36 5 2 5 C2.495 5.825 2.99 6.65 3.5 7.5 C5.32352081 11.75488188 5.23673689 14.42308671 5 19 C3.35 19 1.7 19 0 19 C0.01740234 17.67935547 0.01740234 17.67935547 0.03515625 16.33203125 C0.04417969 15.17058594 0.05320313 14.00914063 0.0625 12.8125 C0.07410156 11.66394531 0.08570313 10.51539063 0.09765625 9.33203125 C0.01191397 6.40650456 -0.42120002 3.85228456 -1 1 C-0.67 0.67 -0.34 0.34 0 0 Z " fill="#AD3427" transform="translate(45,5)"/>
<path d="M0 0 C1.65 1.65 3.3 3.3 5 5 C3.88671875 6.984375 3.88671875 6.984375 2 9 C-0.91796875 9.390625 -0.91796875 9.390625 -4.1875 9.25 C-5.27417969 9.21390625 -6.36085938 9.1778125 -7.48046875 9.140625 C-8.72763672 9.07101563 -8.72763672 9.07101563 -10 9 C-10 7.68 -10 6.36 -10 5 C-8.9171875 4.87625 -8.9171875 4.87625 -7.8125 4.75 C-4.44686746 3.85249799 -2.58387184 2.2885722 0 0 Z " fill="#A39DA0" transform="translate(36,54)"/>
<path d="M0 0 C6.57527367 -0.54391051 12.05616277 -0.6214464 17.60546875 3.2890625 C19.89035271 6.09236551 19.59889799 8.72992019 19.28125 12.20703125 C19.14203125 13.09455078 19.14203125 13.09455078 19 14 C15.30653074 12.76884358 15.13909926 11.87119351 13.4375 8.5 C11.88380682 5.09741461 11.88380682 5.09741461 9 3 C7.45976004 2.93049459 5.91665012 2.91547643 4.375 2.9375 C3.55773437 2.94652344 2.74046875 2.95554687 1.8984375 2.96484375 C1.27195312 2.97644531 0.64546875 2.98804688 0 3 C0 2.01 0 1.02 0 0 Z " fill="#DC6658" transform="translate(24,6)"/>
<path d="M0 0 C0.33 0 0.66 0 1 0 C1.20067123 12.64228779 1.20067123 12.64228779 0 18 C-0.66 18.66 -1.32 19.32 -2 20 C-3.32 19.67 -4.64 19.34 -6 19 C-5.34 15.37 -4.68 11.74 -4 8 C-3.01 8 -2.02 8 -1 8 C-0.67 5.36 -0.34 2.72 0 0 Z " fill="#5A1711" transform="translate(69,27)"/>
<path d="M0 0 C3.50042844 0.64822749 6.1809834 1.80743153 9 4 C9.3125 6.6875 9.3125 6.6875 9 9 C8.01 9.33 7.02 9.66 6 10 C3.73828125 8.78515625 3.73828125 8.78515625 1.3125 7.0625 C0.50425781 6.49660156 -0.30398437 5.93070313 -1.13671875 5.34765625 C-1.75160156 4.90292969 -2.36648438 4.45820313 -3 4 C-2.01 3.67 -1.02 3.34 0 3 C0 2.01 0 1.02 0 0 Z " fill="#D7594B" transform="translate(18,23)"/>
<path d="M0 0 C1.65 0 3.3 0 5 0 C4.01 0.495 4.01 0.495 3 1 C3.37253906 1.83144531 3.74507812 2.66289062 4.12890625 3.51953125 C4.60199219 4.60621094 5.07507812 5.69289063 5.5625 6.8125 C6.27599609 8.43091797 6.27599609 8.43091797 7.00390625 10.08203125 C8 13 8 13 7 16 C4.125 16.125 4.125 16.125 1 16 C0.34 15.34 -0.32 14.68 -1 14 C0.32 14 1.64 14 3 14 C2.68872484 12.41642541 2.37592711 10.83315007 2.0625 9.25 C1.88847656 8.36828125 1.71445312 7.4865625 1.53515625 6.578125 C1.07631512 4.36764947 0.56663926 2.18487932 0 0 Z " fill="#7B6C66" transform="translate(47,10)"/>
<path d="M0 0 C1.32 0.66 2.64 1.32 4 2 C3.67 4.64 3.34 7.28 3 10 C3.66 10.33 4.32 10.66 5 11 C1.98968256 11.93423645 1.13349732 12.04449911 -2 11 C-2.28571429 3.57142857 -2.28571429 3.57142857 0 0 Z " fill="#952204" transform="translate(41,43)"/>
<path d="M0 0 C2.8125 -0.5625 2.8125 -0.5625 6 0 C9.17396662 2.89796953 10.80140943 4.78363273 11.5 9.0625 C10.94678393 12.31264444 9.89014904 14.32228886 8 17 C6.73973202 14.47946405 7.08125555 13.1457902 7.4375 10.375 C7.53933594 9.55773438 7.64117187 8.74046875 7.74609375 7.8984375 C7.82988281 7.27195312 7.91367187 6.64546875 8 6 C4.55549263 3.70366176 2.06187717 3.45983515 -2 3 C-1.34 2.01 -0.68 1.02 0 0 Z " fill="#23100B" transform="translate(49,35)"/>
<path d="M0 0 C2 0 4 0 6 0 C6 1.32 6 2.64 6 4 C6.66 4.33 7.32 4.66 8 5 C7.67 6.65 7.34 8.3 7 10 C6.01 9.67 5.02 9.34 4 9 C4 8.01 4 7.02 4 6 C2.7934375 5.814375 2.7934375 5.814375 1.5625 5.625 C0.716875 5.41875 -0.12875 5.2125 -1 5 C-1.33 4.34 -1.66 3.68 -2 3 C-1.34 2.01 -0.68 1.02 0 0 Z " fill="#8F271D" transform="translate(28,74)"/>
<path d="M0 0 C6.29725854 0.97665815 12.3233963 2.41509441 17 7 C18.2408782 9.73848983 18.55995885 11.9686054 19 15 C19.33 15.99 19.66 16.98 20 18 C19.67 18.66 19.34 19.32 19 20 C18.34 19.67 17.68 19.34 17 19 C16.578125 17.109375 16.578125 17.109375 16.25 14.75 C15.41743356 10.73969904 14.32525126 8.53656293 10.86328125 6.0625 C7.37249454 4.07194657 3.73023037 2.48380275 0 1 C0 0.67 0 0.34 0 0 Z " fill="#922C22" transform="translate(41,0)"/>
<path d="M0 0 C7.42283951 4.21296296 7.42283951 4.21296296 8.73046875 8.26171875 C8.88128906 9.06222656 9.03210937 9.86273438 9.1875 10.6875 C9.34605469 11.49574219 9.50460938 12.30398437 9.66796875 13.13671875 C9.77753906 13.75160156 9.88710938 14.36648437 10 15 C9.34 15 8.68 15 8 15 C6.8515625 13.4609375 6.8515625 13.4609375 5.625 11.375 C3.50786948 7.84435503 1.30301517 4.41187433 -1 1 C-0.67 0.67 -0.34 0.34 0 0 Z " fill="#A72F22" transform="translate(49,4)"/>
<path d="M0 0 C5 2 5 2 7 3 C7 5.64 7 8.28 7 11 C6.01 11.33 5.02 11.66 4 12 C2.68 8.04 1.36 4.08 0 0 Z " fill="#C74534" transform="translate(12,65)"/>
<path d="M0 0 C1.5625 1.0625 1.5625 1.0625 3 3 C2.6875 6.6875 2.6875 6.6875 2 10 C1.01 10 0.02 10 -1 10 C-1.33 10.66 -1.66 11.32 -2 12 C-2 8.37 -2 4.74 -2 1 C-1.34 0.67 -0.68 0.34 0 0 Z " fill="#7A2B24" transform="translate(66,25)"/>
<path d="M0 0 C0.66 0 1.32 0 2 0 C1.46884894 4.51478398 -0.36620292 7.34666857 -3 11 C-3.66 10.67 -4.32 10.34 -5 10 C-5 9.34 -5 8.68 -5 8 C-5.99 7.67 -6.98 7.34 -8 7 C-4.25 4 -4.25 4 -2 4 C-2 3.34 -2 2.68 -2 2 C-1.34 2 -0.68 2 0 2 C0 1.34 0 0.68 0 0 Z " fill="#561510" transform="translate(57,54)"/>
<path d="M0 0 C0.33 0.99 0.66 1.98 1 3 C-0.0625 4.5 -0.0625 4.5 -2 6 C-5.6875 6.1875 -5.6875 6.1875 -9 6 C-9 5.01 -9 4.02 -9 3 C-6.03 2.01 -3.06 1.02 0 0 Z " fill="#8A241C" transform="translate(49,63)"/>
<path d="M0 0 C1.32 0 2.64 0 4 0 C5.50156874 3.00313748 5.09281204 5.79067522 5.0625 9.125 C5.05347656 10.40632813 5.04445313 11.68765625 5.03515625 13.0078125 C5.02355469 13.99523438 5.01195313 14.98265625 5 16 C4.34 15.67 3.68 15.34 3 15 C2.65625 12.890625 2.65625 12.890625 2.5 10.25 C2.20244412 6.47374538 1.71628923 3.43257847 0 0 Z " fill="#775952" transform="translate(59,20)"/>
<path d="M0 0 C1.75 0.0625 1.75 0.0625 4 1 C6.00840495 3.70049044 8 6.55126733 8 10 C7.34 10 6.68 10 6 10 C6 9.34 6 8.68 6 8 C5.195625 7.79375 4.39125 7.5875 3.5625 7.375 C2.2940625 6.694375 2.2940625 6.694375 1 6 C0.1875 2.875 0.1875 2.875 0 0 Z " fill="#AB8B8A" transform="translate(50,11)"/>
<path d="M0 0 C1.32 1.32 2.64 2.64 4 4 C2.88671875 5.48828125 2.88671875 5.48828125 1 7 C-1.91796875 7.29296875 -1.91796875 7.29296875 -5.1875 7.1875 C-6.27417969 7.16042969 -7.36085938 7.13335937 -8.48046875 7.10546875 C-9.31191406 7.07066406 -10.14335937 7.03585938 -11 7 C-10.67 5.68 -10.34 4.36 -10 3 C-8.515 3.99 -8.515 3.99 -7 5 C-4.37468476 5.16713569 -4.37468476 5.16713569 -2 5 C-1.34 3.35 -0.68 1.7 0 0 Z " fill="#948182" transform="translate(37,56)"/>
<path d="M0 0 C4.27878027 2.03751441 8.11282869 4.31600076 12 7 C10.02 7.99 10.02 7.99 8 9 C6.8450079 8.26418258 5.70125815 7.51069961 4.5625 6.75 C3.60537109 6.12351562 3.60537109 6.12351562 2.62890625 5.484375 C0.70097943 3.72751123 0.38520564 2.53910197 0 0 Z " fill="#E07C75" transform="translate(10,49)"/>
<path d="M0 0 C3 2 3 2 3.6875 4.625 C3.790625 5.40875 3.89375 6.1925 4 7 C1.36 7 -1.28 7 -4 7 C-4.33 6.01 -4.66 5.02 -5 4 C-4.360625 3.71125 -3.72125 3.4225 -3.0625 3.125 C-0.84793921 2.17176549 -0.84793921 2.17176549 0 0 Z " fill="#752D28" transform="translate(23,57)"/>
<path d="M0 0 C4.455 0.99 4.455 0.99 9 2 C9 4.64 9 7.28 9 10 C7.35 10 5.7 10 4 10 C4.33 9.21625 4.66 8.4325 5 7.625 C6.11866511 5.15667503 6.11866511 5.15667503 6 3 C4.02 2.34 2.04 1.68 0 1 C0 0.67 0 0.34 0 0 Z " fill="#A09EA0" transform="translate(46,25)"/>
<path d="M0 0 C2.475 0.99 2.475 0.99 5 2 C4.67 6.29 4.34 10.58 4 15 C1 11 1 11 0.92578125 8.640625 C1.11720703 7.45726562 1.11720703 7.45726562 1.3125 6.25 C1.43238281 5.45078125 1.55226562 4.6515625 1.67578125 3.828125 C1.78277344 3.22484375 1.88976563 2.6215625 2 2 C1.34 2 0.68 2 0 2 C0 1.34 0 0.68 0 0 Z " fill="#C94636" transform="translate(41,9)"/>
<path d="M0 0 C1.5 1.0625 1.5 1.0625 3 3 C3.30933684 7.17604728 2.98497223 10.93698954 2 15 C1.01 15 0.02 15 -1 15 C-0.9278125 14.08476563 -0.855625 13.16953125 -0.78125 12.2265625 C-0.6884375 11.03804687 -0.595625 9.84953125 -0.5 8.625 C-0.4071875 7.44164062 -0.314375 6.25828125 -0.21875 5.0390625 C-0.09804546 3.36213157 0 1.68126944 0 0 Z " fill="#7B7774" transform="translate(58,20)"/>
<path d="M0 0 C0.598125 0.20625 1.19625 0.4125 1.8125 0.625 C0.60868552 3.11861571 -0.64178722 5.30643083 -2.1875 7.625 C-3.1775 7.625 -4.1675 7.625 -5.1875 7.625 C-5.375 4.75 -5.375 4.75 -5.1875 1.625 C-2.1875 -0.375 -2.1875 -0.375 0 0 Z " fill="#DB6355" transform="translate(13.1875,22.375)"/>
<path d="M0 0 C0.66 0 1.32 0 2 0 C2.66 0.99 3.32 1.98 4 3 C6.66653905 3.36460453 6.66653905 3.36460453 9.625 3.1875 C10.62789062 3.16042969 11.63078125 3.13335937 12.6640625 3.10546875 C13.43492188 3.07066406 14.20578125 3.03585938 15 3 C14.67 3.66 14.34 4.32 14 5 C10.2505911 6.24980297 6.92294754 6.46585002 3 6 C1 4.6875 1 4.6875 0 3 C0 2.01 0 1.02 0 0 Z " fill="#29120D" transform="translate(37,53)"/>
<path d="M0 0 C2.625 0.375 2.625 0.375 5 1 C4.67 1.66 4.34 2.32 4 3 C3.34 3 2.68 3 2 3 C2 3.66 2 4.32 2 5 C-1.3 5 -4.6 5 -8 5 C-8 4.67 -8 4.34 -8 4 C-6.576875 3.566875 -6.576875 3.566875 -5.125 3.125 C-1.94788422 2.23174891 -1.94788422 2.23174891 0 0 Z " fill="#756766" transform="translate(41,59)"/>
<path d="M0 0 C2.4375 0.8125 2.4375 0.8125 5 2 C5.33 2.99 5.66 3.98 6 5 C4.68 5 3.36 5 2 5 C1.67 5.66 1.34 6.32 1 7 C-1 4 -1 4 -0.625 1.8125 C-0.41875 1.214375 -0.2125 0.61625 0 0 Z " fill="#8B271D" transform="translate(45,5)"/>
<path d="M0 0 C1.65 0 3.3 0 5 0 C4.67 1.65 4.34 3.3 4 5 C3.67 4.34 3.34 3.68 3 3 C0.69 3.66 -1.62 4.32 -4 5 C-4 4.34 -4 3.68 -4 3 C-3.01 3 -2.02 3 -1 3 C-0.67 2.01 -0.34 1.02 0 0 Z " fill="#6C1E15" transform="translate(22,73)"/>
<path d="M0 0 C1.65 0 3.3 0 5 0 C4.01 0.33 3.02 0.66 2 1 C2.33 1.66 2.66 2.32 3 3 C5.97 3 8.94 3 12 3 C12 3.66 12 4.32 12 5 C3.42857143 6.28571429 3.42857143 6.28571429 0 5 C0 3.35 0 1.7 0 0 Z " fill="#A63024" transform="translate(16,60)"/>
<path d="M0 0 C4.75 0.75 4.75 0.75 7 3 C7 3.99 7 4.98 7 6 C3.75728494 5.4409112 2.06942576 4.5867822 0 2 C0 1.34 0 0.68 0 0 Z " fill="#E69E9B" transform="translate(19,24)"/>
<path d="M0 0 C0 0.66 0 1.32 0 2 C-2.8125 3.5625 -2.8125 3.5625 -6 5 C-6.99 4.67 -7.98 4.34 -9 4 C-8.34 3.67 -7.68 3.34 -7 3 C-7.99 2.34 -8.98 1.68 -10 1 C-6.56484998 0.37542727 -3.50935186 0 0 0 Z " fill="#695654" transform="translate(52,58)"/>
<path d="M0 0 C0.99 0.33 1.98 0.66 3 1 C2.67 2.98 2.34 4.96 2 7 C1.01 7.33 0.02 7.66 -1 8 C-1.93065133 5.39417629 -2.14917407 4.35801776 -1.0625 1.75 C-0.711875 1.1725 -0.36125 0.595 0 0 Z " fill="#753327" transform="translate(53,38)"/>
<path d="M0 0 C2 1 2 1 3.125 3.1875 C4.08328236 6.26769331 4.14915816 8.79309948 4 12 C3.34 12 2.68 12 2 12 C1.1558062 8.02022924 0.55312735 4.02992782 0 0 Z " fill="#711C15" transform="translate(58,8)"/>
<path d="M0 0 C1.32 0.33 2.64 0.66 4 1 C4 1.99 4 2.98 4 4 C1.69 4 -0.62 4 -3 4 C-3.33 3.34 -3.66 2.68 -4 2 C-2.68 2 -1.36 2 0 2 C0 1.34 0 0.68 0 0 Z " fill="#AF493F" transform="translate(19,40)"/>
<path d="M0 0 C0.33 0 0.66 0 1 0 C1 2.97 1 5.94 1 9 C0.01 9.495 0.01 9.495 -1 10 C-0.67 6.7 -0.34 3.4 0 0 Z M-4 10 C-3.01 10.33 -2.02 10.66 -1 11 C-1.33 11.66 -1.66 12.32 -2 13 C-2.99 12.67 -3.98 12.34 -5 12 C-4.67 11.34 -4.34 10.68 -4 10 Z " fill="#6E6865" transform="translate(61,25)"/>
<path d="M0 0 C3 3 3 3 3.1875 5.6875 C3.0946875 6.8321875 3.0946875 6.8321875 3 8 C2.01 8.33 1.02 8.66 0 9 C0 6.03 0 3.06 0 0 Z " fill="#A63629" transform="translate(66,25)"/>
<path d="M0 0 C0 2.31 0 4.62 0 7 C-0.99 7.33 -1.98 7.66 -3 8 C-3 5.69 -3 3.38 -3 1 C-1 0 -1 0 0 0 Z " fill="#44241D" transform="translate(39,46)"/>
<path d="M0 0 C1.65 0 3.3 0 5 0 C4.01 1.98 3.02 3.96 2 6 C1.01 5.34 0.02 4.68 -1 4 C-0.67 2.68 -0.34 1.36 0 0 Z " fill="#BE3D2F" transform="translate(8,41)"/>
<path d="M0 0 C4 1 4 1 5.25 2.875 C6 5 6 5 6 8 C5.34 8 4.68 8 4 8 C2.68 5.36 1.36 2.72 0 0 Z " fill="#CE5A50" transform="translate(53,11)"/>
<path d="M0 0 C0.99 0.33 1.98 0.66 3 1 C2.67 2.32 2.34 3.64 2 5 C1.01 5 0.02 5 -1 5 C-1.33 4.34 -1.66 3.68 -2 3 C-1.34 2.01 -0.68 1.02 0 0 Z " fill="#AC2F24" transform="translate(28,74)"/>
<path d="M0 0 C-0.33 0.99 -0.66 1.98 -1 3 C-3.31 3 -5.62 3 -8 3 C-8.33 2.34 -8.66 1.68 -9 1 C-5.94152152 0.45627049 -3.11227195 0 0 0 Z " fill="#C64233" transform="translate(23,57)"/>
<path d="M0 0 C2.64 0 5.28 0 8 0 C7.67 0.99 7.34 1.98 7 3 C4.625 3.1875 4.625 3.1875 2 3 C1.34 2.01 0.68 1.02 0 0 Z " fill="#701504" transform="translate(39,54)"/>
<path d="M0 0 C0.66 0.33 1.32 0.66 2 1 C2 3.31 2 5.62 2 8 C1.01 8.33 0.02 8.66 -1 9 C-0.67 6.03 -0.34 3.06 0 0 Z " fill="#4A130F" transform="translate(65,35)"/>
<path d="M0 0 C0.66 0 1.32 0 2 0 C3.42944945 2.35438733 4.08661261 3.48032433 3.625 6.25 C3.41875 6.8275 3.2125 7.405 3 8 C2.34 7.34 1.68 6.68 1 6 C0.67 6 0.34 6 0 6 C0 4.02 0 2.04 0 0 Z " fill="#6A1C14" transform="translate(65,20)"/>
<path d="M0 0 C1.65 0 3.3 0 5 0 C4.67 1.65 4.34 3.3 4 5 C3.01 4.67 2.02 4.34 1 4 C1.66 4 2.32 4 3 4 C3 3.34 3 2.68 3 2 C2.01 2 1.02 2 0 2 C0 1.34 0 0.68 0 0 Z " fill="#B74137" transform="translate(28,63)"/>
<path d="M0 0 C2.1875 1.4375 2.1875 1.4375 4 3 C3.34 3 2.68 3 2 3 C2 3.66 2 4.32 2 5 C-1.875 3.25 -1.875 3.25 -3 1 C-2.01 0.67 -1.02 0.34 0 0 Z " fill="#DB7269" transform="translate(17,37)"/>
</svg>
