<?xml version="1.0" encoding="UTF-8"?>
<svg version="1.1" xmlns="http://www.w3.org/2000/svg" width="160" height="160">
<path d="M0 0 C6.81348412 6.33654024 9.28242212 15.73913298 10.3125 24.7265625 C10.42615582 28.97444866 9.66853784 32.14901467 8 36 C8.88522339 36.01401855 8.88522339 36.01401855 9.78833008 36.02832031 C12.46390205 36.08202657 15.13772553 36.16566852 17.8125 36.25 C18.74126953 36.26417969 19.67003906 36.27835938 20.62695312 36.29296875 C21.9659668 36.34130859 21.9659668 36.34130859 23.33203125 36.390625 C24.15421143 36.41157227 24.9763916 36.43251953 25.82348633 36.45410156 C28 37 28 37 29.76464844 38.88354492 C31.25642347 41.43931523 31.43305659 43.11652233 31.4375 46.0625 C31.46650391 47.34833984 31.46650391 47.34833984 31.49609375 48.66015625 C31 51 31 51 29.3203125 52.82421875 C26.38825206 54.30999349 24.67842003 54.15566618 21.4375 53.75 C20.48746094 53.64171875 19.53742188 53.5334375 18.55859375 53.421875 C16 53 16 53 13 52 C13.82137236 60.24204682 15.39959544 67.60910772 21 74 C23.09687554 74.82072322 23.09687554 74.82072322 25 75 C25 73.68 25 72.36 25 71 C25.30404678 69.32774271 25.63128912 67.65919896 26 66 C28.73695358 65.50237208 30.46497369 65.6756051 32.85546875 67.125 C36.15351177 69.73623406 37.78778151 71.23601344 38.9375 75.375 C38.958125 76.24125 38.97875 77.1075 39 78 C35.18243176 79.37432457 31.92744671 78.67975039 28 78 C28.99 79.4540625 28.99 79.4540625 30 80.9375 C32.47407682 85.28694466 32.72475968 89.09668758 32 94 C30.23743809 99.18976563 27.88916584 101.55541708 23 104 C18.14123584 105.39464527 14.30169347 105.48641238 9.6875 103.3125 C6.63945864 101.57505631 4.47676315 99.47676315 2 97 C-2.43894806 95.14722168 -5.97130737 94.78366481 -10.75 95.125 C-11.87921875 95.18945312 -13.0084375 95.25390625 -14.171875 95.3203125 C-17.1081193 95.67807893 -17.1081193 95.67807893 -18.20703125 97.9140625 C-18.46871094 98.60242188 -18.73039062 99.29078125 -19 100 C-24.73113383 104.38980463 -29.89486456 104.90328854 -37 104 C-39.9375 102.8125 -39.9375 102.8125 -42 101 C-42.763125 100.360625 -43.52625 99.72125 -44.3125 99.0625 C-46.940508 94.29315215 -46.63103175 89.33441956 -46 84 C-44.68690307 79.89372578 -41.91139536 78.25735848 -38.4375 75.875 C-34.61294382 73.47564938 -34.61294382 73.47564938 -32 70 C-31.34 70 -30.68 70 -30 70 C-30 69.01 -30 68.02 -30 67 C-30.44730469 67.44472656 -30.89460938 67.88945313 -31.35546875 68.34765625 C-36.27143675 72.94917001 -36.27143675 72.94917001 -39.6875 73.1875 C-43.32025613 71.32203063 -45.18042983 68.69377836 -46.9375 65.0625 C-47.03701443 61.7785238 -45.69807556 59.75205349 -44 57 C-41.8125 55.125 -41.8125 55.125 -40 54 C-40.99 53.34 -41.98 52.68 -43 52 C-43.33 52.99 -43.66 53.98 -44 55 C-44.99 55 -45.98 55 -47 55 C-46.58221009 49.2902045 -44.42453429 46.39042858 -41 42 C-39.68 42.33 -38.36 42.66 -37 43 C-37.33 44.98 -37.66 46.96 -38 49 C-36.27523089 49.95502158 -36.27523089 49.95502158 -34 50 C-30.92674982 47.43895819 -28.10867428 44.89715806 -27 41 C-27.98759629 38.45834828 -28.99692785 36.2967104 -30.3125 33.9375 C-34.42271288 26.26351872 -35.61518732 20.7403028 -35 12 C-33.27827383 6.53098748 -29.75767566 3.046346 -25 0 C-17.30350081 -3.61879689 -7.51316691 -4.63678711 0 0 Z " fill="#D8A955" transform="translate(89,33)"/>
<path d="M0 0 C6.81348412 6.33654024 9.28242212 15.73913298 10.3125 24.7265625 C10.42615582 28.97444866 9.66853784 32.14901467 8 36 C8.59014893 36.00410889 9.18029785 36.00821777 9.78833008 36.01245117 C12.46407016 36.04536148 15.13752475 36.11599621 17.8125 36.1875 C18.74126953 36.19330078 19.67003906 36.19910156 20.62695312 36.20507812 C23.18224836 36.28810216 25.51209558 36.40649715 28 37 C30.13671875 39.55078125 30.13671875 39.55078125 31 42 C30.34 42 29.68 42 29 42 C28.67 41.34 28.34 40.68 28 40 C27.31035156 40.09539062 26.62070313 40.19078125 25.91015625 40.2890625 C20.17630753 40.96548361 15.45330884 41.02104712 9.875 39.47265625 C7.83744349 38.87778177 7.83744349 38.87778177 5 39 C5.66 36.36 6.32 33.72 7 31 C6.01 30.34 5.02 29.68 4 29 C3.67 29.99 3.34 30.98 3 32 C-0.68917126 34.86935543 -2.24432324 36 -7 36 C-7.33 36.99 -7.66 37.98 -8 39 C-12.28297531 40.05619003 -16.42985646 40.11702092 -20.8125 40.0625 C-21.50537109 40.05798828 -22.19824219 40.05347656 -22.91210938 40.04882812 C-24.60811068 40.03713156 -26.30406703 40.01919924 -28 40 C-28.98111975 37.8967433 -29.95983134 35.79236311 -30.9375 33.6875 C-31.48277344 32.51574219 -32.02804688 31.34398437 -32.58984375 30.13671875 C-35.69569344 23.22813897 -36.23056582 15.90885614 -33.9375 8.625 C-29.55833465 2.69193727 -24.88268962 -0.73328404 -17.6953125 -2.6015625 C-11.71388225 -3.48577393 -5.24484055 -3.23687858 0 0 Z " fill="#DEB058" transform="translate(89,33)"/>
<path d="M0 0 C4.37180155 0.66527415 7.07476508 3.08627545 9.875 6.4375 C10.8125 9.8125 10.8125 9.8125 10.875 12.4375 C7.05743176 13.81182457 3.80244671 13.11725039 -0.125 12.4375 C0.865 13.8915625 0.865 13.8915625 1.875 15.375 C4.34907682 19.72444466 4.59975968 23.53418758 3.875 28.4375 C2.11243809 33.62726563 -0.23583416 35.99291708 -5.125 38.4375 C-9.98376416 39.83214527 -13.82330653 39.92391238 -18.4375 37.75 C-21.48554136 36.01255631 -23.64823685 33.91426315 -26.125 31.4375 C-30.56394806 29.58472168 -34.09630737 29.22116481 -38.875 29.5625 C-40.00421875 29.62695312 -41.1334375 29.69140625 -42.296875 29.7578125 C-45.2331193 30.11557893 -45.2331193 30.11557893 -46.33203125 32.3515625 C-46.72455078 33.38410156 -46.72455078 33.38410156 -47.125 34.4375 C-52.85613383 38.82730463 -58.01986456 39.34078854 -65.125 38.4375 C-69.28136163 36.7572687 -71.81935919 34.28023468 -74.125 30.4375 C-74.88484862 26.58453021 -74.6767969 23.44076709 -72.75 19.9375 C-68.72244814 17.6360418 -64.66061903 17.81239866 -60.125 18.4375 C-58.01171875 19.40234375 -58.01171875 19.40234375 -56.125 20.4375 C-54.5471875 20.9015625 -54.5471875 20.9015625 -52.9375 21.375 C-51.5453125 21.9009375 -51.5453125 21.9009375 -50.125 22.4375 C-49.795 23.4275 -49.465 24.4175 -49.125 25.4375 C-46.3001 24.02505 -45.57411118 22.20971269 -44.125 19.4375 C-43.13412231 16.05200123 -43.00760906 13.78967281 -44.125 10.4375 C-43.09375 11.13875 -42.0625 11.84 -41 12.5625 C-38.14207345 14.17584563 -37.39213268 14.46955592 -34 14.0625 C-30.35057172 11.99977967 -28.60795486 9.79679187 -26.125 6.4375 C-24.805 6.7675 -23.485 7.0975 -22.125 7.4375 C-22.6303125 8.01757812 -23.135625 8.59765625 -23.65625 9.1953125 C-27.76725973 13.96030469 -27.76725973 13.96030469 -29.625 19.8125 C-29.16722029 22.53272679 -29.16722029 22.53272679 -28.125 25.4375 C-27.135 25.1075 -26.145 24.7775 -25.125 24.4375 C-24.63 27.4075 -24.63 27.4075 -24.125 30.4375 C-23.51011719 30.23253906 -22.89523438 30.02757812 -22.26171875 29.81640625 C-18.8828125 28.69010417 -15.50390625 27.56380208 -12.125 26.4375 C-10.75165383 24.14858972 -9.97249184 21.97997553 -9.125 19.4375 C-8.135 18.9425 -8.135 18.9425 -7.125 18.4375 C-6.47286708 16.41286745 -6.47286708 16.41286745 -6.125 14.4375 C-5.135 14.4375 -4.145 14.4375 -3.125 14.4375 C-3.33125 13.86 -3.5375 13.2825 -3.75 12.6875 C-4.125 10.4375 -4.125 10.4375 -3.125 8.5 C-1.81412827 5.79632706 -2.43161323 4.28809006 -3.125 1.4375 C-2.125 0.4375 -2.125 0.4375 0 0 Z " fill="#9B6635" transform="translate(117.125,98.5625)"/>
<path d="M0 0 C1.32 0.66 2.64 1.32 4 2 C2.125 7.75 2.125 7.75 1 10 C1.86625 9.79375 2.7325 9.5875 3.625 9.375 C7 9 7 9 9.6875 10 C14.54655052 11.46688318 19.02518329 10.65504704 24 10 C24.495 11.485 24.495 11.485 25 13 C25.66 13 26.32 13 27 13 C27.10836453 14.43583001 27.18576167 15.8740202 27.25 17.3125 C27.29640625 18.11300781 27.3428125 18.91351563 27.390625 19.73828125 C27 22 27 22 25.33203125 23.80859375 C22.39127241 25.31099148 20.69286425 25.15747416 17.4375 24.75 C16.48746094 24.64171875 15.53742188 24.5334375 14.55859375 24.421875 C12 24 12 24 9 23 C9 25.97 9 28.94 9 32 C7 30 7 30 6.5 27.9375 C6.335 27.298125 6.17 26.65875 6 26 C5.34 25.67 4.68 25.34 4 25 C3.3671875 22.93359375 3.3671875 22.93359375 2.875 20.4375 C2.62363281 19.19806641 2.62363281 19.19806641 2.3671875 17.93359375 C2.18542969 16.97646484 2.18542969 16.97646484 2 16 C-0.14567913 17.72855926 -0.14567913 17.72855926 -2 20 C-1.86358623 22.21858253 -1.86358623 22.21858253 -1 24 C-1.66 24 -2.32 24 -3 24 C-3.33 24.99 -3.66 25.98 -4 27 C-7.46941546 26.54177532 -10.67395049 26.10868317 -14 25 C-14.33 24.34 -14.66 23.68 -15 23 C-17.08081791 22.12884713 -17.08081791 22.12884713 -19.5 21.4375 C-23.90888383 20.09111617 -23.90888383 20.09111617 -25 19 C-25.04063832 17.33382885 -25.042721 15.66611905 -25 14 C-26.98 13.34 -28.96 12.68 -31 12 C-27.4513865 9.63425766 -26.4235475 9.89134735 -22.3125 10.375 C-20.82169922 10.54128906 -20.82169922 10.54128906 -19.30078125 10.7109375 C-18.54152344 10.80632812 -17.78226563 10.90171875 -17 11 C-16.67 10.34 -16.34 9.68 -16 9 C-14.68 9 -13.36 9 -12 9 C-11.67 8.34 -11.34 7.68 -11 7 C-9.26611024 6.28027217 -7.53138037 5.56235941 -5.7890625 4.86328125 C-3.35396037 3.68826472 -1.75113677 2.03131866 0 0 Z " fill="#7C5850" transform="translate(93,62)"/>
<path d="M0 0 C1.32 0.33 2.64 0.66 4 1 C3.67 2.98 3.34 4.96 3 7 C4.72476911 7.95502158 4.72476911 7.95502158 7 8 C9.87030999 5.53973429 11.90326143 3.14510786 14 0 C16.97 0.495 16.97 0.495 20 1 C20.06058594 1.77730469 20.12117188 2.55460937 20.18359375 3.35546875 C20.73467787 6.18742244 20.73467787 6.18742244 23.28515625 7.36328125 C24.20167969 7.67652344 25.11820313 7.98976563 26.0625 8.3125 C26.98160156 8.63863281 27.90070313 8.96476562 28.84765625 9.30078125 C29.55792969 9.53152344 30.26820312 9.76226562 31 10 C31 10.66 31 11.32 31 12 C35.95 12.99 35.95 12.99 41 14 C40.67 14.66 40.34 15.32 40 16 C34.39 15.34 28.78 14.68 23 14 C22.34 15.65 21.68 17.3 21 19 C19.30078125 20.1171875 19.30078125 20.1171875 17.3125 20.875 C13.93772791 22.36063336 11.82179464 23.98560599 9.3125 26.6875 C7.27855331 28.82752554 6.09948164 29.9549964 3.375 31.1875 C-0.17821733 30.90698284 -1.57494747 29.55613645 -4 27 C-5.5 24.125 -5.5 24.125 -6 21 C-4.51280566 16.7862827 -2.7970379 14.35678214 1 12 C0.01 11.34 -0.98 10.68 -2 10 C-2.33 10.99 -2.66 11.98 -3 13 C-3.99 13 -4.98 13 -6 13 C-5.58221009 7.2902045 -3.42453429 4.39042858 0 0 Z " fill="#B97F4D" transform="translate(48,75)"/>
<path d="M0 0 C1.32 0.33 2.64 0.66 4 1 C3.4946875 1.58007812 2.989375 2.16015625 2.46875 2.7578125 C-1.64225973 7.52280469 -1.64225973 7.52280469 -3.5 13.375 C-3.04222029 16.09522679 -3.04222029 16.09522679 -2 19 C-3.65 19 -5.3 19 -7 19 C-7.495 17.515 -7.495 17.515 -8 16 C-10.31 15.67 -12.62 15.34 -15 15 C-15.268125 15.928125 -15.53625 16.85625 -15.8125 17.8125 C-17.49565217 22.33043478 -17.49565217 22.33043478 -20 24 C-22.6875 24.1875 -22.6875 24.1875 -25 24 C-25.33 24.99 -25.66 25.98 -26 27 C-29.69280263 30.11580222 -33.04815753 30.51142978 -37.7109375 30.36328125 C-41.49276326 29.76309389 -43.88571316 28.20595318 -47 26 C-48.60682055 22.7863589 -48.46150508 19.48539659 -48 16 C-46.625 13.5 -46.625 13.5 -44 12 C-38.79119722 11.32510529 -34.63534526 11.45679815 -30 14 C-28.948125 14.309375 -27.89625 14.61875 -26.8125 14.9375 C-25.884375 15.288125 -24.95625 15.63875 -24 16 C-23.67 16.99 -23.34 17.98 -23 19 C-20.1751 17.58755 -19.44911118 15.77221269 -18 13 C-17.00912231 9.61450123 -16.88260906 7.35217281 -18 4 C-16.96875 4.70125 -15.9375 5.4025 -14.875 6.125 C-12.01707345 7.73834563 -11.26713268 8.03205592 -7.875 7.625 C-4.22557172 5.56227967 -2.48295486 3.35929187 0 0 Z " fill="#A9733C" transform="translate(91,105)"/>
<path d="M0 0 C6.81348412 6.33654024 9.28242212 15.73913298 10.3125 24.7265625 C10.42615582 28.97444866 9.66853784 32.14901467 8 36 C8.59014893 36.00410889 9.18029785 36.00821777 9.78833008 36.01245117 C12.46407016 36.04536148 15.13752475 36.11599621 17.8125 36.1875 C18.74126953 36.19330078 19.67003906 36.19910156 20.62695312 36.20507812 C23.18224836 36.28810216 25.51209558 36.40649715 28 37 C30.13671875 39.55078125 30.13671875 39.55078125 31 42 C30.34 42 29.68 42 29 42 C28.67 41.34 28.34 40.68 28 40 C27.31035156 40.09539062 26.62070313 40.19078125 25.91015625 40.2890625 C20.17630753 40.96548361 15.45330884 41.02104712 9.875 39.47265625 C7.83744349 38.87778177 7.83744349 38.87778177 5 39 C5.55338542 37.01432292 6.10677083 35.02864583 6.66015625 33.04296875 C7.19563817 30.80755841 7.19563817 30.80755841 6 28 C5.98042916 26.06248684 6.00646675 24.12430163 6.0625 22.1875 C6.14043128 15.86421319 6.14043128 15.86421319 4 10 C2.35636866 9.27840576 0.68949614 8.60648579 -1 8 C-1.65234375 5.9453125 -1.65234375 5.9453125 -2 4 C-9.19194801 5.11541786 -15.37715904 7.29584839 -20.56640625 12.6015625 C-22 14 -22 14 -24.5625 14.9375 C-27.14871695 15.78929161 -27.14871695 15.78929161 -28.3125 18.125 C-28.6528125 19.053125 -28.6528125 19.053125 -29 20 C-29.66 20 -30.32 20 -31 20 C-31.33 23.3 -31.66 26.6 -32 30 C-35.80878412 24.28682383 -35.46928231 18.6673505 -35 12 C-33.27827383 6.53098748 -29.75767566 3.046346 -25 0 C-17.30350081 -3.61879689 -7.51316691 -4.63678711 0 0 Z " fill="#E9C287" transform="translate(89,33)"/>
<path d="M0 0 C1.32 0.33 2.64 0.66 4 1 C3.67 2.98 3.34 4.96 3 7 C4.72476911 7.95502158 4.72476911 7.95502158 7 8 C9.87030999 5.53973429 11.90326143 3.14510786 14 0 C14.99 0 15.98 0 17 0 C16.125 4.75 16.125 4.75 15 7 C14.34 7 13.68 7 13 7 C13.33 7.99 13.66 8.98 14 10 C14.47469459 17.05061082 14.47469459 17.05061082 13 20 C12.34 20 11.68 20 11 20 C10.67 17.03 10.34 14.06 10 11 C8.02 11.33 6.04 11.66 4 12 C4.19471111 13.94999129 4.19471111 13.94999129 5 16 C6.9837767 17.28436734 6.9837767 17.28436734 9 18 C8.125 22.75 8.125 22.75 7 25 C3.67187429 24.42618522 2.30157545 23.40619252 0 21 C-0.66 21 -1.32 21 -2 21 C-2.33 22.98 -2.66 24.96 -3 27 C-4.625 25.4375 -4.625 25.4375 -6 23 C-5.37685112 18.63795782 -4.62494439 16.5803055 -1.375 13.5625 C-0.59125 13.046875 0.1925 12.53125 1 12 C0.01 11.34 -0.98 10.68 -2 10 C-2.33 10.99 -2.66 11.98 -3 13 C-3.99 13 -4.98 13 -6 13 C-5.58221009 7.2902045 -3.42453429 4.39042858 0 0 Z " fill="#6E5044" transform="translate(48,75)"/>
<path d="M0 0 C0.99 0.33 1.98 0.66 3 1 C3 1.66 3 2.32 3 3 C3.66 3 4.32 3 5 3 C5.37511719 3.80824219 5.75023438 4.61648437 6.13671875 5.44921875 C8.8691986 11.15507717 11.16521294 15.87621103 16 20 C16 20.33 16 20.66 16 21 C15.35933594 21.0515625 14.71867187 21.103125 14.05859375 21.15625 C8.72189463 21.85614497 5.6252894 22.7707184 2.0625 26.9375 C1.035737 28.28717618 0.0144867 29.64107219 -1 31 C-1.98169789 32.01797311 -2.97584162 33.02475664 -4 34 C-8.04700353 25.56874266 -8.04700353 25.56874266 -7 21 C-5.03505364 19.00080621 -2.98649605 17.3023017 -0.75 15.61328125 C0.11625 14.81470703 0.11625 14.81470703 1 14 C1.2236068 11.0745356 1.2236068 11.0745356 0 9 C-0.06950541 7.45976004 -0.08452357 5.91665012 -0.0625 4.375 C-0.05347656 3.55773437 -0.04445313 2.74046875 -0.03515625 1.8984375 C-0.02355469 1.27195312 -0.01195313 0.64546875 0 0 Z " fill="#E2B870" transform="translate(98,91)"/>
<path d="M0 0 C0.66 0.66 1.32 1.32 2 2 C1.01 2.33 0.02 2.66 -1 3 C-1 3.66 -1 4.32 -1 5 C-2.97290587 7.34869747 -4.00306862 8.00102287 -7 9 C-7.33 9.66 -7.66 10.32 -8 11 C-9.98 11 -11.96 11 -14 11 C-14 11.66 -14 12.32 -14 13 C-20.75 14.125 -20.75 14.125 -23 13 C-23 13.66 -23 14.32 -23 15 C-15.91049207 14.76008433 -10.13789901 14.14337191 -3.83984375 10.7421875 C-2 10 -2 10 1 11 C-4.37096774 16.66935484 -4.37096774 16.66935484 -8 18 C-8.99 18 -9.98 18 -11 18 C-11 18.66 -11 19.32 -11 20 C-8.96731398 22.16343011 -8.96731398 22.16343011 -6 24 C-6 24.66 -6 25.32 -6 26 C-8.76276177 25.47731534 -11.3260876 24.89130413 -14 24 C-14.33 23.34 -14.66 22.68 -15 22 C-17.08081791 21.12884713 -17.08081791 21.12884713 -19.5 20.4375 C-23.90888383 19.09111617 -23.90888383 19.09111617 -25 18 C-25.04063832 16.33382885 -25.042721 14.66611905 -25 13 C-26.98 12.34 -28.96 11.68 -31 11 C-27.4513865 8.63425766 -26.4235475 8.89134735 -22.3125 9.375 C-20.82169922 9.54128906 -20.82169922 9.54128906 -19.30078125 9.7109375 C-18.54152344 9.80632812 -17.78226563 9.90171875 -17 10 C-16.67 9.34 -16.34 8.68 -16 8 C-14.68 8 -13.36 8 -12 8 C-11.67 7.34 -11.34 6.68 -11 6 C-9.27003147 5.24925894 -7.53803111 4.50222036 -5.7890625 3.796875 C-3.59949046 2.8216071 -1.83069032 1.53777987 0 0 Z " fill="#6E432C" transform="translate(93,63)"/>
<path d="M0 0 C0.66 0 1.32 0 2 0 C2 2.64 2 5.28 2 8 C3.32 8.33 4.64 8.66 6 9 C6 9.66 6 10.32 6 11 C4.1128125 11.12375 4.1128125 11.12375 2.1875 11.25 C-1.31302273 11.63700664 -1.31302273 11.63700664 -3.875 14.0625 C-4.431875 15.0215625 -4.431875 15.0215625 -5 16 C-5.66 16 -6.32 16 -7 16 C-7 15.34 -7 14.68 -7 14 C-7.66386719 14.27714844 -8.32773438 14.55429687 -9.01171875 14.83984375 C-10.33623047 15.38318359 -10.33623047 15.38318359 -11.6875 15.9375 C-12.55761719 16.29714844 -13.42773438 16.65679687 -14.32421875 17.02734375 C-16.88179265 17.9570312 -19.3221323 18.54162625 -22 19 C-22 18.01 -22 17.02 -22 16 C-21.34 16 -20.68 16 -20 16 C-20 15.01 -20 14.02 -20 13 C-20.66 13 -21.32 13 -22 13 C-22 12.34 -22 11.68 -22 11 C-22.99 11.495 -22.99 11.495 -24 12 C-23.67 14.31 -23.34 16.62 -23 19 C-24.32 18.67 -25.64 18.34 -27 18 C-28.33359073 11.57451737 -28.33359073 11.57451737 -26.875 9.0625 C-24.33639987 7.62395992 -22.87213496 7.49737638 -20 8 C-18.02389614 10.04424538 -17 11.1176825 -17 14 C-14.03 13.01 -11.06 12.02 -8 11 C-8 10.01 -8 9.02 -8 8 C-8.99 7.67 -9.98 7.34 -11 7 C-11 6.34 -11 5.68 -11 5 C-9.1128125 4.87625 -9.1128125 4.87625 -7.1875 4.75 C-3.68697727 4.36299336 -3.68697727 4.36299336 -1.125 1.9375 C-0.75375 1.298125 -0.3825 0.65875 0 0 Z " fill="#423023" transform="translate(85,46)"/>
<path d="M0 0 C1.258125 0.350625 2.51625 0.70125 3.8125 1.0625 C9.34092129 2.32136026 14.43167792 1.77019782 20 1 C20.33 1.99 20.66 2.98 21 4 C21.66 4 22.32 4 23 4 C23 6.97 23 9.94 23 13 C18.25 12.25 18.25 12.25 16 10 C15.67 10.33 15.34 10.66 15 11 C13.23252271 11.12562235 11.45939708 11.17576558 9.6875 11.1875 C8.72199219 11.20167969 7.75648437 11.21585938 6.76171875 11.23046875 C4 11 4 11 0 9 C0 6.03 0 3.06 0 0 Z " fill="#B27D3D" transform="translate(97,71)"/>
<path d="M0 0 C1.3125 2.05859375 1.3125 2.05859375 2 4 C0.72125 3.7525 -0.5575 3.505 -1.875 3.25 C-7.60911074 2.61689629 -12.02616862 4.20004597 -17 7 C-18.88056246 8.55541849 -20.37204296 10.16854833 -22 12 C-22.66 12 -23.32 12 -24 12 C-24 12.66 -24 13.32 -24 14 C-24.66 14 -25.32 14 -26 14 C-27.95031692 18.07723734 -28.21581971 21.31692422 -28.125 25.8125 C-28.10695312 26.97394531 -28.08890625 28.13539062 -28.0703125 29.33203125 C-28.04710937 30.21246094 -28.02390625 31.09289063 -28 32 C-31.80878412 26.28682383 -31.46928231 20.6673505 -31 14 C-29.27827383 8.53098748 -25.75767566 5.046346 -21 2 C-14.46868832 -1.07094041 -6.99217088 -2.22147096 0 0 Z " fill="#F3D5BB" transform="translate(85,31)"/>
<path d="M0 0 C0.66 0 1.32 0 2 0 C2 0.66 2 1.32 2 2 C2.66 2 3.32 2 4 2 C4 2.99 4 3.98 4 5 C3.34 5 2.68 5 2 5 C2 5.99 2 6.98 2 8 C3.60875 7.2884375 3.60875 7.2884375 5.25 6.5625 C7.80839865 5.46233668 10.25835017 4.54832997 13 4 C12.0409375 5.1446875 12.0409375 5.1446875 11.0625 6.3125 C8.85767219 8.88246713 8.85767219 8.88246713 8 12 C8.969375 11.649375 9.93875 11.29875 10.9375 10.9375 C15.41489226 9.62547727 19.46325355 10.23873189 24 11 C24 10.34 24 9.68 24 9 C24.9590625 8.566875 24.9590625 8.566875 25.9375 8.125 C28.15206079 7.17176549 28.15206079 7.17176549 29 5 C29.99 5 30.98 5 32 5 C30.64696511 9.05910468 28.65563269 9.9213069 25 12 C23.68 12 22.36 12 21 12 C20.67 12.99 20.34 13.98 20 15 C15.71702469 16.05619003 11.57014354 16.11702092 7.1875 16.0625 C6.49462891 16.05798828 5.80175781 16.05347656 5.08789062 16.04882812 C3.39188932 16.03713156 1.69593297 16.01919924 0 16 C-0.69965443 14.73581754 -1.38434763 13.46334598 -2.0625 12.1875 C-2.44535156 11.47980469 -2.82820313 10.77210937 -3.22265625 10.04296875 C-4 8 -4 8 -3 5 C-2.67 5.66 -2.34 6.32 -2 7 C-1.34 7 -0.68 7 0 7 C-0.185625 6.030625 -0.37125 5.06125 -0.5625 4.0625 C-0.706875 3.051875 -0.85125 2.04125 -1 1 C-0.67 0.67 -0.34 0.34 0 0 Z " fill="#CE9465" transform="translate(61,57)"/>
<path d="M0 0 C0 2.31 0 4.62 0 7 C-1.65 7 -3.3 7 -5 7 C-5.66 8.32 -6.32 9.64 -7 11 C-7.99 11 -8.98 11 -10 11 C-10 11.66 -10 12.32 -10 13 C-14.03075672 14.06696501 -16.92861344 13.67856443 -21 13 C-23.76864953 13.36858988 -23.76864953 13.36858988 -26 14 C-25.42558597 10.12270528 -23.70745361 7.78480942 -21 5 C-19.68 5 -18.36 5 -17 5 C-17 5.66 -17 6.32 -17 7 C-16.360625 6.195625 -15.72125 5.39125 -15.0625 4.5625 C-11.47139485 1.55769773 -9.51234798 1.35352226 -4.98828125 1.140625 C-3.09498944 1.00671831 -1.7974246 0 0 0 Z " fill="#E0B357" transform="translate(95,55)"/>
<path d="M0 0 C2.64 0 5.28 0 8 0 C8 0.99 8 1.98 8 3 C8.763125 3.0825 9.52625 3.165 10.3125 3.25 C13.52373261 4.14615794 14.29374499 5.21611025 16 8 C15.67 8.66 15.34 9.32 15 10 C14.14921875 9.66742188 13.2984375 9.33484375 12.421875 8.9921875 C8.75454838 7.92883024 6.04417877 7.85398723 2.25 8.125 C1.12078125 8.18945312 -0.0084375 8.25390625 -1.171875 8.3203125 C-4.1081193 8.67807893 -4.1081193 8.67807893 -5.20703125 10.9140625 C-5.59955078 11.94660156 -5.59955078 11.94660156 -6 13 C-11.72148696 17.38241554 -16.90393731 17.92128171 -24 17 C-27.74030185 15.39701349 -28.73158465 14.40262302 -31 11 C-29 12 -27 13 -25 14 C-19.62310433 14.54930958 -15.35920132 14.54185108 -11 11 C-10.67 10.34 -10.34 9.68 -10 9 C-8.576875 8.5978125 -8.576875 8.5978125 -7.125 8.1875 C-3.38580531 6.76660602 -2.67995203 5.53674111 -1 2 C-0.67 1.34 -0.34 0.68 0 0 Z " fill="#473026" transform="translate(76,120)"/>
<path d="M0 0 C0.66 0.33 1.32 0.66 2 1 C1.46148032 6.27749285 0.22656164 10.25645564 -2 15 C-3.46015291 14.71758359 -4.91809793 14.42373386 -6.375 14.125 C-7.59316406 13.88136719 -7.59316406 13.88136719 -8.8359375 13.6328125 C-11 13 -11 13 -13 11 C-15.33404054 10.642852 -15.33404054 10.642852 -17.9375 10.6875 C-18.81277344 10.67074219 -19.68804687 10.65398437 -20.58984375 10.63671875 C-23.40208512 11.06060602 -24.25454479 11.81674085 -26 14 C-24.53037608 8.36644166 -24.53037608 8.36644166 -22.28125 6.8125 C-19.4832714 5.81595968 -17.21339499 5.80444298 -14.25 5.875 C-13.26515625 5.89304687 -12.2803125 5.91109375 -11.265625 5.9296875 C-10.14414062 5.96449219 -10.14414062 5.96449219 -9 6 C-8.67 4.68 -8.34 3.36 -8 2 C-5.39417629 1.06934867 -4.35801776 0.85082593 -1.75 1.9375 C-1.1725 2.288125 -0.595 2.63875 0 3 C0 2.01 0 1.02 0 0 Z " fill="#D8AD67" transform="translate(70,107)"/>
<path d="M0 0 C1.4783226 2.95664519 1.06032783 5.74229737 1 9 C4.27773504 8.24849977 4.27773504 8.24849977 6 5 C7.32 5.33 8.64 5.66 10 6 C9.3125 7.875 9.3125 7.875 8 10 C7.278125 10.268125 6.55625 10.53625 5.8125 10.8125 C2.8367936 12.06890937 1.67127511 13.23512014 -0.5 15.5625 C-2.62263864 17.76801824 -3.8308502 18.92919311 -6.6875 20.125 C-9 20 -9 20 -11.3125 19 C-13.77686625 16.07926963 -13.27871368 13.6929562 -13 10 C-9 10 -9 10 -7.4375 11.4375 C-6.963125 11.953125 -6.48875 12.46875 -6 13 C-5.01 13.33 -4.02 13.66 -3 14 C-2.67 11.69 -2.34 9.38 -2 7 C-3.32 6.34 -4.64 5.68 -6 5 C-6 3.68 -6 2.36 -6 1 C-4 0 -4 0 0 0 Z " fill="#855537" transform="translate(58,86)"/>
<path d="M0 0 C4.68660721 1.5622024 6.61112512 4.78360465 9 9 C12.58908683 18.3513822 15.11625896 27.49967433 11 37 C11.59014893 37.00410889 12.18029785 37.00821777 12.78833008 37.01245117 C15.46407016 37.04536148 18.13752475 37.11599621 20.8125 37.1875 C21.74126953 37.19330078 22.67003906 37.19910156 23.62695312 37.20507812 C26.18224836 37.28810216 28.51209558 37.40649715 31 38 C33.13671875 40.55078125 33.13671875 40.55078125 34 43 C33.34 43 32.68 43 32 43 C31.67 42.34 31.34 41.68 31 41 C30.31035156 41.09539062 29.62070313 41.19078125 28.91015625 41.2890625 C23.17630753 41.96548361 18.45330884 42.02104712 12.875 40.47265625 C10.83744349 39.87778177 10.83744349 39.87778177 8 40 C8.55338542 38.01432292 9.10677083 36.02864583 9.66015625 34.04296875 C10.19563817 31.80755841 10.19563817 31.80755841 9 29 C8.98042916 27.06248684 9.00646675 25.12430163 9.0625 23.1875 C9.09476096 18.74624115 9.07361795 15.03809811 7 11 C6.01 10.67 5.02 10.34 4 10 C2.41927041 6.71694623 1.15154357 3.45463072 0 0 Z " fill="#D8BCCB" transform="translate(86,32)"/>
<path d="M0 0 C0.99 0 1.98 0 3 0 C3.2475 0.61875 3.495 1.2375 3.75 1.875 C4.80516732 4.1362804 4.80516732 4.1362804 6.9375 4.875 C10.22460459 6.66796614 10.78190268 8.46751777 12 12 C12.24061454 16.01365524 12.1754283 19.98464106 12 24 C11.67 24 11.34 24 11 24 C10.505 21.525 10.505 21.525 10 19 C9.01 19.33 8.02 19.66 7 20 C7 19.34 7 18.68 7 18 C5.68 17.67 4.36 17.34 3 17 C3 14.36 3 11.72 3 9 C2.34 9.825 1.68 10.65 1 11.5 C-3.02366618 14.85305515 -4.90700467 14.43160977 -10 14 C-6.92817319 10.604823 -3.86040405 8.12402694 0.8125 7.8125 C1.534375 7.874375 2.25625 7.93625 3 8 C1.69844994 3.92035719 1.69844994 3.92035719 0 0 Z " fill="#D6AB75" transform="translate(84,37)"/>
<path d="M0 0 C6.0546875 -0.1953125 6.0546875 -0.1953125 8 0 C10 2 10 2 10 6 C9.236875 5.814375 8.47375 5.62875 7.6875 5.4375 C4.91032625 4.77180827 4.91032625 4.77180827 2 6 C1.67 6.99 1.34 7.98 1 9 C0.25234375 9.04898438 -0.4953125 9.09796875 -1.265625 9.1484375 C-2.74289063 9.26058594 -2.74289063 9.26058594 -4.25 9.375 C-5.22453125 9.44460937 -6.1990625 9.51421875 -7.203125 9.5859375 C-9.9394 9.99102849 -11.6963764 10.49217364 -14 12 C-15.28254644 14.53770003 -15.28254644 14.53770003 -16 17 C-16.84398243 14.6368492 -17.16884079 13.43933965 -16.25390625 11.05859375 C-13.77115459 6.98254975 -9.51104367 3.73022846 -4.91796875 2.39453125 C-3 2.125 -3 2.125 0 2 C0 1.34 0 0.68 0 0 Z " fill="#DEB78E" transform="translate(60,104)"/>
<path d="M0 0 C0.66 0.33 1.32 0.66 2 1 C1.4946875 1.58007812 0.989375 2.16015625 0.46875 2.7578125 C-3.64225973 7.52280469 -3.64225973 7.52280469 -5.5 13.375 C-5.04222029 16.09522679 -5.04222029 16.09522679 -4 19 C-5.65 19 -7.3 19 -9 19 C-9.33 18.01 -9.66 17.02 -10 16 C-12.31 15.67 -14.62 15.34 -17 15 C-17.268125 15.928125 -17.53625 16.85625 -17.8125 17.8125 C-19.46341463 22.24390244 -19.46341463 22.24390244 -22 24 C-23.32 24 -24.64 24 -26 24 C-26 23.01 -26 22.02 -26 21 C-24.68 21 -23.36 21 -22 21 C-21.731875 20.0925 -21.46375 19.185 -21.1875 18.25 C-19.25140713 12.95121951 -19.25140713 12.95121951 -17 11 C-15.205625 11.2165625 -15.205625 11.2165625 -13.375 11.4375 C-11.22293539 11.70633965 -11.22293539 11.70633965 -9 11 C-5.53820499 7.66145776 -2.75678457 3.93097059 0 0 Z " fill="#8E5C2F" transform="translate(93,105)"/>
<path d="M0 0 C0.99 0.33 1.98 0.66 3 1 C3 1.66 3 2.32 3 3 C3.66 3 4.32 3 5 3 C5.56267578 4.21236328 5.56267578 4.21236328 6.13671875 5.44921875 C8.8691986 11.15507717 11.16521294 15.87621103 16 20 C16 20.33 16 20.66 16 21 C13.25 21.25 13.25 21.25 10 21 C7.875 19.1875 7.875 19.1875 6 17 C5.29875 16.525625 4.5975 16.05125 3.875 15.5625 C1.39474996 13.49562496 0.8179065 12.13530825 0 9 C-0.15168939 5.99149379 -0.11800651 3.0091661 0 0 Z " fill="#B99898" transform="translate(98,91)"/>
<path d="M0 0 C0.66 0.33 1.32 0.66 2 1 C2.4140625 3.06640625 2.4140625 3.06640625 2.625 5.5625 C2.69976562 6.38878906 2.77453125 7.21507813 2.8515625 8.06640625 C2.90054688 8.70449219 2.94953125 9.34257813 3 10 C3.99 10.33 4.98 10.66 6 11 C6 11.99 6 12.98 6 14 C5.34 14 4.68 14 4 14 C4.33 17.63 4.66 21.26 5 25 C6.98 25 8.96 25 11 25 C11 25.33 11 25.66 11 26 C9.9275 26.144375 8.855 26.28875 7.75 26.4375 C5.08337051 26.83749442 2.58600271 27.27591924 0 28 C0.309375 27.34 0.61875 26.68 0.9375 26 C2.24960255 22.29523985 2.60264135 18.90736009 3 15 C2.34 15 1.68 15 1 15 C1 14.34 1 13.68 1 13 C-1.97 12.505 -1.97 12.505 -5 12 C-4.67 11.01 -4.34 10.02 -4 9 C-3.34 9 -2.68 9 -2 9 C-2.66 7.35 -3.32 5.7 -4 4 C-2.68 2.68 -1.36 1.36 0 0 Z " fill="#B77C3D" transform="translate(94,77)"/>
<path d="M0 0 C0.12375 0.928125 0.12375 0.928125 0.25 1.875 C0.81258459 4.18437567 0.81258459 4.18437567 3.0625 5.25 C3.701875 5.4975 4.34125 5.745 5 6 C4.125 10.75 4.125 10.75 3 13 C-0.32812571 12.42618522 -1.69842455 11.40619252 -4 9 C-4.66 9 -5.32 9 -6 9 C-6.33 10.98 -6.66 12.96 -7 15 C-8.625 13.4375 -8.625 13.4375 -10 11 C-9.41993073 6.35944588 -8.65845862 4.53499763 -5 1.5625 C-2 0 -2 0 0 0 Z " fill="#DDAC52" transform="translate(52,87)"/>
<path d="M0 0 C0.57492188 0.22816406 1.14984375 0.45632812 1.7421875 0.69140625 C1.4121875 2.01140625 1.0821875 3.33140625 0.7421875 4.69140625 C0.0821875 4.69140625 -0.5778125 4.69140625 -1.2578125 4.69140625 C-1.3196875 5.24828125 -1.3815625 5.80515625 -1.4453125 6.37890625 C-2.91064711 10.54947399 -5.95772126 13.02550586 -9.8203125 15.00390625 C-12.2578125 15.69140625 -12.2578125 15.69140625 -16.2578125 15.69140625 C-16.5878125 14.37140625 -16.9178125 13.05140625 -17.2578125 11.69140625 C-14.7828125 12.18640625 -14.7828125 12.18640625 -12.2578125 12.69140625 C-12.0928125 11.84578125 -11.9278125 11.00015625 -11.7578125 10.12890625 C-9.82801399 5.70645134 -5.43427551 -0.742747 0 0 Z " fill="#C39046" transform="translate(109.2578125,113.30859375)"/>
<path d="M0 0 C0.66 0.33 1.32 0.66 2 1 C0.68823998 2.64642317 -0.6244287 4.29212243 -1.9375 5.9375 C-2.66839844 6.85402344 -3.39929688 7.77054687 -4.15234375 8.71484375 C-6 11 -6 11 -7 12 C-12.52941176 12.23529412 -12.52941176 12.23529412 -15 11 C-15.268125 11.53625 -15.53625 12.0725 -15.8125 12.625 C-16.204375 13.40875 -16.59625 14.1925 -17 15 C-17.433125 16.051875 -17.86625 17.10375 -18.3125 18.1875 C-20 21 -20 21 -22.6875 21.875 C-23.450625 21.91625 -24.21375 21.9575 -25 22 C-25.66 20.35 -26.32 18.7 -27 17 C-26.34 16.34 -25.68 15.68 -25 15 C-24.34 16.32 -23.68 17.64 -23 19 C-20.1751 17.58755 -19.44911118 15.77221269 -18 13 C-17.00912231 9.61450123 -16.88260906 7.35217281 -18 4 C-16.96875 4.70125 -15.9375 5.4025 -14.875 6.125 C-12.01707345 7.73834563 -11.26713268 8.03205592 -7.875 7.625 C-4.22557172 5.56227967 -2.48295486 3.35929187 0 0 Z " fill="#B47F3E" transform="translate(91,105)"/>
<path d="M0 0 C4.37180155 0.66527415 7.07476508 3.08627545 9.875 6.4375 C10.8125 9.8125 10.8125 9.8125 10.875 12.4375 C7.95982708 11.36348892 6.09689824 10.65939824 3.875 8.4375 C1.89143517 7.72341666 -0.10815437 7.05132258 -2.125 6.4375 C-2.50718767 4.78135343 -2.83895102 3.11292976 -3.125 1.4375 C-2.125 0.4375 -2.125 0.4375 0 0 Z " fill="#A499BC" transform="translate(117.125,98.5625)"/>
<path d="M0 0 C0.99 0 1.98 0 3 0 C2.125 4.75 2.125 4.75 1 7 C0.34 7 -0.32 7 -1 7 C-0.67 7.99 -0.34 8.98 0 10 C0.47469459 17.05061082 0.47469459 17.05061082 -1 20 C-1.66 20 -2.32 20 -3 20 C-3.33 17.03 -3.66 14.06 -4 11 C-5.65 10.67 -7.3 10.34 -9 10 C-8.2575 9.46375 -7.515 8.9275 -6.75 8.375 C-3.84161746 6.08386315 -3.84161746 6.08386315 -1.875 2.75 C-1.25625 1.8425 -0.6375 0.935 0 0 Z " fill="#D29B6D" transform="translate(62,75)"/>
<path d="M0 0 C2.0625 0.4375 2.0625 0.4375 4 1 C3.319375 1.7425 2.63875 2.485 1.9375 3.25 C-0.28353676 5.75949064 -0.28353676 5.75949064 0.25 8.3125 C0.4975 8.869375 0.745 9.42625 1 10 C0.34 10 -0.32 10 -1 10 C-1.33 10.99 -1.66 11.98 -2 13 C-2.66 13 -3.32 13 -4 13 C-4 12.34 -4 11.68 -4 11 C-4.928125 10.8453125 -4.928125 10.8453125 -5.875 10.6875 C-8 10 -8 10 -10 7 C-8.72070154 4.44140308 -7.55728932 4.13851266 -5 2.9375 C-2.30092276 1.75531476 -2.30092276 1.75531476 0 0 Z " fill="#945232" transform="translate(91,76)"/>
<path d="M0 0 C1.134375 0.350625 2.26875 0.70125 3.4375 1.0625 C8.13882562 2.26516469 12.2650555 1.81107846 17 1 C15.66469366 4.00611679 14.28928569 6.61663407 12 9 C8.89647475 9.70581845 6.12771462 9.4906219 3 9 C2.87625 8.030625 2.7525 7.06125 2.625 6.0625 C2.41875 5.051875 2.2125 4.04125 2 3 C1.34 2.67 0.68 2.34 0 2 C0 1.34 0 0.68 0 0 Z " fill="#C9984D" transform="translate(98,71)"/>
<path d="M0 0 C2.65315971 2.37869491 2.98103345 3.67124653 3.1875 7.25 C3.125625 8.1575 3.06375 9.065 3 10 C1.35 10.33 -0.3 10.66 -2 11 C-2 10.01 -2 9.02 -2 8 C-1.34 8 -0.68 8 0 8 C0 7.01 0 6.02 0 5 C-0.66 5 -1.32 5 -2 5 C-2 4.34 -2 3.68 -2 3 C-2.99 3.495 -2.99 3.495 -4 4 C-3.67 6.31 -3.34 8.62 -3 11 C-4.32 10.67 -5.64 10.34 -7 10 C-8.33359073 3.57451737 -8.33359073 3.57451737 -6.875 1.0625 C-4.33639987 -0.37604008 -2.87213496 -0.50262362 0 0 Z " fill="#372F2B" transform="translate(65,54)"/>
<path d="M0 0 C0.33 0.99 0.66 1.98 1 3 C-5.01053289 8.00877741 -8.56071955 9.40353324 -16.3671875 9.2578125 C-19.61278917 8.93999394 -21.53865567 8.14375152 -24 6 C-24.66 5.01 -25.32 4.02 -26 3 C-24 4 -22 5 -20 6 C-14.62310433 6.54930958 -10.35920132 6.54185108 -6 3 C-5.67 2.34 -5.34 1.68 -5 1 C-2.4375 0.375 -2.4375 0.375 0 0 Z " fill="#5B3B27" transform="translate(71,128)"/>
<path d="M0 0 C2.5465587 8.86133603 2.5465587 8.86133603 0.5 13.125 C-2 15 -2 15 -5 15.6875 C-8 15 -8 15 -10.375 12 C-10.91125 11.01 -11.4475 10.02 -12 9 C-8.88801935 10.49836105 -5.9465385 12.19933758 -3 14 C-2.67 11.69 -2.34 9.38 -2 7 C-3.32 6.34 -4.64 5.68 -6 5 C-6 3.68 -6 2.36 -6 1 C-4 0 -4 0 0 0 Z " fill="#E94E39" transform="translate(58,86)"/>
<path d="M0 0 C2.43140298 1.76067112 4.04059285 3.90776887 5.8125 6.3125 C4.8225 6.6425 3.8325 6.9725 2.8125 7.3125 C1.7915625 6.6009375 1.7915625 6.6009375 0.75 5.875 C-3.39668599 3.66931596 -7.56891511 3.51403278 -12.1875 4.3125 C-13.98646567 5.73423579 -13.98646567 5.73423579 -15.1875 7.3125 C-13.73964724 1.76239775 -13.73964724 1.76239775 -11.5 -0.0625 C-7.58365144 -1.12097258 -3.88697677 -1.22162127 0 0 Z " fill="#C29051" transform="translate(59.1875,113.6875)"/>
<path d="M0 0 C0.66 0.33 1.32 0.66 2 1 C2 2.32 2 3.64 2 5 C-3.1305182 8.81124209 -7.97331532 10.26432274 -14.3125 10.125 C-15.38113281 10.10695313 -16.44976562 10.08890625 -17.55078125 10.0703125 C-18.35902344 10.04710938 -19.16726562 10.02390625 -20 10 C-20 9.34 -20 8.68 -20 8 C-17.03 8 -14.06 8 -11 8 C-11 7.34 -11 6.68 -11 6 C-9.02 6 -7.04 6 -5 6 C-4.67 5.01 -4.34 4.02 -4 3 C-3.01 3 -2.02 3 -1 3 C-0.67 2.01 -0.34 1.02 0 0 Z " fill="#A23C2E" transform="translate(90,68)"/>
<path d="M0 0 C0.66 0.33 1.32 0.66 2 1 C1.835 2.11375 1.67 3.2275 1.5 4.375 C0.9544542 7.72032033 0.9544542 7.72032033 1 10 C-1.64 10 -4.28 10 -7 10 C-7 10.66 -7 11.32 -7 12 C-8.65 12.33 -10.3 12.66 -12 13 C-11.34 11.68 -10.68 10.36 -10 9 C-9.34 9 -8.68 9 -8 9 C-7.5978125 7.7934375 -7.5978125 7.7934375 -7.1875 6.5625 C-6.795625 5.716875 -6.40375 4.87125 -6 4 C-5.01 3.67 -4.02 3.34 -3 3 C-2.67 2.34 -2.34 1.68 -2 1 C-1.34 0.67 -0.68 0.34 0 0 Z " fill="#CD9E63" transform="translate(67,94)"/>
<path d="M0 0 C2.97 0.495 2.97 0.495 6 1 C6 2.32 6 3.64 6 5 C6.66 5 7.32 5 8 5 C8.66 6.65 9.32 8.3 10 10 C8.35 10.33 6.7 10.66 5 11 C4.608125 10.175 4.21625 9.35 3.8125 8.5 C3.214375 7.675 2.61625 6.85 2 6 C-0.88185107 5.5782657 -2.39722303 5.69861151 -5 7 C-5 6.01 -5 5.02 -5 4 C-4.0409375 3.8453125 -4.0409375 3.8453125 -3.0625 3.6875 C-2.381875 3.460625 -1.70125 3.23375 -1 3 C-0.67 2.01 -0.34 1.02 0 0 Z " fill="#B68346" transform="translate(63,49)"/>
<path d="M0 0 C0.33 2.64 0.66 5.28 1 8 C-2.625 11 -2.625 11 -6 11 C-6.75 7.75 -6.75 7.75 -7 4 C-4.73286026 0.84219822 -3.93892809 0 0 0 Z " fill="#E5BD7E" transform="translate(74,93)"/>
<path d="M0 0 C-3 2 -3 2 -6 2 C-6 2.66 -6 3.32 -6 4 C-3.96731398 6.16343011 -3.96731398 6.16343011 -1 8 C-1 8.66 -1 9.32 -1 10 C-3.76276177 9.47731534 -6.3260876 8.89130413 -9 8 C-9.268125 7.360625 -9.53625 6.72125 -9.8125 6.0625 C-10.91161165 3.661178 -10.91161165 3.661178 -14.125 2.75 C-15.07375 2.5025 -16.0225 2.255 -17 2 C-17 1.67 -17 1.34 -17 1 C-14.91835982 0.63601378 -12.83459438 0.28416713 -10.75 -0.0625 C-9.00976562 -0.35833984 -9.00976562 -0.35833984 -7.234375 -0.66015625 C-4.37477376 -0.9606216 -2.66674071 -0.9439206 0 0 Z " fill="#4F3024" transform="translate(88,79)"/>
<path d="M0 0 C0.99 0.33 1.98 0.66 3 1 C3 1.66 3 2.32 3 3 C3.66 3 4.32 3 5 3 C5 5.97 5 8.94 5 12 C0.125 11.125 0.125 11.125 -1 10 C-1.0979057 8.50261876 -1.12974864 7.00057108 -1.125 5.5 C-1.12757812 4.6853125 -1.13015625 3.870625 -1.1328125 3.03125 C-1 1 -1 1 0 0 Z " fill="#9E7772" transform="translate(115,72)"/>
<path d="M0 0 C-3.08809695 1.76462683 -4.23312136 2 -8 2 C-8 2.66 -8 3.32 -8 4 C-14 7 -14 7 -16.25 7.6875 C-19.25594297 9.94195723 -19.43438305 13.48126718 -20 17 C-20.402769 19.99530512 -20.73518458 22.98946681 -21 26 C-21.33 26 -21.66 26 -22 26 C-22.60902256 12.06015038 -22.60902256 12.06015038 -17.59375 6.41796875 C-13.55642751 2.50443209 -5.64243088 -2.82121544 0 0 Z " fill="#FAE8ED" transform="translate(76,31)"/>
<path d="M0 0 C6.96662055 0.12011415 6.96662055 0.12011415 9.8671875 2.58984375 C14 7.42464115 14 7.42464115 14 9 C11.25 9.25 11.25 9.25 8 9 C5.875 7.1875 5.875 7.1875 4 5 C3.2575 4.46375 2.515 3.9275 1.75 3.375 C1.1725 2.92125 0.595 2.4675 0 2 C0 1.34 0 0.68 0 0 Z " fill="#D7ABA2" transform="translate(100,103)"/>
<path d="M0 0 C1.89611434 0.14213297 3.79188394 0.28886907 5.6875 0.4375 C6.74324219 0.51871094 7.79898438 0.59992188 8.88671875 0.68359375 C11.65257202 0.96469051 14.27955915 1.44849666 17 2 C17.99 2 18.98 2 20 2 C20 3.65 20 5.3 20 7 C19.319375 6.71125 18.63875 6.4225 17.9375 6.125 C11.9006735 3.81302389 7.43933766 2.45455896 1 4 C0.67 4.66 0.34 5.32 0 6 C-0.66 5.67 -1.32 5.34 -2 5 C-1.34 3.35 -0.68 1.7 0 0 Z " fill="#CA9655" transform="translate(71,88)"/>
<path d="M0 0 C3.27036728 -0.14510162 6.53991007 -0.23399373 9.8125 -0.3125 C11.2056543 -0.3753418 11.2056543 -0.3753418 12.62695312 -0.43945312 C15.17878189 -0.48551502 17.49350816 -0.48722926 20 0 C22.13671875 2.51953125 22.13671875 2.51953125 23 5 C22.34 5 21.68 5 21 5 C20.67 4.34 20.34 3.68 20 3 C18.96552734 3.16048828 18.96552734 3.16048828 17.91015625 3.32421875 C11.1406532 4.1878179 6.25991766 3.73581587 0 1 C0 0.67 0 0.34 0 0 Z " fill="#DBBAA2" transform="translate(97,70)"/>
<path d="M0 0 C0.66 0 1.32 0 2 0 C2 0.66 2 1.32 2 2 C2.66 2 3.32 2 4 2 C4 2.99 4 3.98 4 5 C3.34 5 2.68 5 2 5 C2 5.99 2 6.98 2 8 C2.99 8 3.98 8 5 8 C4.67 8.99 4.34 9.98 4 11 C2.02 11.33 0.04 11.66 -2 12 C-3.0625 10.1875 -3.0625 10.1875 -4 8 C-3.67 7.01 -3.34 6.02 -3 5 C-2.67 5.66 -2.34 6.32 -2 7 C-1.34 7 -0.68 7 0 7 C-0.185625 6.030625 -0.37125 5.06125 -0.5625 4.0625 C-0.706875 3.051875 -0.85125 2.04125 -1 1 C-0.67 0.67 -0.34 0.34 0 0 Z " fill="#AE6257" transform="translate(61,57)"/>
<path d="M0 0 C-0.33 1.32 -0.66 2.64 -1 4 C-1.66 4 -2.32 4 -3 4 C-3 5.32 -3 6.64 -3 8 C-3.99 8.33 -4.98 8.66 -6 9 C-6.33 10.98 -6.66 12.96 -7 15 C-8.625 13.4375 -8.625 13.4375 -10 11 C-9.41993073 6.35944588 -8.65845862 4.53499763 -5 1.5625 C-2 0 -2 0 0 0 Z " fill="#DBAEA6" transform="translate(52,87)"/>
<path d="M0 0 C0 1.65 0 3.3 0 5 C-0.92232422 5.05607422 -0.92232422 5.05607422 -1.86328125 5.11328125 C-2.67152344 5.17902344 -3.47976562 5.24476562 -4.3125 5.3125 C-5.11300781 5.37050781 -5.91351563 5.42851563 -6.73828125 5.48828125 C-9.41507799 6.09391229 -10.31859963 6.86749222 -12 9 C-13.19027984 11.59915538 -13.19027984 11.59915538 -14 14 C-14.84187422 11.64275218 -15.16744966 10.4394446 -14.26171875 8.0625 C-12.82665474 5.71663685 -11.37543695 4.4066406 -9.1875 2.75 C-8.52105469 2.22921875 -7.85460938 1.7084375 -7.16796875 1.171875 C-4.59681976 -0.21793527 -2.88056816 -0.22119546 0 0 Z " fill="#E9CBB7" transform="translate(58,107)"/>
<path d="M0 0 C-2.61897305 1.74598203 -5.10279909 3.03650965 -7.9375 4.375 C-10.99205144 5.86459257 -12.95217927 6.95217927 -15.375 9.375 C-15.91125 9.91125 -16.4475 10.4475 -17 11 C-19.25 10.75 -19.25 10.75 -21 10 C-18.22828224 7.02296982 -15.48924748 5.05776133 -12 3 C-11.46375 2.46375 -10.9275 1.9275 -10.375 1.375 C-7.18422605 -1.81577395 -4.0289635 -0.8057927 0 0 Z " fill="#E9BF6B" transform="translate(84,36)"/>
<path d="M0 0 C1.03125 0.33 2.0625 0.66 3.125 1 C9.31322256 2.58615091 15.66191329 2.16023253 22 2 C17.86433708 5.43707121 14.34306184 6.31429776 9 6 C6.07723061 5.03882081 3.49716085 3.80279724 1 2 C0.67 1.34 0.34 0.68 0 0 Z " fill="#5A3A27" transform="translate(94,132)"/>
<path d="M0 0 C0.66 0.33 1.32 0.66 2 1 C0.88200014 2.33920838 -0.24461897 3.67122556 -1.375 5 C-2.31472656 6.11375 -2.31472656 6.11375 -3.2734375 7.25 C-4.12808594 8.11625 -4.12808594 8.11625 -5 9 C-5.66 9 -6.32 9 -7 9 C-7.33 9.99 -7.66 10.98 -8 12 C-8.66 12 -9.32 12 -10 12 C-10.33 14.97 -10.66 17.94 -11 21 C-11.66 20.67 -12.32 20.34 -13 20 C-13.3227506 15.37390802 -12.84450614 12.71973879 -10 9 C-9.34 9 -8.68 9 -8 9 C-8 8.34 -8 7.68 -8 7 C-6.25 5.2734375 -6.25 5.2734375 -4 3.375 C-3.2575 2.74335937 -2.515 2.11171875 -1.75 1.4609375 C-1.1725 0.97882812 -0.595 0.49671875 0 0 Z " fill="#EECAA5" transform="translate(69,36)"/>
<path d="M0 0 C0.66 0.33 1.32 0.66 2 1 C-3.625 4.875 -3.625 4.875 -7 6 C-7.2165625 7.9490625 -7.2165625 7.9490625 -7.4375 9.9375 C-7.875 13.875 -7.875 13.875 -9 15 C-9.07258946 17.18639453 -9.08373783 19.37500389 -9.0625 21.5625 C-9.05347656 22.76003906 -9.04445312 23.95757812 -9.03515625 25.19140625 C-9.02355469 26.11824219 -9.01195312 27.04507813 -9 28 C-12.12802331 23.30796503 -11.44571916 18.49488151 -11 13 C-10.11085171 8.6862415 -8.70724083 5.68955981 -5.5 2.5625 C-3 1 -3 1 0 0 Z " fill="#ECCFD2" transform="translate(66,35)"/>
<path d="M0 0 C3.02857143 0.36933798 3.60421074 1.0871713 5.5625 3.3125 C6.5525 3.6425 7.5425 3.9725 8.5625 4.3125 C8.5625 4.9725 8.5625 5.6325 8.5625 6.3125 C6.57682292 6.01953125 4.59114583 5.7265625 2.60546875 5.43359375 C0.3599658 5.17345201 0.3599658 5.17345201 -2.4375 6.3125 C-3.0975 4.9925 -3.7575 3.6725 -4.4375 2.3125 C-2.4375 0.3125 -2.4375 0.3125 0 0 Z " fill="#5D352C" transform="translate(118.4375,105.6875)"/>
<path d="M0 0 C1.47477577 2.03659512 2.15511966 3.29441449 2.3125 5.8125 C0.875 7.5625 0.875 7.5625 -0.6875 8.8125 C-1.3475 8.4825 -2.0075 8.1525 -2.6875 7.8125 C-2.6875 6.1625 -2.6875 4.5125 -2.6875 2.8125 C-4.0075 2.4825 -5.3275 2.1525 -6.6875 1.8125 C-5.6875 -0.1875 -5.6875 -0.1875 -3.8125 -1 C-1.6875 -1.1875 -1.6875 -1.1875 0 0 Z " fill="#9D7260" transform="translate(118.6875,114.1875)"/>
<path d="M0 0 C-1.55603771 3.81936528 -3.95604931 6.26044438 -7 9 C-7.66 9 -8.32 9 -9 9 C-8.67 11.31 -8.34 13.62 -8 16 C-8.66 16 -9.32 16 -10 16 C-10.875 12.9375 -10.875 12.9375 -11 9 C-8.73380295 5.19765596 -4.73771403 0 0 0 Z " fill="#D5A752" transform="translate(100,103)"/>
<path d="M0 0 C3.45457866 0.40169519 4.49290349 1.71149673 6.6875 4.3125 C5.0375 4.6425 3.3875 4.9725 1.6875 5.3125 C2.0175 5.9725 2.3475 6.6325 2.6875 7.3125 C1.0375 6.9825 -0.6125 6.6525 -2.3125 6.3125 C-2.69468767 4.65635343 -3.02645102 2.98792976 -3.3125 1.3125 C-2.3125 0.3125 -2.3125 0.3125 0 0 Z " fill="#887BA0" transform="translate(117.3125,98.6875)"/>
<path d="M0 0 C0.33 0 0.66 0 1 0 C2.56302315 5.69663811 3.2461611 10.10905663 2 16 C1.814375 16.969375 1.62875 17.93875 1.4375 18.9375 C1.293125 19.618125 1.14875 20.29875 1 21 C0.01 21 -0.98 21 -2 21 C-1.44661458 19.01432292 -0.89322917 17.02864583 -0.33984375 15.04296875 C0.19563817 12.80755841 0.19563817 12.80755841 -1 10 C-0.91538508 8.26675881 -0.76395645 6.53607188 -0.5625 4.8125 C-0.46066406 3.91144531 -0.35882813 3.01039062 -0.25390625 2.08203125 C-0.17011719 1.39496094 -0.08632812 0.70789062 0 0 Z " fill="#9182B3" transform="translate(96,51)"/>
<path d="M0 0 C5.20833333 0.52083333 10.41666667 1.04166667 15.625 1.5625 C16.46289062 1.64628906 17.30078125 1.73007813 18.1640625 1.81640625 C18.76992187 1.87699219 19.37578125 1.93757813 20 2 C18 4 18 4 15.50390625 4.01171875 C14.04791016 3.85123047 14.04791016 3.85123047 12.5625 3.6875 C11.59441406 3.58824219 10.62632813 3.48898438 9.62890625 3.38671875 C7 3 7 3 4 2 C3.67 2.99 3.34 3.98 3 5 C1.5 3.625 1.5 3.625 0 2 C0 1.34 0 0.68 0 0 Z " fill="#543933" transform="translate(98,83)"/>
<path d="M0 0 C0.433125 0.45375 0.86625 0.9075 1.3125 1.375 C3.10798342 3.20024334 3.10798342 3.20024334 6 5 C-5.52164009 5.3690205 -5.52164009 5.3690205 -11 3 C-11 2.67 -11 2.34 -11 2 C-10.28972656 1.93941406 -9.57945313 1.87882812 -8.84765625 1.81640625 C-7.46900391 1.69072266 -7.46900391 1.69072266 -6.0625 1.5625 C-5.14597656 1.48128906 -4.22945313 1.40007812 -3.28515625 1.31640625 C-1.03840268 1.23955024 -1.03840268 1.23955024 0 0 Z " fill="#8C5834" transform="translate(113,80)"/>
<path d="M0 0 C0.33 0 0.66 0 1 0 C1.06058594 0.77730469 1.12117188 1.55460937 1.18359375 2.35546875 C1.73467787 5.18742244 1.73467787 5.18742244 4.28515625 6.36328125 C5.20167969 6.67652344 6.11820312 6.98976563 7.0625 7.3125 C8.44115234 7.80169922 8.44115234 7.80169922 9.84765625 8.30078125 C10.55792969 8.53152344 11.26820312 8.76226562 12 9 C12 9.66 12 10.32 12 11 C11.31292969 10.9278125 10.62585938 10.855625 9.91796875 10.78125 C8.56638672 10.64203125 8.56638672 10.64203125 7.1875 10.5 C6.29417969 10.4071875 5.40085937 10.314375 4.48046875 10.21875 C1.91694901 9.95607599 1.91694901 9.95607599 -1 10 C-0.835 9.46375 -0.67 8.9275 -0.5 8.375 C0.09660212 5.54113991 0.0656368 2.8880194 0 0 Z " fill="#A66E47" transform="translate(67,76)"/>
<path d="M0 0 C0.6875 1.6875 0.6875 1.6875 1 4 C-0.3992219 6.79844381 -1.78791383 8.78791383 -4 11 C-5.32 11 -6.64 11 -8 11 C-8 10.01 -8 9.02 -8 8 C-6.68 8 -5.36 8 -4 8 C-3.71125 7.05125 -3.4225 6.1025 -3.125 5.125 C-2 2 -2 2 0 0 Z " fill="#916034" transform="translate(75,118)"/>
<path d="M0 0 C0.99 0 1.98 0 3 0 C2.75 2.375 2.75 2.375 2 5 C0.1875 6.0625 0.1875 6.0625 -2 7 C-3.37086915 8.29470975 -4.71340837 9.62150897 -6 11 C-6.99 10.67 -7.98 10.34 -9 10 C-8.2575 9.46375 -7.515 8.9275 -6.75 8.375 C-3.84161746 6.08386315 -3.84161746 6.08386315 -1.875 2.75 C-1.25625 1.8425 -0.6375 0.935 0 0 Z " fill="#EACBD8" transform="translate(62,75)"/>
<path d="M0 0 C2.4375 0.375 2.4375 0.375 5 1 C6.35439668 3.70879335 6.06501451 6.00933268 6 9 C4.35 9.33 2.7 9.66 1 10 C1 9.01 1 8.02 1 7 C1.66 7 2.32 7 3 7 C3 6.01 3 5.02 3 4 C2.34 4 1.68 4 1 4 C0.67 2.68 0.34 1.36 0 0 Z " fill="#3D2A23" transform="translate(62,55)"/>
<path d="M0 0 C0.99 0.33 1.98 0.66 3 1 C3.33 4.63 3.66 8.26 4 12 C5.98 12 7.96 12 10 12 C10 12.33 10 12.66 10 13 C8.9275 13.144375 7.855 13.28875 6.75 13.4375 C4.08337051 13.83749442 1.58600271 14.27591924 -1 15 C-0.690625 14.34 -0.38125 13.68 -0.0625 13 C1.24960255 9.29523985 1.60264135 5.90736009 2 2 C1.34 2 0.68 2 0 2 C0 1.34 0 0.68 0 0 Z " fill="#B78A4F" transform="translate(95,90)"/>
<path d="M0 0 C-2.81865285 4.22797927 -2.81865285 4.22797927 -5 6 C-7.85646479 6.53855713 -10.06501905 6.29847264 -13 6 C-9.24201894 1.84644198 -5.71575712 -0.48992204 0 0 Z " fill="#B7863F" transform="translate(87,45)"/>
<path d="M0 0 C0.66 0.33 1.32 0.66 2 1 C2.40729228 3.32156597 2.74438677 5.6568787 3 8 C-1.75 10 -1.75 10 -4 10 C-4 9.01 -4 8.02 -4 7 C-3.34 7 -2.68 7 -2 7 C-1.34 4.69 -0.68 2.38 0 0 Z " fill="#B28274" transform="translate(65,75)"/>
<path d="M0 0 C1.65 0 3.3 0 5 0 C4.34 1.32 3.68 2.64 3 4 C-0.96 4 -4.92 4 -9 4 C-9 3.34 -9 2.68 -9 2 C-6.03 2 -3.06 2 0 2 C0 1.34 0 0.68 0 0 Z " fill="#955F36" transform="translate(79,74)"/>
<path d="M0 0 C2 3.75 2 3.75 2 6 C3.32 5.67 4.64 5.34 6 5 C6.66 6.65 7.32 8.3 8 10 C5.25 9.875 5.25 9.875 2 9 C-2 4.05263158 -2 4.05263158 -2 1 C-1.34 0.67 -0.68 0.34 0 0 Z " fill="#915E39" transform="translate(91,123)"/>
<path d="M0 0 C0.66 0.33 1.32 0.66 2 1 C-3.4529148 9.58834081 -3.4529148 9.58834081 -7.24609375 10.59765625 C-9.4375 10.5625 -9.4375 10.5625 -13 10 C-13.33 9.34 -13.66 8.68 -14 8 C-12.205625 7.9690625 -12.205625 7.9690625 -10.375 7.9375 C-6.54618779 7.50147868 -4.9702739 6.3687341 -2.5 3.4375 C-1.64518674 2.30760055 -0.80409059 1.16654052 0 0 Z " fill="#BF8A41" transform="translate(91,105)"/>
<path d="M0 0 C0.99 0 1.98 0 3 0 C1.64696511 4.05910468 -0.34436731 4.9213069 -4 7 C-5.32 7 -6.64 7 -8 7 C-8.33 7.99 -8.66 8.98 -9 10 C-10.65 9.67 -12.3 9.34 -14 9 C-14 8.67 -14 8.34 -14 8 C-12.35 8 -10.7 8 -9 8 C-9 7.34 -9 6.68 -9 6 C-7.68 6 -6.36 6 -5 6 C-5 5.34 -5 4.68 -5 4 C-4.360625 3.71125 -3.72125 3.4225 -3.0625 3.125 C-0.84793921 2.17176549 -0.84793921 2.17176549 0 0 Z " fill="#C7934A" transform="translate(90,62)"/>
<path d="M0 0 C0.66 0.66 1.32 1.32 2 2 C1.01 2.33 0.02 2.66 -1 3 C-1 3.66 -1 4.32 -1 5 C-2.52633735 6.90792169 -3.75579178 7.8931589 -6 8.875 C-8 9 -8 9 -9.75 7.5625 C-10.1625 7.046875 -10.575 6.53125 -11 6 C-9.9275 5.566875 -8.855 5.13375 -7.75 4.6875 C-4.83727354 3.44678487 -2.43963834 2.04929621 0 0 Z " fill="#713D2C" transform="translate(93,63)"/>
<path d="M0 0 C1.32 0.33 2.64 0.66 4 1 C3.2575 1.680625 2.515 2.36125 1.75 3.0625 C-1.24381953 6.03073132 -3.03437285 9.28714872 -5 13 C-5.68359375 11.296875 -5.68359375 11.296875 -6 9 C-4.78515625 6.640625 -4.78515625 6.640625 -3.0625 4.25 C-2.49660156 3.45078125 -1.93070313 2.6515625 -1.34765625 1.828125 C-0.90292969 1.22484375 -0.45820312 0.6215625 0 0 Z " fill="#D7C2D5" transform="translate(48,75)"/>
<path d="M0 0 C0.99 0.99 1.98 1.98 3 3 C3 3.99 3 4.98 3 6 C4.32 6.33 5.64 6.66 7 7 C6.67 7.99 6.34 8.98 6 10 C6 9.34 6 8.68 6 8 C4.68 8 3.36 8 2 8 C1.01 8.99 0.02 9.98 -1 11 C-0.67 7.37 -0.34 3.74 0 0 Z " fill="#A06B39" transform="translate(62,84)"/>
<path d="M0 0 C-3.85623679 4.82029598 -3.85623679 4.82029598 -7.11328125 5.33203125 C-9.07856214 5.3145776 -11.04166127 5.16596091 -13 5 C-11.67010555 2.3402111 -10.31101809 2.0164272 -7.625 0.8125 C-6.83351563 0.44769531 -6.04203125 0.08289063 -5.2265625 -0.29296875 C-3 -1 -3 -1 0 0 Z " fill="#62382D" transform="translate(94,74)"/>
<path d="M0 0 C0.66 0 1.32 0 2 0 C2.67493341 2.22667765 3.33963044 4.45645977 4 6.6875 C4.37125 7.92886719 4.7425 9.17023437 5.125 10.44921875 C5.87703457 13.5010019 6.19034899 15.88898362 6 19 C2.87430093 13.01922515 0.85888398 6.69929505 0 0 Z " fill="#ADA5DC" transform="translate(93,41)"/>
<path d="M0 0 C1.60332791 -0.08121924 3.20784026 -0.13929134 4.8125 -0.1875 C6.15248047 -0.23970703 6.15248047 -0.23970703 7.51953125 -0.29296875 C10 0 10 0 11.82421875 1.38671875 C13 3 13 3 13 5 C11.35 5 9.7 5 8 5 C7.67 4.01 7.34 3.02 7 2 C4.69 1.67 2.38 1.34 0 1 C0 0.67 0 0.34 0 0 Z " fill="#734629" transform="translate(76,119)"/>
<path d="M0 0 C0.99 0 1.98 0 3 0 C3.125 2.375 3.125 2.375 3 5 C2.34 5.66 1.68 6.32 1 7 C0.01 7 -0.98 7 -2 7 C-2.125 4.625 -2.125 4.625 -2 2 C-1.34 1.34 -0.68 0.68 0 0 Z " fill="#8C5A2C" transform="translate(112,117)"/>
<path d="M0 0 C0.33 0 0.66 0 1 0 C1.33 2.31 1.66 4.62 2 7 C-0.64 7 -3.28 7 -6 7 C-6 7.66 -6 8.32 -6 9 C-7.65 9.33 -9.3 9.66 -11 10 C-10.34 8.68 -9.68 7.36 -9 6 C-6.03 6 -3.06 6 0 6 C-0.33 4.68 -0.66 3.36 -1 2 C-0.67 1.34 -0.34 0.68 0 0 Z " fill="#D7A765" transform="translate(66,97)"/>
<path d="M0 0 C3.11198065 1.49836105 6.0534615 3.19933758 9 5 C9.66 3.35 10.32 1.7 11 0 C11.99 0.33 12.98 0.66 14 1 C11.88699692 4.25077397 10.85554089 5.80393855 7 6.6875 C4 6 4 6 1.625 3 C1.08875 2.01 0.5525 1.02 0 0 Z " fill="#B87D3C" transform="translate(46,95)"/>
<path d="M0 0 C-3.07999946 3.67230705 -5.2482602 4.56802365 -10 5 C-10 3.35 -10 1.7 -10 0 C-3.375 -1.125 -3.375 -1.125 0 0 Z " fill="#DAAD5B" transform="translate(115,73)"/>
<path d="M0 0 C-0.33 1.32 -0.66 2.64 -1 4 C-1 3.34 -1 2.68 -1 2 C-5.95 3.485 -5.95 3.485 -11 5 C-11 4.01 -11 3.02 -11 2 C-3.57142857 -1.57142857 -3.57142857 -1.57142857 0 0 Z " fill="#895A31" transform="translate(79,58)"/>
<path d="M0 0 C3.36680055 4.39147898 4.1219505 6.53665263 4.0625 12.125 C4.05347656 13.22070312 4.04445313 14.31640625 4.03515625 15.4453125 C4.02355469 16.28835937 4.01195313 17.13140625 4 18 C3.67 18 3.34 18 3 18 C2.86722656 17.14535156 2.73445313 16.29070313 2.59765625 15.41015625 C2.42105469 14.30542969 2.24445313 13.20070313 2.0625 12.0625 C1.88847656 10.96035156 1.71445313 9.85820313 1.53515625 8.72265625 C1.28154864 6.09573071 1.28154864 6.09573071 0 5 C-0.04063832 3.33382885 -0.042721 1.66611905 0 0 Z " fill="#C19D9B" transform="translate(92,43)"/>
<path d="M0 0 C1.32 0.99 2.64 1.98 4 3 C3.67 4.65 3.34 6.3 3 8 C4.32 8.33 5.64 8.66 7 9 C6.01 9.66 5.02 10.32 4 11 C4 10.34 4 9.68 4 9 C2.68 8.67 1.36 8.34 0 8 C0 5.36 0 2.72 0 0 Z " fill="#AF824C" transform="translate(87,46)"/>
<path d="M0 0 C0.6875 1.8125 0.6875 1.8125 1 4 C-0.3125 5.5 -0.3125 5.5 -2 7 C-3.17574711 9.09989652 -3.17574711 9.09989652 -4 11 C-4.66 11 -5.32 11 -6 11 C-5.25 5.25 -5.25 5.25 -3 3 C-2.01 3 -1.02 3 0 3 C0 2.01 0 1.02 0 0 Z " fill="#C59550" transform="translate(74,113)"/>
<path d="M0 0 C4.59334282 -0.32046578 7.43810319 -0.05305441 11 3 C11.8125 6.1875 11.8125 6.1875 12 9 C10.5 7.625 10.5 7.625 9 6 C9 5.34 9 4.68 9 4 C7.35 3.67 5.7 3.34 4 3 C4 2.34 4 1.68 4 1 C2.68 0.67 1.36 0.34 0 0 Z " fill="#E3BE90" transform="translate(78,33)"/>
<path d="M0 0 C2.64 0 5.28 0 8 0 C7.67 0.99 7.34 1.98 7 3 C3.9375 4.1875 3.9375 4.1875 1 5 C0.67 3.35 0.34 1.7 0 0 Z " fill="#5F3A25" transform="translate(76,120)"/>
<path d="M0 0 C1.99097846 2.98646769 2.94124926 5.59687262 4 9 C3.01 9.33 2.02 9.66 1 10 C-1.29404844 6.55892734 -1.26293056 5.03160191 -1 1 C-0.67 0.67 -0.34 0.34 0 0 Z " fill="#BE8842" transform="translate(88,114)"/>
<path d="M0 0 C1.32 0.99 2.64 1.98 4 3 C3.67 3.99 3.34 4.98 3 6 C2.01 5.67 1.02 5.34 0 5 C-0.4021875 6.2065625 -0.4021875 6.2065625 -0.8125 7.4375 C-1.4003125 8.7059375 -1.4003125 8.7059375 -2 10 C-2.99 10.33 -3.98 10.66 -5 11 C-5 10.34 -5 9.68 -5 9 C-4.34 8.67 -3.68 8.34 -3 8 C-2.34786708 5.97536745 -2.34786708 5.97536745 -2 4 C-1.01 4 -0.02 4 1 4 C0.67 2.68 0.34 1.36 0 0 Z " fill="#B76341" transform="translate(113,109)"/>
<path d="M0 0 C1.875 0.8125 1.875 0.8125 2.875 2.8125 C2.215 2.8125 1.555 2.8125 0.875 2.8125 C0.545 3.8025 0.215 4.7925 -0.125 5.8125 C-0.785 5.8125 -1.445 5.8125 -2.125 5.8125 C-2.125 5.1525 -2.125 4.4925 -2.125 3.8125 C-3.115 3.4825 -4.105 3.1525 -5.125 2.8125 C-2.68543956 -0.23695055 -2.68543956 -0.23695055 0 0 Z " fill="#D23326" transform="translate(89.125,83.1875)"/>
<path d="M0 0 C6.0546875 -0.1953125 6.0546875 -0.1953125 8 0 C10 2 10 2 10 6 C8.68 5.67 7.36 5.34 6 5 C6.33 3.68 6.66 2.36 7 1 C4.69 1.33 2.38 1.66 0 2 C0 1.34 0 0.68 0 0 Z " fill="#E3BB78" transform="translate(60,104)"/>
<path d="M0 0 C0.33 0.66 0.66 1.32 1 2 C-0.65 2.33 -2.3 2.66 -4 3 C-4 3.66 -4 4.32 -4 5 C-3.34 5.33 -2.68 5.66 -2 6 C-2.99 6.33 -3.98 6.66 -5 7 C-5 6.01 -5 5.02 -5 4 C-5.99 3.67 -6.98 3.34 -8 3 C-8 2.34 -8 1.68 -8 1 C-5.36 0.67 -2.72 0.34 0 0 Z " fill="#664728" transform="translate(82,50)"/>
<path d="M0 0 C1.98 0.66 3.96 1.32 6 2 C6 3.98 6 5.96 6 8 C4.68 7.67 3.36 7.34 2 7 C2.33 5.35 2.66 3.7 3 2 C2.01 1.67 1.02 1.34 0 1 C0 0.67 0 0.34 0 0 Z " fill="#CA9D6C" transform="translate(88,47)"/>
<path d="M0 0 C1.32 0 2.64 0 4 0 C5.125 7.75 5.125 7.75 4 10 C2.23537317 6.91190305 2 5.76687864 2 2 C1.01 1.67 0.02 1.34 -1 1 C-0.67 0.67 -0.34 0.34 0 0 Z " fill="#D6A769" transform="translate(72,91)"/>
<path d="M0 0 C4.29 0 8.58 0 13 0 C12.01 0.495 12.01 0.495 11 1 C11 1.66 11 2.32 11 3 C8.69 3.33 6.38 3.66 4 4 C4 3.34 4 2.68 4 2 C2.68 2 1.36 2 0 2 C0 1.34 0 0.68 0 0 Z " fill="#3C2B22" transform="translate(68,73)"/>
<path d="M0 0 C1.32 0.66 2.64 1.32 4 2 C3.25 4.9375 3.25 4.9375 2 8 C-0.125 8.875 -0.125 8.875 -2 9 C-1.25 4.25 -1.25 4.25 1 2 C0.67 1.34 0.34 0.68 0 0 Z " fill="#976D62" transform="translate(93,62)"/>
<path d="M0 0 C4.75 0.875 4.75 0.875 7 2 C7 2.66 7 3.32 7 4 C4.36 4 1.72 4 -1 4 C-0.67 2.68 -0.34 1.36 0 0 Z " fill="#423430" transform="translate(84,53)"/>
<path d="M0 0 C-0.33 0.99 -0.66 1.98 -1 3 C-3.64 3 -6.28 3 -9 3 C-9.33 2.34 -9.66 1.68 -10 1 C-6.59437148 0.22157062 -3.49234244 -0.09978121 0 0 Z " fill="#E7C18A" transform="translate(67,105)"/>
<path d="M0 0 C2.0625 0.4375 2.0625 0.4375 4 1 C3.3125 2.9375 3.3125 2.9375 2 5 C-0.625 5.75 -0.625 5.75 -3 6 C-1.125 1.125 -1.125 1.125 0 0 Z " fill="#452F24" transform="translate(64,91)"/>
<path d="M0 0 C0 2.31 0 4.62 0 7 C-0.99 7 -1.98 7 -3 7 C-3.6875 5.1875 -3.6875 5.1875 -4 3 C-1.64285714 0 -1.64285714 0 0 0 Z " fill="#D8AD73" transform="translate(95,55)"/>
<path d="M0 0 C-2.90092502 1.93395001 -3.89674737 2.30131941 -7.1875 2.625 C-8.445625 2.74875 -9.70375 2.8725 -11 3 C-7.79596591 -1.80605113 -5.23274949 -1.0465499 0 0 Z " fill="#ECC573" transform="translate(84,36)"/>
<path d="M0 0 C1.76462683 3.08809695 2 4.23312136 2 8 C0.1875 9.8125 0.1875 9.8125 -2 11 C-2.99 10.67 -3.98 10.34 -5 10 C-4.360625 9.46375 -3.72125 8.9275 -3.0625 8.375 C-0.61470596 5.55632807 -0.33285388 3.66139268 0 0 Z " fill="#E1B670" transform="translate(73,93)"/>
<path d="M0 0 C0 1.65 0 3.3 0 5 C-1.65 5 -3.3 5 -5 5 C-4.625 3.0625 -4.625 3.0625 -4 1 C-2 0 -2 0 0 0 Z " fill="#E1B688" transform="translate(73,93)"/>
<path d="M0 0 C0.66 0.33 1.32 0.66 2 1 C1.67 2.32 1.34 3.64 1 5 C1.99 5.33 2.98 5.66 4 6 C1.69 6 -0.62 6 -3 6 C-1.125 1.125 -1.125 1.125 0 0 Z " fill="#C38949" transform="translate(62,97)"/>
<path d="M0 0 C0.33 0 0.66 0 1 0 C1 1.98 1 3.96 1 6 C1.99 6.33 2.98 6.66 4 7 C3.67 7.99 3.34 8.98 3 10 C3 9.34 3 8.68 3 8 C1.68 7.67 0.36 7.34 -1 7 C-0.67 4.69 -0.34 2.38 0 0 Z " fill="#9E6B37" transform="translate(96,81)"/>
<path d="M0 0 C3.48330216 0.64505596 6.09432866 1.98217268 9 4 C9 4.66 9 5.32 9 6 C6.625 5.75 6.625 5.75 4 5 C2.8125 3 2.8125 3 2 1 C1.34 0.67 0.68 0.34 0 0 Z " fill="#664E43" transform="translate(118,106)"/>
<path d="M0 0 C0.0825 0.61875 0.165 1.2375 0.25 1.875 C0.81258459 4.18437567 0.81258459 4.18437567 3.0625 5.25 C3.701875 5.4975 4.34125 5.745 5 6 C3.125 6.625 3.125 6.625 1 7 C0.34 6.34 -0.32 5.68 -1 5 C-0.625 2.375 -0.625 2.375 0 0 Z " fill="#8D7257" transform="translate(115,99)"/>
<path d="M0 0 C0.66 0.33 1.32 0.66 2 1 C-3.75 6 -3.75 6 -6 6 C-4.98545548 3.4636387 -4.3146444 2.20648539 -2 0.6875 C-1.34 0.460625 -0.68 0.23375 0 0 Z " fill="#D59E4E" transform="translate(72,61)"/>
<path d="M0 0 C0 0.66 0 1.32 0 2 C1.32 2.33 2.64 2.66 4 3 C2.5199159 2.88637738 1.04089926 2.75877092 -0.4375 2.625 C-1.26121094 2.55539063 -2.08492188 2.48578125 -2.93359375 2.4140625 C-3.61550781 2.27742188 -4.29742187 2.14078125 -5 2 C-5.33 1.34 -5.66 0.68 -6 0 C-3.50907189 -1.24546405 -2.58919267 -0.7767578 0 0 Z " fill="#583D36" transform="translate(68,73)"/>
<path d="M0 0 C3.60654039 2.40436026 3.85452932 3.94679607 5 8 C3.68 7.67 2.36 7.34 1 7 C0.67 4.69 0.34 2.38 0 0 Z " fill="#473537" transform="translate(57,57)"/>
<path d="M0 0 C0.66 0 1.32 0 2 0 C1.67 2.64 1.34 5.28 1 8 C0.34 7.67 -0.32 7.34 -1 7 C-1.04254356 5.00045254 -1.04080783 2.99958364 -1 1 C-0.67 0.67 -0.34 0.34 0 0 Z " fill="#D6AFA9" transform="translate(57,49)"/>
<path d="M0 0 C0 3 0 3 -2.5 5.6875 C-3.325 6.450625 -4.15 7.21375 -5 8 C-5 5 -5 5 -2.5 2.3125 C-1.675 1.549375 -0.85 0.78625 0 0 Z " fill="#BC853F" transform="translate(107,119)"/>
<path d="M0 0 C2.475 0.495 2.475 0.495 5 1 C5 2.65 5 4.3 5 6 C3.0625 5.25 3.0625 5.25 1 4 C0.25 1.875 0.25 1.875 0 0 Z " fill="#302721" transform="translate(62,55)"/>
<path d="M0 0 C0.66 0 1.32 0 2 0 C2 2.31 2 4.62 2 7 C0.68 6.34 -0.64 5.68 -2 5 C-1.34 3.35 -0.68 1.7 0 0 Z " fill="#4B3625" transform="translate(85,46)"/>
</svg>
