<?xml version="1.0" encoding="UTF-8"?>
<svg version="1.1" xmlns="http://www.w3.org/2000/svg" width="160" height="160">
<path d="M0 0 C5.66709354 6.44969217 8.42849511 13.31985417 8.26953125 21.875 C7.90250777 24.76863436 6.76910487 26.71490621 5 29 C5.68835938 29.60134766 5.68835938 29.60134766 6.390625 30.21484375 C7.00421875 30.78332031 7.6178125 31.35179687 8.25 31.9375 C8.85328125 32.48277344 9.4565625 33.02804688 10.078125 33.58984375 C16.80101512 42.02078522 16.4985633 50.79050457 16.25 61.0625 C16.2298969 62.51494923 16.21165288 63.96742544 16.1953125 65.41992188 C16.15163506 68.94718334 16.08282107 72.47341499 16 76 C15.34 76 14.68 76 14 76 C14.33 76.66 14.66 77.32 15 78 C15.06950541 79.54023996 15.08452357 81.08334988 15.0625 82.625 C15.05347656 83.44226563 15.04445312 84.25953125 15.03515625 85.1015625 C15.02355469 85.72804688 15.01195312 86.35453125 15 87 C11.91190305 88.76462683 10.76687864 89 7 89 C7.04640625 89.79921875 7.0928125 90.5984375 7.140625 91.421875 C7.34508154 97.6431955 7.06897399 102.49276719 4.75 108.3125 C3.17222404 112.28331934 3.17222404 112.28331934 3.625 116.38671875 C4.69245646 118.49086774 4.69245646 118.49086774 5.984375 120.28125 C7 122 7 122 7 126 C4.03 126.495 4.03 126.495 1 127 C-3.10853243 120.21198989 -3.10853243 120.21198989 -3.24609375 115.44921875 C-3.27759521 114.52858643 -3.30909668 113.6079541 -3.34155273 112.65942383 C-3.38904663 111.18832153 -3.38904663 111.18832153 -3.4375 109.6875 C-3.37195224 95.20996008 -3.37195224 95.20996008 -8 82 C-9.97786352 87.2089423 -10.7646196 92.32539237 -11.5 97.8125 C-11.62818115 98.73160156 -11.7563623 99.65070313 -11.88842773 100.59765625 C-12.50114066 105.05319082 -13.07033393 109.51041596 -13.56640625 113.98046875 C-13.65148437 114.74576904 -13.7365625 115.51106934 -13.82421875 116.29956055 C-13.97868848 117.72603149 -14.12625642 119.15327339 -14.265625 120.58129883 C-14.66720918 124.36367245 -15.398555 127.5446 -17 131 C-22.75 131.125 -22.75 131.125 -25 130 C-23.15503876 124.33333333 -23.15503876 124.33333333 -21.90625 121.6484375 C-20.83961354 118.5312844 -20.99863552 116.5785073 -21.375 113.3125 C-22.02861522 106.01379676 -22.1219631 98.76402835 -22.125 91.4375 C-22.12935059 90.29514893 -22.13370117 89.15279785 -22.13818359 87.97583008 C-22.1355249 86.3461731 -22.1355249 86.3461731 -22.1328125 84.68359375 C-22.13168457 83.70962646 -22.13055664 82.73565918 -22.12939453 81.73217773 C-22.00235404 79.04970582 -21.55699469 76.62199602 -21 74 C-20.86494944 72.60019537 -20.75863273 71.19726957 -20.68359375 69.79296875 C-20.62075195 68.66665039 -20.62075195 68.66665039 -20.55664062 67.51757812 C-20.51732422 66.74865234 -20.47800781 65.97972656 -20.4375 65.1875 C-20.39431641 64.39923828 -20.35113281 63.61097656 -20.30664062 62.79882812 C-20.20121679 60.86605785 -20.10016906 58.93304974 -20 57 C-20.39638672 58.10988281 -20.39638672 58.10988281 -20.80078125 59.2421875 C-21.98651238 61.96898286 -23.34043872 63.81727023 -25.1875 66.125 C-28.4932274 70.87148026 -28.3028005 74.3268284 -27.4296875 79.91015625 C-27.28789063 80.59980469 -27.14609375 81.28945312 -27 82 C-27.99 82.495 -27.99 82.495 -29 83 C-29.33 83.99 -29.66 84.98 -30 86 C-31.65 86 -33.3 86 -35 86 C-37.86526622 80.26946755 -36.21438899 73.01482538 -34.35595703 67.20776367 C-32.88724637 62.90623307 -31.31531807 58.70229934 -29.453125 54.5546875 C-27.6124553 50.05197397 -26.61671188 45.53422291 -25.62695312 40.78515625 C-24.59549692 36.27091694 -23.35111077 33.23206599 -20 30 C-17.421875 28.85546875 -17.421875 28.85546875 -14.75 28.1875 C-13.85796875 27.95417969 -12.9659375 27.72085938 -12.046875 27.48046875 C-11.37140625 27.32191406 -10.6959375 27.16335937 -10 27 C-10.33 25.68 -10.66 24.36 -11 23 C-11.99 23.33 -12.98 23.66 -14 24 C-16.65864993 18.01803766 -18.1989979 12.57186586 -17 6 C-12.96974914 0.31023407 -6.7281892 -2.66324156 0 0 Z M6 60 C4.98974068 71.02878574 4.98974068 71.02878574 6 82 C6.66 82 7.32 82 8 82 C8.11459026 74.58982977 7.91160286 67.35793733 7 60 C6.67 60 6.34 60 6 60 Z " fill="#935A3A" transform="translate(92,15)"/>
<path d="M0 0 C5.66709354 6.44969217 8.42849511 13.31985417 8.26953125 21.875 C7.90250777 24.76863436 6.76910487 26.71490621 5 29 C5.68835938 29.60134766 5.68835938 29.60134766 6.390625 30.21484375 C11.02008652 34.50390369 14.29244476 38.83522335 16 45 C15.505 45.99 15.505 45.99 15 47 C14.01 47 13.02 47 12 47 C12 45.02 12 43.04 12 41 C10.35 41 8.7 41 7 41 C7.495 43.97 7.495 43.97 8 47 C7.35546875 47.22429688 6.7109375 47.44859375 6.046875 47.6796875 C3.75611148 48.82889456 3.75611148 48.82889456 3.390625 51.3828125 C3.32101563 52.74019531 3.32101563 52.74019531 3.25 54.125 C3.19328125 55.03507812 3.1365625 55.94515625 3.078125 56.8828125 C3.05234375 57.58148438 3.0265625 58.28015625 3 59 C1.01299578 57.35810704 0.07960983 56.50609104 -0.328125 53.9140625 C-0.30234375 53.15867188 -0.2765625 52.40328125 -0.25 51.625 C-0.22421875 50.83480469 -0.1984375 50.04460937 -0.171875 49.23046875 C0.01856712 46.75904936 0.38035597 44.40112063 1 42 C-0.98 42.66 -2.96 43.32 -5 44 C-5.66 42.02 -6.32 40.04 -7 38 C-5.0625 38.375 -5.0625 38.375 -3 39 C-2.67 39.66 -2.34 40.32 -2 41 C-1.67 39.68 -1.34 38.36 -1 37 C0.98 36.505 0.98 36.505 3 36 C3.33 34.68 3.66 33.36 4 32 C2.68 32 1.36 32 0 32 C-0.33 32.99 -0.66 33.98 -1 35 C-1.33 34.34 -1.66 33.68 -2 33 C-1.67 32.01 -1.34 31.02 -1 30 C-3.31 30 -5.62 30 -8 30 C-8 31.65 -8 33.3 -8 35 C-6.35 35 -4.7 35 -3 35 C-3 35.66 -3 36.32 -3 37 C-5.64 37.66 -8.28 38.32 -11 39 C-11 38.34 -11 37.68 -11 37 C-12.485 37.495 -12.485 37.495 -14 38 C-13.67 41.63 -13.34 45.26 -13 49 C-14.485 49.495 -14.485 49.495 -16 50 C-16 49.01 -16 48.02 -16 47 C-17.051875 47.495 -17.051875 47.495 -18.125 48 C-21.26003116 49.09044562 -23.70563182 49.15322643 -27 49 C-24.42691385 33.95501394 -24.42691385 33.95501394 -19.75 30.1875 C-16.55905925 28.80959377 -13.36562856 27.85790532 -10 27 C-10.33 25.68 -10.66 24.36 -11 23 C-11.99 23.33 -12.98 23.66 -14 24 C-16.65864993 18.01803766 -18.1989979 12.57186586 -17 6 C-12.96974914 0.31023407 -6.7281892 -2.66324156 0 0 Z " fill="#847D87" transform="translate(92,15)"/>
<path d="M0 0 C0.06058594 0.99902344 0.12117188 1.99804688 0.18359375 3.02734375 C0.30927734 4.96287109 0.30927734 4.96287109 0.4375 6.9375 C0.51871094 8.22527344 0.59992188 9.51304688 0.68359375 10.83984375 C0.64919188 13.86023957 0.64919188 13.86023957 2 15 C2.66 14.34 3.32 13.68 4 13 C7.83858951 19.14174322 7.25040741 27.71733931 7.3125 34.75 C7.32120117 35.62817383 7.32990234 36.50634766 7.33886719 37.41113281 C7.28525271 43.73997163 6.01531521 48.63943344 3.625 54.515625 C2.85632256 57.57111782 3.3024703 58.74567266 4.75 61.5 C5.36101562 62.38171875 5.36101562 62.38171875 5.984375 63.28125 C7 65 7 65 7 69 C4.03 69.495 4.03 69.495 1 70 C-3.10853243 63.21198989 -3.10853243 63.21198989 -3.24609375 58.44921875 C-3.27759521 57.52858643 -3.30909668 56.6079541 -3.34155273 55.65942383 C-3.37321533 54.67868896 -3.40487793 53.6979541 -3.4375 52.6875 C-3.37195224 38.20996008 -3.37195224 38.20996008 -8 25 C-10.13512329 30.51418797 -10.85180137 36.05234091 -11.625 41.875 C-11.7590625 42.84953125 -11.893125 43.8240625 -12.03125 44.828125 C-12.35928596 47.21810126 -12.68204739 49.60866503 -13 52 C-13.33 52 -13.66 52 -14 52 C-14.33 48.37 -14.66 44.74 -15 41 C-15.99 41 -16.98 41 -18 41 C-17.96519531 39.84371094 -17.96519531 39.84371094 -17.9296875 38.6640625 C-17.91164063 37.66117188 -17.89359375 36.65828125 -17.875 35.625 C-17.85179688 34.62726563 -17.82859375 33.62953125 -17.8046875 32.6015625 C-17.72783152 29.83737827 -17.72783152 29.83737827 -20 28 C-19.63775552 22.47577167 -18.75652817 17.92754694 -15.875 13.125 C-14.61732164 10.07063826 -14.87451775 7.26253841 -15 4 C-14.34 4 -13.68 4 -13 4 C-12.67 6.64 -12.34 9.28 -12 12 C-11.34 12 -10.68 12 -10 12 C-9.67 8.7 -9.34 5.4 -9 2 C-2.25 0 -2.25 0 0 0 Z " fill="#170A07" transform="translate(92,72)"/>
<path d="M0 0 C1.65 0 3.3 0 5 0 C5 1.98 5 3.96 5 6 C5.99 5.67 6.98 5.34 8 5 C9.40912096 7.81824192 9.11183553 10.17251282 9.09765625 13.3203125 C9.09443359 14.57714844 9.09121094 15.83398438 9.08789062 17.12890625 C9.07951172 18.44761719 9.07113281 19.76632813 9.0625 21.125 C9.05748489 22.46484211 9.05292201 23.804686 9.04882812 25.14453125 C9.03701086 28.42973206 9.02053617 31.71484397 9 35 C8.34 35 7.68 35 7 35 C7.33 35.66 7.66 36.32 8 37 C8.06950541 38.54023996 8.08452357 40.08334988 8.0625 41.625 C8.05347656 42.44226563 8.04445313 43.25953125 8.03515625 44.1015625 C8.02355469 44.72804687 8.01195313 45.35453125 8 46 C4.91190305 47.76462683 3.76687864 48 0 48 C0.00523682 47.42967041 0.01047363 46.85934082 0.01586914 46.27172852 C0.03658221 43.70199677 0.0496419 41.13228253 0.0625 38.5625 C0.07087891 37.66466797 0.07925781 36.76683594 0.08789062 35.84179688 C0.09111328 34.98779297 0.09433594 34.13378906 0.09765625 33.25390625 C0.10289307 32.46314697 0.10812988 31.6723877 0.11352539 30.85766602 C0.20495909 28.98407311 0.20495909 28.98407311 -1 28 C-2.32 29.32 -3.64 30.64 -5 32 C-7 30 -7 30 -7.1953125 26.7421875 C-7.17210938 25.46601562 -7.14890625 24.18984375 -7.125 22.875 C-7.10695313 21.59367187 -7.08890625 20.31234375 -7.0703125 18.9921875 C-7.04710938 18.00476563 -7.02390625 17.01734375 -7 16 C-7.60328125 16.32742187 -8.2065625 16.65484375 -8.828125 16.9921875 C-11.37547299 18.17423027 -13.22412038 18.15421553 -16 18 C-16.36666667 10.66666667 -16.36666667 10.66666667 -14.625 7.5 C-13 6 -13 6 -11 6 C-11 6.99 -11 7.98 -11 9 C-9.68 9 -8.36 9 -7 9 C-6.67 10.65 -6.34 12.3 -6 14 C-5.34 14 -4.68 14 -4 14 C-3.8453125 12.576875 -3.8453125 12.576875 -3.6875 11.125 C-3 8 -3 8 0 6 C0.2502157 2.91634129 0.2502157 2.91634129 0 0 Z " fill="#A66552" transform="translate(99,56)"/>
<path d="M0 0 C-1.65 0.33 -3.3 0.66 -5 1 C-5 1.99 -5 2.98 -5 4 C-6.98 4.33 -8.96 4.66 -11 5 C-11 5.66 -11 6.32 -11 7 C-8.525 7.99 -8.525 7.99 -6 9 C-6 10.32 -6 11.64 -6 13 C-6.66 12.67 -7.32 12.34 -8 12 C-8 11.34 -8 10.68 -8 10 C-9.32 10 -10.64 10 -12 10 C-11.67 11.98 -11.34 13.96 -11 16 C-9.6696875 15.5359375 -9.6696875 15.5359375 -8.3125 15.0625 C-0.92307692 12.69230769 -0.92307692 12.69230769 3 14 C2.67 13.01 2.34 12.02 2 11 C3.32 10.67 4.64 10.34 6 10 C6 11.65 6 13.3 6 15 C5.01 15.33 4.02 15.66 3 16 C3.185625 16.969375 3.37125 17.93875 3.5625 18.9375 C3.706875 19.948125 3.85125 20.95875 4 22 C3 23 3 23 0.1875 23.1875 C-2.86698544 23.00782439 -4.43795344 22.57664404 -7 21 C-6.01 23.64 -5.02 26.28 -4 29 C-4.99 29 -5.98 29 -7 29 C-7 30.32 -7 31.64 -7 33 C-8.98 32.67 -10.96 32.34 -13 32 C-13.33 32.66 -13.66 33.32 -14 34 C-14.66 34 -15.32 34 -16 34 C-16 38.62 -16 43.24 -16 48 C-20.455 48.495 -20.455 48.495 -25 49 C-22.42691385 33.95501394 -22.42691385 33.95501394 -17.75 30.1875 C-14.55905925 28.80959377 -11.36562856 27.85790532 -8 27 C-8.33 25.68 -8.66 24.36 -9 23 C-9.99 23.33 -10.98 23.66 -12 24 C-14.65864993 18.01803766 -16.1989979 12.57186586 -15 6 C-11.46162048 1.00464067 -6.13576068 -2.35990796 0 0 Z " fill="#75876C" transform="translate(90,15)"/>
<path d="M0 0 C0.33 1.32 0.66 2.64 1 4 C1.99 3.34 2.98 2.68 4 2 C4.69159478 19.28986943 4.69159478 19.28986943 1.75 26.625 C0.16531873 30.42352967 0.16531873 30.42352967 0.625 34.3671875 C1.6896034 36.48914729 1.6896034 36.48914729 2.984375 38.28125 C4 40 4 40 4 44 C1.03 44.495 1.03 44.495 -2 45 C-6.10421615 38.21912114 -6.10421615 38.21912114 -6.31640625 33.4296875 C-6.35830078 32.53378906 -6.40019531 31.63789063 -6.44335938 30.71484375 C-6.48267578 29.77769531 -6.52199219 28.84054688 -6.5625 27.875 C-6.60568359 26.93011719 -6.64886719 25.98523438 -6.69335938 25.01171875 C-6.79959072 22.67462908 -6.90163176 20.3374317 -7 18 C-6.34 18 -5.68 18 -5 18 C-4.97311849 16.35425434 -4.95365877 14.70838587 -4.9375 13.0625 C-4.92589844 12.14597656 -4.91429688 11.22945312 -4.90234375 10.28515625 C-4.74050951 8.03406673 -4.74050951 8.03406673 -6 7 C-6.04080783 5.00041636 -6.04254356 2.99954746 -6 1 C-4 0 -4 0 0 0 Z " fill="#351914" transform="translate(95,97)"/>
<path d="M0 0 C2.475 0.99 2.475 0.99 5 2 C4.505 2.7425 4.01 3.485 3.5 4.25 C1.68076525 7.06318188 1.68076525 7.06318188 2 11 C1.34 11 0.68 11 0 11 C-0.04125 12.258125 -0.0825 13.51625 -0.125 14.8125 C-0.14820312 15.52019531 -0.17140625 16.22789063 -0.1953125 16.95703125 C-0.13254462 19.31359719 -0.13254462 19.31359719 2 22 C1.9765625 24.48046875 1.9765625 24.48046875 1.625 27.1875 C1.51414062 28.08855469 1.40328125 28.98960938 1.2890625 29.91796875 C1.14597656 30.94857422 1.14597656 30.94857422 1 32 C1.99 32 2.98 32 4 32 C6.8508256 41.5932544 6.06297042 55.8996069 2 65 C-3.75 65.125 -3.75 65.125 -6 64 C-4.15503876 58.33333333 -4.15503876 58.33333333 -2.90625 55.6484375 C-1.83961354 52.5312844 -1.99863552 50.5785073 -2.375 47.3125 C-3.00313636 40.16082696 -3.15589718 33.05342853 -3.1875 25.875 C-3.20022949 24.79130127 -3.21295898 23.70760254 -3.22607422 22.59106445 C-3.23607187 15.25667795 -2.66737421 8.1608524 -1 1 C-0.67 0.67 -0.34 0.34 0 0 Z " fill="#402B40" transform="translate(73,81)"/>
<path d="M0 0 C4.69228069 4.76642508 7.35181751 11.11090507 8.4375 17.625 C8 20 8 20 5.6875 22.3125 C3 24 3 24 0 24 C-0.33 25.65 -0.66 27.3 -1 29 C-3.8125 29 -3.8125 29 -7 28 C-8.46581614 25.46032588 -9.26532365 22.82914839 -10 20 C-9.29875 20.33 -8.5975 20.66 -7.875 21 C-4.73996884 22.09044562 -2.29436818 22.15322643 1 22 C1 20.02 1 18.04 1 16 C1.66 15.67 2.32 15.34 3 15 C3.65555119 12.47266765 3.65555119 12.47266765 4 10 C3.01 10.66 2.02 11.32 1 12 C1 12.66 1 13.32 1 14 C-0.11375 13.938125 -1.2275 13.87625 -2.375 13.8125 C-4.169375 13.9053125 -4.169375 13.9053125 -6 14 C-6.99 15.485 -6.99 15.485 -8 17 C-8 16.34 -8 15.68 -8 15 C-9.65 15.66 -11.3 16.32 -13 17 C-14 16 -14 16 -14.0625 12.9375 C-14.041875 11.968125 -14.02125 10.99875 -14 10 C-12.68 10 -11.36 10 -10 10 C-9.34 10.66 -8.68 11.32 -8 12 C-8 11.34 -8 10.68 -8 10 C-8.825 9.505 -9.65 9.01 -10.5 8.5 C-11.325 8.005 -12.15 7.51 -13 7 C-13 6.34 -13 5.68 -13 5 C-11.02 4.67 -9.04 4.34 -7 4 C-7 3.01 -7 2.02 -7 1 C-4.41891758 -0.29054121 -2.86087946 -0.35598197 0 0 Z " fill="#4F746E" transform="translate(92,15)"/>
<path d="M0 0 C0.99 0 1.98 0 3 0 C3.3690205 9.41002278 3.3690205 9.41002278 1 14 C1.66 14 2.32 14 3 14 C3 13.34 3 12.68 3 12 C3.66 12 4.32 12 5 12 C5 13.98 5 15.96 5 18 C3.35 17.67 1.7 17.34 0 17 C0 13.7 0 10.4 0 7 C-0.39638672 8.10988281 -0.39638672 8.10988281 -0.80078125 9.2421875 C-1.98651238 11.96898286 -3.34043872 13.81727023 -5.1875 16.125 C-8.4932274 20.87148026 -8.3028005 24.3268284 -7.4296875 29.91015625 C-7.28789063 30.59980469 -7.14609375 31.28945312 -7 32 C-7.99 32.495 -7.99 32.495 -9 33 C-9.33 33.99 -9.66 34.98 -10 36 C-11.65 36 -13.3 36 -15 36 C-17.4342342 31.1315316 -16.47699661 23.92437478 -15 18.8125 C-14.67 17.884375 -14.34 16.95625 -14 16 C-13.071875 16.0825 -12.14375 16.165 -11.1875 16.25 C-8.02313284 16.32460383 -8.02313284 16.32460383 -6.3125 14.5 C-4.84399741 11.70285222 -3.74970442 8.88074511 -2.6953125 5.90625 C-1.94503502 3.8493095 -1.04262366 1.92484367 0 0 Z " fill="#6B93B4" transform="translate(72,65)"/>
<path d="M0 0 C2 2 2 2 2 5 C2.99 4.67 3.98 4.34 5 4 C5.33 5.98 5.66 7.96 6 10 C5.01 10 4.02 10 3 10 C3 11.65 3 13.3 3 15 C3.99 15 4.98 15 6 15 C6.66 12.36 7.32 9.72 8 7 C8.33 7 8.66 7 9 7 C9 10.3 9 13.6 9 17 C8.34 17 7.68 17 7 17 C7.33 17.66 7.66 18.32 8 19 C8.06950541 20.54023996 8.08452357 22.08334988 8.0625 23.625 C8.05347656 24.44226563 8.04445313 25.25953125 8.03515625 26.1015625 C8.02355469 26.72804688 8.01195313 27.35453125 8 28 C4.91190305 29.76462683 3.76687864 30 0 30 C0 20.1 0 10.2 0 0 Z " fill="#A88F7E" transform="translate(99,74)"/>
<path d="M0 0 C0.66 0 1.32 0 2 0 C2.66 1.65 3.32 3.3 4 5 C3.01 5 2.02 5 1 5 C1 6.32 1 7.64 1 9 C-1.97 8.505 -1.97 8.505 -5 8 C-5.33 8.66 -5.66 9.32 -6 10 C-6.66 10 -7.32 10 -8 10 C-8 14.62 -8 19.24 -8 24 C-10.97 24.33 -13.94 24.66 -17 25 C-14.42691385 9.95501394 -14.42691385 9.95501394 -9.75 6.1875 C-6.55905925 4.80959377 -3.36562856 3.85790532 0 3 C0 2.01 0 1.02 0 0 Z " fill="#7B6677" transform="translate(82,39)"/>
<path d="M0 0 C0.99 1.32 1.98 2.64 3 4 C2.1875 5.9375 2.1875 5.9375 1 8 C0.01 8.33 -0.98 8.66 -2 9 C-3.20882096 11.00016466 -3.20882096 11.00016466 -4 13 C-4.66 12.01 -5.32 11.02 -6 10 C-6.99 9.67 -7.98 9.34 -9 9 C-8.34 10.65 -7.68 12.3 -7 14 C-5.02 13.67 -3.04 13.34 -1 13 C-1.33 15.64 -1.66 18.28 -2 21 C-3.32 21 -4.64 21 -6 21 C-6 20.01 -6 19.02 -6 18 C-7.65 19.32 -9.3 20.64 -11 22 C-11.22142255 20.04310341 -11.4267568 18.08438048 -11.625 16.125 C-11.74101563 15.03445312 -11.85703125 13.94390625 -11.9765625 12.8203125 C-11.98429687 11.88960937 -11.99203125 10.95890625 -12 10 C-10 8 -10 8 -7.375 7.875 C-6.59125 7.91625 -5.8075 7.9575 -5 8 C-5 7.34 -5 6.68 -5 6 C-6.65 6 -8.3 6 -10 6 C-10 4.35 -10 2.7 -10 1 C-7.69 1 -5.38 1 -3 1 C-3 2.32 -3 3.64 -3 5 C-2.67 4.34 -2.34 3.68 -2 3 C-1.34 3 -0.68 3 0 3 C0 2.01 0 1.02 0 0 Z " fill="#636136" transform="translate(94,44)"/>
<path d="M0 0 C0.33 0.99 0.66 1.98 1 3 C0 5 0 5 -1 6 C-0.67 6.99 -0.34 7.98 0 9 C-0.66 9 -1.32 9 -2 9 C-2.33 9.99 -2.66 10.98 -3 12 C-3.33 11.34 -3.66 10.68 -4 10 C-3.67 9.01 -3.34 8.02 -3 7 C-5.31 7 -7.62 7 -10 7 C-10 8.65 -10 10.3 -10 12 C-8.35 12 -6.7 12 -5 12 C-5 12.66 -5 13.32 -5 14 C-7.64 14.66 -10.28 15.32 -13 16 C-13 15.34 -13 14.68 -13 14 C-13.99 14.33 -14.98 14.66 -16 15 C-15.67 18.63 -15.34 22.26 -15 26 C-15.99 26.33 -16.98 26.66 -18 27 C-18 26.01 -18 25.02 -18 24 C-18.99 23.67 -19.98 23.34 -21 23 C-20.88617347 21.04098546 -20.75858875 19.0827662 -20.625 17.125 C-20.55539063 16.03445312 -20.48578125 14.94390625 -20.4140625 13.8203125 C-20 11 -20 11 -18 9 C-17.34 8.67 -16.68 8.34 -16 8 C-13.375 8.9375 -13.375 8.9375 -11 10 C-11 8.68 -11 7.36 -11 6 C-5.25 4.875 -5.25 4.875 -3 6 C-2.87625 5.195625 -2.7525 4.39125 -2.625 3.5625 C-2.315625 2.2940625 -2.315625 2.2940625 -2 1 C-1.34 0.67 -0.68 0.34 0 0 Z " fill="#846F8C" transform="translate(94,38)"/>
<path d="M0 0 C0.99 0.33 1.98 0.66 3 1 C3 1.66 3 2.32 3 3 C4.32 3.33 5.64 3.66 7 4 C6.69255859 4.86625 6.69255859 4.86625 6.37890625 5.75 C5.9035133 8.57295195 6.52007069 9.5564855 7.9375 12 C9.77406622 15.18753188 10 16.07199162 10 20 C8.02 20.33 6.04 20.66 4 21 C0.80655474 15.72387305 -0.11936757 13.13043294 -0.0625 6.875 C-0.05347656 5.59367187 -0.04445313 4.31234375 -0.03515625 2.9921875 C-0.02355469 2.00476563 -0.01195313 1.01734375 0 0 Z " fill="#2C2D5A" transform="translate(89,121)"/>
<path d="M0 0 C2.475 0.99 2.475 0.99 5 2 C4.2575 3.11375 4.2575 3.11375 3.5 4.25 C1.68076525 7.06318188 1.68076525 7.06318188 2 11 C1.34 11 0.68 11 0 11 C-0.04125 12.258125 -0.0825 13.51625 -0.125 14.8125 C-0.15980469 15.87404297 -0.15980469 15.87404297 -0.1953125 16.95703125 C-0.13254462 19.31359719 -0.13254462 19.31359719 2 22 C1.67 22.33 1.34 22.66 1 23 C0.79395915 24.32781878 0.6337041 25.66295895 0.5 27 C0.11111111 30.88888889 0.11111111 30.88888889 -1 32 C-1.36760731 34.32817964 -1.70241581 36.6618385 -2 39 C-2.33 39 -2.66 39 -3 39 C-3.0590068 34.91672939 -3.09392935 30.83357118 -3.125 26.75 C-3.14175781 25.61046875 -3.15851563 24.4709375 -3.17578125 23.296875 C-3.21886839 15.71353863 -2.75447871 8.40206014 -1 1 C-0.67 0.67 -0.34 0.34 0 0 Z " fill="#211D56" transform="translate(73,81)"/>
<path d="M0 0 C-1.65 0.33 -3.3 0.66 -5 1 C-5 1.99 -5 2.98 -5 4 C-6.98 4.33 -8.96 4.66 -11 5 C-11 5.66 -11 6.32 -11 7 C-8.525 7.99 -8.525 7.99 -6 9 C-6 10.32 -6 11.64 -6 13 C-6.66 12.67 -7.32 12.34 -8 12 C-8 11.34 -8 10.68 -8 10 C-9.32 10 -10.64 10 -12 10 C-11.34 13.3 -10.68 16.6 -10 20 C-14 18 -14 18 -15 16 C-15.62405103 10.96301665 -15.86913927 7.22702015 -12.875 3 C-8.69597985 0.09285555 -5.0080635 -1.92617827 0 0 Z " fill="#5E9DBE" transform="translate(90,15)"/>
<path d="M0 0 C0.6875 1.6875 0.6875 1.6875 1 4 C-0.4375 6.75 -0.4375 6.75 -2 9 C-1.31164062 9.60134766 -1.31164062 9.60134766 -0.609375 10.21484375 C4.02008652 14.50390369 7.29244476 18.83522335 9 25 C8.67 25.66 8.34 26.32 8 27 C7.01 27 6.02 27 5 27 C4.9175 25.906875 4.835 24.81375 4.75 23.6875 C4.36310791 19.96723336 4.36310791 19.96723336 1.9375 18.0625 C1.298125 17.711875 0.65875 17.36125 0 17 C-0.33 17.66 -0.66 18.32 -1 19 C-1.66 18.34 -2.32 17.68 -3 17 C-2.67 16.34 -2.34 15.68 -2 15 C-2.60578253 12.98072489 -3.26919734 10.97746603 -4 9 C-4.99 9.33 -5.98 9.66 -7 10 C-7 9.34 -7 8.68 -7 8 C-6.34 8 -5.68 8 -5 8 C-4.731875 6.865625 -4.46375 5.73125 -4.1875 4.5625 C-3.795625 3.386875 -3.40375 2.21125 -3 1 C-2.01 0.67 -1.02 0.34 0 0 Z " fill="#6A8DC9" transform="translate(99,35)"/>
<path d="M0 0 C0.33 0 0.66 0 1 0 C3.66077956 8.44175384 3.66077956 8.44175384 1.625 13.0625 C1.08875 14.031875 0.5525 15.00125 0 16 C-1.32 16 -2.64 16 -4 16 C-6.25 13.75 -6.25 13.75 -8 11 C-8 9.68 -8 8.36 -8 7 C-7.34 7 -6.68 7 -6 7 C-5.67 6.34 -5.34 5.68 -5 5 C-3.35 5 -1.7 5 0 5 C0 3.35 0 1.7 0 0 Z " fill="#3E1F1F" transform="translate(96,108)"/>
<path d="M0 0 C0.33 0 0.66 0 1 0 C1.3690205 10.55808656 1.3690205 10.55808656 -1 15 C-6.75 15.125 -6.75 15.125 -9 14 C-7.7874262 10.27566618 -6.49140021 6.62197194 -5 3 C-4.01 3 -3.02 3 -2 3 C-1.34 2.01 -0.68 1.02 0 0 Z " fill="#356681" transform="translate(76,131)"/>
<path d="M0 0 C0.99 0 1.98 0 3 0 C3.3690205 9.41002278 3.3690205 9.41002278 1 14 C1.66 14 2.32 14 3 14 C3 13.34 3 12.68 3 12 C3.66 12 4.32 12 5 12 C5 13.98 5 15.96 5 18 C3.35 17.67 1.7 17.34 0 17 C0 13.7 0 10.4 0 7 C-0.226875 7.66 -0.45375 8.32 -0.6875 9 C-2.40571358 12.92734533 -4.66774607 16.41260178 -7 20 C-7.578125 18.109375 -7.578125 18.109375 -8 16 C-7.03126968 14.64377755 -6.02323436 13.31558703 -5 12 C-4.14988447 9.99289797 -3.4234707 7.9604226 -2.6953125 5.90625 C-1.94503502 3.8493095 -1.04262366 1.92484367 0 0 Z " fill="#B28F87" transform="translate(72,65)"/>
<path d="M0 0 C0 0.99 0 1.98 0 3 C1.32 3 2.64 3 4 3 C4 5.31 4 7.62 4 10 C0.86501708 11.85776765 -1.37471432 12.20140476 -5 12 C-5.36666667 4.66666667 -5.36666667 4.66666667 -3.625 1.5 C-2 0 -2 0 0 0 Z " fill="#8F8836" transform="translate(88,62)"/>
<path d="M0 0 C4.455 0.99 4.455 0.99 9 2 C9 2.66 9 3.32 9 4 C10.32 4.66 11.64 5.32 13 6 C13 6.66 13 7.32 13 8 C11.88625 7.938125 10.7725 7.87625 9.625 7.8125 C7.830625 7.9053125 7.830625 7.9053125 6 8 C5.01 9.485 5.01 9.485 4 11 C4 10.34 4 9.68 4 9 C2.35 9.66 0.7 10.32 -1 11 C-2 10 -2 10 -2.0625 6.9375 C-2.041875 5.968125 -2.02125 4.99875 -2 4 C-0.68 4 0.64 4 2 4 C2.66 4.66 3.32 5.32 4 6 C4.2284549 3.75637427 4.2284549 3.75637427 2 1.875 C1.34 1.25625 0.68 0.6375 0 0 Z " fill="#59293A" transform="translate(80,21)"/>
<path d="M0 0 C0.66 0 1.32 0 2 0 C2 8.25 2 16.5 2 25 C1.01 24.67 0.02 24.34 -1 24 C-2.07403648 21.21537687 -2.08103095 18.69284342 -1.9140625 15.7421875 C-1.87023437 14.95199219 -1.82640625 14.16179687 -1.78125 13.34765625 C-1.7296875 12.53167969 -1.678125 11.71570313 -1.625 10.875 C-1.58117187 10.05128906 -1.53734375 9.22757813 -1.4921875 8.37890625 C-1.13188486 2.26376971 -1.13188486 2.26376971 0 0 Z " fill="#756D8B" transform="translate(81,60)"/>
<path d="M0 0 C0.99 1.32 1.98 2.64 3 4 C2.1875 5.9375 2.1875 5.9375 1 8 C0.01 8.33 -0.98 8.66 -2 9 C-3.20882096 11.00016466 -3.20882096 11.00016466 -4 13 C-6 10 -6 10 -5.625 7.8125 C-5.41875 7.214375 -5.2125 6.61625 -5 6 C-6.65 6 -8.3 6 -10 6 C-10 4.35 -10 2.7 -10 1 C-7.69 1 -5.38 1 -3 1 C-3 2.32 -3 3.64 -3 5 C-2.67 4.34 -2.34 3.68 -2 3 C-1.34 3 -0.68 3 0 3 C0 2.01 0 1.02 0 0 Z " fill="#43463D" transform="translate(94,44)"/>
<path d="M0 0 C0.66 0 1.32 0 2 0 C2.66 1.65 3.32 3.3 4 5 C3.01 5 2.02 5 1 5 C1 6.32 1 7.64 1 9 C-1.97 8.505 -1.97 8.505 -5 8 C-5.33 8.66 -5.66 9.32 -6 10 C-6.66 10 -7.32 10 -8 10 C-8 11.98 -8 13.96 -8 16 C-8.66 16 -9.32 16 -10 16 C-10.66 13.36 -11.32 10.72 -12 8 C-8.14522751 5.43015167 -4.47959418 4.14185734 0 3 C0 2.01 0 1.02 0 0 Z " fill="#8199C8" transform="translate(82,39)"/>
<path d="M0 0 C1.32 0 2.64 0 4 0 C5.20272819 2.40545638 5.10071472 3.94996953 5.0625 6.625 C5.05347656 7.44226563 5.04445313 8.25953125 5.03515625 9.1015625 C5.02355469 9.72804688 5.01195313 10.35453125 5 11 C1.91190305 12.76462683 0.76687864 13 -3 13 C-2.67 12.01 -2.34 11.02 -2 10 C-1.34 10 -0.68 10 0 10 C0 6.7 0 3.4 0 0 Z " fill="#6D4D46" transform="translate(102,91)"/>
<path d="M0 0 C0 2.97 0 5.94 0 9 C-7.875 8.125 -7.875 8.125 -9 7 C-9.04063832 5.33382885 -9.042721 3.66611905 -9 2 C-2.25 0 -2.25 0 0 0 Z " fill="#210B04" transform="translate(92,72)"/>
<path d="M0 0 C0.33 2.31 0.66 4.62 1 7 C0.01 7.495 0.01 7.495 -1 8 C-1.33 8.99 -1.66 9.98 -2 11 C-3.65 11 -5.3 11 -7 11 C-6.8864371 9.35333797 -6.75882619 7.70763918 -6.625 6.0625 C-6.55539063 5.14597656 -6.48578125 4.22945313 -6.4140625 3.28515625 C-6.27742188 2.53105469 -6.14078125 1.77695313 -6 1 C-4 0 -4 0 0 0 Z " fill="#8E9570" transform="translate(64,90)"/>
<path d="M0 0 C0.99 0.33 1.98 0.66 3 1 C2.979375 2.093125 2.95875 3.18625 2.9375 4.3125 C2.81455548 7.94384191 2.81455548 7.94384191 4 11 C3.07796291 13.36522558 2.08301035 15.70401807 1 18 C-1 16 -1 16 -1.23046875 12.55859375 C-1.22647911 11.18482696 -1.21173177 9.81105886 -1.1875 8.4375 C-1.18685547 7.73947266 -1.18621094 7.04144531 -1.18554688 6.32226562 C-1.14031158 1.14031158 -1.14031158 1.14031158 0 0 Z " fill="#65515B" transform="translate(93,70)"/>
<path d="M0 0 C0.99 0 1.98 0 3 0 C4.06723961 3.46222615 4.10173486 6.64039266 4.0625 10.25 C4.05347656 11.32765625 4.04445313 12.4053125 4.03515625 13.515625 C4.02355469 14.33546875 4.01195313 15.1553125 4 16 C1.5234375 14.8125 1.5234375 14.8125 -1 13 C-1.5234375 10.625 -1.5234375 10.625 -1.375 8 C-1.32472656 6.700625 -1.32472656 6.700625 -1.2734375 5.375 C-1 3 -1 3 0 0 Z " fill="#653116" transform="translate(74,113)"/>
<path d="M0 0 C0.639375 0.33 1.27875 0.66 1.9375 1 C6.01236841 2.33056928 9.75190425 2.16659199 14 2 C13.67 2.66 13.34 3.32 13 4 C12.01 4 11.02 4 10 4 C9.67 5.65 9.34 7.3 9 9 C6.1875 9 6.1875 9 3 8 C1.53418386 5.46032588 0.73467635 2.82914839 0 0 Z " fill="#491312" transform="translate(82,35)"/>
<path d="M0 0 C1.65 0 3.3 0 5 0 C5.43702768 4.45768233 5.51445113 6.34650802 2.6875 9.9375 C0 12 0 12 -3 12 C-3 10.68 -3 9.36 -3 8 C-2.01 7.34 -1.02 6.68 0 6 C0.2502157 2.91634129 0.2502157 2.91634129 0 0 Z " fill="#794C4B" transform="translate(99,56)"/>
<path d="M0 0 C1.65 0.33 3.3 0.66 5 1 C6.0326802 3.78823655 6.04509293 4.8677274 5.0625 7.75 C4.711875 8.4925 4.36125 9.235 4 10 C2.35 9.67 0.7 9.34 -1 9 C-0.67 6.03 -0.34 3.06 0 0 Z " fill="#4B1A11" transform="translate(73,92)"/>
<path d="M0 0 C0.66 0.33 1.32 0.66 2 1 C2.125 7.625 2.125 7.625 1 11 C-1.0625 11.6875 -1.0625 11.6875 -3 12 C-3 12.66 -3 13.32 -3 14 C-3.66 14 -4.32 14 -5 14 C-4.74476126 12.37247769 -4.47025506 10.74796804 -4.1875 9.125 C-4.03667969 8.22007813 -3.88585937 7.31515625 -3.73046875 6.3828125 C-3 4 -3 4 0 2 C0 1.34 0 0.68 0 0 Z " fill="#5E231B" transform="translate(78,65)"/>
<path d="M0 0 C0.66 0.33 1.32 0.66 2 1 C1.67 1.66 1.34 2.32 1 3 C5.47883696 2.55296014 5.47883696 2.55296014 9 0 C9.33 1.98 9.66 3.96 10 6 C7.69 5.67 5.38 5.34 3 5 C2.67 6.32 2.34 7.64 2 9 C1.67 8.34 1.34 7.68 1 7 C0.01 7.33 -0.98 7.66 -2 8 C-2.33 6.35 -2.66 4.7 -3 3 C-2.34 2.67 -1.68 2.34 -1 2 C-0.67 1.34 -0.34 0.68 0 0 Z " fill="#7B697F" transform="translate(80,31)"/>
<path d="M0 0 C0.66 0.33 1.32 0.66 2 1 C1.67 1.33 1.34 1.66 1 2 C0.90044896 3.93538935 0.87031332 5.87455769 0.875 7.8125 C0.87242188 8.87082031 0.86984375 9.92914063 0.8671875 11.01953125 C0.97936339 13.53689017 1.2690879 15.60423255 2 18 C-1.875 16.25 -1.875 16.25 -3 14 C-3.203125 11.7578125 -3.203125 11.7578125 -3.25 9.125 C-3.27578125 8.26132812 -3.3015625 7.39765625 -3.328125 6.5078125 C-2.94108924 3.54975351 -1.95124005 2.20798216 0 0 Z " fill="#6FBFED" transform="translate(78,17)"/>
<path d="M0 0 C0.33 0.66 0.66 1.32 1 2 C1.99 2.33 2.98 2.66 4 3 C3.69217504 4.64671412 3.37860766 6.29235576 3.0625 7.9375 C2.88847656 8.85402344 2.71445313 9.77054688 2.53515625 10.71484375 C2 13 2 13 1 14 C0.63239269 16.32817964 0.29758419 18.6618385 0 21 C-0.33 21 -0.66 21 -1 21 C-1.0269501 18.06243881 -1.04681474 15.12512445 -1.0625 12.1875 C-1.07087891 11.35412109 -1.07925781 10.52074219 -1.08789062 9.66210938 C-1.09111328 8.85966797 -1.09433594 8.05722656 -1.09765625 7.23046875 C-1.10289307 6.49207764 -1.10812988 5.75368652 -1.11352539 4.99291992 C-1 3 -1 3 0 0 Z " fill="#3C2F51" transform="translate(71,99)"/>
<path d="M0 0 C2 2 2 2 2.0625 5.6875 C2.03349609 6.76451172 2.03349609 6.76451172 2.00390625 7.86328125 C1.94677148 10.21636287 1.94677148 10.21636287 2.5 13.375 C3.12950409 17.93890469 3.08327146 22.4015651 3 27 C2.01 27 1.02 27 0 27 C0 18.09 0 9.18 0 0 Z " fill="#8E89B9" transform="translate(99,74)"/>
<path d="M0 0 C1.32 0 2.64 0 4 0 C4.33 2.31 4.66 4.62 5 7 C4.360625 7.28875 3.72125 7.5775 3.0625 7.875 C0.84793921 8.82823451 0.84793921 8.82823451 0 11 C-0.19491452 9.54263913 -0.38069358 8.08405407 -0.5625 6.625 C-0.66691406 5.81289063 -0.77132812 5.00078125 -0.87890625 4.1640625 C-1 2 -1 2 0 0 Z " fill="#9E887F" transform="translate(95,55)"/>
<path d="M0 0 C2 2 2 2 2.1953125 4.6015625 C2.17210938 5.59929687 2.14890625 6.59703125 2.125 7.625 C2.10695313 8.62789062 2.08890625 9.63078125 2.0703125 10.6640625 C2.03550781 11.82035156 2.03550781 11.82035156 2 13 C0.02 13 -1.96 13 -4 13 C-3.625 10.0625 -3.625 10.0625 -3 7 C-2.34 6.67 -1.68 6.34 -1 6 C-0.34227572 2.97065509 -0.34227572 2.97065509 0 0 Z " fill="#5B2D32" transform="translate(106,61)"/>
<path d="M0 0 C0.66 0 1.32 0 2 0 C2.50615298 1.26839526 3.00469099 2.53983102 3.5 3.8125 C3.91765625 4.87404297 3.91765625 4.87404297 4.34375 5.95703125 C5 8 5 8 5 11 C4.01 11.33 3.02 11.66 2 12 C2 11.01 2 10.02 2 9 C1.01 8.67 0.02 8.34 -1 8 C-1.125 2.25 -1.125 2.25 0 0 Z " fill="#AA896C" transform="translate(74,53)"/>
<path d="M0 0 C0.99 0.33 1.98 0.66 3 1 C3 1.66 3 2.32 3 3 C4.32 3.33 5.64 3.66 7 4 C5.35 4.33 3.7 4.66 2 5 C2.33 7.64 2.66 10.28 3 13 C2.01 13.33 1.02 13.66 0 14 C0 9.38 0 4.76 0 0 Z " fill="#5B7EA0" transform="translate(89,121)"/>
<path d="M0 0 C0.66 0 1.32 0 2 0 C2.28571429 8.57142857 2.28571429 8.57142857 0 12 C-0.99 11.67 -1.98 11.34 -3 11 C-3 9.35 -3 7.7 -3 6 C-2.34 5.67 -1.68 5.34 -1 5 C-0.34444881 2.47266765 -0.34444881 2.47266765 0 0 Z " fill="#773D24" transform="translate(105,78)"/>
<path d="M0 0 C0.33 0 0.66 0 1 0 C1.02714434 2.7084017 1.04690846 5.41652721 1.0625 8.125 C1.07087891 8.88554688 1.07925781 9.64609375 1.08789062 10.4296875 C1.10646509 14.7389644 0.86117265 18.75516474 0 23 C-0.33 23 -0.66 23 -1 23 C-1.95348275 18.23258627 -2.16407956 13.84034716 -2 9 C-1.67 8.67 -1.34 8.34 -1 8 C-0.76924918 6.65252916 -0.58846937 5.29622435 -0.4375 3.9375 C-0.293125 2.638125 -0.14875 1.33875 0 0 Z " fill="#2F192B" transform="translate(73,104)"/>
<path d="M0 0 C3.00617269 3.00617269 2.59585316 5.82381598 3 10 C0.69 10 -1.62 10 -4 10 C-2.68 6.7 -1.36 3.4 0 0 Z " fill="#58A3DC" transform="translate(71,134)"/>
<path d="M0 0 C0.66 0 1.32 0 2 0 C2.33 0.66 2.66 1.32 3 2 C4.32 2 5.64 2 7 2 C7 3.32 7 4.64 7 6 C4.125 6.625 4.125 6.625 1 7 C0.34 6.34 -0.32 5.68 -1 5 C-0.625 2.375 -0.625 2.375 0 0 Z " fill="#4A93BD" transform="translate(92,135)"/>
<path d="M0 0 C4.875 0.875 4.875 0.875 6 2 C6.35820896 9.28358209 6.35820896 9.28358209 4 14 C3.67 10.37 3.34 6.74 3 3 C2.01 3 1.02 3 0 3 C0 2.01 0 1.02 0 0 Z " fill="#220B08" transform="translate(74,110)"/>
<path d="M0 0 C0.33 0.99 0.66 1.98 1 3 C0 5 0 5 -1 6 C-0.67 6.99 -0.34 7.98 0 9 C-0.66 9 -1.32 9 -2 9 C-2.33 9.99 -2.66 10.98 -3 12 C-3.33 11.34 -3.66 10.68 -4 10 C-3.67 9.01 -3.34 8.02 -3 7 C-5.64 7.33 -8.28 7.66 -11 8 C-11 7.34 -11 6.68 -11 6 C-5.25 4.875 -5.25 4.875 -3 6 C-2.87625 5.195625 -2.7525 4.39125 -2.625 3.5625 C-2.41875 2.716875 -2.2125 1.87125 -2 1 C-1.34 0.67 -0.68 0.34 0 0 Z " fill="#58575A" transform="translate(94,38)"/>
<path d="M0 0 C1.2065625 0.0309375 1.2065625 0.0309375 2.4375 0.0625 C2.81968767 1.71864657 3.15145102 3.38707024 3.4375 5.0625 C2.4375 6.0625 2.4375 6.0625 -0.125 6.125 C-1.3315625 6.0940625 -1.3315625 6.0940625 -2.5625 6.0625 C-2.94468767 4.40635343 -3.27645102 2.73792976 -3.5625 1.0625 C-2.5625 0.0625 -2.5625 0.0625 0 0 Z " fill="#372025" transform="translate(89.5625,14.9375)"/>
<path d="M0 0 C1.65 0.33 3.3 0.66 5 1 C4.67 2.98 4.34 4.96 4 7 C2.35 7.33 0.7 7.66 -1 8 C-0.67 5.36 -0.34 2.72 0 0 Z " fill="#481D1C" transform="translate(65,64)"/>
<path d="M0 0 C1.65 0 3.3 0 5 0 C4.6875 1.9375 4.6875 1.9375 4 4 C3.01 4.33 2.02 4.66 1 5 C0.67 5.99 0.34 6.98 0 8 C-0.66 8 -1.32 8 -2 8 C-2.33 6.02 -2.66 4.04 -3 2 C-2.34 2 -1.68 2 -1 2 C-0.67 1.34 -0.34 0.68 0 0 Z " fill="#3F3D3A" transform="translate(91,113)"/>
<path d="M0 0 C0.33 2.64 0.66 5.28 1 8 C-1.86724686 7.42655063 -2.8614515 7.1385485 -5 5 C-5 3.68 -5 2.36 -5 1 C-3 0 -3 0 0 0 Z " fill="#561206" transform="translate(94,97)"/>
<path d="M0 0 C1.125 3.75 1.125 3.75 0 6 C0.99 6 1.98 6 3 6 C2.67 7.32 2.34 8.64 2 10 C1.1028125 10.1546875 1.1028125 10.1546875 0.1875 10.3125 C-2.29983964 11.09423531 -3.24696028 12.1264074 -5 14 C-3.45730076 9.27934033 -1.92205381 4.58335908 0 0 Z " fill="#7483B5" transform="translate(64,66)"/>
<path d="M0 0 C1.15154588 2.82652171 1.07817396 3.81325108 -0.125 6.6875 C-2 9 -2 9 -4.6875 9.8125 C-5.450625 9.874375 -6.21375 9.93625 -7 10 C-7 9.34 -7 8.68 -7 8 C-6.34 8 -5.68 8 -5 8 C-4.731875 6.865625 -4.46375 5.73125 -4.1875 4.5625 C-3.795625 3.386875 -3.40375 2.21125 -3 1 C-2.01 0.67 -1.02 0.34 0 0 Z " fill="#769EA9" transform="translate(99,35)"/>
<path d="M0 0 C1.33333333 2.66666667 2.66666667 5.33333333 4 8 C0.25 10 0.25 10 -2 10 C-2.33 8.02 -2.66 6.04 -3 4 C-2.34 3.67 -1.68 3.34 -1 3 C-0.67 2.01 -0.34 1.02 0 0 Z " fill="#4A4447" transform="translate(96,27)"/>
<path d="M0 0 C1.22691067 2.45382134 1.20175931 4.19984103 1.25 6.9375 C1.28867188 8.25041016 1.28867188 8.25041016 1.328125 9.58984375 C1 12 1 12 -0.390625 13.81640625 C-2 15 -2 15 -4 15 C-2.07289294 4.44191344 -2.07289294 4.44191344 0 0 Z " fill="#81A5E5" transform="translate(69,49)"/>
<path d="M0 0 C1.32 0.33 2.64 0.66 4 1 C3.375 2.875 3.375 2.875 2 5 C-1.125 6.25 -1.125 6.25 -4 7 C-4.66 5.02 -5.32 3.04 -6 1 C-4.0625 1.375 -4.0625 1.375 -2 2 C-1.67 2.66 -1.34 3.32 -1 4 C-0.67 2.68 -0.34 1.36 0 0 Z " fill="#6D875C" transform="translate(91,52)"/>
<path d="M0 0 C0 1.65 0 3.3 0 5 C-0.99 5.33 -1.98 5.66 -3 6 C-3.73323796 8.01508358 -3.73323796 8.01508358 -4 10 C-4.66 9.67 -5.32 9.34 -6 9 C-6.25 6.75 -6.25 6.75 -6 4 C-2.75675676 0 -2.75675676 0 0 0 Z " fill="#BB8A61" transform="translate(106,62)"/>
<path d="M0 0 C-0.33 2.64 -0.66 5.28 -1 8 C-2.32 8 -3.64 8 -5 8 C-5.1875 5.125 -5.1875 5.125 -5 2 C-2 0 -2 0 0 0 Z " fill="#461B10" transform="translate(93,57)"/>
<path d="M0 0 C0.99 0 1.98 0 3 0 C4.38125018 2.76250036 4.19079306 4.94731099 4 8 C3.34 8.66 2.68 9.32 2 10 C1.67 8.35 1.34 6.7 1 5 C0.34 5 -0.32 5 -1 5 C-0.67 3.35 -0.34 1.7 0 0 Z " fill="#8A3A25" transform="translate(78,52)"/>
<path d="M0 0 C0.33 0 0.66 0 1 0 C1.125 6.625 1.125 6.625 0 10 C0.66 10 1.32 10 2 10 C2 9.34 2 8.68 2 8 C2.66 8 3.32 8 4 8 C4 9.98 4 11.96 4 14 C2.35 13.67 0.7 13.34 -1 13 C-1.07654536 8.48382401 -1.10228696 4.40914783 0 0 Z " fill="#969BCE" transform="translate(73,69)"/>
<path d="M0 0 C1.48828125 1.14453125 1.48828125 1.14453125 3 3 C3.29296875 5.69921875 3.29296875 5.69921875 3.1875 8.6875 C3.16042969 9.68136719 3.13335937 10.67523438 3.10546875 11.69921875 C3.07066406 12.45847656 3.03585938 13.21773437 3 14 C1.51171875 12.85546875 1.51171875 12.85546875 0 11 C-0.29296875 8.30078125 -0.29296875 8.30078125 -0.1875 5.3125 C-0.16042969 4.31863281 -0.13335937 3.32476562 -0.10546875 2.30078125 C-0.07066406 1.54152344 -0.03585938 0.78226562 0 0 Z " fill="#170910" transform="translate(88,102)"/>
<path d="M0 0 C0 0.66 0 1.32 0 2 C-0.99 2 -1.98 2 -3 2 C-2.67 2.99 -2.34 3.98 -2 5 C-3 6 -3 6 -6.0625 6.0625 C-7.5165625 6.0315625 -7.5165625 6.0315625 -9 6 C-8.75 4.125 -8.75 4.125 -8 2 C-5.06004981 -0.02755186 -3.72295997 0 0 0 Z " fill="#9B985F" transform="translate(90,28)"/>
<path d="M0 0 C0.66 0.99 1.32 1.98 2 3 C3.04689376 4.16027246 3.04689376 4.16027246 5 4.9375 C7 6 7 6 8 8 C5.03 7.67 2.06 7.34 -1 7 C-0.67 4.69 -0.34 2.38 0 0 Z " fill="#7883A6" transform="translate(96,48)"/>
<path d="M0 0 C2 3 2 3 2 5 C3.32 5.33 4.64 5.66 6 6 C1.66726186 6.92844389 -1.66726186 6.92844389 -6 6 C-6 5.34 -6 4.68 -6 4 C-4.02 3.67 -2.04 3.34 0 3 C0 2.01 0 1.02 0 0 Z " fill="#5C7D81" transform="translate(85,16)"/>
<path d="M0 0 C0.99 0 1.98 0 3 0 C3.042721 1.66611905 3.04063832 3.33382885 3 5 C2 6 2 6 -0.5625 6.0625 C-1.7690625 6.0315625 -1.7690625 6.0315625 -3 6 C-1.125 1.125 -1.125 1.125 0 0 Z " fill="#42212D" transform="translate(62,76)"/>
<path d="M0 0 C4.455 0.99 4.455 0.99 9 2 C9.33 3.32 9.66 4.64 10 6 C5.16743695 5.58578031 3.17320782 3.53586014 0 0 Z " fill="#55271A" transform="translate(80,21)"/>
<path d="M0 0 C2.0625 0.4375 2.0625 0.4375 4 1 C3.67 2.98 3.34 4.96 3 7 C2.01 7 1.02 7 0 7 C-0.38133299 5.0085944 -0.71325582 3.00720923 -1 1 C-0.67 0.67 -0.34 0.34 0 0 Z " fill="#441306" transform="translate(92,117)"/>
<path d="M0 0 C0.66 0 1.32 0 2 0 C2.33 0.66 2.66 1.32 3 2 C3.66 2 4.32 2 5 2 C5 3.32 5 4.64 5 6 C3.35 6 1.7 6 0 6 C-0.38218767 4.34385343 -0.71395102 2.67542976 -1 1 C-0.67 0.67 -0.34 0.34 0 0 Z " fill="#420B04" transform="translate(91,107)"/>
<path d="M0 0 C1.65 0 3.3 0 5 0 C4.67 1.98 4.34 3.96 4 6 C2.35 6.33 0.7 6.66 -1 7 C-0.649375 6.21625 -0.29875 5.4325 0.0625 4.625 C0.371875 3.75875 0.68125 2.8925 1 2 C0.67 1.34 0.34 0.68 0 0 Z " fill="#587888" transform="translate(59,82)"/>
<path d="M0 0 C0.99 1.32 1.98 2.64 3 4 C2.34 5.32 1.68 6.64 1 8 C-0.65 7.67 -2.3 7.34 -4 7 C-3.34 5.68 -2.68 4.36 -2 3 C-1.34 3 -0.68 3 0 3 C0 2.01 0 1.02 0 0 Z " fill="#2B1C26" transform="translate(94,44)"/>
<path d="M0 0 C2.97 0.99 5.94 1.98 9 3 C7.68 3.33 6.36 3.66 5 4 C4.67 5.32 4.34 6.64 4 8 C1.67210485 5.16604069 0.92622107 3.70488428 0 0 Z " fill="#942611" transform="translate(82,35)"/>
<path d="M0 0 C0 1.32 0 2.64 0 4 C-1.98 4.66 -3.96 5.32 -6 6 C-6 4.35 -6 2.7 -6 1 C-3.92446352 0.4465236 -2.15634036 0 0 0 Z " fill="#3E1204" transform="translate(91,89)"/>
<path d="M0 0 C-1.15173355 2.46800047 -2.04783565 4.04783565 -4 6 C-4.99 6 -5.98 6 -7 6 C-7 4.68 -7 3.36 -7 2 C-2.25 0 -2.25 0 0 0 Z " fill="#AA391D" transform="translate(103,62)"/>
<path d="M0 0 C0.66 1.32 1.32 2.64 2 4 C-1 6 -1 6 -5 6 C-4.67 5.01 -4.34 4.02 -4 3 C-3.34 3 -2.68 3 -2 3 C-2 2.34 -2 1.68 -2 1 C-1.34 0.67 -0.68 0.34 0 0 Z " fill="#836D4C" transform="translate(104,98)"/>
<path d="M0 0 C2 1 2 1 2.8125 3.3125 C3 6 3 6 1.5625 8.3125 C1.046875 8.869375 0.53125 9.42625 0 10 C-1.125 3.375 -1.125 3.375 0 0 Z " fill="#1E101A" transform="translate(96,93)"/>
<path d="M0 0 C0 1.98 0 3.96 0 6 C-0.33 5.34 -0.66 4.68 -1 4 C-2.65 4 -4.3 4 -6 4 C-6 3.01 -6 2.02 -6 1 C-4 0 -4 0 0 0 Z " fill="#583F39" transform="translate(64,90)"/>
<path d="M0 0 C0.99 0 1.98 0 3 0 C3 2.31 3 4.62 3 7 C2.67 6.01 2.34 5.02 2 4 C0.02 4.33 -1.96 4.66 -4 5 C-3.67 4.01 -3.34 3.02 -3 2 C-2.34 2 -1.68 2 -1 2 C-0.67 1.34 -0.34 0.68 0 0 Z " fill="#896B76" transform="translate(105,74)"/>
<path d="M0 0 C0.33 1.32 0.66 2.64 1 4 C2.65 4 4.3 4 6 4 C6 4.66 6 5.32 6 6 C3.69 6.66 1.38 7.32 -1 8 C-1.33 6.02 -1.66 4.04 -2 2 C-1.34 2 -0.68 2 0 2 C0 1.34 0 0.68 0 0 Z " fill="#6A797D" transform="translate(83,46)"/>
<path d="M0 0 C0.8971875 0.5259375 0.8971875 0.5259375 1.8125 1.0625 C1.8125 1.7225 1.8125 2.3825 1.8125 3.0625 C0.69875 3.000625 -0.415 2.93875 -1.5625 2.875 C-3.356875 2.9678125 -3.356875 2.9678125 -5.1875 3.0625 C-5.8475 4.0525 -6.5075 5.0425 -7.1875 6.0625 C-7.5175 5.0725 -7.8475 4.0825 -8.1875 3.0625 C-5.67391791 0.30952914 -3.81682031 -1.63578013 0 0 Z " fill="#6F6239" transform="translate(91.1875,25.9375)"/>
<path d="M0 0 C2 1 2 1 2.6328125 2.84765625 C2.79523438 3.57855469 2.95765625 4.30945312 3.125 5.0625 C3.29257813 5.79597656 3.46015625 6.52945313 3.6328125 7.28515625 C3.75398438 7.85105469 3.87515625 8.41695312 4 9 C3.01 9 2.02 9 1 9 C-1.125 2.25 -1.125 2.25 0 0 Z " fill="#48222A" transform="translate(70,49)"/>
<path d="M0 0 C0.66 0.66 1.32 1.32 2 2 C1.01 2.33 0.02 2.66 -1 3 C-1 4.98 -1 6.96 -1 9 C-1.66 9 -2.32 9 -3 9 C-3.66 6.69 -4.32 4.38 -5 2 C-3.35 2 -1.7 2 0 2 C0 1.34 0 0.68 0 0 Z " fill="#8087C4" transform="translate(75,46)"/>
<path d="M0 0 C-0.804375 0.28875 -1.60875 0.5775 -2.4375 0.875 C-5.1326468 1.73262568 -5.1326468 1.73262568 -6 4 C-7.65 4 -9.3 4 -11 4 C-8.14317358 -0.28523962 -4.97227354 -1.84158279 0 0 Z " fill="#8BB6ED" transform="translate(81,44)"/>
<path d="M0 0 C0.33 0 0.66 0 1 0 C1 1.65 1 3.3 1 5 C1.66 5 2.32 5 3 5 C3 6.65 3 8.3 3 10 C2.34 8.68 1.68 7.36 1 6 C0.34 6 -0.32 6 -1 6 C-1.625 4.125 -1.625 4.125 -2 2 C-1.34 1.34 -0.68 0.68 0 0 Z " fill="#2E0C02" transform="translate(84,90)"/>
<path d="M0 0 C1 3 1 3 0.00390625 5.48046875 C-0.47175781 6.37378906 -0.94742188 7.26710938 -1.4375 8.1875 C-1.91058594 9.08855469 -2.38367188 9.98960938 -2.87109375 10.91796875 C-3.24363281 11.60503906 -3.61617188 12.29210937 -4 13 C-4.58203125 11.12109375 -4.58203125 11.12109375 -5 9 C-3.6875 7.0625 -3.6875 7.0625 -2 5 C-1.28837557 3.35202764 -0.60968047 1.68834592 0 0 Z " fill="#A2857E" transform="translate(69,72)"/>
<path d="M0 0 C0 0.66 0 1.32 0 2 C-0.99 2.495 -0.99 2.495 -2 3 C-1.67 4.32 -1.34 5.64 -1 7 C-1.33 6.34 -1.66 5.68 -2 5 C-2.99 5 -3.98 5 -5 5 C-5 4.34 -5 3.68 -5 3 C-6.32 2.67 -7.64 2.34 -9 2 C-2.25 0 -2.25 0 0 0 Z " fill="#44220C" transform="translate(92,72)"/>
<path d="M0 0 C0.33 0 0.66 0 1 0 C1.66 3.3 2.32 6.6 3 10 C1.68 9.34 0.36 8.68 -1 8 C-1.04241723 5.66705225 -1.04092937 3.33297433 -1 1 C-0.67 0.67 -0.34 0.34 0 0 Z " fill="#7CA9D9" transform="translate(77,25)"/>
<path d="M0 0 C1.32 0 2.64 0 4 0 C4 0.66 4 1.32 4 2 C3.34 2 2.68 2 2 2 C2.33 3.65 2.66 5.3 3 7 C2.01 7 1.02 7 0 7 C0 4.69 0 2.38 0 0 Z " fill="#382B2B" transform="translate(91,126)"/>
<path d="M0 0 C0.33 0 0.66 0 1 0 C1 3.3 1 6.6 1 10 C0.01 10 -0.98 10 -2 10 C-1.46274105 6.62294375 -0.88935377 3.303314 0 0 Z " fill="#6480A9" transform="translate(101,91)"/>
<path d="M0 0 C0.33 0.99 0.66 1.98 1 3 C-2.13498292 4.85776765 -4.37471432 5.20140476 -8 5 C-7.34 4.67 -6.68 4.34 -6 4 C-6 3.34 -6 2.68 -6 2 C-4.02 1.34 -2.04 0.68 0 0 Z " fill="#9E9332" transform="translate(91,69)"/>
<path d="M0 0 C4 0 4 0 7 1 C6.67 1.66 6.34 2.32 6 3 C4.68 3 3.36 3 2 3 C2 3.66 2 4.32 2 5 C1.34 5 0.68 5 0 5 C0 3.35 0 1.7 0 0 Z " fill="#865113" transform="translate(83,68)"/>
<path d="M0 0 C1.0625 1.875 1.0625 1.875 2 4 C1.67 4.66 1.34 5.32 1 6 C-1.64 5.67 -4.28 5.34 -7 5 C-7 4.34 -7 3.68 -7 3 C-5.5459375 2.814375 -5.5459375 2.814375 -4.0625 2.625 C-2.5465625 2.315625 -2.5465625 2.315625 -1 2 C-0.67 1.34 -0.34 0.68 0 0 Z " fill="#60523B" transform="translate(88,31)"/>
<path d="M0 0 C0.99 0 1.98 0 3 0 C4.48320272 3.83887763 5.22419163 6.06204091 4 10 C3.3310968 8.52184338 2.66493641 7.04244528 2 5.5625 C1.62875 4.73878906 1.2575 3.91507813 0.875 3.06640625 C0 1 0 1 0 0 Z " fill="#458EB9" transform="translate(95,24)"/>
<path d="M0 0 C2.475 0.99 2.475 0.99 5 2 C4.34 3.32 3.68 4.64 3 6 C2.01 6 1.02 6 0 6 C0 4.02 0 2.04 0 0 Z " fill="#382C4B" transform="translate(73,81)"/>
<path d="M0 0 C0.99 0.495 0.99 0.495 2 1 C2.40729228 3.32156597 2.74438677 5.6568787 3 8 C2.01 8.33 1.02 8.66 0 9 C0 6.03 0 3.06 0 0 Z " fill="#9B7D68" transform="translate(76,56)"/>
<path d="M0 0 C1 2 1 2 0.0625 5.125 C-0.288125 6.07375 -0.63875 7.0225 -1 8 C-1.66 8 -2.32 8 -3 8 C-3.75 6.25 -3.75 6.25 -4 4 C-2.0625 1.75 -2.0625 1.75 0 0 Z " fill="#4A7884" transform="translate(76,131)"/>
<path d="M0 0 C2.125 0.375 2.125 0.375 4 1 C3.01 1 2.02 1 1 1 C0.34 3.31 -0.32 5.62 -1 8 C-1.33 8 -1.66 8 -2 8 C-2.125 5.125 -2.125 5.125 -2 2 C-1.34 1.34 -0.68 0.68 0 0 Z " fill="#65635A" transform="translate(84,52)"/>
<path d="M0 0 C0.66 0.33 1.32 0.66 2 1 C1.625 3.9375 1.625 3.9375 1 7 C0.01 7.495 0.01 7.495 -1 8 C-1.04241723 5.66705225 -1.04092937 3.33297433 -1 1 C-0.67 0.67 -0.34 0.34 0 0 Z " fill="#5B507D" transform="translate(80,72)"/>
<path d="M0 0 C0.66 0.33 1.32 0.66 2 1 C0.68 3.64 -0.64 6.28 -2 9 C-3 5 -3 5 -1.5625 2.25 C-1.046875 1.5075 -0.53125 0.765 0 0 Z " fill="#765D5A" transform="translate(68,71)"/>
<path d="M0 0 C1.32 0.33 2.64 0.66 4 1 C4 2.65 4 4.3 4 6 C3.67 5.34 3.34 4.68 3 4 C2.01 4 1.02 4 0 4 C0 2.68 0 1.36 0 0 Z " fill="#845956" transform="translate(78,48)"/>
<path d="M0 0 C2.31 0 4.62 0 7 0 C5.515 1.98 5.515 1.98 4 4 C2.68 3.34 1.36 2.68 0 2 C0 1.34 0 0.68 0 0 Z " fill="#291122" transform="translate(84,45)"/>
</svg>
