<?xml version="1.0" encoding="UTF-8"?>
<svg version="1.1" xmlns="http://www.w3.org/2000/svg" width="160" height="160">
<path d="M0 0 C0 1.32 0 2.64 0 4 C-0.66 4.33 -1.32 4.66 -2 5 C-0.90042969 5.09796875 0.19914062 5.1959375 1.33203125 5.296875 C17.51798978 6.87456109 32.73129555 11.48407972 44 24 C55.60420457 39.62622572 60.33359834 55.78346915 57.5390625 75.203125 C55.51948443 83.32895678 51.63075721 91.05386419 47 98 C51.62 98.66 56.24 99.32 61 100 C60.67 100.66 60.34 101.32 60 102 C61.65 102.66 63.3 103.32 65 104 C64.42415568 106.38564077 63.77772405 108.66682784 63 111 C63.66 111.66 64.32 112.32 65 113 C64.01 113.66 63.02 114.32 62 115 C62 115.66 62 116.32 62 117 C58.23001691 119.47823761 55.02535019 119.11551813 50.625 118.8125 C49.33851563 118.73644531 48.05203125 118.66039063 46.7265625 118.58203125 C42.90481208 117.98513312 40.33920117 116.90393049 37 115 C36.21625 114.608125 35.4325 114.21625 34.625 113.8125 C33.820625 113.4103125 33.820625 113.4103125 33 113 C32.9175 113.70125 32.835 114.4025 32.75 115.125 C31.50511939 119.89704235 29.79408035 122.90392903 25.5 125.52734375 C21.37361971 127.55128843 18.13292592 129 13.5 129 C10.98606152 127.99442461 9.6588756 127.11967438 8 125 C8.495 123.515 8.495 123.515 9 122 C12.5625 120.3125 12.5625 120.3125 16 119 C14.06183265 119.1141866 12.12444901 119.24173423 10.1875 119.375 C9.10855469 119.44460937 8.02960938 119.51421875 6.91796875 119.5859375 C3.81373814 119.81195733 3.81373814 119.81195733 1 122 C-4.41262513 122.51062501 -7.27679022 121.49528064 -12 119 C-13.85066229 118.44647865 -15.70534012 117.90631346 -17.5625 117.375 C-28.48538936 113.80640385 -38.39240005 106.43010561 -45 97 C-45.61361821 95.46207082 -46.21791827 93.92038864 -46.8125 92.375 C-49.43851529 87.07657339 -54.35621492 85.89423177 -59.625 84.0625 C-62.07495774 83.2586112 -64.52577591 82.47065159 -66.99462891 81.72680664 C-69 81 -69 81 -72 79 C-71.125 74.125 -71.125 74.125 -70 73 C-68.00390625 72.83203125 -68.00390625 72.83203125 -65.5625 72.8125 C-64.75941406 72.79832031 -63.95632812 72.78414063 -63.12890625 72.76953125 C-61 73 -61 73 -59 75 C-56.93125966 75.6425235 -56.93125966 75.6425235 -55 76 C-55.02618408 75.31599121 -55.05236816 74.63198242 -55.0793457 73.92724609 C-55.66172883 56.39087914 -55.32211999 42.30021316 -44 28 C-43.41476563 27.24074219 -42.82953125 26.48148438 -42.2265625 25.69921875 C-34.97093722 16.88881662 -25.72304189 12.29121887 -15.59765625 7.41796875 C-13.30114233 6.16438296 -11.80659995 5.09562189 -10.0625 3.1875 C-6.96690358 -0.09570832 -4.33791931 0 0 0 Z " fill="#E7F6FC" transform="translate(83,9)"/>
<path d="M0 0 C6.86861026 0.11788813 13.73706959 0.24271293 20.60546875 0.37231445 C22.94105181 0.41557199 25.27666462 0.45725342 27.61230469 0.49731445 C30.97339842 0.55523969 34.33434366 0.61886986 37.6953125 0.68359375 C38.73615997 0.70030624 39.77700745 0.71701874 40.84939575 0.73423767 C45.66230274 0.83213493 50.26841942 1.00925921 55 2 C54.34 3.32 53.68 4.64 53 6 C51.02 6 49.04 6 47 6 C48.70601413 7.70601413 51.15667098 7.95673162 53.4375 8.625 C59.71081783 10.72360095 65.39077289 13.11853748 70 18 C70.97578871 20.4416211 71.30611317 22.56455656 71.58203125 25.17578125 C72.52051434 31.51712024 75.47516429 37.69100278 78.1484375 43.4921875 C79.18685393 46.55027626 79.19579309 49.09141425 79.125 52.3125 C79.10695313 53.38113281 79.08890625 54.44976562 79.0703125 55.55078125 C79.04710938 56.35902344 79.02390625 57.16726562 79 58 C80.21816406 57.91621094 81.43632813 57.83242187 82.69140625 57.74609375 C84.31508038 57.64285435 85.93877971 57.54001079 87.5625 57.4375 C88.76229492 57.35338867 88.76229492 57.35338867 89.98632812 57.26757812 C94.84154627 56.97031987 99.21110511 57.13221368 104 58 C103.67 58.66 103.34 59.32 103 60 C104.65 60.66 106.3 61.32 108 62 C107.42415568 64.38564077 106.77772405 66.66682784 106 69 C106.66 69.66 107.32 70.32 108 71 C107.01 71.66 106.02 72.32 105 73 C105 73.66 105 74.32 105 75 C101.23001691 77.47823761 98.02535019 77.11551813 93.625 76.8125 C92.33851563 76.73644531 91.05203125 76.66039063 89.7265625 76.58203125 C85.90481208 75.98513312 83.33920117 74.90393049 80 73 C79.21625 72.608125 78.4325 72.21625 77.625 71.8125 C76.820625 71.4103125 76.820625 71.4103125 76 71 C75.9175 71.70125 75.835 72.4025 75.75 73.125 C74.50511939 77.89704235 72.79408035 80.90392903 68.5 83.52734375 C64.37361971 85.55128843 61.13292592 87 56.5 87 C53.98606152 85.99442461 52.6588756 85.11967438 51 83 C51.495 81.515 51.495 81.515 52 80 C55.5625 78.3125 55.5625 78.3125 59 77 C57.06183265 77.1141866 55.12444901 77.24173423 53.1875 77.375 C52.10855469 77.44460937 51.02960938 77.51421875 49.91796875 77.5859375 C46.81373814 77.81195733 46.81373814 77.81195733 44 80 C38.58737487 80.51062501 35.72320978 79.49528064 31 77 C29.14933771 76.44647865 27.29465988 75.90631346 25.4375 75.375 C14.51461064 71.80640385 4.60759995 64.43010561 -2 55 C-2.61361821 53.46207082 -3.21791827 51.92038864 -3.8125 50.375 C-6.43659053 45.07118452 -11.34900104 43.93193579 -16.625 42.125 C-19.07683713 41.34435892 -21.52616771 40.56678767 -23.99462891 39.84033203 C-26.21973367 38.90792266 -27.42108383 37.80027709 -29 36 C-28.34 35.01 -27.68 34.02 -27 33 C-21.30412704 32.1516785 -17.07020385 33.94571334 -11.79296875 36.00390625 C-9.30936863 36.88966573 -7.09372534 37.40963516 -4.5 37.8125 C1.64742134 38.88161676 7.35149177 41.25197284 13.13671875 43.5246582 C17.79502422 45.32276028 22.00391423 46.63443275 27 47 C27.66 46.67 28.32 46.34 29 46 C28.34 45.34 27.68 44.68 27 44 C30.75 39.125 30.75 39.125 33 38 C33.33 32.39 33.66 26.78 34 21 C32.35 21.33 30.7 21.66 29 22 C28.67 23.32 28.34 24.64 28 26 C25.69 26 23.38 26 21 26 C21 25.01 21 24.02 21 23 C20.34 23 19.68 23 19 23 C19 21.35 19 19.7 19 18 C16.69 18 14.38 18 12 18 C11.3125 15.25 11.3125 15.25 11 12 C12.4375 9.875 12.4375 9.875 14 8 C14 6.68 14 5.36 14 4 C9.38 3.01 4.76 2.02 0 1 C0 0.67 0 0.34 0 0 Z " fill="#195C53" transform="translate(40,51)"/>
<path d="M0 0 C0 1.32 0 2.64 0 4 C-0.65282959 4.47945068 -1.30565918 4.95890137 -1.97827148 5.45288086 C-4.21372239 6.81141094 -4.21372239 6.81141094 -4.44165039 9.20141602 C-4.39512329 10.46489868 -4.39512329 10.46489868 -4.34765625 11.75390625 C-4.31534912 12.68678467 -4.28304199 13.61966309 -4.24975586 14.58081055 C-4.15706421 16.05674683 -4.15706421 16.05674683 -4.0625 17.5625 C-4.01037354 18.55870361 -3.95824707 19.55490723 -3.90454102 20.58129883 C-3.46254367 26.86261238 -2.5699644 31.93141413 0.94140625 37.29296875 C2 39 2 39 2 42 C5.63 42 9.26 42 13 42 C12.67 42.99 12.34 43.98 12 45 C11.21608887 44.84152588 10.43217773 44.68305176 9.62451172 44.51977539 C5.0738632 43.86718677 0.59938307 43.76795632 -3.9921875 43.68359375 C-4.93812775 43.66281265 -5.88406799 43.64203156 -6.8586731 43.62062073 C-9.86404541 43.55552415 -12.86950101 43.49642664 -15.875 43.4375 C-17.91927926 43.3942768 -19.96355026 43.35066132 -22.0078125 43.30664062 C-27.00512416 43.1998839 -32.00251916 43.09850529 -37 43 C-34.03 43.99 -31.06 44.98 -28 46 C-28.75 51.75 -28.75 51.75 -31 54 C-31.16681109 57.08347826 -31.16681109 57.08347826 -31 60 C-28.69 60 -26.38 60 -24 60 C-24 61.65 -24 63.3 -24 65 C-23.34 65 -22.68 65 -22 65 C-22 65.99 -22 66.98 -22 68 C-19.69 67.67 -17.38 67.34 -15 67 C-14.505 65.515 -14.505 65.515 -14 64 C-11.525 63.505 -11.525 63.505 -9 63 C-8.86482097 65.75164432 -8.76584749 68.49664521 -8.6875 71.25 C-8.6246582 72.41595703 -8.6246582 72.41595703 -8.56054688 73.60546875 C-8.51277178 75.84134316 -8.53313459 77.81125462 -9 80 C-11.45703125 82.421875 -11.45703125 82.421875 -14 84 C-14.33 84.66 -14.66 85.32 -15 86 C-14.01 86.99 -14.01 86.99 -13 88 C-16 90 -16 90 -17.8125 90.00390625 C-24.8330557 88.5872584 -31.35022951 86.08191677 -38.02270508 83.53833008 C-42.96602292 81.67583633 -47.70348026 80.21625308 -52.9375 79.3984375 C-55.17004325 78.96715074 -57.08823902 78.24174033 -59.1875 77.375 C-62.87970713 75.899615 -66.00264675 75.60026468 -70 76 C-70.99 76.99 -70.99 76.99 -72 78 C-71.125 74.125 -71.125 74.125 -70 73 C-68.00390625 72.83203125 -68.00390625 72.83203125 -65.5625 72.8125 C-64.75941406 72.79832031 -63.95632812 72.78414063 -63.12890625 72.76953125 C-61 73 -61 73 -59 75 C-56.93125966 75.6425235 -56.93125966 75.6425235 -55 76 C-55.02618408 75.31599121 -55.05236816 74.63198242 -55.0793457 73.92724609 C-55.66172883 56.39087914 -55.32211999 42.30021316 -44 28 C-43.41476563 27.24074219 -42.82953125 26.48148438 -42.2265625 25.69921875 C-34.97093722 16.88881662 -25.72304189 12.29121887 -15.59765625 7.41796875 C-13.30114233 6.16438296 -11.80659995 5.09562189 -10.0625 3.1875 C-6.96690358 -0.09570832 -4.33791931 0 0 0 Z " fill="#E6F6FC" transform="translate(83,9)"/>
<path d="M0 0 C0.33 0 0.66 0 1 0 C1.02698189 1.62490954 1.04638757 3.24994633 1.0625 4.875 C1.07410156 5.77992187 1.08570312 6.68484375 1.09765625 7.6171875 C1 10 1 10 0 12 C1.31602523 11.38245741 2.62773556 10.75571258 3.9375 10.125 C4.66839844 9.77695313 5.39929688 9.42890625 6.15234375 9.0703125 C8.16332459 8.1315023 8.16332459 8.1315023 9 6 C8.01 6 7.02 6 6 6 C5.34 4.35 4.68 2.7 4 1 C10.76932893 0.26420338 15.2160353 2.63745781 21 6 C21.99 6.556875 22.98 7.11375 24 7.6875 C26.61095645 10.70641839 26.80733001 13.18885029 27.40625 17.0703125 C28.69791233 23.44364635 31.43240823 29.59821922 34.1484375 35.4921875 C35.18685393 38.55027626 35.19579309 41.09141425 35.125 44.3125 C35.10695312 45.38113281 35.08890625 46.44976562 35.0703125 47.55078125 C35.04710937 48.35902344 35.02390625 49.16726562 35 50 C36.21816406 49.91621094 37.43632813 49.83242187 38.69140625 49.74609375 C40.31508038 49.64285435 41.93877971 49.54001079 43.5625 49.4375 C44.76229492 49.35338867 44.76229492 49.35338867 45.98632812 49.26757812 C50.84154627 48.97031987 55.21110511 49.13221368 60 50 C59.505 50.99 59.505 50.99 59 52 C60.65 52.66 62.3 53.32 64 54 C63.42415568 56.38564077 62.77772405 58.66682784 62 61 C62.66 61.66 63.32 62.32 64 63 C63.01 63.66 62.02 64.32 61 65 C61 65.66 61 66.32 61 67 C57.23001691 69.47823761 54.02535019 69.11551813 49.625 68.8125 C48.33851563 68.73644531 47.05203125 68.66039063 45.7265625 68.58203125 C41.90481208 67.98513312 39.33920117 66.90393049 36 65 C34.824375 64.4121875 34.824375 64.4121875 33.625 63.8125 C33.08875 63.544375 32.5525 63.27625 32 63 C31.9175 63.70125 31.835 64.4025 31.75 65.125 C30.50511939 69.89704235 28.79408035 72.90392903 24.5 75.52734375 C20.30341119 77.58572495 17.15563958 79.04054876 12.4375 78.875 C10 78 10 78 8 77 C8 76.34 8 75.68 8 75 C11.96 75 15.92 75 20 75 C20.33 74.34 20.66 73.68 21 73 C20.01 72.505 20.01 72.505 19 72 C17.06669424 68.24079436 16.80508117 65.19075475 17 61 C15.515 60.505 15.515 60.505 14 60 C12.83203125 58.0390625 12.83203125 58.0390625 11.8125 55.625 C11.46832031 54.83351562 11.12414062 54.04203125 10.76953125 53.2265625 C10 51 10 51 10 48 C8.515 47.505 8.515 47.505 7 47 C7 46.34 7 45.68 7 45 C5.37419034 45.11398665 3.74932843 45.24155659 2.125 45.375 C1.22007813 45.44460937 0.31515625 45.51421875 -0.6171875 45.5859375 C-3.17941903 45.79568132 -3.17941903 45.79568132 -5 48 C-5.33 45.36 -5.66 42.72 -6 40 C-6.78375 39.9175 -7.5675 39.835 -8.375 39.75 C-11 39 -11 39 -12.375 37.0625 C-13 35 -13 35 -12 33 C-10.515 32.505 -10.515 32.505 -9 32 C-8.67 28.04 -8.34 24.08 -8 20 C-5.46646568 23.80030149 -3.36128205 27.6239012 -2 32 C-2.6875 34.9375 -2.6875 34.9375 -4 37 C-4.33 37.66 -4.66 38.32 -5 39 C-4.401875 39.144375 -3.80375 39.28875 -3.1875 39.4375 C-1.43849596 39.8872439 0.28677023 40.42892341 2 41 C2 40.01 2 39.02 2 38 C3.65 38.33 5.3 38.66 7 39 C7.66 36.69 8.32 34.38 9 32 C8.4225 32.639375 7.845 33.27875 7.25 33.9375 C5.01937599 35.98223868 3.92563609 36.58205199 1 37 C-0.25664978 34.09399739 -1 32.20395416 -1 29 C-1.66 29 -2.32 29 -3 29 C-3 26.36 -3 23.72 -3 21 C-2.34 21 -1.68 21 -1 21 C-0.34 21.99 0.32 22.98 1 24 C1.33 22.35 1.66 20.7 2 19 C1.34 19 0.68 19 0 19 C-0.33 17.35 -0.66 15.7 -1 14 C-2.98 13.34 -4.96 12.68 -7 12 C-6.1875 10.0625 -6.1875 10.0625 -5 8 C-4.01 7.67 -3.02 7.34 -2 7 C-1.34 7.33 -0.68 7.66 0 8 C0 5.36 0 2.72 0 0 Z " fill="#050A0F" transform="translate(84,59)"/>
<path d="M0 0 C6.86949828 0.34229459 13.14286432 1.05522728 19.67578125 3.25390625 C21.92374901 3.97552279 24.12144725 4.43203909 26.4375 4.875 C30 6 30 6 31.9375 8.5625 C32.288125 9.366875 32.63875 10.17125 33 11 C34.98983893 12.98983893 38.85542617 12.37391574 41.5546875 12.5234375 C45.04895859 13.20442963 46.20929698 14.93255092 48.25 17.6875 C49.42269931 21.30332287 49.34071876 24.42960764 48 28 C44.76607905 30.8898868 42.98436817 32.02986507 38.6640625 31.96484375 C24.54532438 29.67110554 13.11761976 20.50550502 4.62890625 9.41015625 C2.56758701 6.36019468 1.20699486 3.47011023 0 0 Z " fill="#E8F8FC" transform="translate(33,96)"/>
<path d="M0 0 C6.02378841 1.9362177 11.7405779 4.13208903 16 9 C16.85529552 11.3965641 17.19442661 13.61757907 17.51171875 16.140625 C18.59692412 22.49558765 21.45813081 28.65403897 24.1484375 34.4921875 C25.18685393 37.55027626 25.19579309 40.09141425 25.125 43.3125 C25.10695313 44.38113281 25.08890625 45.44976562 25.0703125 46.55078125 C25.04710938 47.35902344 25.02390625 48.16726562 25 49 C26.21816406 48.91621094 27.43632813 48.83242187 28.69140625 48.74609375 C30.31508038 48.64285435 31.93877971 48.54001079 33.5625 48.4375 C34.76229492 48.35338867 34.76229492 48.35338867 35.98632812 48.26757812 C40.84154627 47.97031987 45.21110511 48.13221368 50 49 C49.505 49.99 49.505 49.99 49 51 C50.65 51.66 52.3 52.32 54 53 C54 53.99 54 54.98 54 56 C48.39 56 42.78 56 37 56 C37 55.34 37 54.68 37 54 C36.24074219 54.08378906 35.48148438 54.16757813 34.69921875 54.25390625 C33.20841797 54.40666016 33.20841797 54.40666016 31.6875 54.5625 C30.20830078 54.71912109 30.20830078 54.71912109 28.69921875 54.87890625 C26 55 26 55 23 54 C23 51.03 23 48.06 23 45 C18.05 45 13.1 45 8 45 C8 43.68 8 42.36 8 41 C12.455 40.505 12.455 40.505 17 40 C16.67 38.68 16.34 37.36 16 36 C16.66 36 17.32 36 18 36 C17.67 35.01 17.34 34.02 17 33 C16.34 32.67 15.68 32.34 15 32 C15 31.34 15 30.68 15 30 C14.01 30 13.02 30 12 30 C11.70996094 29.04287109 11.70996094 29.04287109 11.4140625 28.06640625 C11.15367188 27.24011719 10.89328125 26.41382812 10.625 25.5625 C10.36976562 24.73878906 10.11453125 23.91507813 9.8515625 23.06640625 C9.19117773 20.82201984 9.19117773 20.82201984 7 20 C7 18.02 7 16.04 7 14 C6.34 14 5.68 14 5 14 C4.87625 13.360625 4.7525 12.72125 4.625 12.0625 C4.41875 11.381875 4.2125 10.70125 4 10 C3.34 9.67 2.68 9.34 2 9 C0.37265234 5.65489648 0 3.81164166 0 0 Z " fill="#0E2E4A" transform="translate(94,60)"/>
<path d="M0 0 C6.86861026 0.11788813 13.73706959 0.24271293 20.60546875 0.37231445 C22.94105181 0.41557199 25.27666462 0.45725342 27.61230469 0.49731445 C30.97339842 0.55523969 34.33434366 0.61886986 37.6953125 0.68359375 C38.73615997 0.70030624 39.77700745 0.71701874 40.84939575 0.73423767 C45.66230274 0.83213493 50.26841942 1.00925921 55 2 C54.34 3.32 53.68 4.64 53 6 C51.02 6 49.04 6 47 6 C48.44197868 7.44197868 50.17691571 8.11786244 52 9 C51.01 9.33 50.02 9.66 49 10 C49.495 11.98 49.495 11.98 50 14 C50.99 14 51.98 14 53 14 C52 17 52 17 49.0625 18.6875 C46 20 46 20 44 20 C44 18.68 44 17.36 44 16 C42.68 15.34 41.36 14.68 40 14 C40.99 14 41.98 14 43 14 C43 12.02 43 10.04 43 8 C39.26360784 9.24546405 38.81243487 10.63404953 37 14 C35.68 13.67 34.36 13.34 33 13 C33 11.35 33 9.7 33 8 C30.69 8.33 28.38 8.66 26 9 C26.66 8.67 27.32 8.34 28 8 C28 7.34 28 6.68 28 6 C26.35 6.33 24.7 6.66 23 7 C23 9.63576683 24.26840265 12.48513411 25 15 C26.65 15 28.3 15 30 15 C30 15.66 30 16.32 30 17 C26.23564408 19.49055871 23.13382623 19.03090984 18.75 18.625 C17.48671875 18.51414062 16.2234375 18.40328125 14.921875 18.2890625 C13.95765625 18.19367188 12.9934375 18.09828125 12 18 C11.41015625 15.1328125 11.41015625 15.1328125 11 12 C12.4375 9.875 12.4375 9.875 14 8 C14 6.68 14 5.36 14 4 C9.38 3.01 4.76 2.02 0 1 C0 0.67 0 0.34 0 0 Z " fill="#152B36" transform="translate(40,51)"/>
<path d="M0 0 C0.88429688 -0.02578125 1.76859375 -0.0515625 2.6796875 -0.078125 C5.125 0.25 5.125 0.25 6.78515625 1.3828125 C8.58732045 3.89428332 9.579748 6.49276125 10.6875 9.375 C11.99514912 13.60422604 11.99514912 13.60422604 15.125 16.25 C16.44245857 20.12918356 17.125 23.13375865 17.125 27.25 C18.115 27.58 19.105 27.91 20.125 28.25 C19.465 29.24 18.805 30.23 18.125 31.25 C13.57645106 31.5482655 9.56348796 31.35962199 5.125 30.25 C5.455 29.26 5.785 28.27 6.125 27.25 C9.6875 25.5625 9.6875 25.5625 13.125 24.25 C11.18683265 24.3641866 9.24944901 24.49173423 7.3125 24.625 C5.69408203 24.72941406 5.69408203 24.72941406 4.04296875 24.8359375 C0.93873814 25.06195733 0.93873814 25.06195733 -1.875 27.25 C-8.19758065 27.7016129 -8.19758065 27.7016129 -11.875 25.25 C-10.875 22.25 -10.875 22.25 -7.875 20.25 C-6.885 20.25 -5.895 20.25 -4.875 20.25 C-4.84785265 18.02090129 -4.82853746 15.79170633 -4.8125 13.5625 C-4.80089844 12.32113281 -4.78929688 11.07976562 -4.77734375 9.80078125 C-4.86029156 6.78479884 -5.27056555 4.18504655 -5.875 1.25 C-4.21733202 -0.40766798 -2.27153595 0.03950497 0 0 Z " fill="#040608" transform="translate(85.875,103.75)"/>
<path d="M0 0 C0 1.32 0 2.64 0 4 C-0.65572998 4.47655029 -1.31145996 4.95310059 -1.98706055 5.4440918 C-4.23296398 6.81581126 -4.23296398 6.81581126 -4.37817383 9.26489258 C-4.32169678 10.13267334 -4.26521973 11.0004541 -4.20703125 11.89453125 C-4.15353516 12.85037109 -4.10003906 13.80621094 -4.04492188 14.79101562 C-3.96822266 15.78810547 -3.89152344 16.78519531 -3.8125 17.8125 C-3.75513672 18.79798828 -3.69777344 19.78347656 -3.63867188 20.79882812 C-3.33673235 25.63310721 -2.7997119 30.20172858 -2 35 C-8.93 35 -15.86 35 -23 35 C-23 26.34766421 -21.36134365 22.16493524 -15.71484375 15.60546875 C-13.64327507 12.45800563 -13.85320347 10.69016111 -14 7 C-10.22420475 2.11367674 -6.17726114 0 0 0 Z " fill="#0F1F2D" transform="translate(83,9)"/>
<path d="M0 0 C0.66 0 1.32 0 2 0 C2 0.66 2 1.32 2 2 C2.70382813 1.9278125 3.40765625 1.855625 4.1328125 1.78125 C12.1077091 1.03165136 19.99339342 0.89340317 28 1 C28 1.33 28 1.66 28 2 C24.04 2 20.08 2 16 2 C16 2.66 16 3.32 16 4 C21.28 4 26.56 4 32 4 C31.67 5.32 31.34 6.64 31 8 C31.66 8.66 32.32 9.32 33 10 C32.01 10.66 31.02 11.32 30 12 C30 12.66 30 13.32 30 14 C26.23001691 16.47823761 23.02535019 16.11551813 18.625 15.8125 C17.33851563 15.73644531 16.05203125 15.66039063 14.7265625 15.58203125 C10.90481208 14.98513312 8.33920117 13.90393049 5 12 C4.21625 11.608125 3.4325 11.21625 2.625 10.8125 C2.08875 10.544375 1.5525 10.27625 1 10 C0.9175 10.78375 0.835 11.5675 0.75 12.375 C0 15 0 15 -1.75 16.4375 C-4.79460547 17.19865137 -6.28161691 16.46939627 -9 15 C-9.33 14.34 -9.66 13.68 -10 13 C-8.35 12.67 -6.7 12.34 -5 12 C-5.66 11.67 -6.32 11.34 -7 11 C-7 8 -7 8 -5.5 6.3125 C-5.005 5.879375 -4.51 5.44625 -4 5 C-5.32 5 -6.64 5 -8 5 C-8 4.34 -8 3.68 -8 3 C-6.865625 2.690625 -5.73125 2.38125 -4.5625 2.0625 C-1.21224901 1.37075469 -1.21224901 1.37075469 0 0 Z " fill="#100F0C" transform="translate(115,112)"/>
<path d="M0 0 C1.22596039 3.67788118 0.84310077 4.78449613 0 9 C7.26 8.67 14.52 8.34 22 8 C25 13 25 13 25 16 C28.63 16 32.26 16 36 16 C35.505 17.485 35.505 17.485 35 19 C34.20343994 18.84080078 33.40687988 18.68160156 32.58618164 18.51757812 C28.2460691 17.89118841 24.00021076 17.78867519 19.62109375 17.71875 C18.73140396 17.70034058 17.84171417 17.68193115 16.92506409 17.66296387 C13.13839056 17.584719 9.35155108 17.51662335 5.56469727 17.44775391 C2.79174508 17.39586073 0.01893575 17.3386873 -2.75390625 17.28125 C-3.60610245 17.26767456 -4.45829865 17.25409912 -5.33631897 17.2401123 C-9.34178113 17.15652618 -13.09034099 16.98126333 -17 16 C-17 15.67 -17 15.34 -17 15 C-14.03 15.33 -11.06 15.66 -8 16 C-7.731875 14.865625 -7.46375 13.73125 -7.1875 12.5625 C-6.5996875 10.7990625 -6.5996875 10.7990625 -6 9 C-5.01 8.67 -4.02 8.34 -3 8 C-1.82917122 5.07085835 -1.82917122 5.07085835 -1 2 C-0.67 1.34 -0.34 0.68 0 0 Z " fill="#7971A9" transform="translate(60,35)"/>
<path d="M0 0 C5.68050993 -0.84603339 9.90121566 0.93360817 15.1640625 2.98828125 C17.85016245 3.94654556 20.38545911 4.55813264 23.1875 5.0625 C28.98823768 6.11550015 35.05685226 7.28510469 39 12 C39 12.66 39 13.32 39 14 C44.28 14.66 49.56 15.32 55 16 C55 16.99 55 17.98 55 19 C48.75912513 18.47992709 42.96791466 17.33543353 36.91015625 15.7578125 C32.13236801 14.51366362 27.33922493 13.35932795 22.45703125 12.609375 C14.36329186 11.34801302 3.51407271 9.56710743 -2 3 C-1.34 2.01 -0.68 1.02 0 0 Z " fill="#2A3032" transform="translate(13,84)"/>
<path d="M0 0 C0 1.32 0 2.64 0 4 C-0.65572998 4.47655029 -1.31145996 4.95310059 -1.98706055 5.4440918 C-4.23296398 6.81581126 -4.23296398 6.81581126 -4.37817383 9.26489258 C-4.32169678 10.13267334 -4.26521973 11.0004541 -4.20703125 11.89453125 C-4.15353516 12.85037109 -4.10003906 13.80621094 -4.04492188 14.79101562 C-3.96822266 15.78810547 -3.89152344 16.78519531 -3.8125 17.8125 C-3.75513672 18.79798828 -3.69777344 19.78347656 -3.63867188 20.79882812 C-3.33673235 25.63310721 -2.7997119 30.20172858 -2 35 C-8.93 35 -15.86 35 -23 35 C-23 26.34766421 -21.36134365 22.16493524 -15.71484375 15.60546875 C-13.64327507 12.45800563 -13.85320347 10.69016111 -14 7 C-10.22420475 2.11367674 -6.17726114 0 0 0 Z M-13.68359375 14.49609375 C-15.64307992 16.73467588 -15.61570182 19.11776362 -16 22 C-18 23.125 -18 23.125 -20 24 C-20.80528889 26.05000871 -20.80528889 26.05000871 -21 28 C-20.01 28 -19.02 28 -18 28 C-19.32 29.98 -20.64 31.96 -22 34 C-16.72 34 -11.44 34 -6 34 C-6.020625 32.040625 -6.04125 30.08125 -6.0625 28.0625 C-6.08377188 26.04167124 -6.07244053 24.01964199 -6 22 C-5.67 21.67 -5.34 21.34 -5 21 C-4.66143172 15.67326964 -4.66143172 15.67326964 -7 11 C-9.9516575 11 -11.51001423 12.65771685 -13.68359375 14.49609375 Z " fill="#1A4368" transform="translate(83,9)"/>
<path d="M0 0 C0.33 0.66 0.66 1.32 1 2 C2.65 1.67 4.3 1.34 6 1 C6 1.66 6 2.32 6 3 C7.65 3 9.3 3 11 3 C13.5653551 10.35401794 14.06280719 16.10086849 13.5625 23.8125 C13.51029297 24.69615234 13.45808594 25.57980469 13.40429688 26.49023438 C13.27525381 28.66050408 13.13840044 30.83030693 13 33 C12.67 33 12.34 33 12 33 C12 27.39 12 21.78 12 16 C10.35 16.33 8.7 16.66 7 17 C6.67 18.32 6.34 19.64 6 21 C3.69 21 1.38 21 -1 21 C-1 20.01 -1 19.02 -1 18 C-1.66 18 -2.32 18 -3 18 C-3 16.68 -3 15.36 -3 14 C-1.5422647 13.664061 -0.08378894 13.33133376 1.375 13 C2.59316406 12.7215625 2.59316406 12.7215625 3.8359375 12.4375 C6 12 6 12 8 12 C8 11.34 8 10.68 8 10 C6.35 10 4.7 10 3 10 C1.68 7.03 0.36 4.06 -1 1 C-0.67 0.67 -0.34 0.34 0 0 Z " fill="#236F39" transform="translate(62,56)"/>
<path d="M0 0 C2.53353432 3.80030149 4.63871795 7.6239012 6 12 C5.3125 14.9375 5.3125 14.9375 4 17 C3.67 17.66 3.34 18.32 3 19 C3.598125 19.144375 4.19625 19.28875 4.8125 19.4375 C6.56150404 19.8872439 8.28677023 20.42892341 10 21 C10 20.01 10 19.02 10 18 C11.65 18.33 13.3 18.66 15 19 C15 19.66 15 20.32 15 21 C14.34 21 13.68 21 13 21 C14.83883881 23.28728734 14.83883881 23.28728734 17.625 23.125 C18.40875 23.08375 19.1925 23.0425 20 23 C20.33 23.66 20.66 24.32 21 25 C19.68 25.33 18.36 25.66 17 26 C17.99 26 18.98 26 20 26 C21.66666667 26 23.33333333 26 25 26 C23.1875 28 23.1875 28 21 30 C20.01 30 19.02 30 18 30 C18 29.34 18 28.68 18 28 C17.01 27.67 16.02 27.34 15 27 C15 26.34 15 25.68 15 25 C13.37419034 25.11398665 11.74932843 25.24155659 10.125 25.375 C8.76761719 25.47941406 8.76761719 25.47941406 7.3828125 25.5859375 C4.82058097 25.79568132 4.82058097 25.79568132 3 28 C2.67 25.36 2.34 22.72 2 20 C1.21625 19.9175 0.4325 19.835 -0.375 19.75 C-3 19 -3 19 -4.375 17.0625 C-5 15 -5 15 -4 13 C-3.01 12.67 -2.02 12.34 -1 12 C-0.67 8.04 -0.34 4.08 0 0 Z " fill="#091318" transform="translate(76,79)"/>
<path d="M0 0 C0.33 0 0.66 0 1 0 C1 3.96 1 7.92 1 12 C2.21816406 11.91621094 3.43632813 11.83242187 4.69140625 11.74609375 C6.31508038 11.64285435 7.93877971 11.54001079 9.5625 11.4375 C10.36236328 11.38142578 11.16222656 11.32535156 11.98632812 11.26757812 C16.84154627 10.97031987 21.21110511 11.13221368 26 12 C25.67 12.66 25.34 13.32 25 14 C26.65 14.66 28.3 15.32 30 16 C30 16.99 30 17.98 30 19 C24.39 19 18.78 19 13 19 C13 18.34 13 17.68 13 17 C12.22914063 17.08378906 11.45828125 17.16757813 10.6640625 17.25390625 C9.66117188 17.35574219 8.65828125 17.45757812 7.625 17.5625 C6.62726563 17.66691406 5.62953125 17.77132812 4.6015625 17.87890625 C2 18 2 18 0 17 C0 11.39 0 5.78 0 0 Z " fill="#648A99" transform="translate(118,97)"/>
<path d="M0 0 C14.19 0.33 28.38 0.66 43 1 C43 1.33 43 1.66 43 2 C37.47291389 2.94220126 32.16241648 3.12116149 26.5625 3.0625 C25.73556641 3.05798828 24.90863281 3.05347656 24.05664062 3.04882812 C22.03772854 3.03715811 20.01885426 3.01922718 18 3 C18 4.65 18 6.3 18 8 C19.32 8.66 20.64 9.32 22 10 C22 11.32 22 12.64 22 14 C20.35 14 18.7 14 17 14 C17 14.66 17 15.32 17 16 C17.99 16 18.98 16 20 16 C20 16.66 20 17.32 20 18 C17.36 18 14.72 18 12 18 C11.3125 15.25 11.3125 15.25 11 12 C12.4375 9.875 12.4375 9.875 14 8 C14 6.68 14 5.36 14 4 C9.38 3.01 4.76 2.02 0 1 C0 0.67 0 0.34 0 0 Z " fill="#213E5C" transform="translate(40,51)"/>
<path d="M0 0 C0.66 0.66 1.32 1.32 2 2 C2.66644531 2.11472656 3.33289063 2.22945313 4.01953125 2.34765625 C6 3 6 3 7.01171875 4.99609375 C7.23472656 5.80175781 7.45773438 6.60742188 7.6875 7.4375 C8.6372485 10.79858166 8.6372485 10.79858166 10 14 C10.039992 15.99960012 10.04346799 18.00047242 10 20 C8 19 8 19 7 16.5 C5.28422217 13.79342706 5.28422217 13.79342706 2.72265625 13.58984375 C0.94452296 13.48801233 -0.83417471 13.39561155 -2.61328125 13.3125 C-5 13 -5 13 -7.625 10.9375 C-8.07875 10.298125 -8.5325 9.65875 -9 9 C-8.67 8.01 -8.34 7.02 -8 6 C-6.02 6.495 -6.02 6.495 -4 7 C-4 6.34 -4 5.68 -4 5 C-3.34 5 -2.68 5 -2 5 C-2 4.34 -2 3.68 -2 3 C-1.34 3 -0.68 3 0 3 C0 2.01 0 1.02 0 0 Z " fill="#1B4C2D" transform="translate(72,96)"/>
<path d="M0 0 C3.20096714 1.81388138 3.96443112 2.90218559 5.25 6.4375 C6 10 6 10 6 14 C6.99 14.33 7.98 14.66 9 15 C8.01 16.485 8.01 16.485 7 18 C2.45145106 18.2982655 -1.56151204 18.10962199 -6 17 C-5.67 16.01 -5.34 15.02 -5 14 C-1.4375 12.3125 -1.4375 12.3125 2 11 C-1.63 11.33 -5.26 11.66 -9 12 C-7 8 -7 8 -4.5 6.5625 C-1.52173734 4.70108584 -0.98174842 3.30224469 0 0 Z " fill="#112E44" transform="translate(97,117)"/>
<path d="M0 0 C1.86785156 0.01353516 1.86785156 0.01353516 3.7734375 0.02734375 C5.18496094 0.04474609 5.18496094 0.04474609 6.625 0.0625 C6.625 0.3925 6.625 0.7225 6.625 1.0625 C2.665 1.0625 -1.295 1.0625 -5.375 1.0625 C-5.375 1.7225 -5.375 2.3825 -5.375 3.0625 C-0.095 3.0625 5.185 3.0625 10.625 3.0625 C10.295 4.3825 9.965 5.7025 9.625 7.0625 C10.285 7.7225 10.945 8.3825 11.625 9.0625 C4.3704171 9.78156659 -1.98987847 8.62909353 -8.9375 6.6875 C-9.73526855 6.46618408 -10.53303711 6.24486816 -11.35498047 6.0168457 C-17.10208717 4.33541283 -17.10208717 4.33541283 -19.375 2.0625 C-18.075625 1.8459375 -18.075625 1.8459375 -16.75 1.625 C-14.7042552 1.28404253 -12.66131451 0.92462894 -10.625 0.53125 C-7.03875721 0.01400344 -3.62174447 -0.0341674 0 0 Z " fill="#31434B" transform="translate(136.375,112.9375)"/>
<path d="M0 0 C6.01770967 1.93426382 11.75260701 4.12829141 16 9 C16.90851074 11.48467124 17.30647249 13.76464302 17.63671875 16.38671875 C18.19977987 20.43712615 19.61178216 24.16851877 21 28 C18.31144122 25.61803125 16.92295354 23.16161182 15.375 19.9375 C14.94960937 19.05964844 14.52421875 18.18179688 14.0859375 17.27734375 C13.72757813 16.52582031 13.36921875 15.77429688 13 15 C12.67 14.34 12.34 13.68 12 13 C10.02 13 8.04 13 6 13 C6 12.01 6 11.02 6 10 C5.38125 9.938125 4.7625 9.87625 4.125 9.8125 C2 9 2 9 0.75 6.6875 C0 4 0 4 0 0 Z " fill="#2D769C" transform="translate(94,60)"/>
<path d="M0 0 C2.475 0.495 2.475 0.495 5 1 C5 2.65 5 4.3 5 6 C5.66 6 6.32 6 7 6 C7 7.98 7 9.96 7 12 C6.01 11.34 5.02 10.68 4 10 C4 9.34 4 8.68 4 8 C3.34 8 2.68 8 2 8 C2 10.64 2 13.28 2 16 C2.66 16 3.32 16 4 16 C4.99 18.31 5.98 20.62 7 23 C10.27773504 22.24849977 10.27773504 22.24849977 12 19 C12.66 19 13.32 19 14 19 C13.125 23.75 13.125 23.75 12 26 C10.35 25.67 8.7 25.34 7 25 C7 25.99 7 26.98 7 28 C4.61435923 27.42415568 2.33317216 26.77772405 0 26 C0.37125 24.948125 0.7425 23.89625 1.125 22.8125 C2.3397609 19.20235653 2.3397609 19.20235653 1.0625 16.71875 C-0.29327685 13.24955629 -0.19437459 10.39904078 -0.125 6.6875 C-0.10695313 5.43324219 -0.08890625 4.17898437 -0.0703125 2.88671875 C-0.03550781 1.45779297 -0.03550781 1.45779297 0 0 Z " fill="#081B2C" transform="translate(79,72)"/>
<path d="M0 0 C0.66 0 1.32 0 2 0 C2 0.66 2 1.32 2 2 C2.66 2.33 3.32 2.66 4 3 C5.125 5.0625 5.125 5.0625 6 7 C5.01 8.485 5.01 8.485 4 10 C3.01 10 2.02 10 1 10 C0.9175 10.78375 0.835 11.5675 0.75 12.375 C0 15 0 15 -1.75 16.4375 C-4.79460547 17.19865137 -6.28161691 16.46939627 -9 15 C-9.33 14.34 -9.66 13.68 -10 13 C-8.35 12.67 -6.7 12.34 -5 12 C-5.66 11.67 -6.32 11.34 -7 11 C-7 8 -7 8 -5.5 6.3125 C-5.005 5.879375 -4.51 5.44625 -4 5 C-5.32 5 -6.64 5 -8 5 C-8 4.34 -8 3.68 -8 3 C-6.865625 2.690625 -5.73125 2.38125 -4.5625 2.0625 C-1.21224901 1.37075469 -1.21224901 1.37075469 0 0 Z " fill="#09223C" transform="translate(115,112)"/>
<path d="M0 0 C0.33 0.66 0.66 1.32 1 2 C2.5778125 1.9690625 2.5778125 1.9690625 4.1875 1.9375 C7.32704904 1.98896802 9.96883396 2.26517187 13 3 C13.33 2.34 13.66 1.68 14 1 C14 3.97 14 6.94 14 10 C8.72 10 3.44 10 -2 10 C-0.68 8.02 0.64 6.04 2 4 C1.01 4 0.02 4 -1 4 C-0.67 2.68 -0.34 1.36 0 0 Z " fill="#0F1E28" transform="translate(63,33)"/>
<path d="M0 0 C4 4.625 4 4.625 4 8 C7.63 8 11.26 8 15 8 C14.67 8.99 14.34 9.98 14 11 C12.72938721 10.76228882 12.72938721 10.76228882 11.43310547 10.51977539 C7.94924153 9.99231512 4.59112149 9.79264536 1.0703125 9.68359375 C-0.86328125 9.62075195 -0.86328125 9.62075195 -2.8359375 9.55664062 C-4.18228909 9.51683972 -5.52864329 9.47712727 -6.875 9.4375 C-8.24480333 9.39424817 -9.61459521 9.35063188 -10.984375 9.30664062 C-14.32282157 9.20084478 -17.661339 9.09875628 -21 9 C-21 7.02 -21 5.04 -21 3 C-20.01 3 -19.02 3 -18 3 C-18 4.32 -18 5.64 -18 7 C-12.21408489 7.10477512 -6.70690634 6.99250545 -1 6 C-1.33 4.35 -1.66 2.7 -2 1 C-1.34 0.67 -0.68 0.34 0 0 Z " fill="#9199CC" transform="translate(81,43)"/>
<path d="M0 0 C0.33 0 0.66 0 1 0 C1.06058594 1.30195313 1.12117188 2.60390625 1.18359375 3.9453125 C1.26804562 5.67188399 1.35269126 7.398446 1.4375 9.125 C1.47681641 9.9809375 1.51613281 10.836875 1.55664062 11.71875 C1.59853516 12.55664062 1.64042969 13.39453125 1.68359375 14.2578125 C1.72025146 15.0223877 1.75690918 15.78696289 1.79467773 16.57470703 C2.03400057 19.40161906 2.53359607 22.20157644 3 25 C-3.93 25 -10.86 25 -18 25 C-17.7917911 16.67164382 -16.7265216 12.11179217 -11 6 C-10 8 -10 8 -10.1875 9.9375 C-11.22904444 12.58142049 -12.72626581 13.36575355 -15 15 C-15.33 15.99 -15.66 16.98 -16 18 C-15.01 18 -14.02 18 -13 18 C-14.875 21.875 -14.875 21.875 -16 23 C-11.05 23.33 -6.1 23.66 -1 24 C-1.185625 22.040625 -1.37125 20.08125 -1.5625 18.0625 C-1.75358962 16.04544287 -1.90997602 14.02408755 -2 12 C-1.67 11.67 -1.34 11.34 -1 11 C-0.76636119 9.15108054 -0.58696365 7.29511969 -0.4375 5.4375 C-0.35371094 4.42558594 -0.26992187 3.41367187 -0.18359375 2.37109375 C-0.09271484 1.19740234 -0.09271484 1.19740234 0 0 Z " fill="#345D81" transform="translate(78,19)"/>
<path d="M0 0 C1.20462891 -0.02126953 1.20462891 -0.02126953 2.43359375 -0.04296875 C4.5625 0.1875 4.5625 0.1875 6.5625 2.1875 C8.74995776 2.95789001 10.96258429 3.65811303 13.1875 4.3125 C14.97027344 4.84230469 14.97027344 4.84230469 16.7890625 5.3828125 C17.70429687 5.64835937 18.61953125 5.91390625 19.5625 6.1875 C19.5625 4.2075 19.5625 2.2275 19.5625 0.1875 C20.2225 0.1875 20.8825 0.1875 21.5625 0.1875 C21.5625 2.1675 21.5625 4.1475 21.5625 6.1875 C22.2225 6.5175 22.8825 6.8475 23.5625 7.1875 C23.5625 5.8675 23.5625 4.5475 23.5625 3.1875 C24.2225 3.1875 24.8825 3.1875 25.5625 3.1875 C25.5625 3.8475 25.5625 4.5075 25.5625 5.1875 C26.8825 5.1875 28.2025 5.1875 29.5625 5.1875 C31.5625 8.1875 31.5625 8.1875 31.5625 11.1875 C30.54542969 10.89746094 30.54542969 10.89746094 29.5078125 10.6015625 C24.81716176 9.28921977 20.16749706 8.06699402 15.375 7.1875 C12.19335322 6.59345835 9.36686524 5.79376762 6.375 4.5625 C2.68279287 3.087115 -0.44014675 2.78776468 -4.4375 3.1875 C-5.0975 3.8475 -5.7575 4.5075 -6.4375 5.1875 C-5.37461845 0.48045312 -4.84920871 0.03879367 0 0 Z " fill="#C3DBE8" transform="translate(17.4375,81.8125)"/>
<path d="M0 0 C2.53353432 3.80030149 4.63871795 7.6239012 6 12 C5.3125 14.9375 5.3125 14.9375 4 17 C3.67 17.66 3.34 18.32 3 19 C1.02 19 -0.96 19 -3 19 C-4.0625 17.125 -4.0625 17.125 -5 15 C-4 13 -4 13 -1 12 C-0.67 8.04 -0.34 4.08 0 0 Z " fill="#081217" transform="translate(76,79)"/>
<path d="M0 0 C0.99 0.33 1.98 0.66 3 1 C2.67 1.99 2.34 2.98 2 4 C2.66 4.33 3.32 4.66 4 5 C4 5.66 4 6.32 4 7 C2.68 7.33 1.36 7.66 0 8 C-0.33 9.32 -0.66 10.64 -1 12 C-3.31 12 -5.62 12 -8 12 C-8 11.01 -8 10.02 -8 9 C-8.66 9 -9.32 9 -10 9 C-10 7.68 -10 6.36 -10 5 C-8.5422647 4.664061 -7.08378894 4.33133376 -5.625 4 C-4.40683594 3.7215625 -4.40683594 3.7215625 -3.1640625 3.4375 C-1 3 -1 3 1 3 C0.67 2.01 0.34 1.02 0 0 Z " fill="#1C4C26" transform="translate(69,65)"/>
<path d="M0 0 C0.99 0 1.98 0 3 0 C3.13517903 2.75164432 3.23415251 5.49664521 3.3125 8.25 C3.3753418 9.41595703 3.3753418 9.41595703 3.43945312 10.60546875 C3.48722822 12.84134316 3.46686541 14.81125462 3 17 C0.54296875 19.421875 0.54296875 19.421875 -2 21 C-2.33 21.66 -2.66 22.32 -3 23 C-2.34 23.66 -1.68 24.32 -1 25 C-4.8503105 27.56687367 -6.58569763 26.83288724 -11 26 C-9 23 -9 23 -7.0625 22.25 C-3.18376205 19.89924972 -2.3749486 15.12484581 -1 11 C-0.34 11 0.32 11 1 11 C1.33 7.7 1.66 4.4 2 1 C1.34 0.67 0.68 0.34 0 0 Z " fill="#C2DBE9" transform="translate(71,72)"/>
<path d="M0 0 C1.41702513 0.14230808 2.8336096 0.28900746 4.25 0.4375 C5.43335938 0.55931641 5.43335938 0.55931641 6.640625 0.68359375 C8.85756288 0.98089833 10.88357728 1.27319393 13 2 C14.6875 4.5 14.6875 4.5 16 7 C17.96822886 8.96822886 21.34808709 8.66248381 24 9 C24 9.33 24 9.66 24 10 C11.98010109 10.5683665 11.98010109 10.5683665 8 7 C8 6.34 8 5.68 8 5 C7.236875 4.855625 6.47375 4.71125 5.6875 4.5625 C3 4 3 4 0 3 C0 2.01 0 1.02 0 0 Z " fill="#CDE0ED" transform="translate(50,100)"/>
<path d="M0 0 C1.32 0.33 2.64 0.66 4 1 C4 1.66 4 2.32 4 3 C5.4540625 2.7525 5.4540625 2.7525 6.9375 2.5 C11.3083744 1.8640736 15.58867054 1.93213339 20 2 C19.67 5.3 19.34 8.6 19 12 C17.68 11.34 16.36 10.68 15 10 C15.99 10 16.98 10 18 10 C18 8.02 18 6.04 18 4 C14.26360784 5.24546405 13.81243487 6.63404953 12 10 C10.68 9.67 9.36 9.34 8 9 C8 7.35 8 5.7 8 4 C5.69 4.33 3.38 4.66 1 5 C1.66 4.67 2.32 4.34 3 4 C3 3.34 3 2.68 3 2 C2.01 2.33 1.02 2.66 0 3 C0 2.01 0 1.02 0 0 Z " fill="#12432F" transform="translate(65,55)"/>
<path d="M0 0 C0.54785156 0.19335938 1.09570312 0.38671875 1.66015625 0.5859375 C9.35435682 3.11313834 16.97957902 4.09101896 25 5 C24.01 6.32 23.02 7.64 22 9 C21.21625 8.835 20.4325 8.67 19.625 8.5 C16.48736436 8.06722267 14.11429138 8.13978162 11 8.375 C7.89563674 8.43596182 6.50889043 8.39122209 4.0234375 6.48046875 C0 1.79917062 0 1.79917062 0 0 Z " fill="#1E201D" transform="translate(122,117)"/>
<path d="M0 0 C0.33 0.99 0.66 1.98 1 3 C0.34 3 -0.32 3 -1 3 C-1 5.31 -1 7.62 -1 10 C-1.66 10 -2.32 10 -3 10 C-3 10.66 -3 11.32 -3 12 C-5.43800966 11.69112547 -7.87535367 11.37805338 -10.3125 11.0625 C-11.00279297 10.97548828 -11.69308594 10.88847656 -12.40429688 10.79882812 C-15.40142288 10.40789865 -18.12450119 9.9584996 -21 9 C-21 8.34 -21 7.68 -21 7 C-21.99 6.67 -22.98 6.34 -24 6 C-19.48289815 4.49429938 -16.33583351 6.53873009 -12.0078125 8.1875 C-8.83884449 9.04353292 -7.10998799 8.91807764 -4 8 C-4.66 7.34 -5.32 6.68 -6 6 C-2.25 1.125 -2.25 1.125 0 0 Z " fill="#4C7877" transform="translate(73,89)"/>
<path d="M0 0 C0.66 0.66 1.32 1.32 2 2 C4.06874034 2.6425235 4.06874034 2.6425235 6 3 C6.33 5.64 6.66 8.28 7 11 C4.03 10.67 1.06 10.34 -2 10 C-1.01 9.01 -0.02 8.02 1 7 C1.99 7.33 2.98 7.66 4 8 C4.33 7.01 4.66 6.02 5 5 C4.15695313 5.37253906 3.31390625 5.74507813 2.4453125 6.12890625 C1.34960938 6.60199219 0.25390625 7.07507813 -0.875 7.5625 C-1.96554688 8.03816406 -3.05609375 8.51382813 -4.1796875 9.00390625 C-5.11039062 9.33261719 -6.04109375 9.66132812 -7 10 C-7.66 9.67 -8.32 9.34 -9 9 C-8.67 8.01 -8.34 7.02 -8 6 C-6.02 6.495 -6.02 6.495 -4 7 C-4 6.34 -4 5.68 -4 5 C-3.34 5 -2.68 5 -2 5 C-2 4.34 -2 3.68 -2 3 C-1.34 3 -0.68 3 0 3 C0 2.01 0 1.02 0 0 Z " fill="#2F794E" transform="translate(72,96)"/>
<path d="M0 0 C0.804375 0.144375 1.60875 0.28875 2.4375 0.4375 C5.76186019 1.0164699 5.76186019 1.0164699 8.19140625 1.1484375 C13.57413812 1.53096667 16.60106505 2.64843051 21 6 C21.99 6.33 22.98 6.66 24 7 C24 7.66 24 8.32 24 9 C16.33574724 8.5491616 6.98609967 6.5156904 1.11328125 1.3359375 C0.74589844 0.89507812 0.37851563 0.45421875 0 0 Z " fill="#090B0A" transform="translate(11,87)"/>
<path d="M0 0 C4.4008703 3.82180842 5.80805531 6.47371099 7 12 C8.65 12 10.3 12 12 12 C12 12.66 12 13.32 12 14 C8.36576791 16.32590854 5.22911669 16.16265833 1 16 C1.33 15.01 1.66 14.02 2 13 C1.01 13 0.02 13 -1 13 C-1 12.34 -1 11.68 -1 11 C0.65 11 2.3 11 4 11 C3.80528889 9.05000871 3.80528889 9.05000871 3 7 C1.0162233 5.71563266 1.0162233 5.71563266 -1 5 C-0.67 3.35 -0.34 1.7 0 0 Z " fill="#113919" transform="translate(58,54)"/>
<path d="M0 0 C2.35448165 2.55068845 2.98327924 3.71017358 3.1875 7.25 C3.125625 8.1575 3.06375 9.065 3 10 C-1.1196377 11.29243536 -4.66831683 12.26252625 -9 12 C-7.90837675 9.12208417 -7.22292024 8.12817914 -4.5 6.5625 C-1.52173734 4.70108584 -0.98174842 3.30224469 0 0 Z " fill="#D1E2E9" transform="translate(97,117)"/>
<path d="M0 0 C1.66674321 2.91824244 2.2432008 4.97594379 2.1953125 8.328125 C2.18564453 9.52695313 2.18564453 9.52695313 2.17578125 10.75 C2.15902344 11.575 2.14226562 12.4 2.125 13.25 C2.11146484 14.51070312 2.11146484 14.51070312 2.09765625 15.796875 C2.07415817 17.86470604 2.03828908 19.93238995 2 22 C1.67 22 1.34 22 1 22 C1 19.03 1 16.06 1 13 C-0.423125 13.04125 -1.84625 13.0825 -3.3125 13.125 C-6.98060033 13.23132175 -7.79619983 13.13586678 -11 11 C-8.29120665 9.64560332 -5.99066732 9.93498549 -3 10 C-3.33 8.68 -3.66 7.36 -4 6 C-2.68 6.66 -1.36 7.32 0 8 C0 5.36 0 2.72 0 0 Z " fill="#14324F" transform="translate(116,92)"/>
<path d="M0 0 C0.268125 0.639375 0.53625 1.27875 0.8125 1.9375 C1.88667752 4.33131686 1.88667752 4.33131686 5 5 C5 5.66 5 6.32 5 7 C4.34 7 3.68 7 3 7 C2.67 8.32 2.34 9.64 2 11 C2.99 11 3.98 11 5 11 C5 11.66 5 12.32 5 13 C2.36 13 -0.28 13 -3 13 C-3.6875 10.25 -3.6875 10.25 -4 7 C-2.625 4.8125 -2.625 4.8125 -1 3 C-0.67 2.01 -0.34 1.02 0 0 Z " fill="#2E7C52" transform="translate(55,56)"/>
<path d="M0 0 C0.66 0 1.32 0 2 0 C1.34 1.65 0.68 3.3 0 5 C-0.99 5 -1.98 5 -3 5 C-3.0825 5.78375 -3.165 6.5675 -3.25 7.375 C-4 10 -4 10 -5.75 11.4375 C-8.79460547 12.19865137 -10.28161691 11.46939627 -13 10 C-13.33 9.34 -13.66 8.68 -14 8 C-12.35 7.67 -10.7 7.34 -9 7 C-9.66 6.34 -10.32 5.68 -11 5 C-9.39125 4.87625 -9.39125 4.87625 -7.75 4.75 C-3.66499825 3.93299965 -2.65108323 3.0438363 0 0 Z " fill="#071A2C" transform="translate(119,117)"/>
<path d="M0 0 C3.83968859 1.4564336 5.31006462 3.28214217 7 7 C7.1875 10.3125 7.1875 10.3125 7 13 C4.625 12.8125 4.625 12.8125 2 12 C-0.38038888 8.14603706 -0.17371424 4.4297131 0 0 Z " fill="#051527" transform="translate(105,76)"/>
<path d="M0 0 C0.66 0.33 1.32 0.66 2 1 C1.67 4.3 1.34 7.6 1 11 C-9.71428571 11.14285714 -9.71428571 11.14285714 -14 10 C-14 9.67 -14 9.34 -14 9 C-11.03 9.33 -8.06 9.66 -5 10 C-4.731875 8.865625 -4.46375 7.73125 -4.1875 6.5625 C-3.5996875 4.7990625 -3.5996875 4.7990625 -3 3 C-2.01 2.67 -1.02 2.34 0 2 C0 1.34 0 0.68 0 0 Z " fill="#9DA09E" transform="translate(57,41)"/>
<path d="M0 0 C1.65 0.33 3.3 0.66 5 1 C3.35 4.3 1.7 7.6 0 11 C-1.65 11 -3.3 11 -5 11 C-4.67 8.36 -4.34 5.72 -4 3 C-3.01 2.67 -2.02 2.34 -1 2 C-0.67 1.34 -0.34 0.68 0 0 Z " fill="#091116" transform="translate(96,87)"/>
<path d="M0 0 C0.66 0 1.32 0 2 0 C1.125 4.75 1.125 4.75 0 7 C-1.65 6.67 -3.3 6.34 -5 6 C-5 6.99 -5 7.98 -5 9 C-7.38564077 8.42415568 -9.66682784 7.77772405 -12 7 C-11.34 5.35 -10.68 3.7 -10 2 C-9.236875 2.350625 -8.47375 2.70125 -7.6875 3.0625 C-4.95240621 4.32360884 -4.95240621 4.32360884 -2 3 C-1.34 2.01 -0.68 1.02 0 0 Z " fill="#0B3250" transform="translate(91,91)"/>
<path d="M0 0 C0.28875 0.61875 0.5775 1.2375 0.875 1.875 C1.93720042 4.13325765 1.93720042 4.13325765 4 6 C4.72130788 13.6165222 3.83554055 21.42045362 3 29 C2.67 29 2.34 29 2 29 C1.67 22.73 1.34 16.46 1 10 C0.01 9.67 -0.98 9.34 -2 9 C-1.67 8.01 -1.34 7.02 -1 6 C-1 5.13375 -1 4.2675 -1 3.375 C-1 1 -1 1 0 0 Z " fill="#317F70" transform="translate(72,60)"/>
<path d="M0 0 C0.33 1.32 0.66 2.64 1 4 C-0.62318979 4.36237263 -2.2486358 4.71465157 -3.875 5.0625 C-4.77992187 5.25972656 -5.68484375 5.45695312 -6.6171875 5.66015625 C-9 6 -9 6 -11 5 C-10.6875 3.0625 -10.6875 3.0625 -10 1 C-6.52674819 -0.1577506 -3.63932552 -0.06866652 0 0 Z " fill="#6A62AA" transform="translate(79,45)"/>
<path d="M0 0 C0.33 0 0.66 0 1 0 C1 4.29 1 8.58 1 13 C-1.31 13 -3.62 13 -6 13 C-6 11.68 -6 10.36 -6 9 C-4.125 7.9375 -4.125 7.9375 -2 7 C-1.34 7.33 -0.68 7.66 0 8 C0 5.36 0 2.72 0 0 Z " fill="#0C331A" transform="translate(84,59)"/>
<path d="M0 0 C1.20462891 -0.02126953 1.20462891 -0.02126953 2.43359375 -0.04296875 C4.5625 0.1875 4.5625 0.1875 6.5625 2.1875 C8.24948982 2.94526264 9.96140633 3.64861782 11.6875 4.3125 C12.59757812 4.66570312 13.50765625 5.01890625 14.4453125 5.3828125 C15.14398438 5.64835937 15.84265625 5.91390625 16.5625 6.1875 C12.83218773 7.43093742 11.87053303 6.725888 8.3125 5.25 C3.73880504 3.49927438 0.42635713 2.56658207 -4.4375 3.1875 C-5.0975 3.8475 -5.7575 4.5075 -6.4375 5.1875 C-5.37461845 0.48045312 -4.84920871 0.03879367 0 0 Z " fill="#77A2BD" transform="translate(17.4375,81.8125)"/>
<path d="M0 0 C2.97 0 5.94 0 9 0 C8.67 0.66 8.34 1.32 8 2 C6.02 2 4.04 2 2 2 C2 2.66 2 3.32 2 4 C3.32 4 4.64 4 6 4 C5.67 4.99 5.34 5.98 5 7 C4.34 7 3.68 7 3 7 C3 7.66 3 8.32 3 9 C2.01 8.67 1.02 8.34 0 8 C0 5.36 0 2.72 0 0 Z " fill="#051528" transform="translate(105,113)"/>
<path d="M0 0 C0.33 0 0.66 0 1 0 C1 3.96 1 7.92 1 12 C0.34 11.34 -0.32 10.68 -1 10 C-1.04898438 10.63808594 -1.09796875 11.27617188 -1.1484375 11.93359375 C-1.22320312 12.75988281 -1.29796875 13.58617188 -1.375 14.4375 C-1.47941406 15.67306641 -1.47941406 15.67306641 -1.5859375 16.93359375 C-1.72257812 17.61550781 -1.85921875 18.29742187 -2 19 C-2.66 19.33 -3.32 19.66 -4 20 C-3.85899143 17.72886197 -3.71203245 15.45809275 -3.5625 13.1875 C-3.48128906 11.92292969 -3.40007812 10.65835938 -3.31640625 9.35546875 C-3 6 -3 6 -2 3 C-1.34 3 -0.68 3 0 3 C0 2.01 0 1.02 0 0 Z " fill="#113D5B" transform="translate(78,72)"/>
<path d="M0 0 C2.64 0.33 5.28 0.66 8 1 C7 4 7 4 4.0625 5.6875 C1 7 1 7 -1 7 C-0.67 4.69 -0.34 2.38 0 0 Z " fill="#18532A" transform="translate(85,64)"/>
<path d="M0 0 C1 2 1 2 0.8125 3.9375 C-0.22904444 6.58142049 -1.72626581 7.36575355 -4 9 C-4.33 9.99 -4.66 10.98 -5 12 C-4.01 12 -3.02 12 -2 12 C-3.36983503 15.16115776 -3.9890638 15.9927092 -7 18 C-6.96813777 10.22561581 -5.2451156 5.74235898 0 0 Z " fill="#10395D" transform="translate(67,25)"/>
<path d="M0 0 C1.22589844 0.01353516 1.22589844 0.01353516 2.4765625 0.02734375 C3.41628906 0.04474609 3.41628906 0.04474609 4.375 0.0625 C4.705 1.3825 5.035 2.7025 5.375 4.0625 C1.415 3.7325 -2.545 3.4025 -6.625 3.0625 C-6.625 2.4025 -6.625 1.7425 -6.625 1.0625 C-4.21954362 -0.14022819 -2.67503047 -0.03821472 0 0 Z " fill="#070C0D" transform="translate(70.625,31.9375)"/>
<path d="M0 0 C0.66 0.33 1.32 0.66 2 1 C2.52734375 2.96875 2.52734375 2.96875 2.9375 5.5 C3.84264295 10.52535363 5.26293067 15.20568864 7 20 C4.31874582 17.61753661 2.88576541 15.1454496 1.3125 11.9375 C0.87550781 11.05964844 0.43851562 10.18179688 -0.01171875 9.27734375 C-1 7 -1 7 -1 5 C-0.34 5 0.32 5 1 5 C0.67 3.35 0.34 1.7 0 0 Z " fill="#4680A2" transform="translate(108,68)"/>
<path d="M0 0 C1.86785156 0.01353516 1.86785156 0.01353516 3.7734375 0.02734375 C5.18496094 0.04474609 5.18496094 0.04474609 6.625 0.0625 C6.625 0.3925 6.625 0.7225 6.625 1.0625 C2.665 1.0625 -1.295 1.0625 -5.375 1.0625 C-5.705 2.0525 -6.035 3.0425 -6.375 4.0625 C-9.015 3.7325 -11.655 3.4025 -14.375 3.0625 C-14.045 2.4025 -13.715 1.7425 -13.375 1.0625 C-8.90851439 -0.00382314 -4.57491621 -0.04315959 0 0 Z " fill="#3B5059" transform="translate(136.375,112.9375)"/>
<path d="M0 0 C0.66 0.33 1.32 0.66 2 1 C1.5 2.9375 1.5 2.9375 0 5 C-2.69658452 5.68790422 -5.2017019 5.81946464 -8 6 C-8 4.68 -8 3.36 -8 2 C-9.32 1.67 -10.64 1.34 -12 1 C-3.42857143 0.71428571 -3.42857143 0.71428571 0 3 C0 2.01 0 1.02 0 0 Z " fill="#0D2229" transform="translate(86,97)"/>
<path d="M0 0 C1.32 0.66 2.64 1.32 4 2 C4 3.65 4 5.3 4 7 C1.03 7 -1.94 7 -5 7 C-4.34 6.01 -3.68 5.02 -3 4 C-1.68 4 -0.36 4 1 4 C0.67 2.68 0.34 1.36 0 0 Z " fill="#7E84CB" transform="translate(79,45)"/>
<path d="M0 0 C4.95 0 9.9 0 15 0 C10.81762912 3.13677816 9.08056356 3.72782695 4 4 C1.5625 3.0625 1.5625 3.0625 0 2 C0 1.34 0 0.68 0 0 Z " fill="#020508" transform="translate(92,134)"/>
<path d="M0 0 C0.66 0 1.32 0 2 0 C3.04892238 1.63631892 4.04906703 3.30485863 5 5 C6.96822886 6.96822886 10.34808709 6.66248381 13 7 C13 7.33 13 7.66 13 8 C11.20906809 8.08086147 9.41710372 8.13912702 7.625 8.1875 C6.12839844 8.23970703 6.12839844 8.23970703 4.6015625 8.29296875 C3.74304688 8.19628906 2.88453125 8.09960938 2 8 C-0.1519437 4.77208445 -0.20086443 3.71599191 0 0 Z " fill="#B7CED6" transform="translate(61,102)"/>
<path d="M0 0 C1.32 0.99 2.64 1.98 4 3 C3.67 4.32 3.34 5.64 3 7 C2.34 6.67 1.68 6.34 1 6 C1 6.66 1 7.32 1 8 C-0.32 7.67 -1.64 7.34 -3 7 C-3 6.34 -3 5.68 -3 5 C-3.99 4.67 -4.98 4.34 -6 4 C-4.02 4 -2.04 4 0 4 C0 2.68 0 1.36 0 0 Z " fill="#143758" transform="translate(112,85)"/>
<path d="M0 0 C3.96 0 7.92 0 12 0 C11.67 1.32 11.34 2.64 11 4 C9.35 3.01 7.7 2.02 6 1 C6 1.99 6 2.98 6 4 C2 4 2 4 0 3 C0 2.01 0 1.02 0 0 Z " fill="#040A08" transform="translate(59,54)"/>
<path d="M0 0 C3.77545388 1.09068668 6.47043472 1.9083091 9 5 C7.35 5 5.7 5 4 5 C3.67 5.99 3.34 6.98 3 8 C0 3.375 0 3.375 0 0 Z " fill="#62AAC4" transform="translate(96,61)"/>
<path d="M0 0 C2.32590854 3.63423209 2.16265833 6.77088331 2 11 C0.68 11 -0.64 11 -2 11 C-2.66 9.35 -3.32 7.7 -4 6 C-2.02 6.99 -2.02 6.99 0 8 C0 5.36 0 2.72 0 0 Z " fill="#1B4B72" transform="translate(116,92)"/>
<path d="M0 0 C1.35158203 0.15275391 1.35158203 0.15275391 2.73046875 0.30859375 C3.41753906 0.39238281 4.10460937 0.47617188 4.8125 0.5625 C4.8125 1.5525 4.8125 2.5425 4.8125 3.5625 C3.39499437 3.44740339 1.97848831 3.31996342 0.5625 3.1875 C-0.22640625 3.11789063 -1.0153125 3.04828125 -1.828125 2.9765625 C-4.273377 2.54742887 -6.03586903 1.77649362 -8.1875 0.5625 C-4.98734144 -0.50421952 -3.30205706 -0.38595472 0 0 Z " fill="#2C3638" transform="translate(63.1875,99.4375)"/>
<path d="M0 0 C0.66 0 1.32 0 2 0 C2 0.66 2 1.32 2 2 C2.62648438 2.04898438 3.25296875 2.09796875 3.8984375 2.1484375 C5.12433594 2.26058594 5.12433594 2.26058594 6.375 2.375 C7.59316406 2.47941406 7.59316406 2.47941406 8.8359375 2.5859375 C11 3 11 3 13 5 C3.58997722 5.3690205 3.58997722 5.3690205 -1 3 C-0.67 2.01 -0.34 1.02 0 0 Z " fill="#323028" transform="translate(13,84)"/>
<path d="M0 0 C2.2477975 2.05233685 3.0022242 3.00667261 4 6 C4.06802967 7.72795352 4.08495645 9.45835365 4.0625 11.1875 C4.05347656 12.08855469 4.04445313 12.98960938 4.03515625 13.91796875 C4.02355469 14.60503906 4.01195313 15.29210937 4 16 C3.34 15.67 2.68 15.34 2 15 C0.76901558 11.0832314 1.16779149 7.97610732 2 4 C1.34 4 0.68 4 0 4 C0 2.68 0 1.36 0 0 Z " fill="#04111F" transform="translate(84,74)"/>
<path d="M0 0 C3.40843742 2.88406243 4.86591384 4.3708265 5.8125 8.8125 C5.9053125 10.3903125 5.9053125 10.3903125 6 12 C4.02 12 2.04 12 0 12 C1.32 11.67 2.64 11.34 4 11 C3.80528889 9.05000871 3.80528889 9.05000871 3 7 C1.0162233 5.71563266 1.0162233 5.71563266 -1 5 C-0.67 3.35 -0.34 1.7 0 0 Z " fill="#0A2712" transform="translate(58,54)"/>
<path d="M0 0 C6.625 -0.25 6.625 -0.25 10 2 C10.33 1.34 10.66 0.68 11 0 C11.99 0.66 12.98 1.32 14 2 C13 3 13 3 9.83984375 3.09765625 C7.90818359 3.08025391 7.90818359 3.08025391 5.9375 3.0625 C4.64714844 3.05347656 3.35679688 3.04445312 2.02734375 3.03515625 C1.02832031 3.02355469 0.02929688 3.01195312 -1 3 C-0.67 2.01 -0.34 1.02 0 0 Z " fill="#062216" transform="translate(71,55)"/>
<path d="M0 0 C0.33 0.66 0.66 1.32 1 2 C1.99 2.33 2.98 2.66 4 3 C3.67 3.66 3.34 4.32 3 5 C5.97 5.495 5.97 5.495 9 6 C9 6.33 9 6.66 9 7 C5.04 7 1.08 7 -3 7 C-2.01 4.69 -1.02 2.38 0 0 Z " fill="#C9E3F2" transform="translate(127,102)"/>
<path d="M0 0 C0.33 0.99 0.66 1.98 1 3 C1.99 3.33 2.98 3.66 4 4 C0.1496895 6.56687367 -1.58569763 5.83288724 -6 5 C-3.9927092 1.9890638 -3.16115776 1.36983503 0 0 Z " fill="#B8E1E8" transform="translate(66,93)"/>
<path d="M0 0 C5.86809507 0.52393706 10.54873741 1.76108858 16 4 C16 4.33 16 4.66 16 5 C10.58201328 4.30834212 5.3177215 3.24200752 0 2 C0 1.34 0 0.68 0 0 Z " fill="#555F62" transform="translate(15,84)"/>
<path d="M0 0 C1.32 0 2.64 0 4 0 C3.67 1.65 3.34 3.3 3 5 C2.34 5 1.68 5 1 5 C1 7.97 1 10.94 1 14 C0.67 14 0.34 14 0 14 C0 9.38 0 4.76 0 0 Z " fill="#09273D" transform="translate(79,72)"/>
<path d="M0 0 C1.2380014 3.57644848 0.74926071 6.33694766 0 10 C-2.64 10.33 -5.28 10.66 -8 11 C-6.1875 9 -6.1875 9 -4 7 C-3.01 7 -2.02 7 -1 7 C-0.67 4.69 -0.34 2.38 0 0 Z " fill="#3E667D" transform="translate(82,117)"/>
<path d="M0 0 C0.33 0.99 0.66 1.98 1 3 C0.34 3 -0.32 3 -1 3 C-1 5.31 -1 7.62 -1 10 C-1.66 9.67 -2.32 9.34 -3 9 C-2.67 8.34 -2.34 7.68 -2 7 C-3.32 6.67 -4.64 6.34 -6 6 C-2.25 1.125 -2.25 1.125 0 0 Z " fill="#428487" transform="translate(73,89)"/>
<path d="M0 0 C5.86809507 0.52393706 10.54873741 1.76108858 16 4 C16 4.33 16 4.66 16 5 C9.99666876 5.6319296 5.36595205 3.37544123 0 1 C0 0.67 0 0.34 0 0 Z " fill="#516772" transform="translate(33,89)"/>
<path d="M0 0 C-0.33 1.65 -0.66 3.3 -1 5 C-1.99 5 -2.98 5 -4 5 C-4.66 6.65 -5.32 8.3 -6 10 C-7.47968023 7.04063954 -6.84835797 5.13239866 -6 2 C-3.84139132 0.46808416 -2.63707871 0 0 0 Z " fill="#081C2F" transform="translate(98,88)"/>
<path d="M0 0 C1.98 0 3.96 0 6 0 C6.625 2.375 6.625 2.375 7 5 C6.34 5.66 5.68 6.32 5 7 C5 6.34 5 5.68 5 5 C4.01 5 3.02 5 2 5 C1.34 3.35 0.68 1.7 0 0 Z " fill="#0C2828" transform="translate(88,60)"/>
<path d="M0 0 C1.22333253 2.44666506 1.04546823 3.79229374 0.8125 6.5 C0.72935547 7.69109375 0.72935547 7.69109375 0.64453125 8.90625 C0 11 0 11 -2.05078125 12.28125 C-2.69402344 12.5184375 -3.33726563 12.755625 -4 13 C-3.40546697 3.40546697 -3.40546697 3.40546697 0 0 Z " fill="#206393" transform="translate(72,12)"/>
<path d="M0 0 C1.32 0.33 2.64 0.66 4 1 C4 2.65 4 4.3 4 6 C1.03 5.505 1.03 5.505 -2 5 C-1.34 3.35 -0.68 1.7 0 0 Z " fill="#5E7C8F" transform="translate(81,93)"/>
<path d="M0 0 C0.33 1.98 0.66 3.96 1 6 C2.98 5.67 4.96 5.34 7 5 C6.67 5.99 6.34 6.98 6 8 C3.69 8 1.38 8 -1 8 C-1 7.01 -1 6.02 -1 5 C-1.66 5 -2.32 5 -3 5 C-3 3.68 -3 2.36 -3 1 C-1 0 -1 0 0 0 Z " fill="#558985" transform="translate(62,69)"/>
<path d="M0 0 C4 4.75 4 4.75 4 7 C2.02 7 0.04 7 -2 7 C-1.125 1.125 -1.125 1.125 0 0 Z " fill="#142532" transform="translate(69,24)"/>
<path d="M0 0 C2.31 0 4.62 0 7 0 C6.67 1.32 6.34 2.64 6 4 C4.35 4 2.7 4 1 4 C0.67 2.68 0.34 1.36 0 0 Z " fill="#0B1315" transform="translate(70,24)"/>
<path d="M0 0 C1.32 0 2.64 0 4 0 C4.33 0.66 4.66 1.32 5 2 C6.88263881 2.90343684 6.88263881 2.90343684 9.0625 3.625 C9.79597656 3.88539062 10.52945313 4.14578125 11.28515625 4.4140625 C12.13400391 4.70410156 12.13400391 4.70410156 13 5 C12.67 5.66 12.34 6.32 12 7 C11.01 7 10.02 7 9 7 C9 6.34 9 5.68 9 5 C8.2575 4.9175 7.515 4.835 6.75 4.75 C3.48778646 3.8603054 2.19045122 2.51496251 0 0 Z " fill="#202221" transform="translate(26,89)"/>
<path d="M0 0 C1.32 0.33 2.64 0.66 4 1 C4 1.66 4 2.32 4 3 C4.66 3 5.32 3 6 3 C5.67 4.32 5.34 5.64 5 7 C4.67 6.01 4.34 5.02 4 4 C2.02 4.99 2.02 4.99 0 6 C0 4.02 0 2.04 0 0 Z " fill="#153056" transform="translate(72,16)"/>
<path d="M0 0 C1.46015291 0.28241641 2.91809793 0.57626614 4.375 0.875 C5.18710937 1.03742188 5.99921875 1.19984375 6.8359375 1.3671875 C9 2 9 2 11 4 C3.57142857 4.28571429 3.57142857 4.28571429 0 2 C0 1.34 0 0.68 0 0 Z " fill="#384145" transform="translate(30,89)"/>
<path d="M0 0 C0.99 0 1.98 0 3 0 C3 1.98 3 3.96 3 6 C1.68 6.33 0.36 6.66 -1 7 C-1.04254356 5.00045254 -1.04080783 2.99958364 -1 1 C-0.67 0.67 -0.34 0.34 0 0 Z " fill="#177567" transform="translate(80,59)"/>
<path d="M0 0 C2.31 0 4.62 0 7 0 C8.35439668 2.70879335 8.06501451 5.00933268 8 8 C6 7 6 7 4.5625 4.5625 C3.10335955 1.7644028 3.10335955 1.7644028 0 0 Z " fill="#375347" transform="translate(74,108)"/>
<path d="M0 0 C2.31 0 4.62 0 7 0 C6.01 0.66 5.02 1.32 4 2 C4.33 2.99 4.66 3.98 5 5 C3.35 5 1.7 5 0 5 C0 3.35 0 1.7 0 0 Z " fill="#133F4B" transform="translate(85,59)"/>
<path d="M0 0 C0.66 0.99 1.32 1.98 2 3 C1.67 4.32 1.34 5.64 1 7 C-1.64 7.66 -4.28 8.32 -7 9 C-7.33 8.34 -7.66 7.68 -8 7 C-5.29120665 5.64560332 -2.99066732 5.93498549 0 6 C0 4.02 0 2.04 0 0 Z " fill="#07152B" transform="translate(82,121)"/>
<path d="M0 0 C-1.485 1.98 -1.485 1.98 -3 4 C-7.455 3.01 -7.455 3.01 -12 2 C-12 1.67 -12 1.34 -12 1 C-7.95858806 0.36605303 -4.0934693 -0.12404452 0 0 Z " fill="#253740" transform="translate(147,122)"/>
<path d="M0 0 C-0.33 1.32 -0.66 2.64 -1 4 C-2.32 4 -3.64 4 -5 4 C-7.33634657 4.31151288 -9.67038557 4.64159778 -12 5 C-4.5 0 -4.5 0 0 0 Z " fill="#1B3620" transform="translate(77,101)"/>
<path d="M0 0 C0.99 0.33 1.98 0.66 3 1 C3 2.32 3 3.64 3 5 C3.66 5 4.32 5 5 5 C4.67 6.32 4.34 7.64 4 9 C4 8.01 4 7.02 4 6 C2.68 6 1.36 6 0 6 C0 4.02 0 2.04 0 0 Z " fill="#0C2036" transform="translate(96,69)"/>
<path d="M0 0 C0.33 0.66 0.66 1.32 1 2 C2.65 1.67 4.3 1.34 6 1 C6.33 2.32 6.66 3.64 7 5 C5.35 5 3.7 5 2 5 C1.67 5.66 1.34 6.32 1 7 C0.34 5.02 -0.32 3.04 -1 1 C-0.67 0.67 -0.34 0.34 0 0 Z " fill="#356052" transform="translate(62,56)"/>
<path d="M0 0 C0.33 0 0.66 0 1 0 C1.49230769 7.38461538 1.49230769 7.38461538 -1 10.5 C-1.66 10.995 -2.32 11.49 -3 12 C-2.25749403 7.91621717 -1.17076699 3.98060777 0 0 Z " fill="#D0E8F5" transform="translate(70,83)"/>
<path d="M0 0 C0.99 0.33 1.98 0.66 3 1 C2.34 1 1.68 1 1 1 C1.33 2.32 1.66 3.64 2 5 C1.01 5 0.02 5 -1 5 C-1.66 5.66 -2.32 6.32 -3 7 C-3.33 5.68 -3.66 4.36 -4 3 C-2.1875 1.4375 -2.1875 1.4375 0 0 Z " fill="#1A597F" transform="translate(106,72)"/>
<path d="M0 0 C0.99 0.33 1.98 0.66 3 1 C0.69 3.64 -1.62 6.28 -4 9 C-4.33 8.34 -4.66 7.68 -5 7 C-1.125 1.125 -1.125 1.125 0 0 Z " fill="#DAECF8" transform="translate(49,31)"/>
<path d="M0 0 C1.52519276 0.08937803 3.04681929 0.24537146 4.5625 0.4375 C5.80193359 0.59025391 5.80193359 0.59025391 7.06640625 0.74609375 C7.70449219 0.82988281 8.34257812 0.91367188 9 1 C7.6875 2.5 7.6875 2.5 6 4 C5.01 4 4.02 4 3 4 C3 3.34 3 2.68 3 2 C1.68 1.67 0.36 1.34 -1 1 C-0.67 0.67 -0.34 0.34 0 0 Z " fill="#0D111F" transform="translate(135,124)"/>
<path d="M0 0 C3.0916909 2.52956528 3.90931332 5.22454612 5 9 C3.0625 8.4375 3.0625 8.4375 1 7 C0.25 3.375 0.25 3.375 0 0 Z " fill="#040A0E" transform="translate(77,83)"/>
<path d="M0 0 C3.82524236 1.450954 5.19090966 3.38181932 7 7 C7 7.66 7 8.32 7 9 C6.34 9 5.68 9 5 9 C3 6 3 6 3 3 C2.34 3 1.68 3 1 3 C0.67 2.01 0.34 1.02 0 0 Z " fill="#092C4F" transform="translate(105,76)"/>
<path d="M0 0 C2 3 2 3 2 6 C0.35 5.67 -1.3 5.34 -3 5 C-1.125 1.125 -1.125 1.125 0 0 Z " fill="#051B10" transform="translate(80,66)"/>
<path d="M0 0 C1.65 0 3.3 0 5 0 C5 1.65 5 3.3 5 5 C4.01 5 3.02 5 2 5 C1.34 3.35 0.68 1.7 0 0 Z " fill="#0C263E" transform="translate(72,38)"/>
<path d="M0 0 C-1.8125 2 -1.8125 2 -4 4 C-4.99 4 -5.98 4 -7 4 C-7.33 3.01 -7.66 2.02 -8 1 C-5.07175348 0.02391783 -3.04386724 -0.08226668 0 0 Z " fill="#0A1922" transform="translate(101,105)"/>
<path d="M0 0 C1.32 0.66 2.64 1.32 4 2 C4.66 1.34 5.32 0.68 6 0 C6 1.32 6 2.64 6 4 C3.03 3.67 0.06 3.34 -3 3 C-2.01 2.01 -1.02 1.02 0 0 Z " fill="#2E6B37" transform="translate(73,103)"/>
<path d="M0 0 C1.46726798 3.81489674 0.43336419 6.29011622 -1 10 C-1.66 9.34 -2.32 8.68 -3 8 C-2.64700993 4.55834679 -1.95418308 2.93127462 0 0 Z " fill="#57B8A3" transform="translate(54,59)"/>
<path d="M0 0 C1 2 1 2 0.9375 3.875 C-0.48885027 7.10806062 -3.03834436 8.23560941 -6 10 C-4.34832443 6.4213696 -2.21713508 3.25179812 0 0 Z " fill="#37769F" transform="translate(67,25)"/>
<path d="M0 0 C1.98 0.66 3.96 1.32 6 2 C6 3.32 6 4.64 6 6 C4.68 6 3.36 6 2 6 C2 5.34 2 4.68 2 4 C2.66 4 3.32 4 4 4 C4 3.34 4 2.68 4 2 C2.68 1.67 1.36 1.34 0 1 C0 0.67 0 0.34 0 0 Z " fill="#1D5F2C" transform="translate(56,59)"/>
<path d="M0 0 C1.32 0.33 2.64 0.66 4 1 C2.515 3.475 2.515 3.475 1 6 C0.01 5.67 -0.98 5.34 -2 5 C-1.34 5 -0.68 5 0 5 C0 3.35 0 1.7 0 0 Z " fill="#165830" transform="translate(76,59)"/>
<path d="M0 0 C3 1 3 1 4.1875 3.0625 C4.455625 3.701875 4.72375 4.34125 5 5 C3.35 4.67 1.7 4.34 0 4 C0 2.68 0 1.36 0 0 Z " fill="#3C6274" transform="translate(118,110)"/>
<path d="M0 0 C3.125 0.375 3.125 0.375 6 1 C6 1.66 6 2.32 6 3 C3.36 2.67 0.72 2.34 -2 2 C-1.34 1.34 -0.68 0.68 0 0 Z " fill="#15486E" transform="translate(107,102)"/>
<path d="M0 0 C0.66 0 1.32 0 2 0 C2 0.99 2 1.98 2 3 C1.34 3 0.68 3 0 3 C0 4.98 0 6.96 0 9 C-1.3950848 6.70221327 -2.07438619 5.5207033 -1.6875 2.8125 C-1 1 -1 1 0 0 Z " fill="#D3E6F3" transform="translate(37,79)"/>
<path d="M0 0 C0.556875 0.226875 1.11375 0.45375 1.6875 0.6875 C-5.0625 4.6875 -5.0625 4.6875 -7.3125 4.6875 C-7.3125 4.0275 -7.3125 3.3675 -7.3125 2.6875 C-3.15982824 -0.42700382 -3.15982824 -0.42700382 0 0 Z " fill="#20602A" transform="translate(91.3125,66.3125)"/>
</svg>
