<?xml version="1.0" encoding="UTF-8"?>
<svg version="1.1" xmlns="http://www.w3.org/2000/svg" width="160" height="160">
<path d="M0 0 C2.475 0.99 2.475 0.99 5 2 C5 2.66 5 3.32 5 4 C5.66 3.67 6.32 3.34 7 3 C10.3125 2.625 10.3125 2.625 14 3 C16.75 5.25 16.75 5.25 19 8 C19.5775 8.70125 20.155 9.4025 20.75 10.125 C23.91652166 14.8747825 23.48210648 20.51202128 23 26 C21.5 29.0625 21.5 29.0625 20 31 C20 31.66 20 32.32 20 33 C24.24993992 33.05895136 28.49977216 33.0939116 32.75 33.125 C33.93722656 33.14175781 35.12445313 33.15851562 36.34765625 33.17578125 C44.10822173 33.21818871 51.39444686 32.55083348 59 31 C58.67 31.99 58.34 32.98 58 34 C59.98 34.33 61.96 34.66 64 35 C63.67 35.99 63.34 36.98 63 38 C60.36 38 57.72 38 55 38 C55 39.65 55 41.3 55 43 C54.01 43 53.02 43 52 43 C51.67 41.35 51.34 39.7 51 38 C49.35 38 47.7 38 46 38 C46.99 39.98 46.99 39.98 48 42 C47.34 42 46.68 42 46 42 C46 42.66 46 43.32 46 44 C45.01 44.66 44.02 45.32 43 46 C42.5267359 48.72090224 42.5267359 48.72090224 42.5 51.8125 C42.35838553 56.56248533 41.50238922 59.00393659 39 63 C38.43914436 65.42529916 38.43914436 65.42529916 38.3125 67.8125 C38.24675781 68.60269531 38.18101563 69.39289063 38.11328125 70.20703125 C38.07589844 70.79871094 38.03851563 71.39039062 38 72 C37.01 72 36.02 72 35 72 C32.8857645 79.94952546 31.22590007 87.86579246 30 96 C27.46089803 95.61479436 26.27248877 95.29902057 24.515625 93.37109375 C24.09796875 92.73300781 23.6803125 92.09492187 23.25 91.4375 C22.82203125 90.79683594 22.3940625 90.15617187 21.953125 89.49609375 C21.63859375 89.00238281 21.3240625 88.50867188 21 88 C17.04433627 89.31855458 16.74413841 90.85564973 14.875 94.5 C12.05347594 99.94652406 12.05347594 99.94652406 11 101 C10.76518307 103.18292774 10.58636677 105.37203174 10.4375 107.5625 C10.31181641 109.35880859 10.31181641 109.35880859 10.18359375 111.19140625 C10.12300781 112.11824219 10.06242187 113.04507813 10 114 C11.41345703 114.46019531 11.41345703 114.46019531 12.85546875 114.9296875 C17.87410458 116.63789398 17.87410458 116.63789398 20 119 C20.78338223 121.78472369 20.90644913 124.05314744 21 127 C17.69966074 130.30033926 13.50805534 129.75337611 9 130 C7.20175781 130.09861328 7.20175781 130.09861328 5.3671875 130.19921875 C4.13226563 130.23660156 2.89734375 130.27398437 1.625 130.3125 C-0.11910156 130.36857422 -0.11910156 130.36857422 -1.8984375 130.42578125 C-5 130 -5 130 -7.4296875 128.16796875 C-9 126 -9 126 -8.75 123 C-8.5025 122.01 -8.255 121.02 -8 120 C-8 118.68 -8 117.36 -8 116 C-6.68 116 -5.36 116 -4 116 C-1.31102711 113.60711626 -1.01306153 112.15395186 -0.70703125 108.546875 C-0.74183594 107.29390625 -0.77664062 106.0409375 -0.8125 104.75 C-0.83957031 103.48671875 -0.86664063 102.2234375 -0.89453125 100.921875 C-0.92933594 99.95765625 -0.96414062 98.9934375 -1 98 C-2.11375 98.639375 -3.2275 99.27875 -4.375 99.9375 C-7.88655906 101.95339502 -10.27223034 103.18301059 -14.375 103.3125 C-15.14585938 103.34988281 -15.91671875 103.38726562 -16.7109375 103.42578125 C-19.97540398 102.8185682 -21.07359091 101.67775232 -23 99 C-23.35546875 95.8359375 -23.35546875 95.8359375 -23.1875 92.375 C-22.81679651 88.02813485 -22.81679651 88.02813485 -24 84 C-25.485 84.495 -25.485 84.495 -27 85 C-26.99476318 84.41621582 -26.98952637 83.83243164 -26.98413086 83.23095703 C-26.96305919 80.52898276 -26.95024541 77.82702589 -26.9375 75.125 C-26.92912109 74.2071875 -26.92074219 73.289375 -26.91210938 72.34375 C-26.89035827 66.1664353 -27.26069892 60.13278165 -28 54 C-28.66 54 -29.32 54 -30 54 C-30 54.99 -30 55.98 -30 57 C-30.99 57 -31.98 57 -33 57 C-33.66 51.39 -34.32 45.78 -35 40 C-37.64 40.66 -40.28 41.32 -43 42 C-42.67 41.01 -42.34 40.02 -42 39 C-45.63 39.66 -49.26 40.32 -53 41 C-52.67 40.01 -52.34 39.02 -52 38 C-51.34 38 -50.68 38 -50 38 C-50 37.34 -50 36.68 -50 36 C-52.31 35.67 -54.62 35.34 -57 35 C-57 34.34 -57 33.68 -57 33 C-50.73 33 -44.46 33 -38 33 C-38 32.34 -38 31.68 -38 31 C-37.01 31.33 -36.02 31.66 -35 32 C-33.15389468 32.08239169 -31.30494836 32.10743359 -29.45703125 32.09765625 C-27.84731445 32.09282227 -27.84731445 32.09282227 -26.20507812 32.08789062 C-25.08552734 32.07951172 -23.96597656 32.07113281 -22.8125 32.0625 C-21.68134766 32.05798828 -20.55019531 32.05347656 -19.38476562 32.04882812 C-16.58979073 32.03703498 -13.7949218 32.0205765 -11 32 C-11.48726562 31.1440625 -11.97453125 30.288125 -12.4765625 29.40625 C-15.33415478 23.01696675 -15.01318159 15.76322252 -12.625 9.25 C-11 7 -11 7 -9 6 C-6.3276379 5.86584528 -3.67749512 5.95681459 -1 6 C-1.020625 5.195625 -1.04125 4.39125 -1.0625 3.5625 C-1 1 -1 1 0 0 Z M-14 56 C-14.66 57.32 -15.32 58.64 -16 60 C-14.515 60.99 -14.515 60.99 -13 62 C-12.3185177 60.10820797 -12.3185177 60.10820797 -12 58 C-12.66 57.34 -13.32 56.68 -14 56 Z " fill="#9F7B46" transform="translate(77,16)"/>
<path d="M0 0 C-0.33 0.99 -0.66 1.98 -1 3 C1.97 3.495 1.97 3.495 5 4 C4.67 4.99 4.34 5.98 4 7 C1.36 7 -1.28 7 -4 7 C-4 8.65 -4 10.3 -4 12 C-4.99 12 -5.98 12 -7 12 C-7.495 9.525 -7.495 9.525 -8 7 C-9.65 7 -11.3 7 -13 7 C-12.34 8.32 -11.68 9.64 -11 11 C-11.66 11 -12.32 11 -13 11 C-13 11.66 -13 12.32 -13 13 C-13.99 13.66 -14.98 14.32 -16 15 C-16.4732641 17.72090224 -16.4732641 17.72090224 -16.5 20.8125 C-16.64161447 25.56248533 -17.49761078 28.00393659 -20 32 C-20.56085564 34.42529916 -20.56085564 34.42529916 -20.6875 36.8125 C-20.75324219 37.60269531 -20.81898437 38.39289063 -20.88671875 39.20703125 C-20.94279297 40.09455078 -20.94279297 40.09455078 -21 41 C-21.99 41 -22.98 41 -24 41 C-26.1142355 48.94952546 -27.77409993 56.86579246 -29 65 C-31.53910197 64.61479436 -32.72751123 64.29902057 -34.484375 62.37109375 C-34.90203125 61.73300781 -35.3196875 61.09492187 -35.75 60.4375 C-36.17796875 59.79683594 -36.6059375 59.15617187 -37.046875 58.49609375 C-37.36140625 58.00238281 -37.6759375 57.50867188 -38 57 C-41.18494085 57.69803334 -41.18494085 57.69803334 -42.46484375 60.46875 C-43.44611784 62.48856085 -44.4252877 64.50939536 -45.40234375 66.53125 C-47 69 -47 69 -49.03515625 69.921875 C-52.02264051 70.04066165 -53.59228111 68.68540322 -56 67 C-56.8971875 66.13375 -56.8971875 66.13375 -57.8125 65.25 C-61.2954702 63.25973131 -64.12489739 64.28956452 -68 65 C-68.25394531 64.38511719 -68.50789063 63.77023438 -68.76953125 63.13671875 C-69.11371094 62.32847656 -69.45789063 61.52023438 -69.8125 60.6875 C-70.14894531 59.88699219 -70.48539062 59.08648437 -70.83203125 58.26171875 C-71.98200704 56.03484255 -73.13626961 54.65012233 -75 53 C-72.13275314 53.57344937 -71.1385485 53.8614515 -69 56 C-66.41645782 56.16687448 -66.41645782 56.16687448 -64 56 C-64 54.68 -64 53.36 -64 52 C-62.35178756 50.96986723 -60.68496298 49.96885372 -59 49 C-59 48.01 -59 47.02 -59 46 C-59.66 46 -60.32 46 -61 46 C-60.34 44.68 -59.68 43.36 -59 42 C-57.125 42.25 -57.125 42.25 -55 43 C-53.75 45.0625 -53.75 45.0625 -53 47 C-46.94145671 46.09394758 -42.10129909 43.59065864 -38 39 C-36.97269193 34.85331376 -36.9984627 31.15182737 -38 27 C-39.42318243 25.26862453 -39.42318243 25.26862453 -41 24 C-41.8125 21.9375 -41.8125 21.9375 -42 20 C-41.34 19.34 -40.68 18.68 -40 18 C-39.35232207 15.42938689 -39.35232207 15.42938689 -39 13 C-38.34 13 -37.68 13 -37 13 C-37.495 10.525 -37.495 10.525 -38 8 C-35.35261084 6.5393715 -34.10551666 6 -31 6 C-31 4.68 -31 3.36 -31 2 C-29.73285156 2.02320313 -28.46570313 2.04640625 -27.16015625 2.0703125 C-25.46094345 2.08908833 -23.7617242 2.10728657 -22.0625 2.125 C-21.23169922 2.14175781 -20.40089844 2.15851562 -19.54492188 2.17578125 C-14.43126068 2.21557628 -9.86187655 1.72093283 -4.90795898 0.43310547 C-3 0 -3 0 0 0 Z " fill="#A37D49" transform="translate(136,47)"/>
<path d="M0 0 C2.75 2.25 2.75 2.25 5 5 C5.5775 5.70125 6.155 6.4025 6.75 7.125 C9.92775412 11.89163118 9.45192181 17.49623798 9 23 C7.4189891 26.79442615 5.56886646 28.98794616 2 31 C-1.15120627 31.44854323 -4.25960228 31.41836782 -7.4375 31.375 C-8.7069043 31.39240234 -8.7069043 31.39240234 -10.00195312 31.41015625 C-14.76110163 31.38779533 -18.1972065 31.20153046 -22 28 C-22 27.34 -22 26.68 -22 26 C-18.04 26 -14.08 26 -10 26 C-13.44450737 23.70366176 -15.93812283 23.45983515 -20 23 C-21.38317955 19.15783458 -20.9279297 15.92585641 -20 12 C-17.9375 10.0625 -17.9375 10.0625 -16 9 C-16.33 11.64 -16.66 14.28 -17 17 C-16.34 17 -15.68 17 -15 17 C-14.95101562 16.31292969 -14.90203125 15.62585937 -14.8515625 14.91796875 C-14.77679688 14.01691406 -14.70203125 13.11585937 -14.625 12.1875 C-14.55539063 11.29417969 -14.48578125 10.40085937 -14.4140625 9.48046875 C-14 7 -14 7 -12 4 C-11.01 4 -10.02 4 -9 4 C-9 3.01 -9 2.02 -9 1 C-5.86128812 -0.56935594 -3.46144178 -0.35201103 0 0 Z " fill="#D64A02" transform="translate(91,19)"/>
<path d="M0 0 C3.33333333 1.66666667 6.66666667 3.33333333 10 5 C10 9.29 10 13.58 10 18 C11.98 18.66 13.96 19.32 16 20 C18.3125 21.125 18.3125 21.125 20 23 C20.78338223 25.78472369 20.90644913 28.05314744 21 31 C17.69966074 34.30033926 13.50805534 33.75337611 9 34 C7.20175781 34.09861328 7.20175781 34.09861328 5.3671875 34.19921875 C4.13226563 34.23660156 2.89734375 34.27398437 1.625 34.3125 C-0.11910156 34.36857422 -0.11910156 34.36857422 -1.8984375 34.42578125 C-5 34 -5 34 -7.4296875 32.16796875 C-9 30 -9 30 -8.75 27 C-8.37875 25.515 -8.37875 25.515 -8 24 C-8 22.68 -8 21.36 -8 20 C-6.68 20 -5.36 20 -4 20 C-1.18100495 17.54869995 -0.97939583 15.84334537 -0.48828125 12.109375 C-0.41565668 10.65688364 -0.35744381 9.20361121 -0.3125 7.75 C-0.27833984 7.00492187 -0.24417969 6.25984375 -0.20898438 5.4921875 C-0.12685946 3.66197508 -0.06174347 1.83101331 0 0 Z " fill="#0B1A0A" transform="translate(77,112)"/>
<path d="M0 0 C2.475 0.99 2.475 0.99 5 2 C5 3.65 5 5.3 5 7 C4.01 7.33 3.02 7.66 2 8 C0.96683512 10.79172239 0.96683512 10.79172239 0.3125 14.0625 C0.06113281 15.16722656 -0.19023438 16.27195312 -0.44921875 17.41015625 C-0.63097656 18.26480469 -0.81273438 19.11945312 -1 20 C-1.66 20 -2.32 20 -3 20 C-3 17.69 -3 15.38 -3 13 C-5.58926331 15.58926331 -5.37398043 17.02705279 -5.625 20.625 C-5.69976562 21.62789062 -5.77453125 22.63078125 -5.8515625 23.6640625 C-5.90054688 24.43492188 -5.94953125 25.20578125 -6 26 C-4.948125 25.9175 -3.89625 25.835 -2.8125 25.75 C1.53763669 26.03525487 2.9315153 27.02449969 6 30 C-3.41002278 30.18451025 -3.41002278 30.18451025 -8 29 C-6.27773504 32.24849977 -6.27773504 32.24849977 -3 33 C-1.44578271 33.08106686 0.11167027 33.10756898 1.66796875 33.09765625 C2.56064453 33.09443359 3.45332031 33.09121094 4.37304688 33.08789062 C5.76620117 33.07532227 5.76620117 33.07532227 7.1875 33.0625 C8.12787109 33.05798828 9.06824219 33.05347656 10.03710938 33.04882812 C12.35813712 33.03704626 14.67903644 33.02059558 17 33 C15.53719008 38.60743802 15.53719008 38.60743802 13.171875 40.3359375 C10.83565134 41.05025049 8.6830205 41.41032172 6.25 41.625 C5.45078125 41.69976562 4.6515625 41.77453125 3.828125 41.8515625 C3.22484375 41.90054688 2.6215625 41.94953125 2 42 C1.67 41.34 1.34 40.68 1 40 C-1.28948258 39.56959776 -1.28948258 39.56959776 -3.9375 39.4375 C-8.81239531 39.09380235 -8.81239531 39.09380235 -11 38 C-11 37.01 -11 36.02 -11 35 C-10.01 35 -9.02 35 -8 35 C-8 34.34 -8 33.68 -8 33 C-8.61875 32.773125 -9.2375 32.54625 -9.875 32.3125 C-12.71310609 30.55955212 -13.00637822 29.16033007 -14 26 C-14.64250786 19.33293795 -15.07673094 12.64470438 -11 7 C-7.78548731 5.39274365 -4.56387464 5.94251815 -1 6 C-1.020625 5.195625 -1.04125 4.39125 -1.0625 3.5625 C-1 1 -1 1 0 0 Z " fill="#A93A02" transform="translate(77,16)"/>
<path d="M0 0 C0.99 0.33 1.98 0.66 3 1 C5.06362991 1.15029988 7.13123915 1.24844448 9.19921875 1.31640625 C11.01196289 1.37924805 11.01196289 1.37924805 12.86132812 1.44335938 C14.12396484 1.48267578 15.38660156 1.52199219 16.6875 1.5625 C18.59885742 1.62727539 18.59885742 1.62727539 20.54882812 1.69335938 C23.69910852 1.7995486 26.84946839 1.90159533 30 2 C30 2.66 30 3.32 30 4 C28.68 4.33 27.36 4.66 26 5 C26 5.99 26 6.98 26 8 C23.01758453 8.77321882 20.02419525 9.41196203 17 10 C16.9071875 10.8971875 16.9071875 10.8971875 16.8125 11.8125 C15.67199005 14.88310372 13.82187415 15.48582363 11 17 C8.23776722 19.76223278 8.42143709 22.20706617 8 26 C7.01 26 6.02 26 5 26 C4.34 20.39 3.68 14.78 3 9 C0.36 9.66 -2.28 10.32 -5 11 C-4.67 10.01 -4.34 9.02 -4 8 C-7.63 8.66 -11.26 9.32 -15 10 C-14.67 9.01 -14.34 8.02 -14 7 C-13.34 7 -12.68 7 -12 7 C-12 6.34 -12 5.68 -12 5 C-14.31 4.67 -16.62 4.34 -19 4 C-19 3.34 -19 2.68 -19 2 C-12.73 2 -6.46 2 0 2 C0 1.34 0 0.68 0 0 Z " fill="#A28E5B" transform="translate(39,47)"/>
<path d="M0 0 C4.00458831 0.61609051 6.83019669 2.55060653 10 5 C10 5.99 10 6.98 10 8 C10.66 8 11.32 8 12 8 C12 8.99 12 9.98 12 11 C9.6875 11.6875 9.6875 11.6875 7 12 C5.3125 10.5625 5.3125 10.5625 4 9 C3.34 9 2.68 9 2 9 C2.61875 9.350625 3.2375 9.70125 3.875 10.0625 C6.75554253 12.68887702 7.15462838 15.26627537 8 19 C9.27875 18.79375 10.5575 18.5875 11.875 18.375 C14.0546875 18.0234375 14.0546875 18.0234375 16 18 C16.66 18.66 17.32 19.32 18 20 C12.13583621 25.18228428 8.05673707 27.16074833 0.18359375 27.4609375 C-3.07686605 26.77268302 -4.13172116 25.7618035 -6 23 C-6.33720567 20.03995827 -6.05868817 17.2045868 -5.75 14.25 C-5.68425781 13.45722656 -5.61851563 12.66445312 -5.55078125 11.84765625 C-5.38624584 9.89673634 -5.19565518 7.94804503 -5 6 C-5.66 6 -6.32 6 -7 6 C-7 5.34 -7 4.68 -7 4 C-5.33388095 3.957279 -3.66617115 3.95936168 -2 4 C-1.67 4.33 -1.34 4.66 -1 5 C-0.67 3.35 -0.34 1.7 0 0 Z " fill="#7A6238" transform="translate(60,92)"/>
<path d="M0 0 C4.62821539 0.5491103 5.78470604 1.88964072 8.6875 5.4375 C9.265 6.13875 9.8425 6.84 10.4375 7.5625 C13.61525412 12.32913118 13.13942181 17.93373798 12.6875 23.4375 C11.1064891 27.23192615 9.25636646 29.42544616 5.6875 31.4375 C2.53629373 31.88604323 -0.57210228 31.85586782 -3.75 31.8125 C-5.0194043 31.82990234 -5.0194043 31.82990234 -6.31445312 31.84765625 C-11.07360163 31.82529533 -14.5097065 31.63903046 -18.3125 28.4375 C-18.3125 27.7775 -18.3125 27.1175 -18.3125 26.4375 C-16.86230469 26.50710937 -16.86230469 26.50710937 -15.3828125 26.578125 C-8.12249337 26.77940117 -2.12168682 26.67041776 4.5390625 23.41015625 C6.90445628 22.33927797 9.13368317 21.86313614 11.6875 21.4375 C11.0275 20.1175 10.3675 18.7975 9.6875 17.4375 C8.3675 17.4375 7.0475 17.4375 5.6875 17.4375 C5.3575 18.4275 5.0275 19.4175 4.6875 20.4375 C3.3675 20.1075 2.0475 19.7775 0.6875 19.4375 C0.97625 18.880625 1.265 18.32375 1.5625 17.75 C2.7288253 15.35255355 3.7214881 12.92153061 4.6875 10.4375 C1.82213296 6.35986229 -0.74291625 4.41072935 -5.3125 2.4375 C-3.3125 0.4375 -3.3125 0.4375 0 0 Z " fill="#DF5F02" transform="translate(87.3125,18.5625)"/>
<path d="M0 0 C1.32 0 2.64 0 4 0 C4.37125 1.0725 4.7425 2.145 5.125 3.25 C6.80709056 7.28864256 9.35549156 8.65131678 13 11 C13 12.32 13 13.64 13 15 C12.01 15.495 12.01 15.495 11 16 C10.34444881 18.52733235 10.34444881 18.52733235 10 21 C9.01 21 8.02 21 7 21 C7.061875 22.423125 7.061875 22.423125 7.125 23.875 C7 27 7 27 5 29 C4.01 29 3.02 29 2 29 C2 29.66 2 30.32 2 31 C2.66 31 3.32 31 4 31 C3.67 32.32 3.34 33.64 3 35 C2.67 34.34 2.34 33.68 2 33 C0.515 33.495 0.515 33.495 -1 34 C-0.99476318 33.41621582 -0.98952637 32.83243164 -0.98413086 32.23095703 C-0.96305919 29.52898276 -0.95024541 26.82702589 -0.9375 24.125 C-0.92912109 23.2071875 -0.92074219 22.289375 -0.91210938 21.34375 C-0.89272181 15.83768039 -1.18491338 10.54157883 -1.97875977 5.08935547 C-2 3 -2 3 0 0 Z " fill="#9A7E4A" transform="translate(51,67)"/>
<path d="M0 0 C0.99 0 1.98 0 3 0 C3.85537822 4.61472956 4.2859326 9.19602365 4.5625 13.875 C4.60568359 14.56335937 4.64886719 15.25171875 4.69335938 15.9609375 C4.79832922 17.640455 4.89955429 19.32020586 5 21 C6.32 21.33 7.64 21.66 9 22 C6.8125 22.6875 6.8125 22.6875 4 23 C2.31791365 22.02616054 0.65261839 21.02304948 -1 20 C-4.69523952 19.28076792 -4.69523952 19.28076792 -8 19 C-9.38317955 15.15783458 -8.9279297 11.92585641 -8 8 C-5.9375 6.0625 -5.9375 6.0625 -4 5 C-4.33 7.64 -4.66 10.28 -5 13 C-4.34 13 -3.68 13 -3 13 C-2.95101562 12.31292969 -2.90203125 11.62585937 -2.8515625 10.91796875 C-2.77679688 10.01691406 -2.70203125 9.11585937 -2.625 8.1875 C-2.55539063 7.29417969 -2.48578125 6.40085937 -2.4140625 5.48046875 C-2 3 -2 3 0 0 Z " fill="#DB5004" transform="translate(79,23)"/>
<path d="M0 0 C2.31 0 4.62 0 7 0 C7.06058594 0.66386719 7.12117188 1.32773437 7.18359375 2.01171875 C7.79863507 8.54908081 7.79863507 8.54908081 9 15 C8.01 15.33 7.02 15.66 6 16 C5.34 16.99 4.68 17.98 4 19 C-1 14 -1 14 -1.125 11.375 C-1.08375 10.59125 -1.0425 9.8075 -1 9 C-2.97536745 9.34786708 -2.97536745 9.34786708 -5 10 C-5.33 10.66 -5.66 11.32 -6 12 C-6.99 12 -7.98 12 -9 12 C-8.64598897 8.81390075 -8.16972964 7.20933322 -6.125 4.6875 C-4 3 -4 3 -1 3 C-0.67 2.01 -0.34 1.02 0 0 Z " fill="#946F3B" transform="translate(56,58)"/>
<path d="M0 0 C0.99 0.33 1.98 0.66 3 1 C3.99 0.67 4.98 0.34 6 0 C6 0.66 6 1.32 6 2 C6.99 2 7.98 2 9 2 C9.33 4.64 9.66 7.28 10 10 C12.475 10.99 12.475 10.99 15 12 C14.625 13.9375 14.625 13.9375 14 16 C11.70013269 17.14993366 10.18530912 17.2316929 7.625 17.3125 C6.46871094 17.36857422 6.46871094 17.36857422 5.2890625 17.42578125 C2.01628712 16.81702269 0.90783921 15.70350487 -1 13 C-1.171875 9.765625 -1.171875 9.765625 -0.75 6.25 C-0.55664062 4.49429688 -0.55664062 4.49429688 -0.359375 2.703125 C-0.24078125 1.81109375 -0.1221875 0.9190625 0 0 Z " fill="#8A6C35" transform="translate(55,102)"/>
<path d="M0 0 C1.98 0.495 1.98 0.495 4 1 C4 1.33 4 1.66 4 2 C5.65 2.33 7.3 2.66 9 3 C9 3.66 9 4.32 9 5 C11.64 5.33 14.28 5.66 17 6 C17.33 4.68 17.66 3.36 18 2 C19.32 2 20.64 2 22 2 C22.33 3.32 22.66 4.64 23 6 C24.98 6 26.96 6 29 6 C27 9 27 9 25.109375 9.51171875 C22.40564341 9.71315571 19.70896524 9.8828183 17 10 C15.80117187 10.06445312 14.60234375 10.12890625 13.3671875 10.1953125 C12.13226563 10.23398438 10.89734375 10.27265625 9.625 10.3125 C7.88089844 10.36857422 7.88089844 10.36857422 6.1015625 10.42578125 C3 10 3 10 0.5703125 8.18359375 C-1 6 -1 6 -0.75 2.75 C-0.5025 1.8425 -0.255 0.935 0 0 Z " fill="#1A1419" transform="translate(69,136)"/>
<path d="M0 0 C0 0.33 0 0.66 0 1 C-1.98 1 -3.96 1 -6 1 C-6 1.66 -6 2.32 -6 3 C-4.35 2.67 -2.7 2.34 -1 2 C-1.99 2.495 -1.99 2.495 -3 3 C-3.72693904 4.97888961 -4.39816251 6.97954558 -5 9 C-5.66 9 -6.32 9 -7 9 C-7.33 14.94 -7.66 20.88 -8 27 C-12.80580657 22.19419343 -13.16023435 20.17306841 -13.25 13.6875 C-13.21684197 8.73037415 -12.99131284 5.14181778 -10 1 C-6.78548731 -0.60725635 -3.56387464 -0.05748185 0 0 Z " fill="#AD8501" transform="translate(76,22)"/>
<path d="M0 0 C1.32 0.66 2.64 1.32 4 2 C4 3.98 4 5.96 4 8 C1.03 8.99 -1.94 9.98 -5 11 C-4.67 10.01 -4.34 9.02 -4 8 C-7.63 8.66 -11.26 9.32 -15 10 C-14.67 9.01 -14.34 8.02 -14 7 C-13.34 7 -12.68 7 -12 7 C-12 6.34 -12 5.68 -12 5 C-14.31 4.67 -16.62 4.34 -19 4 C-19 3.34 -19 2.68 -19 2 C-12.73 2 -6.46 2 0 2 C0 1.34 0 0.68 0 0 Z " fill="#37272B" transform="translate(39,47)"/>
<path d="M0 0 C0.33 0.66 0.66 1.32 1 2 C0.14622767 4.48370134 -0.52113346 5.70869825 -2.78515625 7.0859375 C-5.17651861 8.07284895 -7.17923888 8.39816814 -9.75 8.625 C-10.54921875 8.69976562 -11.3484375 8.77453125 -12.171875 8.8515625 C-12.77515625 8.90054688 -13.3784375 8.94953125 -14 9 C-14.33 8.34 -14.66 7.68 -15 7 C-17.28948258 6.56959776 -17.28948258 6.56959776 -19.9375 6.4375 C-24.81239531 6.09380235 -24.81239531 6.09380235 -27 5 C-27 4.01 -27 3.02 -27 2 C-23.25 0.875 -23.25 0.875 -21 2 C-18.19648462 2.12479416 -15.4286626 2.18517138 -12.625 2.1875 C-11.85671875 2.19974609 -11.0884375 2.21199219 -10.296875 2.22460938 C-4.87196477 2.25317313 -4.87196477 2.25317313 0 0 Z " fill="#674A2A" transform="translate(93,49)"/>
<path d="M0 0 C1.875 0.8125 1.875 0.8125 2.875 2.8125 C2.94565617 4.85305005 2.95921976 6.89584257 2.9375 8.9375 C2.92847656 10.03320312 2.91945313 11.12890625 2.91015625 12.2578125 C2.89855469 13.10085937 2.88695313 13.94390625 2.875 14.8125 C0.895 15.8025 0.895 15.8025 -1.125 16.8125 C-3.125 15.4375 -3.125 15.4375 -5.125 12.8125 C-5.65116718 9.42841425 -5.74980243 6.18418159 -5.125 2.8125 C-2.78228643 -0.24549586 -2.78228643 -0.24549586 0 0 Z " fill="#885E2E" transform="translate(96.125,71.1875)"/>
<path d="M0 0 C0.99 0 1.98 0 3 0 C3 4.29 3 8.58 3 13 C4.98 13.66 6.96 14.32 9 15 C11.3125 16.1875 11.3125 16.1875 13 18 C13.75 21.6875 13.75 21.6875 14 25 C12.02 25 10.04 25 8 25 C7.74605469 24.36191406 7.49210937 23.72382813 7.23046875 23.06640625 C6.88628906 22.24011719 6.54210937 21.41382813 6.1875 20.5625 C5.85105469 19.73878906 5.51460938 18.91507813 5.16796875 18.06640625 C4.11596912 15.66627512 4.11596912 15.66627512 1 15 C0.67 15.99 0.34 16.98 0 18 C0 12.06 0 6.12 0 0 Z " fill="#2B3A6A" transform="translate(84,117)"/>
<path d="M0 0 C-0.33 0.99 -0.66 1.98 -1 3 C1.97 3.495 1.97 3.495 5 4 C4.67 4.99 4.34 5.98 4 7 C1.36 7 -1.28 7 -4 7 C-4 8.65 -4 10.3 -4 12 C-4.99 12 -5.98 12 -7 12 C-7.33 10.35 -7.66 8.7 -8 7 C-9.98 7 -11.96 7 -14 7 C-14 5.68 -14 4.36 -14 3 C-12.23050388 2.49528803 -10.45934777 1.99639315 -8.6875 1.5 C-7.70136719 1.2215625 -6.71523437 0.943125 -5.69921875 0.65625 C-3 0 -3 0 0 0 Z " fill="#321E22" transform="translate(136,47)"/>
<path d="M0 0 C3.16115776 1.36983503 3.9927092 1.9890638 6 5 C5.34 5 4.68 5 4 5 C4 6.32 4 7.64 4 9 C4.66 9 5.32 9 6 9 C5.690625 9.61875 5.38125 10.2375 5.0625 10.875 C3.5960722 15.18802294 3.33380974 19.4759996 3 24 C2.401875 23.690625 1.80375 23.38125 1.1875 23.0625 C-1.08956772 21.89790296 -1.08956772 21.89790296 -4 21 C-3.51917969 20.34644531 -3.03835937 19.69289062 -2.54296875 19.01953125 C-0.57011675 15.1587348 -0.44615382 11.96060365 -0.3125 7.6875 C-0.27833984 6.94693359 -0.24417969 6.20636719 -0.20898438 5.44335938 C-0.12706446 3.62941836 -0.06184178 1.81473647 0 0 Z " fill="#28232B" transform="translate(77,112)"/>
<path d="M0 0 C0.66 0 1.32 0 2 0 C1.75 1.875 1.75 1.875 1 4 C-1.0625 5.25 -1.0625 5.25 -3 6 C-3 6.66 -3 7.32 -3 8 C-5.34852528 9.17426264 -6.73774065 9.11508173 -9.3515625 9.09765625 C-10.20234375 9.09443359 -11.053125 9.09121094 -11.9296875 9.08789062 C-12.81914063 9.07951172 -13.70859375 9.07113281 -14.625 9.0625 C-15.97078125 9.05573242 -15.97078125 9.05573242 -17.34375 9.04882812 C-19.56256648 9.03702591 -21.78125018 9.02056155 -24 9 C-24.66 7.68 -25.32 6.36 -26 5 C-25.03320312 5.04640625 -24.06640625 5.0928125 -23.0703125 5.140625 C-14.86865311 5.36799774 -8.37911886 5.08311244 -1 1 C-0.67 0.67 -0.34 0.34 0 0 Z " fill="#FDBF65" transform="translate(95,40)"/>
<path d="M0 0 C2.475 0.99 2.475 0.99 5 2 C5 3.65 5 5.3 5 7 C4.01 7.33 3.02 7.66 2 8 C0.96683512 10.79172239 0.96683512 10.79172239 0.3125 14.0625 C0.06113281 15.16722656 -0.19023438 16.27195312 -0.44921875 17.41015625 C-0.63097656 18.26480469 -0.81273438 19.11945312 -1 20 C-1.66 20 -2.32 20 -3 20 C-3 17.69 -3 15.38 -3 13 C-3.99 13.66 -4.98 14.32 -6 15 C-5.34 13.02 -4.68 11.04 -4 9 C-4.99 9 -5.98 9 -7 9 C-7 8.34 -7 7.68 -7 7 C-5.02 7 -3.04 7 -1 7 C-1.020625 6.030625 -1.04125 5.06125 -1.0625 4.0625 C-1 1 -1 1 0 0 Z M-7 15 C-6.67 15 -6.34 15 -6 15 C-6 17.31 -6 19.62 -6 22 C-6.33 22 -6.66 22 -7 22 C-7 19.69 -7 17.38 -7 15 Z " fill="#CD5302" transform="translate(77,16)"/>
<path d="M0 0 C0 4.62 0 9.24 0 14 C0.66 14.33 1.32 14.66 2 15 C1.01 15.33 0.02 15.66 -1 16 C-1.33 16.66 -1.66 17.32 -2 18 C-2.33 14.7 -2.66 11.4 -3 8 C-3.26554687 9.03640625 -3.53109375 10.0728125 -3.8046875 11.140625 C-4.16122447 12.51047756 -4.5180083 13.88026588 -4.875 15.25 C-5.04902344 15.93191406 -5.22304687 16.61382812 -5.40234375 17.31640625 C-6.30144462 20.74630957 -7.23369957 23.9129524 -9 27 C-10.3671185 22.89864451 -9.19993939 19.68848556 -8.1875 15.625 C-8.00896484 14.86960937 -7.83042969 14.11421875 -7.64648438 13.3359375 C-4.41741559 0 -4.41741559 0 0 0 Z " fill="#936A3A" transform="translate(115,63)"/>
<path d="M0 0 C2.97 0 5.94 0 9 0 C8.67 1.32 8.34 2.64 8 4 C6.02 4.33 4.04 4.66 2 5 C2.33 6.98 2.66 8.96 3 11 C2.01 10.67 1.02 10.34 0 10 C0.061875 10.763125 0.12375 11.52625 0.1875 12.3125 C0 15 0 15 -1.375 16.8125 C-3 18 -3 18 -5 18 C-4.49287967 14.28111761 -3.88391785 11.26545761 -2 8 C-1.34 8 -0.68 8 0 8 C0 5.36 0 2.72 0 0 Z " fill="#93693A" transform="translate(97,50)"/>
<path d="M0 0 C1.32 0 2.64 0 4 0 C4.33 1.32 4.66 2.64 5 4 C5.99 3.67 6.98 3.34 8 3 C8 3.66 8 4.32 8 5 C7.01 5.66 6.02 6.32 5 7 C4.45161248 9.78551937 4.45161248 9.78551937 4.375 12.9375 C4.20548093 16.25926649 4.05482916 18.83551251 3 22 C2.01 22 1.02 22 0 22 C0.14219564 19.79142945 0.28891847 17.58315013 0.4375 15.375 C0.55931641 13.53035156 0.55931641 13.53035156 0.68359375 11.6484375 C0.96663944 8.38467612 1.41038953 5.22056141 2 2 C1.01 2.33 0.02 2.66 -1 3 C-0.67 2.01 -0.34 1.02 0 0 Z " fill="#AE8858" transform="translate(115,55)"/>
<path d="M0 0 C2.72869407 0.03287583 5.2966618 0.56397771 8 1 C8 2.98 8 4.96 8 7 C4 7 4 7 1 6 C0.67 6.99 0.34 7.98 0 9 C-1.32 8.01 -2.64 7.02 -4 6 C-2.84826645 3.53199953 -1.95216435 1.95216435 0 0 Z " fill="#A28254" transform="translate(80,105)"/>
<path d="M0 0 C1.875 0.5625 1.875 0.5625 4 2 C5.25 5.625 5.25 5.625 6 9 C7.27875 8.79375 8.5575 8.5875 9.875 8.375 C12.0546875 8.0234375 12.0546875 8.0234375 14 8 C14.66 8.66 15.32 9.32 16 10 C10.25 15 10.25 15 8 15 C8 14.01 8 13.02 8 12 C7.195625 11.855625 6.39125 11.71125 5.5625 11.5625 C3 11 3 11 2 10 C1.85884839 7.32941149 1.95752893 4.67567762 2 2 C1.01 1.67 0.02 1.34 -1 1 C-0.67 0.67 -0.34 0.34 0 0 Z " fill="#6B5529" transform="translate(62,102)"/>
<path d="M0 0 C-0.4979837 3.73487777 -0.87491756 5.81237635 -3 9 C-6.125 9.6875 -6.125 9.6875 -9 10 C-9 8.68 -9 7.36 -9 6 C-8.34 6 -7.68 6 -7 6 C-7.33 4.35 -7.66 2.7 -8 1 C-4.93251126 -0.86240388 -3.40254489 -1.2151946 0 0 Z " fill="#A37039" transform="translate(106,54)"/>
<path d="M0 0 C1.32 0.66 2.64 1.32 4 2 C4 2.33 4 2.66 4 3 C-0.95 3.33 -5.9 3.66 -11 4 C-9.35 4.99 -7.7 5.98 -6 7 C-8.96687001 8.64826111 -11.65626525 9.44271087 -15 10 C-14.67 9.01 -14.34 8.02 -14 7 C-13.34 7 -12.68 7 -12 7 C-12 6.34 -12 5.68 -12 5 C-14.31 4.67 -16.62 4.34 -19 4 C-19 3.34 -19 2.68 -19 2 C-12.73 2 -6.46 2 0 2 C0 1.34 0 0.68 0 0 Z " fill="#322930" transform="translate(39,47)"/>
<path d="M0 0 C0.66 0.33 1.32 0.66 2 1 C1.67 6.94 1.34 12.88 1 19 C-0.32 19.33 -1.64 19.66 -3 20 C-3.55353075 9.44191344 -3.55353075 9.44191344 0 5 C-0.66 5 -1.32 5 -2 5 C-2 3.68 -2 2.36 -2 1 C-1.34 0.67 -0.68 0.34 0 0 Z " fill="#3F201F" transform="translate(83,116)"/>
<path d="M0 0 C0.66 0 1.32 0 2 0 C1.87431641 1.46373047 1.87431641 1.46373047 1.74609375 2.95703125 C1.64425781 4.22933594 1.54242188 5.50164063 1.4375 6.8125 C1.33308594 8.07707031 1.22867188 9.34164062 1.12109375 10.64453125 C0.80402822 13.99581184 0.80402822 13.99581184 2 17 C-0.875 17.125 -0.875 17.125 -4 17 C-4.66 16.34 -5.32 15.68 -6 15 C-6 14.01 -6 13.02 -6 12 C-4.68 12 -3.36 12 -2 12 C-1.93941406 11.30132812 -1.87882812 10.60265625 -1.81640625 9.8828125 C-1.73261719 8.97273438 -1.64882812 8.06265625 -1.5625 7.125 C-1.48128906 6.22007813 -1.40007812 5.31515625 -1.31640625 4.3828125 C-1 2 -1 2 0 0 Z " fill="#D56E04" transform="translate(78,24)"/>
<path d="M0 0 C0.66 0.33 1.32 0.66 2 1 C1.95875 2.0725 1.9175 3.145 1.875 4.25 C1.9885825 7.65747485 2.21273364 9.20739631 4 12 C3.01 11.34 2.02 10.68 1 10 C0.01 10.33 -0.98 10.66 -2 11 C-2.73323796 13.01508358 -2.73323796 13.01508358 -3 15 C-3.99 14.01 -4.98 13.02 -6 12 C-5.1875 8.5625 -5.1875 8.5625 -4 5 C-3.01 4.67 -2.02 4.34 -1 4 C-0.26676204 1.98491642 -0.26676204 1.98491642 0 0 Z " fill="#917645" transform="translate(62,83)"/>
<path d="M0 0 C0.598125 0.226875 1.19625 0.45375 1.8125 0.6875 C2.1425 2.6675 2.4725 4.6475 2.8125 6.6875 C0.1725 7.0175 -2.4675 7.3475 -5.1875 7.6875 C-5.41803497 4.84423536 -5.54653101 3.22604651 -3.9375 0.8125 C-2.1875 -0.3125 -2.1875 -0.3125 0 0 Z " fill="#6F5329" transform="translate(96.1875,71.3125)"/>
<path d="M0 0 C2.64 0 5.28 0 8 0 C8 0.33 8 0.66 8 1 C6.02 1 4.04 1 2 1 C2 1.66 2 2.32 2 3 C3.65 2.67 5.3 2.34 7 2 C6.01 2.495 6.01 2.495 5 3 C4.27306096 4.97888961 3.60183749 6.97954558 3 9 C1.35 8.67 -0.3 8.34 -2 8 C-1.125 2.25 -1.125 2.25 0 0 Z " fill="#D47601" transform="translate(68,22)"/>
<path d="M0 0 C0.33 1.98 0.66 3.96 1 6 C-2.62326739 7.2077558 -3.64146369 6.54311128 -7 5 C-7 3.68 -7 2.36 -7 1 C-3.375 -1.125 -3.375 -1.125 0 0 Z " fill="#9E8055" transform="translate(86,95)"/>
<path d="M0 0 C0.99 0.33 1.98 0.66 3 1 C2.25 3.4375 2.25 3.4375 1 6 C-0.875 6.9375 -0.875 6.9375 -3 7 C-5.25 6.0625 -5.25 6.0625 -7 5 C-7 3.68 -7 2.36 -7 1 C-4.03 1.495 -4.03 1.495 -1 2 C-0.67 1.34 -0.34 0.68 0 0 Z " fill="#937750" transform="translate(88,110)"/>
<path d="M0 0 C0.66 0.33 1.32 0.66 2 1 C1.814375 1.78375 1.62875 2.5675 1.4375 3.375 C0.74037734 5.97089775 0.74037734 5.97089775 2 8 C1.67 8.99 1.34 9.98 1 11 C0.34 11 -0.32 11 -1 11 C-1 14.63 -1 18.26 -1 22 C-4.24303336 17.13544996 -3.48145097 11.69368099 -3 6 C-2.25339036 3.58322891 -1.43894811 2.09846599 0 0 Z " fill="#BDA500" transform="translate(66,23)"/>
<path d="M0 0 C-0.33 0.99 -0.66 1.98 -1 3 C1.97 3.495 1.97 3.495 5 4 C5 4.33 5 4.66 5 5 C-1.41688675 5.10349817 -7.62694402 4.74507544 -14 4 C-11.72385081 1.72385081 -10.64803179 1.51338589 -7.5625 0.875 C-6.78003906 0.70742188 -5.99757812 0.53984375 -5.19140625 0.3671875 C-3 0 -3 0 0 0 Z " fill="#5C323F" transform="translate(136,47)"/>
<path d="M0 0 C5.94 0 11.88 0 18 0 C18 0.99 18 1.98 18 3 C15.37438891 3.08074203 12.75124324 3.1403623 10.125 3.1875 C9.00544922 3.22520508 9.00544922 3.22520508 7.86328125 3.26367188 C5.6953125 3.29296875 5.6953125 3.29296875 2 3 C1.34 2.01 0.68 1.02 0 0 Z " fill="#FEF1A7" transform="translate(70,45)"/>
<path d="M0 0 C-0.33 2.64 -0.66 5.28 -1 8 C-1.66 8 -2.32 8 -3 8 C-2.36020151 10.03241727 -2.36020151 10.03241727 -1 12 C1.55519921 12.81171228 1.55519921 12.81171228 4 13 C4 13.33 4 13.66 4 14 C1.36 14 -1.28 14 -4 14 C-5.38076179 10.16455058 -4.85712183 6.92847503 -4 3 C-1.67741935 0 -1.67741935 0 0 0 Z " fill="#E35805" transform="translate(75,28)"/>
<path d="M0 0 C3.26954202 0.56371414 4.82575883 1.49962266 7 4 C6.67 4.99 6.34 5.98 6 7 C4.02 7 2.04 7 0 7 C-1.125 2.25 -1.125 2.25 0 0 Z " fill="#20283D" transform="translate(69,136)"/>
<path d="M0 0 C0.99 0 1.98 0 3 0 C2.88602456 2.43847451 2.75929026 4.87513174 2.625 7.3125 C2.5940625 8.00279297 2.563125 8.69308594 2.53125 9.40429688 C2.31875081 13.06990789 2.08066139 14.87900792 0 18 C0 12.06 0 6.12 0 0 Z " fill="#382961" transform="translate(84,117)"/>
<path d="M0 0 C2.475 0.99 2.475 0.99 5 2 C5 3.65 5 5.3 5 7 C3.35 7.33 1.7 7.66 0 8 C-0.38063221 5.6739143 -0.71269945 3.33944736 -1 1 C-0.67 0.67 -0.34 0.34 0 0 Z " fill="#106014" transform="translate(77,16)"/>
<path d="M0 0 C0.66 0 1.32 0 2 0 C2 3.96 2 7.92 2 12 C2.66 12.33 3.32 12.66 4 13 C3.67 14.32 3.34 15.64 3 17 C2.67 16.34 2.34 15.68 2 15 C1.01 15.33 0.02 15.66 -1 16 C-1.02685095 13.52076199 -1.04676547 11.0418116 -1.0625 8.5625 C-1.07506836 7.50192383 -1.07506836 7.50192383 -1.08789062 6.41992188 C-1.09653588 4.61306441 -1.05220011 2.80612397 -1 1 C-0.67 0.67 -0.34 0.34 0 0 Z " fill="#8C9074" transform="translate(51,85)"/>
<path d="M0 0 C1.32 0.33 2.64 0.66 4 1 C3.45276317 4.37462715 2.9451 6.08235 1 9 C-0.32 8.67 -1.64 8.34 -3 8 C-2.5359375 7.13375 -2.5359375 7.13375 -2.0625 6.25 C-1.07416636 4.15705816 -0.4831387 2.25464725 0 0 Z " fill="#FCDB7C" transform="translate(91,30)"/>
<path d="M0 0 C1.32 0 2.64 0 4 0 C4 0.66 4 1.32 4 2 C5.32 1.67 6.64 1.34 8 1 C9 4 9 4 8 7 C4.84859577 6.65930765 3.39218439 6.41923159 1.1875 4.0625 C0 2 0 2 0 0 Z " fill="#114514" transform="translate(69,132)"/>
<path d="M0 0 C0.99 0.33 1.98 0.66 3 1 C3.99 0.67 4.98 0.34 6 0 C5.34 2.31 4.68 4.62 4 7 C3.01 7 2.02 7 1 7 C1 8.98 1 10.96 1 13 C0.34 12.67 -0.32 12.34 -1 12 C-0.67 8.04 -0.34 4.08 0 0 Z " fill="#8E8359" transform="translate(55,102)"/>
<path d="M0 0 C4.24480464 -0.33292585 6.35542625 -0.43885872 9.9375 2 C10.618125 2.66 11.29875 3.32 12 4 C10.56260487 4.02712066 9.12506137 4.04645067 7.6875 4.0625 C6.48673828 4.07990234 6.48673828 4.07990234 5.26171875 4.09765625 C3 4 3 4 0 3 C0 2.01 0 1.02 0 0 Z " fill="#C13E01" transform="translate(71,42)"/>
<path d="M0 0 C0.66 0.33 1.32 0.66 2 1 C1.01 6.28 0.02 11.56 -1 17 C-3.38105522 13.42841717 -3.39782115 12.21690421 -3 8 C-2.14309936 5.25098348 -1.10335962 2.66645241 0 0 Z " fill="#A4885D" transform="translate(108,94)"/>
<path d="M0 0 C0.33 0 0.66 0 1 0 C1.58179863 7.59570439 0.26889853 13.14115041 -3 20 C-4.04940487 16.85178538 -3.98606526 16.0650509 -3.22265625 12.98828125 C-3.03896484 12.23095703 -2.85527344 11.47363281 -2.66601562 10.69335938 C-2.46685547 9.90767578 -2.26769531 9.12199219 -2.0625 8.3125 C-1.86720703 7.51521484 -1.67191406 6.71792969 -1.47070312 5.89648438 C-0.98771618 3.92919611 -0.4948037 1.96434946 0 0 Z " fill="#976F3F" transform="translate(109,70)"/>
<path d="M0 0 C4.29 0 8.58 0 13 0 C12.01 1.485 12.01 1.485 11 3 C8.90625 3.3984375 8.90625 3.3984375 6.5 3.375 C5.7059375 3.38273437 4.911875 3.39046875 4.09375 3.3984375 C3.4028125 3.26695313 2.711875 3.13546875 2 3 C1.34 2.01 0.68 1.02 0 0 Z " fill="#311B17" transform="translate(28,51)"/>
<path d="M0 0 C2.97 0 5.94 0 9 0 C8.67 1.32 8.34 2.64 8 4 C5.36 3.67 2.72 3.34 0 3 C0 2.01 0 1.02 0 0 Z " fill="#4B1E1D" transform="translate(97,50)"/>
<path d="M0 0 C0.66 0 1.32 0 2 0 C2 2.64 2 5.28 2 8 C0.68 8.33 -0.64 8.66 -2 9 C-2.25 3.375 -2.25 3.375 0 0 Z " fill="#2F181A" transform="translate(82,127)"/>
<path d="M0 0 C2.625 1.4375 2.625 1.4375 5 3 C4.67 4.32 4.34 5.64 4 7 C2.02 6.34 0.04 5.68 -2 5 C-2 3.68 -2 2.36 -2 1 C-1.34 0.67 -0.68 0.34 0 0 Z " fill="#A78A5E" transform="translate(82,106)"/>
<path d="M0 0 C1.32 0.66 2.64 1.32 4 2 C4 2.33 4 2.66 4 3 C-3.59 3.33 -11.18 3.66 -19 4 C-19 3.34 -19 2.68 -19 2 C-12.73 2 -6.46 2 0 2 C0 1.34 0 0.68 0 0 Z " fill="#3F3F5E" transform="translate(39,47)"/>
<path d="M0 0 C1.32 0.33 2.64 0.66 4 1 C4 2.65 4 4.3 4 6 C2.68 6 1.36 6 0 6 C0 5.34 0 4.68 0 4 C-0.66 4 -1.32 4 -2 4 C-1.34 2.68 -0.68 1.36 0 0 Z " fill="#84663B" transform="translate(77,89)"/>
<path d="M0 0 C0.91058531 3.07322544 1.08886184 5.80097361 1 9 C0.01 9 -0.98 9 -2 9 C-2.33 9.66 -2.66 10.32 -3 11 C-3.36923077 4.6 -3.36923077 4.6 -1.5 1.5625 C-1.005 1.046875 -0.51 0.53125 0 0 Z " fill="#A38865" transform="translate(114,79)"/>
<path d="M0 0 C1.65 0 3.3 0 5 0 C5 0.66 5 1.32 5 2 C3.68 2.33 2.36 2.66 1 3 C1 3.99 1 4.98 1 6 C-0.65 6 -2.3 6 -4 6 C-4 4.68 -4 3.36 -4 2 C-2.68 2 -1.36 2 0 2 C0 1.34 0 0.68 0 0 Z " fill="#8E804F" transform="translate(64,49)"/>
<path d="M0 0 C0.33 0 0.66 0 1 0 C1 4.29 1 8.58 1 13 C-0.65 13 -2.3 13 -4 13 C-3.69320312 12.43796875 -3.38640625 11.8759375 -3.0703125 11.296875 C-1.97042415 8.93653066 -1.39904149 6.79534438 -0.875 4.25 C-0.70742187 3.45078125 -0.53984375 2.6515625 -0.3671875 1.828125 C-0.24601562 1.22484375 -0.12484375 0.6215625 0 0 Z " fill="#247372" transform="translate(77,121)"/>
<path d="M0 0 C0.99 0 1.98 0 3 0 C3 1.98 3 3.96 3 6 C1.35 6.33 -0.3 6.66 -2 7 C-2.125 4.625 -2.125 4.625 -2 2 C-1.34 1.34 -0.68 0.68 0 0 Z " fill="#D74502" transform="translate(96,34)"/>
<path d="M0 0 C0.721875 0.185625 1.44375 0.37125 2.1875 0.5625 C4.98785845 1.16752429 4.98785845 1.16752429 7.6875 0.4375 C8.8321875 0.2209375 8.8321875 0.2209375 10 0 C10.66 0.66 11.32 1.32 12 2 C9.08291076 3.98362069 7.87619096 3.9876191 4.25 3.625 C3.1775 3.41875 2.105 3.2125 1 3 C0.67 2.01 0.34 1.02 0 0 Z " fill="#554420" transform="translate(66,110)"/>
<path d="M0 0 C1.125 1.6875 1.125 1.6875 2 4 C1.125 6.75 1.125 6.75 0 9 C-0.99 8.67 -1.98 8.34 -3 8 C-2.67 6.02 -2.34 4.04 -2 2 C-1.34 2 -0.68 2 0 2 C0 1.34 0 0.68 0 0 Z " fill="#948457" transform="translate(67,69)"/>
<path d="M0 0 C0.33 0 0.66 0 1 0 C0.67 4.29 0.34 8.58 0 13 C-0.33 13 -0.66 13 -1 13 C-1.33 11.02 -1.66 9.04 -2 7 C-2.99 7.495 -2.99 7.495 -4 8 C-2.87548273 5.0280615 -1.77706209 2.66559313 0 0 Z " fill="#A3723C" transform="translate(116,57)"/>
<path d="M0 0 C2.92879371 0.62759865 5.36095629 1.58622659 8 3 C8 3.66 8 4.32 8 5 C5.125 5.125 5.125 5.125 2 5 C1.34 4.34 0.68 3.68 0 3 C0 2.01 0 1.02 0 0 Z " fill="#FCDD8F" transform="translate(72,36)"/>
<path d="M0 0 C3.63 0 7.26 0 11 0 C8.60236815 2.39763185 7.66726502 2.34280586 4.375 2.625 C3.55773437 2.69976562 2.74046875 2.77453125 1.8984375 2.8515625 C1.27195312 2.90054688 0.64546875 2.94953125 0 3 C0 2.01 0 1.02 0 0 Z " fill="#846737" transform="translate(79,55)"/>
<path d="M0 0 C0.66 0 1.32 0 2 0 C2.3125 2.3125 2.3125 2.3125 2 5 C-0.3832946 6.81883009 -1.95818337 8 -5 8 C-5 7.34 -5 6.68 -5 6 C-4.360625 5.525625 -3.72125 5.05125 -3.0625 4.5625 C-0.71627037 3.0908635 -0.71627037 3.0908635 0 0 Z " fill="#EA5507" transform="translate(97,40)"/>
<path d="M0 0 C2.475 0.99 2.475 0.99 5 2 C4.67 4.31 4.34 6.62 4 9 C2 6 2 6 2 2 C1.34 2 0.68 2 0 2 C0 1.34 0 0.68 0 0 Z " fill="#907137" transform="translate(53,96)"/>
<path d="M0 0 C0.33 0 0.66 0 1 0 C1.061875 1.093125 1.12375 2.18625 1.1875 3.3125 C1.60598811 7.14518407 1.60598811 7.14518407 4.5625 8.875 C5.366875 9.24625 6.17125 9.6175 7 10 C7 10.33 7 10.66 7 11 C4.625 11.125 4.625 11.125 2 11 C0 9 0 9 -0.1953125 6.8359375 C-0.17210938 6.02382813 -0.14890625 5.21171875 -0.125 4.375 C-0.10695313 3.55773438 -0.08890625 2.74046875 -0.0703125 1.8984375 C-0.04710938 1.27195313 -0.02390625 0.64546875 0 0 Z " fill="#AC4201" transform="translate(68,40)"/>
<path d="M0 0 C1.32 0.33 2.64 0.66 4 1 C4.33 2.98 4.66 4.96 5 7 C3.0625 6.3125 3.0625 6.3125 1 5 C0.25 2.375 0.25 2.375 0 0 Z " fill="#7D5729" transform="translate(94,71)"/>
<path d="M0 0 C0.66 0 1.32 0 2 0 C3.38232443 1.62626404 4.71937515 3.2925002 6 5 C4.02 5.66 2.04 6.32 0 7 C0 4.69 0 2.38 0 0 Z " fill="#624733" transform="translate(119,53)"/>
<path d="M0 0 C0.99 0 1.98 0 3 0 C3 2.64 3 5.28 3 8 C2.01 7.67 1.02 7.34 0 7 C0 4.69 0 2.38 0 0 Z " fill="#A18058" transform="translate(94,49)"/>
<path d="M0 0 C2.0625 0.4375 2.0625 0.4375 4 1 C4 2.32 4 3.64 4 5 C4.66 5.33 5.32 5.66 6 6 C5.67 6.66 5.34 7.32 5 8 C4.34 8 3.68 8 3 8 C2.566875 6.824375 2.566875 6.824375 2.125 5.625 C1.15087746 2.90328368 1.15087746 2.90328368 -1 1 C-0.67 0.67 -0.34 0.34 0 0 Z " fill="#296F42" transform="translate(87,130)"/>
<path d="M0 0 C0.33 0 0.66 0 1 0 C1.33 2.64 1.66 5.28 2 8 C0.35 7.01 -1.3 6.02 -3 5 C-1.125 1.125 -1.125 1.125 0 0 Z " fill="#92855C" transform="translate(79,106)"/>
<path d="M0 0 C0 1.98 0 3.96 0 6 C-0.66 5.67 -1.32 5.34 -2 5 C-2.66 5.99 -3.32 6.98 -4 8 C-4 5.69 -4 3.38 -4 1 C-1 0 -1 0 0 0 Z " fill="#8E6035" transform="translate(114,66)"/>
<path d="M0 0 C0.99 0.33 1.98 0.66 3 1 C2.67 3.31 2.34 5.62 2 8 C0.68 7.01 -0.64 6.02 -2 5 C-1.34 3.35 -0.68 1.7 0 0 Z " fill="#8B6F3C" transform="translate(58,90)"/>
<path d="M0 0 C1.98 0.495 1.98 0.495 4 1 C3 4 3 4 0.9375 5.1875 C0.298125 5.455625 -0.34125 5.72375 -1 6 C-0.67 4.02 -0.34 2.04 0 0 Z " fill="#1C496D" transform="translate(69,136)"/>
<path d="M0 0 C1.32 0 2.64 0 4 0 C4.33 0.99 4.66 1.98 5 3 C0.545 3.495 0.545 3.495 -4 4 C-2.68 3.67 -1.36 3.34 0 3 C0 2.01 0 1.02 0 0 Z " fill="#153E1F" transform="translate(85,132)"/>
<path d="M0 0 C4.29 0.33 8.58 0.66 13 1 C13 1.33 13 1.66 13 2 C9.37 2.33 5.74 2.66 2 3 C1.34 2.01 0.68 1.02 0 0 Z " fill="#F2C278" transform="translate(70,45)"/>
<path d="M0 0 C0.99 0.33 1.98 0.66 3 1 C3 1.66 3 2.32 3 3 C4.98 3 6.96 3 9 3 C9 3.33 9 3.66 9 4 C6.03 4 3.06 4 0 4 C0 2.68 0 1.36 0 0 Z " fill="#2A244B" transform="translate(89,139)"/>
<path d="M0 0 C0.33 0 0.66 0 1 0 C1 1.98 1 3.96 1 6 C0.01 6 -0.98 6 -2 6 C-2 5.34 -2 4.68 -2 4 C-2.99 4 -3.98 4 -5 4 C-4.67 3.34 -4.34 2.68 -4 2 C-3.01 2 -2.02 2 -1 2 C-0.67 1.34 -0.34 0.68 0 0 Z " fill="#E45C09" transform="translate(93,36)"/>
<path d="M0 0 C1.32 0.33 2.64 0.66 4 1 C3.25 5.75 3.25 5.75 1 8 C1.020625 7.236875 1.04125 6.47375 1.0625 5.6875 C1.12942841 2.89814214 1.12942841 2.89814214 0 0 Z " fill="#FDC961" transform="translate(91,30)"/>
</svg>
