<?xml version="1.0" encoding="UTF-8"?>
<svg version="1.1" xmlns="http://www.w3.org/2000/svg" width="160" height="160">
<path d="M0 0 C2.75876286 1.06819298 3.87158939 2.07930748 5.69140625 4.3828125 C6.1915625 5.00027344 6.69171875 5.61773438 7.20703125 6.25390625 C9.93079992 9.98615889 9.85818287 13.47318973 9.44140625 17.9453125 C8.63432058 21.61129044 7.55476614 25.17449879 6.44140625 28.7578125 C5.87548451 30.61745172 5.31283167 32.47808978 4.75390625 34.33984375 C4.50253906 35.15300049 4.25117187 35.96615723 3.9921875 36.80395508 C3.31685466 39.06104153 3.31685466 39.06104153 3.44140625 41.9453125 C3.99078857 41.59750732 4.5401709 41.24970215 5.10620117 40.89135742 C7.61338881 39.3045733 10.12114206 37.71868526 12.62890625 36.1328125 C13.49322266 35.58560547 14.35753906 35.03839844 15.24804688 34.47460938 C16.91710607 33.41945701 18.58873189 32.3683511 20.26318359 31.32177734 C21.96506275 30.246324 23.64050672 29.12900809 25.3046875 27.99609375 C27.95843786 26.69105015 28.68640573 27.06254937 31.44140625 27.9453125 C34.20813207 29.11615258 36.87882747 30.47892702 39.56640625 31.8203125 C40.29472656 32.17222656 41.02304688 32.52414063 41.7734375 32.88671875 C42.47082031 33.23347656 43.16820312 33.58023438 43.88671875 33.9375 C44.52109863 34.25058105 45.15547852 34.56366211 45.80908203 34.88623047 C48.97934309 36.94315426 49.4985336 39.20676978 50.28125 42.7890625 C50.87256492 49.32924362 48.87702424 55.24252832 47.00390625 61.4453125 C46.5253418 63.20294922 46.5253418 63.20294922 46.03710938 64.99609375 C42.84002309 75.80673466 36.97949584 81.99555888 28.53125 89.10546875 C25.28215854 91.96588385 22.31781853 95.09867321 19.32421875 98.22265625 C17.44140625 99.9453125 17.44140625 99.9453125 15.44140625 99.9453125 C15.44140625 100.6053125 15.44140625 101.2653125 15.44140625 101.9453125 C14.0078125 103.35546875 14.0078125 103.35546875 12.00390625 105.0078125 C8.83383408 107.69706244 5.855591 110.48044627 2.94140625 113.4453125 C0.2333706 116.19031792 -2.50028624 118.8180216 -5.43359375 121.3203125 C-9.92217598 125.15863734 -14.01502893 129.37114537 -18.140625 133.58984375 C-21.34977823 136.71604633 -22.68328418 137.93047674 -27.24609375 138.0078125 C-32.69976423 137.15879786 -35.79469688 133.73165806 -39.55859375 129.9453125 C-40.23792969 129.31367188 -40.91726562 128.68203125 -41.6171875 128.03125 C-45.25510879 124.59096226 -45.25510879 124.59096226 -46.55859375 122.9453125 C-46.55859375 121.9553125 -46.55859375 120.9653125 -46.55859375 119.9453125 C-47.61046875 119.9865625 -48.66234375 120.0278125 -49.74609375 120.0703125 C-53.42247198 119.94977551 -56.83692509 119.66698116 -59.55859375 116.9453125 C-59.1352497 110.73626637 -57.03074322 105.44083863 -54.74609375 99.6953125 C-54.11912598 98.09502197 -54.11912598 98.09502197 -53.47949219 96.46240234 C-52.47078071 93.88946213 -51.4589944 91.31785308 -50.44482422 88.74707031 C-48.60028811 84.06230725 -46.77971622 79.36836735 -44.95991516 74.6739502 C-43.19401481 70.12064443 -41.42256902 65.56950655 -39.65029907 61.01867676 C-38.76190523 58.73538436 -37.87514287 56.45145644 -36.99008179 54.16687012 C-24.45763812 21.84435687 -24.45763812 21.84435687 -16.55859375 13.9453125 C-15.89859375 13.9453125 -15.23859375 13.9453125 -14.55859375 13.9453125 C-14.55859375 13.2853125 -14.55859375 12.6253125 -14.55859375 11.9453125 C-13.89859375 11.9453125 -13.23859375 11.9453125 -12.55859375 11.9453125 C-12.18154297 11.08873047 -12.18154297 11.08873047 -11.796875 10.21484375 C-10.38927862 7.63499045 -8.77600395 5.75587345 -6.74609375 3.6328125 C-6.07964844 2.91480469 -5.41320312 2.19679688 -4.7265625 1.45703125 C-2.55859375 -0.0546875 -2.55859375 -0.0546875 0 0 Z " fill="#130F07" transform="translate(87.55859375,11.0546875)"/>
<path d="M0 0 C2.75876286 1.06819298 3.87158939 2.07930748 5.69140625 4.3828125 C6.1915625 5.00027344 6.69171875 5.61773438 7.20703125 6.25390625 C9.93079992 9.98615889 9.85818287 13.47318973 9.44140625 17.9453125 C8.63432058 21.61129044 7.55476614 25.17449879 6.44140625 28.7578125 C5.87548451 30.61745172 5.31283167 32.47808978 4.75390625 34.33984375 C4.50253906 35.15300049 4.25117187 35.96615723 3.9921875 36.80395508 C3.31685466 39.06104153 3.31685466 39.06104153 3.44140625 41.9453125 C3.99078857 41.59750732 4.5401709 41.24970215 5.10620117 40.89135742 C7.61338881 39.3045733 10.12114206 37.71868526 12.62890625 36.1328125 C13.49322266 35.58560547 14.35753906 35.03839844 15.24804688 34.47460938 C16.91710607 33.41945701 18.58873189 32.3683511 20.26318359 31.32177734 C21.96506275 30.246324 23.64050672 29.12900809 25.3046875 27.99609375 C27.95843786 26.69105015 28.68640573 27.06254937 31.44140625 27.9453125 C34.20813207 29.11615258 36.87882747 30.47892702 39.56640625 31.8203125 C40.29472656 32.17222656 41.02304688 32.52414063 41.7734375 32.88671875 C42.47082031 33.23347656 43.16820312 33.58023438 43.88671875 33.9375 C44.52109863 34.25058105 45.15547852 34.56366211 45.80908203 34.88623047 C48.95596054 36.92798323 49.50088169 39.20535085 50.3125 42.75390625 C50.93490865 49.50464618 48.54617535 55.65821222 46.50390625 62.0078125 C46.11783203 63.25498047 45.73175781 64.50214844 45.33398438 65.78710938 C44.38499356 68.84496866 43.42054906 71.89700165 42.44140625 74.9453125 C42.11140625 74.2853125 41.78140625 73.6253125 41.44140625 72.9453125 C40.78140625 72.9453125 40.12140625 72.9453125 39.44140625 72.9453125 C39.04958421 67.85162599 39.5589335 64.19308052 41.31640625 59.3828125 C43.86404628 52.32711441 44.66987176 45.3764079 45.44140625 37.9453125 C42.80140625 36.9553125 40.16140625 35.9653125 37.44140625 34.9453125 C38.10140625 35.9353125 38.76140625 36.9253125 39.44140625 37.9453125 C39.44140625 38.9353125 39.44140625 39.9253125 39.44140625 40.9453125 C38.78140625 40.9453125 38.12140625 40.9453125 37.44140625 40.9453125 C37.93640625 43.9153125 37.93640625 43.9153125 38.44140625 46.9453125 C35.16027605 49.13273264 33.11056269 49.48974056 29.25390625 50.0703125 C28.16722656 50.23789062 27.08054687 50.40546875 25.9609375 50.578125 C25.12949219 50.69929688 24.29804687 50.82046875 23.44140625 50.9453125 C24.40503877 44.60259699 25.9485808 39.66613208 30.44140625 34.9453125 C32.75390625 33.5078125 32.75390625 33.5078125 34.44140625 32.9453125 C32.79140625 32.2853125 31.14140625 31.6253125 29.44140625 30.9453125 C28.97734375 31.9971875 28.97734375 31.9971875 28.50390625 33.0703125 C25.54093209 37.2005189 21.75302004 39.34885325 17.44140625 41.9453125 C16.21164063 42.70134766 16.21164063 42.70134766 14.95703125 43.47265625 C10.43174818 46.14198172 10.43174818 46.14198172 8.44140625 46.9453125 C6.95640625 46.4503125 6.95640625 46.4503125 5.44140625 45.9453125 C6.10140625 44.9553125 6.76140625 43.9653125 7.44140625 42.9453125 C3.69858926 45.32710513 0.46413157 47.69006985 -2.55859375 50.9453125 C-2.0662371 48.72970759 -1.47137126 46.73780739 -0.58984375 44.640625 C1.47923761 39.23279872 2.44140625 33.35013617 2.44140625 27.5703125 C2.44140625 24.59651845 3.18446155 22.61632 4.44140625 19.9453125 C5.10140625 19.9453125 5.76140625 19.9453125 6.44140625 19.9453125 C6.57653917 18.1765727 6.67346211 16.40488195 6.75390625 14.6328125 C6.81191406 13.64667969 6.86992188 12.66054688 6.9296875 11.64453125 C6.71669435 8.70323335 6.71669435 8.70323335 3.921875 7.08984375 C3.10332031 6.71214844 2.28476563 6.33445312 1.44140625 5.9453125 C1.49361328 7.52119141 1.49361328 7.52119141 1.546875 9.12890625 C1.85495204 22.45403244 1.85495204 22.45403244 -0.75390625 28.9140625 C-1.66306527 31.20902701 -2.25318949 33.47859682 -2.80859375 35.8828125 C-2.97875 36.61371094 -3.14890625 37.34460937 -3.32421875 38.09765625 C-3.74431183 40.03738838 -3.74431183 40.03738838 -2.55859375 41.9453125 C-3.49609375 44.0703125 -3.49609375 44.0703125 -4.55859375 45.9453125 C-5.21859375 45.9453125 -5.87859375 45.9453125 -6.55859375 45.9453125 C-6.65986572 46.66098389 -6.7611377 47.37665527 -6.86547852 48.11401367 C-7.64902506 51.31471436 -8.88452573 53.46787647 -10.6484375 56.24609375 C-11.26783203 57.22255859 -11.88722656 58.19902344 -12.52539062 59.20507812 C-13.17572266 60.21248047 -13.82605469 61.21988281 -14.49609375 62.2578125 C-15.14255859 63.28455078 -15.78902344 64.31128906 -16.45507812 65.36914062 C-20.05699881 70.99831055 -20.05699881 70.99831055 -21.55859375 72.9453125 C-22.21859375 72.9453125 -22.87859375 72.9453125 -23.55859375 72.9453125 C-23.66059082 73.66460937 -23.76258789 74.38390625 -23.86767578 75.125 C-24.64198544 78.28571562 -25.84114933 80.34786277 -27.61328125 83.0703125 C-28.22816406 84.02421875 -28.84304687 84.978125 -29.4765625 85.9609375 C-30.12238281 86.94578125 -30.76820312 87.930625 -31.43359375 88.9453125 C-32.70223588 90.90337833 -33.97047862 92.86170301 -35.23828125 94.8203125 C-35.80272949 95.68398437 -36.36717773 96.54765625 -36.94873047 97.4375 C-38.06720082 99.17983052 -39.12796069 100.9600189 -40.14111328 102.765625 C-40.84276611 103.84457031 -40.84276611 103.84457031 -41.55859375 104.9453125 C-42.21859375 104.9453125 -42.87859375 104.9453125 -43.55859375 104.9453125 C-43.68234375 105.7084375 -43.80609375 106.4715625 -43.93359375 107.2578125 C-44.55859375 109.9453125 -44.55859375 109.9453125 -46.55859375 112.9453125 C-47.21859375 112.9453125 -47.87859375 112.9453125 -48.55859375 112.9453125 C-48.55859375 113.9353125 -48.55859375 114.9253125 -48.55859375 115.9453125 C-49.54859375 115.6153125 -50.53859375 115.2853125 -51.55859375 114.9453125 C-51.88859375 113.9553125 -52.21859375 112.9653125 -52.55859375 111.9453125 C-53.21859375 113.5953125 -53.87859375 115.2453125 -54.55859375 116.9453125 C-56.20859375 116.6153125 -57.85859375 116.2853125 -59.55859375 115.9453125 C-58.91760184 110.15725123 -56.86482996 105.13150742 -54.74609375 99.7578125 C-54.32811523 98.68644043 -53.91013672 97.61506836 -53.47949219 96.51123047 C-52.4703711 93.92756233 -51.45869932 91.34498215 -50.44482422 88.76318359 C-48.60422278 84.07001908 -46.78195692 79.36981377 -44.95991516 74.66941833 C-43.19412494 70.11724392 -41.42270134 65.5672732 -39.65029907 61.01766968 C-38.76182429 58.73483614 -37.87506109 56.45133566 -36.99008179 54.16714478 C-24.45765079 21.84436954 -24.45765079 21.84436954 -16.55859375 13.9453125 C-15.89859375 13.9453125 -15.23859375 13.9453125 -14.55859375 13.9453125 C-14.55859375 13.2853125 -14.55859375 12.6253125 -14.55859375 11.9453125 C-13.89859375 11.9453125 -13.23859375 11.9453125 -12.55859375 11.9453125 C-12.18154297 11.08873047 -12.18154297 11.08873047 -11.796875 10.21484375 C-10.38927862 7.63499045 -8.77600395 5.75587345 -6.74609375 3.6328125 C-6.07964844 2.91480469 -5.41320312 2.19679688 -4.7265625 1.45703125 C-2.55859375 -0.0546875 -2.55859375 -0.0546875 0 0 Z " fill="#462B17" transform="translate(87.55859375,11.0546875)"/>
<path d="M0 0 C3 1.5625 3 1.5625 6 4 C6.48706746 7.89653967 6.19608982 11.26221932 5 15 C4.34 15 3.68 15 3 15 C2.81824219 16.46759766 2.81824219 16.46759766 2.6328125 17.96484375 C0.27818666 36.56211535 0.27818666 36.56211535 -3 43 C-3.39171753 44.65391846 -3.72057545 46.32345271 -4 48 C-4.20625 48.99 -4.4125 49.98 -4.625 51 C-5.18103134 53.92401294 -5.18103134 53.92401294 -4.3605957 56.40112305 C-3.89378905 59.76548111 -4.7006056 60.81853107 -6.60546875 63.58203125 C-7.17716797 64.43216797 -7.74886719 65.28230469 -8.33789062 66.15820312 C-8.94826172 67.03412109 -9.55863281 67.91003906 -10.1875 68.8125 C-11.37251137 70.54543375 -12.55356898 72.28107841 -13.73046875 74.01953125 C-14.29685059 74.85436035 -14.86323242 75.68918945 -15.44677734 76.54931641 C-16.89844939 78.83977287 -18.0901223 81.12091103 -19.23828125 83.57421875 C-21 87 -21 87 -24 88 C-25.40697398 90.31469913 -26.72258712 92.61647483 -28 95 C-30.73229232 99.87909342 -33.40671442 102.09128446 -38.09375 104.86328125 C-40.60541512 106.36101598 -42.33272509 107.56855742 -44 110 C-44.90848781 114.11086646 -44.90848781 114.11086646 -44 118 C-41.41868811 121.50972552 -38.62222015 124.55919934 -35 127 C-30.96725461 127.06388508 -28.59368623 124.06962407 -25.8125 121.4375 C-25.29913086 120.95571289 -24.78576172 120.47392578 -24.25683594 119.97753906 C-23.117587 118.90668529 -21.98151889 117.8324405 -20.84814453 116.75537109 C-18.90422912 114.90903664 -16.95117942 113.07278071 -14.99609375 111.23828125 C-12.11509242 108.53353099 -9.2376784 105.82504888 -6.36328125 103.11328125 C-2.22867348 99.2135214 1.91512952 95.32367917 6.0625 91.4375 C6.71105957 90.82946533 7.35961914 90.22143066 8.02783203 89.5949707 C11.46513342 86.3729803 14.90502432 83.15379442 18.34765625 79.9375 C19.0636499 79.2679126 19.77964355 78.5983252 20.51733398 77.90844727 C21.87671893 76.63724205 23.23685237 75.36683655 24.59790039 74.09741211 C26.40596345 72.40589216 28.20355438 70.70384011 30 69 C30.57975586 68.46391113 31.15951172 67.92782227 31.75683594 67.37548828 C34.61029157 64.66546929 36.28347171 62.87350423 37 59 C36.34 59 35.68 59 35 59 C33.38050989 56.42786866 32.95591249 55.32330841 33.375 52.25 C33.58125 51.5075 33.7875 50.765 34 50 C35.32 49.67 36.64 49.34 38 49 C38.33 49.99 38.66 50.98 39 52 C39.99 48.7 40.98 45.4 42 42 C42.33 42 42.66 42 43 42 C43.20464919 46.44946951 42.61366989 49.71278614 41.0625 53.875 C39.37160789 58.66685678 38.3889089 62.94418428 38 68 C38.66 68 39.32 68 40 68 C39.49555908 72.15793832 38.48253439 73.97950354 35.39453125 76.77734375 C34.65783203 77.45603516 33.92113281 78.13472656 33.16210938 78.83398438 C32.38673828 79.52814453 31.61136719 80.22230469 30.8125 80.9375 C29.29744395 82.32081205 27.7831086 83.70491391 26.26953125 85.08984375 C25.5420166 85.74839355 24.81450195 86.40694336 24.06494141 87.08544922 C22.17214686 88.84039067 20.36704096 90.64789128 18.57421875 92.50390625 C16 95 16 95 14 95 C14 95.66 14 96.32 14 97 C12.56640625 98.41015625 12.56640625 98.41015625 10.5625 100.0625 C7.39242783 102.75174994 4.41418475 105.53513377 1.5 108.5 C-1.20803565 111.24500542 -3.94169249 113.8727091 -6.875 116.375 C-11.36358223 120.21332484 -15.45643518 124.42583287 -19.58203125 128.64453125 C-22.79118448 131.77073383 -24.12469043 132.98516424 -28.6875 133.0625 C-34.14117048 132.21348536 -37.23610313 128.78634556 -41 125 C-42.01900391 124.05253906 -42.01900391 124.05253906 -43.05859375 123.0859375 C-46.69651504 119.64564976 -46.69651504 119.64564976 -48 118 C-48 117.01 -48 116.02 -48 115 C-49.051875 115.04125 -50.10375 115.0825 -51.1875 115.125 C-54.75906093 115.00789964 -56.87804309 114.65280072 -60 113 C-60.33 112.34 -60.66 111.68 -61 111 C-59.35 111.33 -57.7 111.66 -56 112 C-55.67 110.02 -55.34 108.04 -55 106 C-54.01 106.66 -53.02 107.32 -52 108 C-52 108.66 -52 109.32 -52 110 C-51.34 110.33 -50.68 110.66 -50 111 C-50 110.01 -50 109.02 -50 108 C-49.34 108 -48.68 108 -48 108 C-46.92474806 105.34771188 -45.90543849 102.71631546 -45 100 C-44.01269114 98.98746792 -43.01131138 97.9885592 -42 97 C-41.12055072 95.70886845 -40.28148142 94.38964542 -39.4765625 93.05078125 C-39.0125 92.28443359 -38.5484375 91.51808594 -38.0703125 90.72851562 C-37.59335937 89.93123047 -37.11640625 89.13394531 -36.625 88.3125 C-35.6800814 86.74585611 -34.73477134 85.17944824 -33.7890625 83.61328125 C-33.32790039 82.84580566 -32.86673828 82.07833008 -32.39160156 81.28759766 C-30.63617982 78.40193069 -28.82260492 75.55511125 -26.99365234 72.71557617 C-25.8403364 70.85739954 -25.8403364 70.85739954 -25 68 C-24.34 68 -23.68 68 -23 68 C-22.72744385 67.26861816 -22.4548877 66.53723633 -22.17407227 65.78369141 C-21.05264704 63.1248246 -19.77997778 60.87909683 -18.21484375 58.4609375 C-17.68439453 57.63335937 -17.15394531 56.80578125 -16.60742188 55.953125 C-16.05634766 55.10234375 -15.50527344 54.2515625 -14.9375 53.375 C-13.8395133 51.6763725 -12.74433158 49.97592766 -11.65234375 48.2734375 C-11.16757568 47.52497559 -10.68280762 46.77651367 -10.18334961 46.00537109 C-8.85487349 43.91425451 -8.85487349 43.91425451 -8 41 C-7.34 40.67 -6.68 40.34 -6 40 C-5.24756445 38.07361988 -5.24756445 38.07361988 -5 36 C-5.33 35.34 -5.66 34.68 -6 34 C-5.45102083 31.66828322 -4.81181243 29.35740085 -4.125 27.0625 C-3.75632813 25.81597656 -3.38765625 24.56945312 -3.0078125 23.28515625 C-2.36277013 21.18251814 -1.69549742 19.08649227 -1 17 C-0.95481832 14.2834512 -0.95228954 11.5897254 -1 8.875 C-1.04576155 6.24371069 -1.04711723 3.63267512 -1 1 C-0.67 0.67 -0.34 0.34 0 0 Z " fill="#311B0C" transform="translate(89,16)"/>
<path d="M0 0 C2.75876286 1.06819298 3.87158939 2.07930748 5.69140625 4.3828125 C6.1915625 5.00027344 6.69171875 5.61773438 7.20703125 6.25390625 C9.93079992 9.98615889 9.85818287 13.47318973 9.44140625 17.9453125 C8.63432058 21.61129044 7.55476614 25.17449879 6.44140625 28.7578125 C5.87548451 30.61745172 5.31283167 32.47808978 4.75390625 34.33984375 C4.50253906 35.15300049 4.25117187 35.96615723 3.9921875 36.80395508 C3.31685466 39.06104153 3.31685466 39.06104153 3.44140625 41.9453125 C3.99078857 41.59750732 4.5401709 41.24970215 5.10620117 40.89135742 C7.61338881 39.3045733 10.12114206 37.71868526 12.62890625 36.1328125 C13.49322266 35.58560547 14.35753906 35.03839844 15.24804688 34.47460938 C16.91710607 33.41945701 18.58873189 32.3683511 20.26318359 31.32177734 C21.96506275 30.246324 23.64050672 29.12900809 25.3046875 27.99609375 C27.95843786 26.69105015 28.68640573 27.06254937 31.44140625 27.9453125 C34.20813207 29.11615258 36.87882747 30.47892702 39.56640625 31.8203125 C40.29472656 32.17222656 41.02304688 32.52414063 41.7734375 32.88671875 C42.47082031 33.23347656 43.16820312 33.58023438 43.88671875 33.9375 C44.52109863 34.25058105 45.15547852 34.56366211 45.80908203 34.88623047 C48.95596054 36.92798323 49.50088169 39.20535085 50.3125 42.75390625 C50.93490865 49.50464618 48.54617535 55.65821222 46.50390625 62.0078125 C46.11783203 63.25498047 45.73175781 64.50214844 45.33398438 65.78710938 C44.38499356 68.84496866 43.42054906 71.89700165 42.44140625 74.9453125 C42.11140625 74.2853125 41.78140625 73.6253125 41.44140625 72.9453125 C40.78140625 72.9453125 40.12140625 72.9453125 39.44140625 72.9453125 C39.04958421 67.85162599 39.5589335 64.19308052 41.31640625 59.3828125 C43.86404628 52.32711441 44.66987176 45.3764079 45.44140625 37.9453125 C42.80140625 36.9553125 40.16140625 35.9653125 37.44140625 34.9453125 C38.10140625 35.9353125 38.76140625 36.9253125 39.44140625 37.9453125 C39.44140625 38.9353125 39.44140625 39.9253125 39.44140625 40.9453125 C38.78140625 40.9453125 38.12140625 40.9453125 37.44140625 40.9453125 C37.93640625 43.9153125 37.93640625 43.9153125 38.44140625 46.9453125 C35.16027605 49.13273264 33.11056269 49.48974056 29.25390625 50.0703125 C28.16722656 50.23789062 27.08054687 50.40546875 25.9609375 50.578125 C25.12949219 50.69929688 24.29804687 50.82046875 23.44140625 50.9453125 C24.40503877 44.60259699 25.9485808 39.66613208 30.44140625 34.9453125 C32.75390625 33.5078125 32.75390625 33.5078125 34.44140625 32.9453125 C32.79140625 32.2853125 31.14140625 31.6253125 29.44140625 30.9453125 C28.97734375 31.9971875 28.97734375 31.9971875 28.50390625 33.0703125 C25.54093209 37.2005189 21.75302004 39.34885325 17.44140625 41.9453125 C16.21164063 42.70134766 16.21164063 42.70134766 14.95703125 43.47265625 C10.43174818 46.14198172 10.43174818 46.14198172 8.44140625 46.9453125 C6.95640625 46.4503125 6.95640625 46.4503125 5.44140625 45.9453125 C6.10140625 44.9553125 6.76140625 43.9653125 7.44140625 42.9453125 C3.69858926 45.32710513 0.46413157 47.69006985 -2.55859375 50.9453125 C-2.0662371 48.72970759 -1.47137126 46.73780739 -0.58984375 44.640625 C1.47923761 39.23279872 2.44140625 33.35013617 2.44140625 27.5703125 C2.44140625 24.59651845 3.18446155 22.61632 4.44140625 19.9453125 C5.10140625 19.9453125 5.76140625 19.9453125 6.44140625 19.9453125 C6.52283552 18.1960911 6.58079166 16.44576708 6.62890625 14.6953125 C6.66371094 13.72078125 6.69851562 12.74625 6.734375 11.7421875 C6.40215827 8.57062508 5.55468346 7.27490943 3.44140625 4.9453125 C-0.41629389 5.49641252 -1.90220022 7.20842219 -4.55859375 9.9453125 C-5.33332031 10.39003906 -6.10804687 10.83476562 -6.90625 11.29296875 C-21.15116776 20.16719587 -25.80986924 38.22532094 -31.55859375 52.9453125 C-32.21859375 52.9453125 -32.87859375 52.9453125 -33.55859375 52.9453125 C-33.55859375 53.6053125 -33.55859375 54.2653125 -33.55859375 54.9453125 C-34.21859375 54.9453125 -34.87859375 54.9453125 -35.55859375 54.9453125 C-35.22859375 55.9353125 -34.89859375 56.9253125 -34.55859375 57.9453125 C-34.87149089 65.57218027 -37.33535874 72.586372 -40.05859375 79.6328125 C-40.36732422 80.43533447 -40.67605469 81.23785645 -40.99414062 82.06469727 C-43.2973594 87.81469533 -43.2973594 87.81469533 -45.55859375 88.9453125 C-46.42903803 90.83246431 -46.42903803 90.83246431 -47.14453125 93.13671875 C-47.43585937 93.99974609 -47.7271875 94.86277344 -48.02734375 95.75195312 C-48.32640625 96.66138672 -48.62546875 97.57082031 -48.93359375 98.5078125 C-51.05911971 104.94552275 -53.38131808 110.9476798 -56.55859375 116.9453125 C-57.54859375 116.6153125 -58.53859375 116.2853125 -59.55859375 115.9453125 C-58.91760184 110.15725123 -56.86482996 105.13150742 -54.74609375 99.7578125 C-54.32811523 98.68644043 -53.91013672 97.61506836 -53.47949219 96.51123047 C-52.4703711 93.92756233 -51.45869932 91.34498215 -50.44482422 88.76318359 C-48.60422278 84.07001908 -46.78195692 79.36981377 -44.95991516 74.66941833 C-43.19412494 70.11724392 -41.42270134 65.5672732 -39.65029907 61.01766968 C-38.76182429 58.73483614 -37.87506109 56.45133566 -36.99008179 54.16714478 C-24.45765079 21.84436954 -24.45765079 21.84436954 -16.55859375 13.9453125 C-15.89859375 13.9453125 -15.23859375 13.9453125 -14.55859375 13.9453125 C-14.55859375 13.2853125 -14.55859375 12.6253125 -14.55859375 11.9453125 C-13.89859375 11.9453125 -13.23859375 11.9453125 -12.55859375 11.9453125 C-12.18154297 11.08873047 -12.18154297 11.08873047 -11.796875 10.21484375 C-10.38927862 7.63499045 -8.77600395 5.75587345 -6.74609375 3.6328125 C-6.07964844 2.91480469 -5.41320312 2.19679688 -4.7265625 1.45703125 C-2.55859375 -0.0546875 -2.55859375 -0.0546875 0 0 Z " fill="#391C0A" transform="translate(87.55859375,11.0546875)"/>
<path d="M0 0 C3 1.5625 3 1.5625 6 4 C6.48706746 7.89653967 6.19608982 11.26221932 5 15 C4.34 15 3.68 15 3 15 C2.81824219 16.46759766 2.81824219 16.46759766 2.6328125 17.96484375 C0.27818666 36.56211535 0.27818666 36.56211535 -3 43 C-3.39171753 44.65391846 -3.72057545 46.32345271 -4 48 C-4.20625 48.99 -4.4125 49.98 -4.625 51 C-5.18103134 53.92401294 -5.18103134 53.92401294 -4.3605957 56.40112305 C-3.89378905 59.76548111 -4.7006056 60.81853107 -6.60546875 63.58203125 C-7.17716797 64.43216797 -7.74886719 65.28230469 -8.33789062 66.15820312 C-8.94826172 67.03412109 -9.55863281 67.91003906 -10.1875 68.8125 C-11.37251137 70.54543375 -12.55356898 72.28107841 -13.73046875 74.01953125 C-14.29685059 74.85436035 -14.86323242 75.68918945 -15.44677734 76.54931641 C-16.89844939 78.83977287 -18.0901223 81.12091103 -19.23828125 83.57421875 C-21 87 -21 87 -24 88 C-25.40697398 90.31469913 -26.72258712 92.61647483 -28 95 C-30.72894708 99.87311978 -33.39052691 102.11169962 -38.1015625 104.84375 C-41.61947129 106.98634466 -43.73899393 109.60849089 -46 113 C-46.66 113 -47.32 113 -48 113 C-49.23925303 109.51261488 -48.7983396 107.75296632 -47.25 104.4375 C-46.90453125 103.67308594 -46.5590625 102.90867187 -46.203125 102.12109375 C-45 100 -45 100 -43.58251953 98.61425781 C-41.87625232 96.87377049 -40.73129576 95.13784536 -39.4765625 93.05078125 C-39.0125 92.28443359 -38.5484375 91.51808594 -38.0703125 90.72851562 C-37.35488281 89.53258789 -37.35488281 89.53258789 -36.625 88.3125 C-35.6800814 86.74585611 -34.73477134 85.17944824 -33.7890625 83.61328125 C-33.32790039 82.84580566 -32.86673828 82.07833008 -32.39160156 81.28759766 C-30.63617982 78.40193069 -28.82260492 75.55511125 -26.99365234 72.71557617 C-25.8403364 70.85739954 -25.8403364 70.85739954 -25 68 C-24.34 68 -23.68 68 -23 68 C-22.59116577 66.90292725 -22.59116577 66.90292725 -22.17407227 65.78369141 C-21.05264704 63.1248246 -19.77997778 60.87909683 -18.21484375 58.4609375 C-17.68439453 57.63335937 -17.15394531 56.80578125 -16.60742188 55.953125 C-16.05634766 55.10234375 -15.50527344 54.2515625 -14.9375 53.375 C-13.8395133 51.6763725 -12.74433158 49.97592766 -11.65234375 48.2734375 C-11.16757568 47.52497559 -10.68280762 46.77651367 -10.18334961 46.00537109 C-8.85487349 43.91425451 -8.85487349 43.91425451 -8 41 C-7.34 40.67 -6.68 40.34 -6 40 C-5.24756445 38.07361988 -5.24756445 38.07361988 -5 36 C-5.33 35.34 -5.66 34.68 -6 34 C-5.45102083 31.66828322 -4.81181243 29.35740085 -4.125 27.0625 C-3.75632813 25.81597656 -3.38765625 24.56945312 -3.0078125 23.28515625 C-2.36277013 21.18251814 -1.69549742 19.08649227 -1 17 C-0.95481832 14.2834512 -0.95228954 11.5897254 -1 8.875 C-1.04576155 6.24371069 -1.04711723 3.63267512 -1 1 C-0.67 0.67 -0.34 0.34 0 0 Z " fill="#422408" transform="translate(89,16)"/>
<path d="M0 0 C2.71983928 1.04441828 3.86602354 2.00670073 5.69140625 4.25 C6.1915625 4.84425781 6.69171875 5.43851563 7.20703125 6.05078125 C8.49877416 8.02518575 9.01386676 9.63184059 9.44140625 11.9375 C4.56640625 7.1875 4.56640625 7.1875 3.44140625 4.9375 C-0.41629389 5.48860002 -1.90220022 7.20060969 -4.55859375 9.9375 C-5.33332031 10.38222656 -6.10804687 10.82695312 -6.90625 11.28515625 C-21.15116776 20.15938337 -25.80986924 38.21750844 -31.55859375 52.9375 C-32.21859375 52.9375 -32.87859375 52.9375 -33.55859375 52.9375 C-33.55859375 53.5975 -33.55859375 54.2575 -33.55859375 54.9375 C-34.21859375 54.9375 -34.87859375 54.9375 -35.55859375 54.9375 C-35.22859375 55.9275 -34.89859375 56.9175 -34.55859375 57.9375 C-34.87149089 65.56436777 -37.33535874 72.5785595 -40.05859375 79.625 C-40.36732422 80.42752197 -40.67605469 81.23004395 -40.99414062 82.05688477 C-43.2973594 87.80688283 -43.2973594 87.80688283 -45.55859375 88.9375 C-46.42903803 90.82465181 -46.42903803 90.82465181 -47.14453125 93.12890625 C-47.43585937 93.99193359 -47.7271875 94.85496094 -48.02734375 95.74414062 C-48.32640625 96.65357422 -48.62546875 97.56300781 -48.93359375 98.5 C-51.05911971 104.93771025 -53.38131808 110.9398673 -56.55859375 116.9375 C-57.54859375 116.6075 -58.53859375 116.2775 -59.55859375 115.9375 C-58.91760184 110.14943873 -56.86482996 105.12369492 -54.74609375 99.75 C-54.32811523 98.67862793 -53.91013672 97.60725586 -53.47949219 96.50341797 C-52.4703711 93.91974983 -51.45869932 91.33716965 -50.44482422 88.75537109 C-48.60422278 84.06220658 -46.78195692 79.36200127 -44.95991516 74.66160583 C-43.19412494 70.10943142 -41.42270134 65.5594607 -39.65029907 61.00985718 C-38.76182429 58.72702364 -37.87506109 56.44352316 -36.99008179 54.15933228 C-24.45765079 21.83655704 -24.45765079 21.83655704 -16.55859375 13.9375 C-15.89859375 13.9375 -15.23859375 13.9375 -14.55859375 13.9375 C-14.55859375 13.2775 -14.55859375 12.6175 -14.55859375 11.9375 C-13.89859375 11.9375 -13.23859375 11.9375 -12.55859375 11.9375 C-12.18154297 11.08091797 -12.18154297 11.08091797 -11.796875 10.20703125 C-10.38927862 7.62717795 -8.77600395 5.74806095 -6.74609375 3.625 C-6.07964844 2.90699219 -5.41320312 2.18898438 -4.7265625 1.44921875 C-2.55859375 -0.0625 -2.55859375 -0.0625 0 0 Z " fill="#776E7C" transform="translate(87.55859375,11.0625)"/>
<path d="M0 0 C1.125 3.75 1.125 3.75 0 6 C1.98 5.34 3.96 4.68 6 4 C5.67 4.66 5.34 5.32 5 6 C6.98 6.99 8.96 7.98 11 9 C9.76769603 15.9457133 7.73475229 21.96693861 4 28 C3.34 28.33 2.68 28.66 2 29 C2 27.02 2 25.04 2 23 C1.34 23 0.68 23 0 23 C0 21.68 0 20.36 0 19 C-0.66 19 -1.32 19 -2 19 C-2.495 16.525 -2.495 16.525 -3 14 C-3.66 14 -4.32 14 -5 14 C-5 13.34 -5 12.68 -5 12 C-5.71027344 11.95101562 -6.42054687 11.90203125 -7.15234375 11.8515625 C-8.07144531 11.77679688 -8.99054688 11.70203125 -9.9375 11.625 C-10.85402344 11.55539063 -11.77054688 11.48578125 -12.71484375 11.4140625 C-13.84599609 11.20910156 -13.84599609 11.20910156 -15 11 C-15.33 10.34 -15.66 9.68 -16 9 C-17.65 9 -19.3 9 -21 9 C-21.33 8.01 -21.66 7.02 -22 6 C-14.51935975 2.29278005 -8.30085731 1.48654491 0 2 C0 1.34 0 0.68 0 0 Z " fill="#161714" transform="translate(111,56)"/>
<path d="M0 0 C1.5625 1.6875 1.5625 1.6875 3 4 C2.60930072 7.72487095 1.45695452 10.25799537 -0.58203125 13.36328125 C-1.10216797 14.16830078 -1.62230469 14.97332031 -2.15820312 15.80273438 C-2.70412109 16.63095703 -3.25003906 17.45917969 -3.8125 18.3125 C-8.34672549 25.23293603 -8.34672549 25.23293603 -12.19921875 32.54296875 C-14 36 -14 36 -17 37 C-18.40705529 39.3148329 -19.72106251 41.61718871 -21 44 C-24.20610687 49.66412214 -24.20610687 49.66412214 -28.25 51.375 C-29.1575 51.58125 -30.065 51.7875 -31 52 C-30.01 49.69 -29.02 47.38 -28 45 C-28.66 45 -29.32 45 -30 45 C-29.34 43.68 -28.68 42.36 -28 41 C-26.68 41.33 -25.36 41.66 -24 42 C-23.87850586 41.41444336 -23.75701172 40.82888672 -23.63183594 40.22558594 C-22.98689417 37.95383588 -22.15633562 36.3741057 -20.890625 34.390625 C-20.25253906 33.38128906 -20.25253906 33.38128906 -19.6015625 32.3515625 C-19.15554687 31.65804687 -18.70953125 30.96453125 -18.25 30.25 C-17.81945312 29.57195312 -17.38890625 28.89390625 -16.9453125 28.1953125 C-16.07680595 26.8275447 -15.20636722 25.46100184 -14.33398438 24.09570312 C-12.20065917 20.74422737 -10.10010943 17.37235617 -8 14 C-8.66 13.01 -9.32 12.02 -10 11 C-9.67 10.34 -9.34 9.68 -9 9 C-7.8553125 8.938125 -7.8553125 8.938125 -6.6875 8.875 C-3.91039574 8.27884229 -3.91039574 8.27884229 -2.78125 6.16015625 C-1.78216995 4.12988286 -0.85424096 2.09503788 0 0 Z " fill="#321703" transform="translate(82,67)"/>
<path d="M0 0 C2.80338174 2.89098742 3.93963039 4.43655032 4.375 8.5 C4.02749962 11.74333691 3.41415461 14.08330611 2 17 C1.34 17 0.68 17 0 17 C0.33 13.7 0.66 10.4 1 7 C0.03578125 8.010625 -0.9284375 9.02125 -1.921875 10.0625 C-3.19738085 11.37552072 -4.47345206 12.6879924 -5.75 14 C-6.38421875 14.66773438 -7.0184375 15.33546875 -7.671875 16.0234375 C-8.290625 16.65507813 -8.909375 17.28671875 -9.546875 17.9375 C-10.11245117 18.52402344 -10.67802734 19.11054687 -11.26074219 19.71484375 C-13 21 -13 21 -17 21 C-21.62 32.88 -26.24 44.76 -31 57 C-31.33 57 -31.66 57 -32 57 C-32 53.7 -32 50.4 -32 47 C-31.34 47 -30.68 47 -30 47 C-30 46.34 -30 45.68 -30 45 C-29.34 45 -28.68 45 -28 45 C-27.86464844 44.47535156 -27.72929688 43.95070312 -27.58984375 43.41015625 C-22.76972699 26.0635085 -15.93631198 9.7796387 0 0 Z " fill="#4B3A38" transform="translate(84,19)"/>
<path d="M0 0 C1 2 1 2 0.41088867 4.13891602 C0.0832251 5.00186279 -0.24443848 5.86480957 -0.58203125 6.75390625 C-0.93716797 7.69041016 -1.29230469 8.62691406 -1.65820312 9.59179688 C-2.03912109 10.57212891 -2.42003906 11.55246094 -2.8125 12.5625 C-3.36647461 14.03879883 -3.36647461 14.03879883 -3.93164062 15.54492188 C-6.744383 22.8721915 -6.744383 22.8721915 -9 24 C-9.87044428 25.88715181 -9.87044428 25.88715181 -10.5859375 28.19140625 C-10.87726562 29.05443359 -11.16859375 29.91746094 -11.46875 30.80664062 C-11.91734375 32.17079102 -11.91734375 32.17079102 -12.375 33.5625 C-14.50052596 40.00021025 -16.82272433 46.0023673 -20 52 C-20.99 51.67 -21.98 51.34 -23 51 C-22.05739444 44.31787729 -19.71412345 38.40077514 -17.3125 32.125 C-16.89033203 30.97902344 -16.46816406 29.83304688 -16.03320312 28.65234375 C-13.57052662 22.19663973 -11.03469637 15.91094574 -6 11 C-5.34 11 -4.68 11 -4 11 C-3.79503906 10.28972656 -3.59007813 9.57945313 -3.37890625 8.84765625 C-3.10949219 7.92855469 -2.84007813 7.00945312 -2.5625 6.0625 C-2.29566406 5.14597656 -2.02882813 4.22945313 -1.75390625 3.28515625 C-1 1 -1 1 0 0 Z " fill="#565061" transform="translate(51,76)"/>
<path d="M0 0 C1.29640378 0.59393382 2.58698839 1.20057989 3.875 1.8125 C4.59429687 2.14894531 5.31359375 2.48539063 6.0546875 2.83203125 C8 4 8 4 10 7 C11.92105753 15.39924255 9.65395461 22.00543203 7.0625 30.0625 C6.48338867 31.93325195 6.48338867 31.93325195 5.89257812 33.84179688 C4.94358731 36.89965616 3.97914281 39.95168915 3 43 C2.67 42.34 2.34 41.68 2 41 C1.34 41 0.68 41 0 41 C-0.39182204 35.90631349 0.11752725 32.24776802 1.875 27.4375 C4.42264003 20.38180191 5.22846551 13.4310954 6 6 C5.01 5.38125 4.02 4.7625 3 4.125 C2.01 3.42375 1.02 2.7225 0 2 C0 1.34 0 0.68 0 0 Z " fill="#3F537A" transform="translate(127,43)"/>
<path d="M0 0 C6.75 0.75 6.75 0.75 9 3 C9 3.99 9 4.98 9 6 C8.34 6 7.68 6 7 6 C7.33 7.98 7.66 9.96 8 12 C4.7188698 14.18742014 2.66915644 14.54442806 -1.1875 15.125 C-2.27417969 15.29257812 -3.36085938 15.46015625 -4.48046875 15.6328125 C-5.31191406 15.75398438 -6.14335938 15.87515625 -7 16 C-5.99586692 9.39070617 -4.21048225 5.20770173 0 0 Z " fill="#948059" transform="translate(118,46)"/>
<path d="M0 0 C1.1875 2.5625 1.1875 2.5625 2 5 C2.66 5 3.32 5 4 5 C3.79375 5.78375 3.5875 6.5675 3.375 7.375 C3.25125 8.24125 3.1275 9.1075 3 10 C3.66 10.66 4.32 11.32 5 12 C5.66 11.34 6.32 10.68 7 10 C7.99 10 8.98 10 10 10 C10.33 8.68 10.66 7.36 11 6 C11.66 6.33 12.32 6.66 13 7 C12.53262113 12.92013241 10.03791739 17.97466002 7 23 C6.34 23.33 5.68 23.66 5 24 C5 22.02 5 20.04 5 18 C4.34 18 3.68 18 3 18 C3 16.68 3 15.36 3 14 C2.34 14 1.68 14 1 14 C0.67 12.35 0.34 10.7 0 9 C-0.66 9 -1.32 9 -2 9 C-2 8.34 -2 7.68 -2 7 C-3.65 7 -5.3 7 -7 7 C-7 5.02 -7 3.04 -7 1 C-3.375 -1.125 -3.375 -1.125 0 0 Z " fill="#171A20" transform="translate(108,61)"/>
<path d="M0 0 C0.33 0 0.66 0 1 0 C1.20464919 4.44946951 0.61366989 7.71278614 -0.9375 11.875 C-2.62839211 16.66685678 -3.6110911 20.94418428 -4 26 C-3.34 26 -2.68 26 -2 26 C-2.50441145 30.15121221 -3.51322727 31.97654438 -6.59765625 34.76953125 C-7.31630859 35.43017578 -8.03496094 36.09082031 -8.77539062 36.77148438 C-9.53013672 37.44501953 -10.28488281 38.11855469 -11.0625 38.8125 C-11.82111328 39.50537109 -12.57972656 40.19824219 -13.36132812 40.91210938 C-15.23212395 42.61818104 -17.11162456 44.31344052 -19 46 C-19.66 45.67 -20.32 45.34 -21 45 C-20.61142822 44.58637207 -20.22285645 44.17274414 -19.82250977 43.74658203 C-18.06677485 41.87495442 -16.31460417 40.00002666 -14.5625 38.125 C-13.64500977 37.14853516 -13.64500977 37.14853516 -12.70898438 36.15234375 C-12.12568359 35.52714844 -11.54238281 34.90195313 -10.94140625 34.2578125 C-10.40201416 33.6817627 -9.86262207 33.10571289 -9.30688477 32.51220703 C-7.90528819 31.0159761 -7.90528819 31.0159761 -7 29 C-7.66 28.67 -8.32 28.34 -9 28 C-8.525625 27.29875 -8.05125 26.5975 -7.5625 25.875 C-5.91260143 22.83918663 -5.39631536 20.40831214 -5 17 C-5.66 17 -6.32 17 -7 17 C-8.61949011 14.42786866 -9.04408751 13.32330841 -8.625 10.25 C-8.41875 9.5075 -8.2125 8.765 -8 8 C-6.68 7.67 -5.36 7.34 -4 7 C-3.67 7.99 -3.34 8.98 -3 10 C-2.01 6.7 -1.02 3.4 0 0 Z " fill="#281816" transform="translate(131,58)"/>
<path d="M0 0 C3 1.5625 3 1.5625 6 4 C6.48706746 7.89653967 6.19608982 11.26221932 5 15 C4.34 15 3.68 15 3 15 C2.87625 15.763125 2.7525 16.52625 2.625 17.3125 C2 20 2 20 0 23 C-0.80515001 26.11099847 -1.46122005 29.23804298 -2.12109375 32.3828125 C-2.41113281 33.24648438 -2.70117188 34.11015625 -3 35 C-4.485 35.495 -4.485 35.495 -6 36 C-5.35561067 33.39546825 -4.7095496 30.7913709 -4.0625 28.1875 C-3.88009766 27.44951172 -3.69769531 26.71152344 -3.50976562 25.95117188 C-2.7577385 22.92939016 -1.98514427 19.95543282 -1 17 C-0.95481832 14.2834512 -0.95228954 11.5897254 -1 8.875 C-1.04576155 6.24371069 -1.04711723 3.63267512 -1 1 C-0.67 0.67 -0.34 0.34 0 0 Z " fill="#3E1D07" transform="translate(89,16)"/>
<path d="M0 0 C4.1740691 1.39135637 6.69084318 4.25445757 9.3125 7.75 C12.19278647 9.88354554 15.48474427 9.71186428 19 10 C17.75006004 13.74981988 16.2769294 14.86618551 13 17 C8.06926451 16.65001042 5.1260822 12.7711561 1.86328125 9.43359375 C-0.00698721 6.99087415 -0.59333019 5.95269264 -0.5625 2.9375 C-0.376875 1.968125 -0.19125 0.99875 0 0 Z " fill="#0B0702" transform="translate(44,127)"/>
<path d="M0 0 C1.39195915 4.17587745 -0.17676781 6.13474776 -2 10 C-2.66 10 -3.32 10 -4 10 C-4 10.66 -4 11.32 -4 12 C-4.66 12 -5.32 12 -6 12 C-5.67 12.99 -5.34 13.98 -5 15 C-5.56112074 24.3520123 -9.62063061 31.3867204 -16 38 C-17 36 -17 36 -16.09130859 33.0065918 C-15.61928249 31.73411876 -15.13760853 30.46519979 -14.6484375 29.19921875 C-14.39252838 28.52582962 -14.13661926 27.85244049 -13.87295532 27.15864563 C-13.32703814 25.73060404 -12.77697779 24.30414059 -12.22314453 22.87915039 C-11.38452571 20.71211494 -10.56862168 18.53744341 -9.75390625 16.36132812 C-9.22012433 14.97342899 -8.68500907 13.58604178 -8.1484375 12.19921875 C-7.90862152 11.55321213 -7.66880554 10.90720551 -7.42172241 10.24162292 C-5.69254517 5.87555605 -3.49308868 3.10912293 0 0 Z " fill="#715954" transform="translate(58,54)"/>
<path d="M0 0 C0.66 0.33 1.32 0.66 2 1 C1.44350029 7.40934154 0.277658 13.22052198 -1.5625 19.375 C-2.02563052 20.94428525 -2.48541514 22.51456289 -2.94140625 24.0859375 C-3.14451416 24.7670459 -3.34762207 25.4481543 -3.55688477 26.14990234 C-4.11646077 28.1691773 -4.11646077 28.1691773 -4 31 C-3.01 31 -2.02 31 -1 31 C-4.96 35.455 -4.96 35.455 -9 40 C-9.495 38.515 -9.495 38.515 -10 37 C-9.566875 36.175 -9.13375 35.35 -8.6875 34.5 C-5.9796927 28.88380708 -5 22.8474231 -5 16.625 C-5 13.65120595 -4.2569447 11.6710075 -3 9 C-2.34 9 -1.68 9 -1 9 C-0.67 6.03 -0.34 3.06 0 0 Z " fill="#553A28" transform="translate(95,22)"/>
<path d="M0 0 C0.66 0.33 1.32 0.66 2 1 C1.19175781 1.82242187 0.38351563 2.64484375 -0.44921875 3.4921875 C-1.52926817 4.61919559 -2.60865988 5.74683424 -3.6875 6.875 C-4.48317383 7.679375 -4.48317383 7.679375 -5.29492188 8.5 C-13.59417596 17.2574951 -17.10059236 29.04759386 -21.3125 40.125 C-21.86737567 41.57309411 -22.42271104 43.02101217 -22.97851562 44.46875 C-24.32431035 47.97716268 -25.66389119 51.48788784 -27 55 C-27.33 55 -27.66 55 -28 55 C-28 51.7 -28 48.4 -28 45 C-27.34 45 -26.68 45 -26 45 C-26 44.34 -26 43.68 -26 43 C-25.34 43 -24.68 43 -24 43 C-23.86464844 42.47535156 -23.72929688 41.95070312 -23.58984375 41.41015625 C-18.91148578 24.57367037 -12.38625681 12.38625681 0 0 Z " fill="#745125" transform="translate(80,21)"/>
<path d="M0 0 C0.66 0.33 1.32 0.66 2 1 C1.67 1.33 1.34 1.66 1 2 C3.97 3.485 3.97 3.485 7 5 C6.01 6.485 6.01 6.485 5 8 C4.566875 9.051875 4.566875 9.051875 4.125 10.125 C3 12 3 12 1.0625 12.75 C-1 13 -1 13 -4 13 C-4.99552499 9.90281114 -4.89921243 8.09728725 -4 5 C-4 4.01 -4 3.02 -4 2 C-2.125 0.9375 -2.125 0.9375 0 0 Z " fill="#151510" transform="translate(115,60)"/>
<path d="M0 0 C2.86124295 0 4.5103672 0.55263765 6.62890625 2.48828125 C9.36821549 5.57082924 11.23518736 7.8754747 12 12 C7.125 7.25 7.125 7.25 6 5 C3.19511388 5.40069802 2.10334587 5.89665413 0.0625 7.9375 C-2.17927845 10.17927845 -4.02164731 11.00721577 -7 12 C-7 8.41634204 -6.22556909 7.63354929 -4.0625 4.875 C-3.51722656 4.17117187 -2.97195312 3.46734375 -2.41015625 2.7421875 C-1 1 -1 1 0 0 Z " fill="#6F635A" transform="translate(85,11)"/>
<path d="M0 0 C0.68707555 2.49064888 1 4.37886292 1 7 C1.66 5.02 2.32 3.04 3 1 C3.66 1 4.32 1 5 1 C3.83795007 7.54849313 2.26616615 13.74538144 0 20 C-0.33 19.34 -0.66 18.68 -1 18 C-1.66 18 -2.32 18 -3 18 C-3.36517527 11.42684522 -2.13619737 6.20514474 0 0 Z " fill="#2F3E67" transform="translate(130,66)"/>
<path d="M0 0 C0.99 0.33 1.98 0.66 3 1 C1.66153239 5.35001973 -0.03673721 9.41766349 -1.92578125 13.546875 C-3.43065015 16.98344834 -4.70350598 20.50159602 -5.97265625 24.03125 C-7 26 -7 26 -10 27 C-7.58650007 17.64481454 -3.75743534 8.873724 0 0 Z " fill="#442E1F" transform="translate(67,38)"/>
<path d="M0 0 C0.33 0 0.66 0 1 0 C1.32230346 5.17297057 0.21620813 9.08817084 -1.5 13.875 C-1.85771484 14.90753906 -1.85771484 14.90753906 -2.22265625 15.9609375 C-2.80688039 17.64350304 -3.40230111 19.32217383 -4 21 C-4.33 19.68 -4.66 18.36 -5 17 C-5.66 17 -6.32 17 -7 17 C-8.61949011 14.42786866 -9.04408751 13.32330841 -8.625 10.25 C-8.41875 9.5075 -8.2125 8.765 -8 8 C-6.68 7.67 -5.36 7.34 -4 7 C-3.67 7.99 -3.34 8.98 -3 10 C-2.01 6.7 -1.02 3.4 0 0 Z " fill="#47300F" transform="translate(131,58)"/>
<path d="M0 0 C1 2 1 2 0.41088867 4.13891602 C0.0832251 5.00186279 -0.24443848 5.86480957 -0.58203125 6.75390625 C-0.93716797 7.69041016 -1.29230469 8.62691406 -1.65820312 9.59179688 C-2.03912109 10.57212891 -2.42003906 11.55246094 -2.8125 12.5625 C-3.36647461 14.03879883 -3.36647461 14.03879883 -3.93164062 15.54492188 C-6.744383 22.8721915 -6.744383 22.8721915 -9 24 C-9.66 24.99 -10.32 25.98 -11 27 C-12 24 -12 24 -11.125 22.125 C-10.75375 21.42375 -10.3825 20.7225 -10 20 C-9.855625 19.175 -9.71125 18.35 -9.5625 17.5 C-8.92196847 14.65319322 -7.97217103 13.12994471 -6 11 C-5.34 11 -4.68 11 -4 11 C-3.79503906 10.28972656 -3.59007812 9.57945313 -3.37890625 8.84765625 C-3.10949219 7.92855469 -2.84007812 7.00945312 -2.5625 6.0625 C-2.29566406 5.14597656 -2.02882813 4.22945313 -1.75390625 3.28515625 C-1 1 -1 1 0 0 Z " fill="#664730" transform="translate(51,76)"/>
<path d="M0 0 C0.99 1.32 1.98 2.64 3 4 C2.11699219 4.3815625 1.23398438 4.763125 0.32421875 5.15625 C-3.33905662 7.18805491 -5.45294103 9.34571802 -8.1875 12.5 C-13.6015625 18.6875 -13.6015625 18.6875 -16 21 C-15.47900216 16.93991622 -14.45489342 14.94077219 -11.62109375 12.01171875 C-10.94755859 11.30595703 -10.27402344 10.60019531 -9.58007812 9.87304688 C-8.87302734 9.15181641 -8.16597656 8.43058594 -7.4375 7.6875 C-6.72658203 6.94693359 -6.01566406 6.20636719 -5.28320312 5.44335938 C-3.5307002 3.62028586 -1.76961818 1.80643894 0 0 Z " fill="#3A3138" transform="translate(84,19)"/>
<path d="M0 0 C1.05620749 3.1818914 0.98507145 4.82901119 -0.328125 7.8984375 C-0.78638672 8.98898438 -0.78638672 8.98898438 -1.25390625 10.1015625 C-1.74697266 11.22691406 -1.74697266 11.22691406 -2.25 12.375 C-2.71986328 13.48875 -2.71986328 13.48875 -3.19921875 14.625 C-8.32465278 26.66232639 -8.32465278 26.66232639 -11 28 C-8.97986427 21.75492665 -6.76356291 15.6131017 -4.375 9.5 C-4.06304687 8.69046875 -3.75109375 7.8809375 -3.4296875 7.046875 C-3.130625 6.27859375 -2.8315625 5.5103125 -2.5234375 4.71875 C-2.25450684 4.02716797 -1.98557617 3.33558594 -1.70849609 2.62304688 C-1 1 -1 1 0 0 Z " fill="#3B2311" transform="translate(53,75)"/>
<path d="M0 0 C1.1875 2.5625 1.1875 2.5625 2 5 C2.66 5 3.32 5 4 5 C4 5.66 4 6.32 4 7 C0.37 7 -3.26 7 -7 7 C-7 5.02 -7 3.04 -7 1 C-3.375 -1.125 -3.375 -1.125 0 0 Z " fill="#959584" transform="translate(108,61)"/>
<path d="M0 0 C0.66 0.66 1.32 1.32 2 2 C1.0479279 3.00596297 0.08812654 4.00461563 -0.875 5 C-1.40867187 5.556875 -1.94234375 6.11375 -2.4921875 6.6875 C-4 8 -4 8 -6 8 C-6 8.66 -6 9.32 -6 10 C-7.64453125 11.65625 -7.64453125 11.65625 -9.8125 13.5 C-10.52019531 14.1084375 -11.22789063 14.716875 -11.95703125 15.34375 C-14 17 -14 17 -17 19 C-15.60652624 15.84795019 -13.97514921 13.73828227 -11.5234375 11.328125 C-10.51796875 10.33232422 -10.51796875 10.33232422 -9.4921875 9.31640625 C-8.79351562 8.63449219 -8.09484375 7.95257813 -7.375 7.25 C-6.66859375 6.55261719 -5.9621875 5.85523437 -5.234375 5.13671875 C-3.49401297 3.41987512 -1.74915019 1.70788168 0 0 Z " fill="#26150E" transform="translate(109,103)"/>
<path d="M0 0 C0.87776229 3.14422313 0.97911796 4.86682253 0 8 C-0.63888459 10.39581723 -1.02819662 12.44174709 -1.1875 14.9375 C-2.33425291 19.25987637 -4.4251831 20.41396225 -8 23 C-5.81659819 15.13620323 -3.00714974 7.58324716 0 0 Z " fill="#645A6B" transform="translate(49,69)"/>
<path d="M0 0 C0 3 0 3 -2 6 C-2.30679688 6.64453125 -2.61359375 7.2890625 -2.9296875 7.953125 C-4.09623492 10.1840405 -5.45943172 11.86718369 -7.125 13.75 C-7.93324219 14.67039062 -7.93324219 14.67039062 -8.7578125 15.609375 C-9.16773437 16.06828125 -9.57765625 16.5271875 -10 17 C-10.66 16.34 -11.32 15.68 -12 15 C-11.01 13.02 -10.02 11.04 -9 9 C-8.34 9 -7.68 9 -7 9 C-7 8.34 -7 7.68 -7 7 C-6.34 7 -5.68 7 -5 7 C-4.731875 6.401875 -4.46375 5.80375 -4.1875 5.1875 C-3.01506533 3.02775192 -1.80630718 1.64209744 0 0 Z " fill="#766A69" transform="translate(80,16)"/>
<path d="M0 0 C-0.3125 1.875 -0.3125 1.875 -1 4 C-3.91765 5.9451 -5.62537285 6.45276317 -9 7 C-9 6.01 -9 5.02 -9 4 C-9.99 3.67 -10.98 3.34 -12 3 C-8.6463584 -0.3536416 -4.57608788 0 0 0 Z " fill="#0E0B04" transform="translate(127,59)"/>
<path d="M0 0 C0.495 0.66 0.99 1.32 1.5 2 C7.28189563 9.31854801 7.28189563 9.31854801 15 14 C15 14.66 15 15.32 15 16 C10.04254419 15.60957766 7.4545626 13.09193372 4.125 9.6875 C3.61453125 9.20087891 3.1040625 8.71425781 2.578125 8.21289062 C1.1328125 6.76171875 1.1328125 6.76171875 -1 4 C-0.8203125 1.64453125 -0.8203125 1.64453125 0 0 Z " fill="#44272D" transform="translate(42,130)"/>
<path d="M0 0 C3.625 0.375 3.625 0.375 7 1 C7.33 1.99 7.66 2.98 8 4 C5.03 3.505 5.03 3.505 2 3 C2.66 4.98 3.32 6.96 4 9 C3.01 8.67 2.02 8.34 1 8 C1 7.01 1 6.02 1 5 C-0.65 5.66 -2.3 6.32 -4 7 C-2.92598892 4.08482708 -2.22189824 2.22189824 0 0 Z " fill="#9798A8" transform="translate(118,46)"/>
<path d="M0 0 C5.19802932 0.83168469 10.51044543 3.32425111 14 7.25 C14.33 7.8275 14.66 8.405 15 9 C8.9453125 9.1953125 8.9453125 9.1953125 7 9 C6.34 8.34 5.68 7.68 5 7 C5.66 6.67 6.32 6.34 7 6 C4.44931155 3.64551835 3.28982642 3.01672076 -0.25 2.8125 C-1.61125 2.9053125 -1.61125 2.9053125 -3 3 C-1.75 1.4375 -1.75 1.4375 0 0 Z " fill="#463831" transform="translate(115,38)"/>
<path d="M0 0 C2.125 0.375 2.125 0.375 4 1 C3.67 1.66 3.34 2.32 3 3 C2.34 2.67 1.68 2.34 1 2 C1.02320312 3.09699219 1.04640625 4.19398437 1.0703125 5.32421875 C1.08907921 6.778639 1.10727844 8.23306664 1.125 9.6875 C1.14175781 10.40873047 1.15851563 11.12996094 1.17578125 11.87304688 C1.21391569 16.04876781 0.8789919 19.2494138 -1 23 C-1.93423645 19.98968256 -2.04449911 19.13349732 -1 16 C-0.656509 10.66704568 -0.656509 10.66704568 -3 6 C-2.64111965 3.03923709 -2.15341979 2.15341979 0 0 Z " fill="#40281C" transform="translate(88,15)"/>
<path d="M0 0 C1.125 1.75 1.125 1.75 2 4 C1.1875 5.8125 1.1875 5.8125 0 8 C-0.38749213 10.32495277 -0.72982839 12.65851268 -1 15 C-2.65 15.66 -4.3 16.32 -6 17 C-4.33846988 11.14340094 -2.52958084 5.5409866 0 0 Z " fill="#5C4F59" transform="translate(40,93)"/>
<path d="M0 0 C3 1.75 3 1.75 6 4 C6 5.32 6 6.64 6 8 C5.01 8.495 5.01 8.495 4 9 C3.67 9.99 3.34 10.98 3 12 C2.34 12 1.68 12 1 12 C0.63896464 10.18885568 0.28634496 8.37603177 -0.0625 6.5625 C-0.25972656 5.55316406 -0.45695312 4.54382813 -0.66015625 3.50390625 C-0.77230469 2.67761719 -0.88445312 1.85132812 -1 1 C-0.67 0.67 -0.34 0.34 0 0 Z " fill="#331203" transform="translate(89,16)"/>
<path d="M0 0 C0.33 0 0.66 0 1 0 C1 1.65 1 3.3 1 5 C1.66 5 2.32 5 3 5 C2.67 6.65 2.34 8.3 2 10 C1.01 10 0.02 10 -1 10 C-1.33 9.34 -1.66 8.68 -2 8 C-2.66 7.67 -3.32 7.34 -4 7 C-3.525625 6.21625 -3.05125 5.4325 -2.5625 4.625 C-1.66101977 3.11051322 -0.78820515 1.5764103 0 0 Z " fill="#322326" transform="translate(126,79)"/>
<path d="M0 0 C1.04005702 3.38018531 1.08004482 6.4780279 1 10 C0.34 10 -0.32 10 -1 10 C-1.66 8.35 -2.32 6.7 -3 5 C-3.928125 5.309375 -3.928125 5.309375 -4.875 5.625 C-5.57625 5.74875 -6.2775 5.8725 -7 6 C-7.66 5.34 -8.32 4.68 -9 4 C-3.375 2 -3.375 2 0 2 C0 1.34 0 0.68 0 0 Z " fill="#202326" transform="translate(111,56)"/>
<path d="M0 0 C0.66 0.33 1.32 0.66 2 1 C1.91253716 2.43861294 1.80434652 3.87597508 1.6875 5.3125 C1.62949219 6.11300781 1.57148437 6.91351563 1.51171875 7.73828125 C0.90506434 10.41960113 0.02904281 11.21143634 -2 13 C-2.66 13.99 -3.32 14.98 -4 16 C-4.33 15.34 -4.66 14.68 -5 14 C-4.0625 11.375 -4.0625 11.375 -3 9 C-2.34 9 -1.68 9 -1 9 C-0.67 6.03 -0.34 3.06 0 0 Z " fill="#533621" transform="translate(95,22)"/>
<path d="M0 0 C0.99 0.33 1.98 0.66 3 1 C1.58192622 5.47238653 -0.11304374 9.71146306 -2 14 C-3.1171875 12.328125 -3.1171875 12.328125 -4 10 C-3.3203125 7.421875 -3.3203125 7.421875 -2.125 4.75 C-1.73570313 3.85796875 -1.34640625 2.9659375 -0.9453125 2.046875 C-0.63335937 1.37140625 -0.32140625 0.6959375 0 0 Z " fill="#44332B" transform="translate(67,38)"/>
<path d="M0 0 C0.8357887 2.34655039 1.21745975 3.50502333 0.19555664 5.83105469 C-0.22862549 6.43852539 -0.65280762 7.04599609 -1.08984375 7.671875 C-1.54423828 8.33574219 -1.99863281 8.99960938 -2.46679688 9.68359375 C-2.95212891 10.36550781 -3.43746094 11.04742187 -3.9375 11.75 C-4.41896484 12.44738281 -4.90042969 13.14476563 -5.39648438 13.86328125 C-6.58640237 15.58336073 -7.79175537 17.29274396 -9 19 C-9.33 18.34 -9.66 17.68 -10 17 C-9.19555664 15.21240234 -9.19555664 15.21240234 -7.91015625 13.0859375 C-7.45576172 12.32539062 -7.00136719 11.56484375 -6.53320312 10.78125 C-6.04787109 9.9871875 -5.56253906 9.193125 -5.0625 8.375 C-4.34030273 7.17230469 -4.34030273 7.17230469 -3.60351562 5.9453125 C-2.40943235 3.95911458 -1.20804799 1.97772458 0 0 Z " fill="#230E01" transform="translate(84,71)"/>
<path d="M0 0 C0.99 0.33 1.98 0.66 3 1 C2.67 1.99 2.34 2.98 2 4 C-0.65234375 4.94921875 -0.65234375 4.94921875 -3.9375 5.6875 C-5.01902344 5.93886719 -6.10054688 6.19023438 -7.21484375 6.44921875 C-10 7 -10 7 -12 7 C-11.34 5.68 -10.68 4.36 -10 3 C-7.36 3.33 -4.72 3.66 -2 4 C-2 3.01 -2 2.02 -2 1 C-1.34 0.67 -0.68 0.34 0 0 Z " fill="#695632" transform="translate(123,55)"/>
<path d="M0 0 C2.26676602 4.53353204 2.26676602 4.53353204 1.75 8.0625 C1.61851562 9.06990234 1.61851562 9.06990234 1.484375 10.09765625 C1 12 1 12 -1 15 C-1 13.68 -1 12.36 -1 11 C-1.66 11 -2.32 11 -3 11 C-2.01 7.37 -1.02 3.74 0 0 Z " fill="#325992" transform="translate(136,51)"/>
<path d="M0 0 C-0.90492187 0.79664063 -0.90492187 0.79664063 -1.828125 1.609375 C-2.62734375 2.31578125 -3.4265625 3.0221875 -4.25 3.75 C-5.03890625 4.44609375 -5.8278125 5.1421875 -6.640625 5.859375 C-8.83011856 7.84586916 -10.92901285 9.89101308 -13 12 C-11.31692329 6.79776289 -8.42137439 2.59118889 -3.8125 -0.4375 C-2 -1 -2 -1 0 0 Z " fill="#2A1504" transform="translate(97,54)"/>
<path d="M0 0 C0.33 0 0.66 0 1 0 C1.63934602 5.11476819 -0.59466453 8.67254378 -3 13 C-3.66 12.67 -4.32 12.34 -5 12 C-4.54965877 10.37276701 -4.08944646 8.74826336 -3.625 7.125 C-3.36976562 6.22007813 -3.11453125 5.31515625 -2.8515625 4.3828125 C-2 2 -2 2 0 0 Z " fill="#56423D" transform="translate(34,115)"/>
<path d="M0 0 C3.32901247 2.21934164 3.75023244 3.34683329 5 7 C1.7 7 -1.6 7 -5 7 C-5.33 6.34 -5.66 5.68 -6 5 C-3.525 5.495 -3.525 5.495 -1 6 C-0.67 4.02 -0.34 2.04 0 0 Z " fill="#271D11" transform="translate(34,122)"/>
<path d="M0 0 C3.96 1.98 3.96 1.98 8 4 C8.17835515 8.54805635 7.99785435 11.8794254 6 16 C4.7619986 12.42355152 5.25073929 9.66305234 6 6 C5.01 5.38125 4.02 4.7625 3 4.125 C2.01 3.42375 1.02 2.7225 0 2 C0 1.34 0 0.68 0 0 Z " fill="#665D51" transform="translate(127,43)"/>
<path d="M0 0 C0.66 0.33 1.32 0.66 2 1 C1.50269348 5.97306516 0.44697666 9.63799813 -2 14 C-2.66 13.67 -3.32 13.34 -4 13 C-3.71125 12.154375 -3.4225 11.30875 -3.125 10.4375 C-1.99227296 6.97638959 -0.98175684 3.50627443 0 0 Z " fill="#6B5450" transform="translate(51,68)"/>
<path d="M0 0 C0.66 0 1.32 0 2 0 C1.49202991 4.3177458 0.80317221 8.03302114 -1 12 C-1.33 12 -1.66 12 -2 12 C-2 8.7 -2 5.4 -2 2 C-1.34 2 -0.68 2 0 2 C0 1.34 0 0.68 0 0 Z " fill="#6F4D30" transform="translate(54,64)"/>
<path d="M0 0 C0.66 0 1.32 0 2 0 C1.67 2.31 1.34 4.62 1 7 C0.34 7 -0.32 7 -1 7 C-1.12375 7.804375 -1.2475 8.60875 -1.375 9.4375 C-1.58125 10.283125 -1.7875 11.12875 -2 12 C-2.99 12.495 -2.99 12.495 -4 13 C-3.52511102 11.01980257 -3.04497141 9.04086365 -2.5625 7.0625 C-2.29566406 5.96035156 -2.02882813 4.85820312 -1.75390625 3.72265625 C-1 1 -1 1 0 0 Z " fill="#4C2303" transform="translate(93,24)"/>
<path d="M0 0 C-2.64 2.97 -5.28 5.94 -8 9 C-9 6 -9 6 -7.8125 2.875 C-6 0 -6 0 -3.9375 -0.9375 C-2 -1 -2 -1 0 0 Z " fill="#41372D" transform="translate(94,53)"/>
<path d="M0 0 C1.12377697 3.30435084 0.89554742 5.0506862 -0.4375 8.25 C-0.72496094 8.95640625 -1.01242188 9.6628125 -1.30859375 10.390625 C-1.53675781 10.92171875 -1.76492187 11.4528125 -2 12 C-3.125 10.3125 -3.125 10.3125 -4 8 C-3.08326247 4.86781344 -1.81982071 2.72973106 0 0 Z " fill="#765D56" transform="translate(63,40)"/>
<path d="M0 0 C0.66 0.33 1.32 0.66 2 1 C1.01 1.33 0.02 1.66 -1 2 C-1.33 2.99 -1.66 3.98 -2 5 C-2.99 5.66 -3.98 6.32 -5 7 C-6.32 6.67 -7.64 6.34 -9 6 C-6.03 4.02 -3.06 2.04 0 0 Z " fill="#5C473D" transform="translate(110,41)"/>
<path d="M0 0 C1.1484375 1.734375 1.1484375 1.734375 2 4 C1.1015625 6.140625 1.1015625 6.140625 -0.375 8.25 C-0.85710938 8.95640625 -1.33921875 9.6628125 -1.8359375 10.390625 C-2.22007813 10.92171875 -2.60421875 11.4528125 -3 12 C-4 10 -4 10 -3.22265625 7.6171875 C-2.83980469 6.71226563 -2.45695312 5.80734375 -2.0625 4.875 C-1.68222656 3.96492188 -1.30195312 3.05484375 -0.91015625 2.1171875 C-0.60980469 1.41851562 -0.30945312 0.71984375 0 0 Z " fill="#63627E" transform="translate(40,93)"/>
<path d="M0 0 C2.125 0.375 2.125 0.375 4 1 C3.67 1.66 3.34 2.32 3 3 C2.34 2.67 1.68 2.34 1 2 C1 3.65 1 5.3 1 7 C-0.32 6.67 -1.64 6.34 -3 6 C-2.42655063 3.13275314 -2.1385485 2.1385485 0 0 Z " fill="#341F1B" transform="translate(88,15)"/>
<path d="M0 0 C0.33 0.66 0.66 1.32 1 2 C-1.64 2.66 -4.28 3.32 -7 4 C-7.66 3.01 -8.32 2.02 -9 1 C-6.04335481 -0.4783226 -3.25770263 -0.06032783 0 0 Z " fill="#070502" transform="translate(102,68)"/>
<path d="M0 0 C1.24028683 4.51953004 0.77524649 6.63556617 -1.5625 10.75 C-2.036875 11.4925 -2.51125 12.235 -3 13 C-4 11 -4 11 -3.22265625 8.3984375 C-2.83980469 7.40070313 -2.45695312 6.40296875 -2.0625 5.375 C-1.68222656 4.37210937 -1.30195312 3.36921875 -0.91015625 2.3359375 C-0.60980469 1.56507812 -0.30945312 0.79421875 0 0 Z " fill="#6C6D8A" transform="translate(49,69)"/>
<path d="M0 0 C2.475 0.99 2.475 0.99 5 2 C2.33333333 3.33333333 -0.33333333 4.66666667 -3 6 C-1.125 1.125 -1.125 1.125 0 0 Z " fill="#240F04" transform="translate(117,41)"/>
<path d="M0 0 C0.33 1.65 0.66 3.3 1 5 C-1.97 4.505 -1.97 4.505 -5 4 C-5 3.01 -5 2.02 -5 1 C-2 0 -2 0 0 0 Z " fill="#634943" transform="translate(118,52)"/>
<path d="M0 0 C1.98 0.99 1.98 0.99 4 2 C4 3.32 4 4.64 4 6 C3.01 6 2.02 6 1 6 C0.67 4.02 0.34 2.04 0 0 Z " fill="#3B190C" transform="translate(91,18)"/>
<path d="M0 0 C0.33 0.99 0.66 1.98 1 3 C1.66 3 2.32 3 3 3 C2.625 5.4375 2.625 5.4375 2 8 C1.01 8.495 1.01 8.495 0 9 C0 6.03 0 3.06 0 0 Z " fill="#291B04" transform="translate(123,72)"/>
<path d="M0 0 C1.0625 1.8125 1.0625 1.8125 2 4 C1.67 4.99 1.34 5.98 1 7 C0.34 7 -0.32 7 -1 7 C-1.33 7.99 -1.66 8.98 -2 10 C-3 8 -3 8 -2.44140625 6.0546875 C-2.15136719 5.33539063 -1.86132812 4.61609375 -1.5625 3.875 C-1.27503906 3.15054688 -0.98757812 2.42609375 -0.69140625 1.6796875 C-0.46324219 1.12539063 -0.23507813 0.57109375 0 0 Z " fill="#6B6588" transform="translate(53,59)"/>
<path d="M0 0 C2 2 2 2 2 5 C0.35 4.67 -1.3 4.34 -3 4 C-3 3.34 -3 2.68 -3 2 C-2.01 1.34 -1.02 0.68 0 0 Z " fill="#AFB3AF" transform="translate(107,61)"/>
<path d="M0 0 C1.98 0.66 3.96 1.32 6 2 C6 2.66 6 3.32 6 4 C4.35 4 2.7 4 1 4 C0.67 2.68 0.34 1.36 0 0 Z " fill="#A3957F" transform="translate(112,55)"/>
<path d="M0 0 C1.98 0.66 3.96 1.32 6 2 C6 2.66 6 3.32 6 4 C3.03 3.505 3.03 3.505 0 3 C0 2.01 0 1.02 0 0 Z " fill="#9FA1A3" transform="translate(120,46)"/>
</svg>
