<?xml version="1.0" standalone="no"?>
<!DOCTYPE svg PUBLIC "-//W3C//DTD SVG 20010904//EN"
 "http://www.w3.org/TR/2001/REC-SVG-20010904/DTD/svg10.dtd">
<svg version="1.0" xmlns="http://www.w3.org/2000/svg"
 width="120.000000pt" height="101.000000pt" viewBox="0 0 120.000000 101.000000"
 preserveAspectRatio="xMidYMid meet">

<g transform="translate(0.000000,101.000000) scale(0.100000,-0.100000)"
fill="#000000" stroke="none">
<path d="M533 835 c1 -60 3 -61 66 -49 17 4 31 10 31 14 0 17 -66 89 -82 89
-14 1 -16 -9 -15 -54z"/>
<path d="M572 654 c-6 -23 -12 -51 -12 -63 0 -11 -4 -21 -9 -21 -4 0 -20 -10
-35 -21 -24 -19 -26 -23 -12 -38 14 -15 13 -20 -4 -49 -11 -18 -24 -32 -29
-32 -12 0 -41 -28 -41 -40 0 -4 14 -13 32 -19 25 -9 49 -8 108 4 41 9 83 20
92 26 10 5 28 9 40 9 13 0 35 7 51 14 15 8 27 11 27 7 0 -4 23 -6 51 -3 50 5
51 4 44 -19 -12 -39 -46 -89 -60 -89 -15 0 -77 -31 -85 -42 -13 -17 -88 -20
-117 -4 -17 8 -33 13 -36 10 -2 -3 -43 0 -90 7 -97 13 -153 40 -179 85 l-18
31 42 -2 c24 -1 52 -6 62 -10 16 -7 18 -5 13 9 -4 10 -7 26 -7 37 0 10 -5 19
-12 19 -6 0 -20 7 -30 16 -14 14 -20 14 -33 4 -8 -7 -15 -19 -15 -26 0 -8 -5
-14 -10 -14 -6 0 -15 -10 -20 -22 -7 -18 -9 -19 -9 -5 -1 20 -12 22 -30 5 -10
-11 -11 -5 -6 28 6 37 4 43 -26 68 -29 25 -38 27 -78 21 -69 -10 -74 -16 -43
-52 15 -17 35 -41 44 -52 13 -15 29 -21 58 -21 45 0 46 -1 24 -38 -16 -26 -16
-26 10 3 l26 30 28 -34 c15 -19 39 -47 54 -63 25 -27 26 -29 7 -38 -10 -6 -29
-8 -42 -5 -12 4 -35 2 -49 -4 -21 -8 -32 -5 -57 13 -44 33 -99 22 -152 -30
l-40 -39 63 -12 c70 -14 113 -5 135 26 13 19 14 19 37 -4 31 -30 85 -45 169
-45 45 0 66 -4 62 -10 -4 -6 -1 -17 5 -25 15 -18 115 -15 133 5 10 10 8 12 -6
6 -11 -3 -31 -8 -45 -11 -23 -5 -24 -4 -7 4 11 5 29 12 40 16 20 7 20 7 -1 23
-20 16 -20 16 13 39 19 13 45 23 59 23 45 0 133 31 165 57 16 14 43 49 59 77
26 44 30 47 30 25 0 -51 12 -88 26 -82 9 3 13 22 11 63 -1 33 2 63 7 67 4 4
23 -9 42 -29 34 -37 54 -36 34 2 -15 27 -6 38 25 32 31 -5 70 26 79 64 7 27
-26 114 -43 114 -6 0 -16 -10 -22 -22 -17 -32 -61 -72 -113 -102 -25 -14 -47
-26 -49 -26 -2 0 -7 14 -11 30 -5 28 -42 79 -49 69 -1 -2 -10 -21 -20 -41 -9
-21 -23 -38 -32 -38 -9 0 -15 -9 -15 -24 0 -20 -6 -24 -41 -29 -46 -6 -89 6
-90 25 0 7 -2 27 -5 45 -2 18 1 35 6 38 6 3 10 11 10 17 0 6 -11 1 -24 -12
l-25 -23 -7 27 c-3 14 -9 50 -13 79 l-6 52 -13 -41z m432 -160 c9 -25 7 -34
-8 -34 -19 0 -29 17 -22 35 7 20 22 19 30 -1z m-582 -234 c104 -21 104 -21 88
-30 -24 -13 -132 -33 -168 -31 -76 4 -114 41 -42 41 22 0 45 6 52 15 16 18 7
17 70 5z"/>
<path d="M998 324 c-50 -47 -47 -57 8 -24 29 18 53 55 42 65 -2 2 -24 -16 -50
-41z"/>
<path d="M1015 290 c-8 -13 -1 -24 14 -19 6 3 7 10 2 18 -6 10 -10 10 -16 1z"/>
<path d="M1077 220 c23 -5 54 -5 70 0 21 6 12 8 -42 8 -64 0 -66 -1 -28 -8z"/>
</g>
</svg>
