<?xml version="1.0" encoding="UTF-8"?>
<svg version="1.1" xmlns="http://www.w3.org/2000/svg" width="120" height="101">
<path d="M0 0 C3.90807404 0.08495813 5.51993984 0.51993984 8.3125 3.3125 C9.79132141 5.66766002 10.59742646 7.28262861 11 10 C11.99 9.67 12.98 9.34 14 9 C18.43265657 8.60932518 22.56711733 8.44638624 26.75 10.0625 C36.24842521 18.24169948 39.24082996 27.82469159 41 40 C49.24432106 34.71086245 49.24432106 34.71086245 55 27 C57.65354511 27.97296654 58.79877896 28.65792423 60.25 31.125 C61.44412197 35.70246756 61.9179004 40.01121579 59.875 44.4375 C57.32433057 46.56305786 55.27310883 46.79107816 52 47 C51.34 46.67 50.68 46.34 50 46 C50.495 46.70125 50.99 47.4025 51.5 48.125 C53.23207859 51.44481731 53.39312998 53.30457817 53 57 C52 59.375 52 59.375 51 61 C51.721875 61.0825 52.44375 61.165 53.1875 61.25 C56 62 56 62 58.4375 64 C61.3607084 66.28152851 63.35586806 66.66101098 67 67 C65.8984375 68.4765625 65.8984375 68.4765625 64 70 C61.0390625 70.3984375 61.0390625 70.3984375 57.625 70.375 C56.50351563 70.38273437 55.38203125 70.39046875 54.2265625 70.3984375 C50.70569397 69.96365712 48.88050148 69.01034999 46 67 C45.13375 66.505 44.2675 66.01 43.375 65.5 C39.35048232 62.95819936 39.35048232 62.95819936 38 61 C37.45238185 58.32039273 37.22430535 55.73652521 37 53 C36.47212891 53.77923828 36.47212891 53.77923828 35.93359375 54.57421875 C30.78226532 61.85063828 25.90282738 66.12572055 17 68 C15.58424126 68.15439883 14.16751468 68.30015397 12.75 68.4375 C9.07970636 68.67366563 9.07970636 68.67366563 7 70.5625 C6.67 71.036875 6.34 71.51125 6 72 C7.32 73.32 8.64 74.64 10 76 C7.2080657 79.21072445 5.19747628 79.73754838 1.0703125 80.23046875 C-1.0625 80.375 -1.0625 80.375 -5 80 C-5.433125 79.175 -5.86625 78.35 -6.3125 77.5 C-6.869375 76.675 -7.42625 75.85 -8 75 C-10.70223114 74.72977689 -13.29621396 74.88584879 -16.0078125 75.01171875 C-22.41825671 74.98661257 -28.04481155 73.02961794 -33 69 C-33 69.66 -33 70.32 -33 71 C-38.73127053 74.82084702 -46.45029223 73.13907961 -53 72 C-52.78320856 68.20614979 -52.0563797 67.0563797 -49.3125 64.3125 C-45.10303646 61.1024055 -41.29521165 60 -36 60 C-35.690625 59.05125 -35.38125 58.1025 -35.0625 57.125 C-34 54 -34 54 -33 52 C-34.485 51.814375 -34.485 51.814375 -36 51.625 C-41.74741203 50.07355135 -44.72149341 44.61545603 -48 40 C-47.67 39.34 -47.34 38.68 -47 38 C-42.20319417 36.47886527 -37.67039398 35.31820654 -32.9375 37.25 C-31.59243896 38.46489384 -30.28163104 39.71836896 -29 41 C-28.82984375 40.11699219 -28.6596875 39.23398437 -28.484375 38.32421875 C-24.09832537 16.60394109 -24.09832537 16.60394109 -17 11 C-14.52621876 9.76310938 -12.82084683 9.86689913 -10.0625 9.875 C-9.18722656 9.87242188 -8.31195313 9.86984375 -7.41015625 9.8671875 C-5 10 -5 10 -2 11 C-0.74068033 8.02605098 -0.74068033 8.02605098 -1.5625 4.9375 C-1.706875 3.968125 -1.85125 2.99875 -2 2 C-1.34 1.34 -0.68 0.68 0 0 Z M45 41 C44.67 41.66 44.34 42.32 44 43 C44.99 43.33 45.98 43.66 47 44 C46.67 43.01 46.34 42.02 46 41 C45.67 41 45.34 41 45 41 Z M43 47 C41.12356239 48.87643761 41.82015013 51.49805701 41.76953125 53.9921875 C41.88168663 56.31674328 41.88168663 56.31674328 44 59 C46.0995533 57.84315671 46.0995533 57.84315671 48 56 C48.75021244 53.54367668 48.75021244 53.54367668 48 51 C45.60140956 48.66369252 45.60140956 48.66369252 43 47 Z M-29 52 C-29.83905565 53.12073862 -30.67107831 54.24674547 -31.5 55.375 C-31.9640625 56.00148438 -32.428125 56.62796875 -32.90625 57.2734375 C-34.17838101 58.94094613 -34.17838101 58.94094613 -34 61 C-33.34 61 -32.68 61 -32 61 C-31.67 61.99 -31.34 62.98 -31 64 C-25.06 63.505 -25.06 63.505 -19 63 C-19.9075 61.55625 -20.815 60.1125 -21.75 58.625 C-22.26046875 57.81289062 -22.7709375 57.00078125 -23.296875 56.1640625 C-25.0673335 53.91444321 -26.36907419 53.04093152 -29 52 Z M-23 68 C-19.40412047 70.29149186 -16.680018 70.1143135 -12.5 69.75 C-10.81390625 69.61851563 -10.81390625 69.61851563 -9.09375 69.484375 C-6.27302871 69.04274692 -4.42600506 68.45084617 -2 67 C-3.77021322 66.663389 -5.54119674 66.33082707 -7.3125 66 C-8.29863281 65.814375 -9.28476562 65.62875 -10.30078125 65.4375 C-15.41255127 64.60896419 -18.33207532 65.88622279 -23 68 Z " fill="#F0850F" transform="translate(53,10)"/>
<path d="M0 0 C2.65354511 0.97296654 3.79877896 1.65792423 5.25 4.125 C6.44412197 8.70246756 6.9179004 13.01121579 4.875 17.4375 C2.32433057 19.56305786 0.27310883 19.79107816 -3 20 C-3.66 19.67 -4.32 19.34 -5 19 C-4.505 19.70125 -4.01 20.4025 -3.5 21.125 C-1.76792141 24.44481731 -1.60687002 26.30457817 -2 30 C-3 32.375 -3 32.375 -4 34 C-3.278125 34.0825 -2.55625 34.165 -1.8125 34.25 C1 35 1 35 3.4375 37 C6.3607084 39.28152851 8.35586806 39.66101098 12 40 C10.8984375 41.4765625 10.8984375 41.4765625 9 43 C6.0390625 43.3984375 6.0390625 43.3984375 2.625 43.375 C1.50351563 43.38273437 0.38203125 43.39046875 -0.7734375 43.3984375 C-4.29430603 42.96365712 -6.11949852 42.01034999 -9 40 C-9.86625 39.505 -10.7325 39.01 -11.625 38.5 C-15.64951768 35.95819936 -15.64951768 35.95819936 -17 34 C-17.54761815 31.32039273 -17.77569465 28.73652521 -18 26 C-18.52787109 26.77923828 -18.52787109 26.77923828 -19.06640625 27.57421875 C-24.21773468 34.85063828 -29.09717262 39.12572055 -38 41 C-39.41575874 41.15439883 -40.83248532 41.30015397 -42.25 41.4375 C-45.92029364 41.67366563 -45.92029364 41.67366563 -48 43.5625 C-48.33 44.036875 -48.66 44.51125 -49 45 C-47.68 46.32 -46.36 47.64 -45 49 C-47.7919343 52.21072445 -49.80252372 52.73754838 -53.9296875 53.23046875 C-56.0625 53.375 -56.0625 53.375 -60 53 C-60.433125 52.175 -60.86625 51.35 -61.3125 50.5 C-61.869375 49.675 -62.42625 48.85 -63 48 C-65.70223114 47.72977689 -68.29621396 47.88584879 -71.0078125 48.01171875 C-77.41825671 47.98661257 -83.04481155 46.02961794 -88 42 C-88 42.66 -88 43.32 -88 44 C-93.73127053 47.82084702 -101.45029223 46.13907961 -108 45 C-107.78320856 41.20614979 -107.0563797 40.0563797 -104.3125 37.3125 C-100.10303646 34.1024055 -96.29521165 33 -91 33 C-90.690625 32.05125 -90.38125 31.1025 -90.0625 30.125 C-89 27 -89 27 -88 25 C-88.99 24.87625 -89.98 24.7525 -91 24.625 C-96.74741203 23.07355135 -99.72149341 17.61545603 -103 13 C-102.67 12.34 -102.34 11.68 -102 11 C-97.25817136 9.49629931 -92.69791095 8.32791025 -88 10.1875 C-87.34 10.785625 -86.68 11.38375 -86 12 C-85.443125 12.4125 -84.88625 12.825 -84.3125 13.25 C-82.32279578 15.90293896 -81.78099094 18.81596003 -81 22 C-80.34 22 -79.68 22 -79 22 C-77.921875 23.64453125 -77.921875 23.64453125 -76.75 25.8125 C-74.28640463 29.81938212 -72.64633435 31.58950564 -68 33 C-64.71709645 33.34735238 -61.44460639 33.56897471 -58.1484375 33.75 C-54.49126812 34.04039558 -51.44903059 34.79684979 -48 36 C-48 36.66 -48 37.32 -48 38 C-38.59609197 39.16623269 -32.53364363 36.58548168 -25 31 C-21.45954034 27.85963493 -19.42569808 24.82457825 -19 20 C-18.01 20 -17.02 20 -16 20 C-16.103125 19.2575 -16.20625 18.515 -16.3125 17.75 C-16 15 -16 15 -13.9375 13 C-12.38164505 11.9406945 -10.82363957 10.88426347 -9.25 9.8515625 C-5.03197926 6.99712605 -2.56772595 4.41648863 0 0 Z M-10 14 C-10.33 14.66 -10.66 15.32 -11 16 C-10.01 16.33 -9.02 16.66 -8 17 C-8.33 16.01 -8.66 15.02 -9 14 C-9.33 14 -9.66 14 -10 14 Z M-12 20 C-13.87643761 21.87643761 -13.17984987 24.49805701 -13.23046875 26.9921875 C-13.11831337 29.31674328 -13.11831337 29.31674328 -11 32 C-8.9004467 30.84315671 -8.9004467 30.84315671 -7 29 C-6.24978756 26.54367668 -6.24978756 26.54367668 -7 24 C-9.39859044 21.66369252 -9.39859044 21.66369252 -12 20 Z M-84 25 C-84.83905565 26.12073862 -85.67107831 27.24674547 -86.5 28.375 C-86.9640625 29.00148438 -87.428125 29.62796875 -87.90625 30.2734375 C-89.17838101 31.94094613 -89.17838101 31.94094613 -89 34 C-88.34 34 -87.68 34 -87 34 C-86.67 34.99 -86.34 35.98 -86 37 C-80.06 36.505 -80.06 36.505 -74 36 C-74.9075 34.55625 -75.815 33.1125 -76.75 31.625 C-77.26046875 30.81289062 -77.7709375 30.00078125 -78.296875 29.1640625 C-80.0673335 26.91444321 -81.36907419 26.04093152 -84 25 Z M-78 41 C-74.40412047 43.29149186 -71.680018 43.1143135 -67.5 42.75 C-65.81390625 42.61851563 -65.81390625 42.61851563 -64.09375 42.484375 C-61.27302871 42.04274692 -59.42600506 41.45084617 -57 40 C-58.77021322 39.663389 -60.54119674 39.33082707 -62.3125 39 C-63.29863281 38.814375 -64.28476563 38.62875 -65.30078125 38.4375 C-70.41255127 37.60896419 -73.33207532 38.88622279 -78 41 Z " fill="#17520A" transform="translate(108,37)"/>
<path d="M0 0 C3.90807404 0.08495813 5.51993984 0.51993984 8.3125 3.3125 C9.79132141 5.66766002 10.59742646 7.28262861 11 10 C11.99 9.67 12.98 9.34 14 9 C18.43265657 8.60932518 22.56711733 8.44638624 26.75 10.0625 C34.28995522 16.55523922 38.40373535 24.12506871 40 34 C40.11678799 36.67678073 40.0454506 39.31841457 40 42 C39.01 42.495 39.01 42.495 38 43 C37.5978125 41.63875 37.5978125 41.63875 37.1875 40.25 C36.10423706 37.28528037 35.01640543 35.3830246 33 33 C29.53876866 34.15374378 28.98850152 35.03672292 26.9375 37.9375 C25.36341071 40.14442927 23.92088796 42.07911204 22 44 C18.5 44.25 18.5 44.25 15 44 C13 42 13 42 12.5625 39.25 C13.16832695 34.7495712 14.81259432 33.18740568 18 30 C18.66 30 19.32 30 20 30 C20 28.68 20 27.36 20 26 C19.4225 25.855625 18.845 25.71125 18.25 25.5625 C16 25 16 25 13.9375 24.25 C13.298125 24.1675 12.65875 24.085 12 24 C10.41666667 25.41666667 10.41666667 25.41666667 9 27 C8.01 27 7.02 27 6 27 C5.505 23.535 5.505 23.535 5 20 C4.505 21.485 4.505 21.485 4 23 C2.35 23 0.7 23 -1 23 C-1.66 24.32 -2.32 25.64 -3 27 C-3.66 27 -4.32 27 -5 27 C-5.12375 27.78375 -5.2475 28.5675 -5.375 29.375 C-6 32 -6 32 -8 34 C-8.41666667 37 -8.41666667 37 -8 40 C-7.01 40.66 -6.02 41.32 -5 42 C-5 43.32 -5 44.64 -5 46 C-7.70879335 47.35439668 -10.00933268 47.06501451 -13 47 C-13.268125 46.401875 -13.53625 45.80375 -13.8125 45.1875 C-14.86180044 42.95707307 -14.86180044 42.95707307 -16.625 41.5625 C-18 40 -18 40 -18.1875 37.3125 C-18.125625 36.549375 -18.06375 35.78625 -18 35 C-14.535 34.505 -14.535 34.505 -11 34 C-10.79375 32.700625 -10.5875 31.40125 -10.375 30.0625 C-9.17814289 24.51823545 -6.36808971 20.48019481 -3 16 C-6.36049511 16 -7.51586559 16.65849563 -10.375 18.3125 C-11.12523438 18.74175781 -11.87546875 19.17101562 -12.6484375 19.61328125 C-13.42445312 20.07089844 -14.20046875 20.52851563 -15 21 C-15.86496094 21.44214844 -16.72992188 21.88429688 -17.62109375 22.33984375 C-20.51645467 24.36041582 -21.32850569 26.01730921 -22.6875 29.25 C-23.30238281 30.70599609 -23.30238281 30.70599609 -23.9296875 32.19140625 C-25.16706735 35.43839935 -26.17528193 38.62615335 -27 42 C-27.33 42 -27.66 42 -28 42 C-28.2453242 36.07906729 -27.5581756 31.4138066 -25.6875 25.8125 C-25.47416016 25.12736328 -25.26082031 24.44222656 -25.04101562 23.73632812 C-23.46947847 18.86221737 -21.8317046 14.6096798 -17.9375 11.1875 C-12.81702454 9.11752056 -7.21459267 9.26180244 -2 11 C-0.74068033 8.02605098 -0.74068033 8.02605098 -1.5625 4.9375 C-1.706875 3.968125 -1.85125 2.99875 -2 2 C-1.34 1.34 -0.68 0.68 0 0 Z " fill="#F09816" transform="translate(53,10)"/>
<path d="M0 0 C0.33 1.32 0.66 2.64 1 4 C2.1446875 3.2884375 2.1446875 3.2884375 3.3125 2.5625 C6 1 6 1 9 0 C11 0.875 11 0.875 13 2 C13.99 2.33 14.98 2.66 16 3 C15.52727227 7.25454953 13.03562624 9.19204573 10 12 C8.65595225 13.11836224 8.65595225 13.11836224 8.875 16 C8.65595225 18.88163776 8.65595225 18.88163776 10 20 C13.28743547 20.66923762 13.28743547 20.66923762 17 20 C19.42207115 17.963894 21.18072141 15.57455485 23 13 C23.61875 12.195625 24.2375 11.39125 24.875 10.5625 C25.24625 10.046875 25.6175 9.53125 26 9 C29.40636923 10.4095321 31.23944644 11.73040054 33 15 C33.53709412 17.99016821 33.81220596 20.96939277 34 24 C33.01 24 32.02 24 31 24 C30.814375 25.7015625 30.814375 25.7015625 30.625 27.4375 C30.41875 28.613125 30.2125 29.78875 30 31 C29.01 31.495 29.01 31.495 28 32 C28.66 29.69 29.32 27.38 30 25 C27.41515574 25.45084493 24.8323671 25.91035263 22.25 26.375 C21.15558594 26.56449219 21.15558594 26.56449219 20.0390625 26.7578125 C16.34514247 27.42943432 13.32086164 28.30062517 10 30 C2.41659493 31.19441447 -5.34157963 31.13568068 -13 31 C-13.33 30.01 -13.66 29.02 -14 28 C-12.6875 25.8125 -12.6875 25.8125 -11 24 C-10.34 24 -9.68 24 -9 24 C-8.19530151 22.29887008 -8.19530151 22.29887008 -8 20 C-9.35814007 16.78287055 -9.35814007 16.78287055 -11 14 C-10.34 13.34 -9.68 12.68 -9 12 C-8.566875 10.2984375 -8.566875 10.2984375 -8.125 8.5625 C-6.95516595 4.8580255 -6.29115778 3.86498941 -3 2 C-2.34 2.33 -1.68 2.66 -1 3 C-0.67 2.01 -0.34 1.02 0 0 Z " fill="#EE6F08" transform="translate(58,33)"/>
<path d="M0 0 C3.90807404 0.08495813 5.51993984 0.51993984 8.3125 3.3125 C9.79132141 5.66766002 10.59742646 7.28262861 11 10 C11.99 9.67 12.98 9.34 14 9 C18.43265657 8.60932518 22.56711733 8.44638624 26.75 10.0625 C32.8248265 15.2936006 37.07538228 21.07588429 39 29 C38.59765625 31.30078125 38.59765625 31.30078125 38 33 C37.3291288 31.3767313 36.66342971 29.75132422 36 28.125 C35.62875 27.22007813 35.2575 26.31515625 34.875 25.3828125 C34 23 34 23 34 21 C31.06279492 19.47700477 28.0831351 18.19899698 25 17 C25 16.34 25 15.68 25 15 C24.34 15 23.68 15 23 15 C22.67 16.32 22.34 17.64 22 19 C21.505 18.01 21.505 18.01 21 17 C20.01 17 19.02 17 18 17 C18.66 18.32 19.32 19.64 20 21 C19.2575 20.175 18.515 19.35 17.75 18.5 C13.78623891 15.20790249 9.77751397 15.1817671 4.77734375 15.3671875 C1.60395142 16.09023892 0.78469709 16.71741369 -1 19.375 C-1.34417969 20.01308594 -1.68835938 20.65117187 -2.04296875 21.30859375 C-3.27544645 23.48680945 -4.65456125 24.21818708 -7 25 C-6.49701212 20.59885603 -4.91227269 18.28804981 -2 15 C-2.70253906 15.28101563 -3.40507813 15.56203125 -4.12890625 15.8515625 C-6.04488594 16.61795438 -7.9696259 17.36279408 -9.90234375 18.0859375 C-17.47343798 21.30146015 -20.74373119 24.49438572 -23.953125 32.07421875 C-25.13380487 35.37395466 -26.22319197 38.58204466 -27 42 C-27.33 42 -27.66 42 -28 42 C-28.2453242 36.07906729 -27.5581756 31.4138066 -25.6875 25.8125 C-25.47416016 25.12736328 -25.26082031 24.44222656 -25.04101562 23.73632812 C-23.46947847 18.86221737 -21.8317046 14.6096798 -17.9375 11.1875 C-12.81702454 9.11752056 -7.21459267 9.26180244 -2 11 C-0.74068033 8.02605098 -0.74068033 8.02605098 -1.5625 4.9375 C-1.706875 3.968125 -1.85125 2.99875 -2 2 C-1.34 1.34 -0.68 0.68 0 0 Z " fill="#E8C545" transform="translate(53,10)"/>
<path d="M0 0 C3.4349399 2.59528793 4.78263095 4.33581678 6.125 8.4375 C5.95950213 13.15418939 4.12973779 14.57912381 1 18 C-0.32350658 21.21265916 -0.32350658 21.21265916 -1 24 C-0.34 24 0.32 24 1 24 C1.33 24.66 1.66 25.32 2 26 C4.12563103 25.88623383 6.2505261 25.75864369 8.375 25.625 C9.55835937 25.55539063 10.74171875 25.48578125 11.9609375 25.4140625 C15.10562319 25.29782654 15.10562319 25.29782654 17 23 C16.50168276 26.68754757 15.89932357 28.60490662 13 31 C14.00836062 32.23267348 14.00836062 32.23267348 16.06640625 32.09765625 C17.30197266 32.08025391 17.30197266 32.08025391 18.5625 32.0625 C19.38878906 32.05347656 20.21507812 32.04445312 21.06640625 32.03515625 C21.70449219 32.02355469 22.34257813 32.01195312 23 32 C23 32.66 23 33.32 23 34 C17.14758839 35.95080387 11.70485399 35.16784451 6 33 C5.67 32.01 5.34 31.02 5 30 C4.01 30 3.02 30 2 30 C2 30.66 2 31.32 2 32 C1.34 32 0.68 32 0 32 C0 32.66 0 33.32 0 34 C-5.73127053 37.82084702 -13.45029223 36.13907961 -20 35 C-19.78320856 31.20614979 -19.0563797 30.0563797 -16.3125 27.3125 C-12.10303646 24.1024055 -8.29521165 23 -3 23 C-2.690625 22.05125 -2.38125 21.1025 -2.0625 20.125 C-1 17 -1 17 0 15 C-0.99 14.87625 -1.98 14.7525 -3 14.625 C-8.74741203 13.07355135 -11.72149341 7.61545603 -15 3 C-14.67 2.34 -14.34 1.68 -14 1 C-9.03283278 -0.59959622 -5.09397134 -1.69799045 0 0 Z " fill="#27801C" transform="translate(20,47)"/>
<path d="M0 0 C0.66 0 1.32 0 2 0 C1.66675422 6.66491565 -1.90845728 11.19143602 -6.70703125 15.55078125 C-11.76434947 19.42082837 -16.95487236 20.82755162 -23.25 21.4375 C-26.92029364 21.67366563 -26.92029364 21.67366563 -29 23.5625 C-29.495 24.2740625 -29.495 24.2740625 -30 25 C-28.68 26.32 -27.36 27.64 -26 29 C-28.7919343 32.21072445 -30.80252372 32.73754838 -34.9296875 33.23046875 C-37.0625 33.375 -37.0625 33.375 -41 33 C-41.433125 32.175 -41.86625 31.35 -42.3125 30.5 C-42.869375 29.675 -43.42625 28.85 -44 28 C-46.70046492 27.72995351 -49.29040124 27.88591017 -52 28.015625 C-57.31330193 27.98795155 -63.1673201 26.8326799 -67 23 C-67 22.01 -67 21.02 -67 20 C-66.01 20 -65.02 20 -64 20 C-63.54625 20.474375 -63.0925 20.94875 -62.625 21.4375 C-58.49343143 25.41016209 -51.35469868 24.09357726 -46 24 C-46 23.34 -46 22.68 -46 22 C-44.35 21.34 -42.7 20.68 -41 20 C-42.74906659 19.80398392 -44.49931846 19.61852597 -46.25 19.4375 C-47.22453125 19.33308594 -48.1990625 19.22867188 -49.203125 19.12109375 C-51.7631352 19.01025532 -53.58148159 19.22261908 -56 20 C-55.01 19.01 -54.02 18.02 -53 17 C-54.19205996 15.80794004 -55.54740252 14.78898933 -56.875 13.75 C-59.64875659 11.47392701 -61.21549599 9.12288201 -63 6 C-65.24362573 5.7715451 -65.24362573 5.7715451 -67.125 8 C-67.74375 8.66 -68.3625 9.32 -69 10 C-67.83620352 6.68765616 -66.88761214 4.1101781 -64 2 C-62.68 2 -61.36 2 -60 2 C-58.7265625 3.64453125 -58.7265625 3.64453125 -57.625 5.8125 C-55.23062552 9.8700328 -53.6646427 11.58394775 -49 13 C-45.71709645 13.34735238 -42.44460639 13.56897471 -39.1484375 13.75 C-35.49126812 14.04039558 -32.44903059 14.79684979 -29 16 C-29 16.66 -29 17.32 -29 18 C-19.59609197 19.16623269 -13.53364363 16.58548168 -6 11 C-2.45954034 7.85963493 -0.42569808 4.82457825 0 0 Z " fill="#213C05" transform="translate(89,57)"/>
<path d="M0 0 C-1.05875074 3.40312738 -2.00902154 6.01353231 -4 9 C-6.29598193 10.08301035 -8.63477442 11.07796291 -11 12 C-11.825 12.4125 -12.65 12.825 -13.5 13.25 C-16.24722369 14.07416711 -18.11657718 13.77565865 -20.90869141 13.32958984 C-23.19370652 12.96947189 -25.48237916 12.6764893 -27.77734375 12.38671875 C-29.49746115 12.15412839 -31.21751219 11.92104673 -32.9375 11.6875 C-33.79279297 11.58244141 -34.64808594 11.47738281 -35.52929688 11.36914062 C-41.09676643 10.59198812 -46.4011761 9.41285493 -51 6 C-51.33 5.01 -51.66 4.02 -52 3 C-49.05340937 3.41115218 -46.42818161 3.81484039 -43.6875 5 C-39.91144284 6.40504452 -36.03659428 7.08665319 -32 7 C-30.65930156 6.34827159 -29.32611622 5.68090968 -28 5 C-25.59765625 4.69140625 -25.59765625 4.69140625 -23.0625 4.5625 C-18.86513015 4.22499219 -16.55222657 3.30414696 -13 1 C-8.62855127 0.12571025 -4.45054786 -0.10854995 0 0 Z " fill="#FEDD4D" transform="translate(85,59)"/>
<path d="M0 0 C0.33 0 0.66 0 1 0 C2.46764474 10.09005762 3.28734152 19.7834125 3 30 C-0.67387495 30.85298376 -4.0447393 31.10789471 -7.8125 31.0625 C-8.78832031 31.05347656 -9.76414062 31.04445313 -10.76953125 31.03515625 C-11.50558594 31.02355469 -12.24164063 31.01195313 -13 31 C-13.33 30.01 -13.66 29.02 -14 28 C-12.6875 25.8125 -12.6875 25.8125 -11 24 C-10.34 24 -9.68 24 -9 24 C-8.19530151 22.29887008 -8.19530151 22.29887008 -8 20 C-9.35814007 16.78287055 -9.35814007 16.78287055 -11 14 C-10.34 13.34 -9.68 12.68 -9 12 C-8.566875 10.2984375 -8.566875 10.2984375 -8.125 8.5625 C-6.95516595 4.8580255 -6.29115778 3.86498941 -3 2 C-2.34 2.33 -1.68 2.66 -1 3 C-0.67 2.01 -0.34 1.02 0 0 Z " fill="#EC6406" transform="translate(58,33)"/>
<path d="M0 0 C0.66 0 1.32 0 2 0 C1.66675422 6.66491565 -1.90845728 11.19143602 -6.70703125 15.55078125 C-12.60085369 20.06095237 -18.59311323 21.43569922 -26 21 C-26.66 20.67 -27.32 20.34 -28 20 C-29.97861741 19.95337573 -31.95869142 19.96235323 -33.9375 20 C-39.25137223 20.0530209 -44.38771029 19.76330145 -49.66015625 19.12109375 C-52.01445754 18.99925178 -53.76148171 19.30207859 -56 20 C-55.01 19.01 -54.02 18.02 -53 17 C-54.19205996 15.80794004 -55.54740252 14.78898933 -56.875 13.75 C-59.64875659 11.47392701 -61.21549599 9.12288201 -63 6 C-65.24362573 5.7715451 -65.24362573 5.7715451 -67.125 8 C-67.74375 8.66 -68.3625 9.32 -69 10 C-67.83620352 6.68765616 -66.88761214 4.1101781 -64 2 C-62.68 2 -61.36 2 -60 2 C-58.7265625 3.64453125 -58.7265625 3.64453125 -57.625 5.8125 C-55.23062552 9.8700328 -53.6646427 11.58394775 -49 13 C-45.71709645 13.34735238 -42.44460639 13.56897471 -39.1484375 13.75 C-35.49126812 14.04039558 -32.44903059 14.79684979 -29 16 C-29 16.66 -29 17.32 -29 18 C-19.59609197 19.16623269 -13.53364363 16.58548168 -6 11 C-2.45954034 7.85963493 -0.42569808 4.82457825 0 0 Z " fill="#5F1001" transform="translate(89,57)"/>
<path d="M0 0 C3.09563453 0.6208162 4.1362711 1.17559837 6.11328125 3.57421875 C6.69078125 4.56421875 7.26828125 5.55421875 7.86328125 6.57421875 C7.24839844 6.49042969 6.63351563 6.40664063 6 6.3203125 C5.19175781 6.21847656 4.38351563 6.11664062 3.55078125 6.01171875 C2.75027344 5.90730469 1.94976562 5.80289062 1.125 5.6953125 C-1.30488991 5.42666697 -1.30488991 5.42666697 -4.13671875 6.57421875 C-4.46671875 7.23421875 -4.79671875 7.89421875 -5.13671875 8.57421875 C-5.46671875 7.58421875 -5.79671875 6.59421875 -6.13671875 5.57421875 C-6.46671875 6.56421875 -6.79671875 7.55421875 -7.13671875 8.57421875 C-8.78671875 8.57421875 -10.43671875 8.57421875 -12.13671875 8.57421875 C-12.79671875 9.89421875 -13.45671875 11.21421875 -14.13671875 12.57421875 C-14.79671875 12.57421875 -15.45671875 12.57421875 -16.13671875 12.57421875 C-16.26046875 13.35796875 -16.38421875 14.14171875 -16.51171875 14.94921875 C-17.13671875 17.57421875 -17.13671875 17.57421875 -19.13671875 19.57421875 C-19.55338542 22.57421875 -19.55338542 22.57421875 -19.13671875 25.57421875 C-18.14671875 26.23421875 -17.15671875 26.89421875 -16.13671875 27.57421875 C-16.13671875 28.89421875 -16.13671875 30.21421875 -16.13671875 31.57421875 C-18.8455121 32.92861543 -21.14605143 32.63923326 -24.13671875 32.57421875 C-24.40484375 31.97609375 -24.67296875 31.37796875 -24.94921875 30.76171875 C-25.99851919 28.53129182 -25.99851919 28.53129182 -27.76171875 27.13671875 C-29.13671875 25.57421875 -29.13671875 25.57421875 -29.32421875 22.88671875 C-29.26234375 22.12359375 -29.20046875 21.36046875 -29.13671875 20.57421875 C-25.67171875 20.07921875 -25.67171875 20.07921875 -22.13671875 19.57421875 C-22.01554687 18.94773437 -21.894375 18.32125 -21.76953125 17.67578125 C-21.51816406 16.44988281 -21.51816406 16.44988281 -21.26171875 15.19921875 C-21.09929688 14.38710938 -20.936875 13.575 -20.76953125 12.73828125 C-20.13671875 10.57421875 -20.13671875 10.57421875 -18.13671875 8.57421875 C-17.47671875 8.57421875 -16.81671875 8.57421875 -16.13671875 8.57421875 C-14.08931779 6.80600883 -12.98979897 5.29954265 -11.69921875 2.88671875 C-7.99913345 -0.45238261 -4.85323858 -0.1718485 0 0 Z " fill="#EFA31D" transform="translate(64.13671875,24.42578125)"/>
<path d="M0 0 C1.14926266 0.95421808 2.29430541 1.91352045 3.4375 2.875 C4.39462891 3.67550781 4.39462891 3.67550781 5.37109375 4.4921875 C7.69284074 6.64133459 7.97953105 7.68614271 8.1875 10.875 C8.00653884 13.89101932 7.55905325 15.46653846 6 18 C6.721875 18.0825 7.44375 18.165 8.1875 18.25 C11 19 11 19 13.4375 21 C16.3607084 23.28152851 18.35586806 23.66101098 22 24 C20.8984375 25.4765625 20.8984375 25.4765625 19 27 C16.0390625 27.3984375 16.0390625 27.3984375 12.625 27.375 C11.50351563 27.38273437 10.38203125 27.39046875 9.2265625 27.3984375 C5.70569397 26.96365712 3.88050148 26.01034999 1 24 C0.13375 23.505 -0.7325 23.01 -1.625 22.5 C-3.74919583 21.15840264 -5.32339712 19.8530874 -7 18 C-6 16 -6 16 -3.0625 14.9375 C-2.051875 14.628125 -1.04125 14.31875 0 14 C0.66 13.67 1.32 13.34 2 13 C3.0795359 9.34618617 3.35356541 7.676386 1.5625 4.25 C0.7890625 3.13625 0.7890625 3.13625 0 2 C0 1.34 0 0.68 0 0 Z " fill="#44791E" transform="translate(98,53)"/>
<path d="M0 0 C0.99 0.66 1.98 1.32 3 2 C2.34 2 1.68 2 1 2 C1 2.99 1 3.98 1 5 C0.26394531 5.39832031 -0.47210938 5.79664063 -1.23046875 6.20703125 C-2.20628906 6.73683594 -3.18210937 7.26664063 -4.1875 7.8125 C-5.63189453 8.59560547 -5.63189453 8.59560547 -7.10546875 9.39453125 C-8.53826172 10.18923828 -8.53826172 10.18923828 -10 11 C-11.33417969 11.67869141 -11.33417969 11.67869141 -12.6953125 12.37109375 C-15.5309278 14.37524897 -16.35011298 16.06870729 -17.6875 19.25 C-18.30238281 20.70599609 -18.30238281 20.70599609 -18.9296875 22.19140625 C-20.16706735 25.43839935 -21.17528193 28.62615335 -22 32 C-22.33 32 -22.66 32 -23 32 C-23.2453242 26.07906729 -22.5581756 21.4138066 -20.6875 15.8125 C-20.36749023 14.78479492 -20.36749023 14.78479492 -20.04101562 13.73632812 C-18.46947847 8.86221737 -16.8317046 4.6096798 -12.9375 1.1875 C-8.69563971 -0.52729459 -4.52250916 -0.59022577 0 0 Z " fill="#F1D65A" transform="translate(48,20)"/>
<path d="M0 0 C3.00348186 2.35055102 4.73478948 3.79181876 5.5625 7.5625 C4.80167555 10.85940593 3.75181556 12.04476263 1 14 C-1.9375 14.5625 -1.9375 14.5625 -5 14 C-7.5625 11.875 -7.5625 11.875 -10 9 C-10.46921875 8.44957031 -10.9384375 7.89914063 -11.421875 7.33203125 C-12.63119727 5.90190576 -13.81769772 4.4525428 -15 3 C-14.67 2.34 -14.34 1.68 -14 1 C-9.03283278 -0.59959622 -5.09397134 -1.69799045 0 0 Z " fill="#134107" transform="translate(20,47)"/>
<path d="M0 0 C0.99 0.33 1.98 0.66 3 1 C0.19195732 3.96404505 -2.18315774 6.44499019 -6 8 C-6 9.32 -6 10.64 -6 12 C-8.3125 13.5625 -8.3125 13.5625 -11 15 C-14.4949793 17.93506013 -15.87337346 21.73919131 -17.71875 25.8203125 C-19 28 -19 28 -22 29 C-22 30.65 -22 32.3 -22 34 C-22.66 33.67 -23.32 33.34 -24 33 C-23.56306085 26.11820835 -22.03304811 21.14744233 -19 15 C-18.608125 13.9275 -18.21625 12.855 -17.8125 11.75 C-15.092792 7.62354649 -11.33586126 6.1607282 -7 4 C-5.70399958 3.21544802 -4.41184216 2.42448492 -3.125 1.625 C-2.09375 1.08875 -1.0625 0.5525 0 0 Z " fill="#ECAF29" transform="translate(49,24)"/>
<path d="M0 0 C3.36419689 1.60232883 5.19249273 2.64320078 7 6 C7.53709412 8.99016821 7.81220596 11.96939277 8 15 C7.01 15 6.02 15 5 15 C4.87625 16.134375 4.7525 17.26875 4.625 18.4375 C4.41875 19.613125 4.2125 20.78875 4 22 C3.34 22.33 2.68 22.66 2 23 C2.99 19.535 2.99 19.535 4 16 C3.01 16.33 2.02 16.66 1 17 C-1.33299825 17.03954234 -3.66708189 17.04401732 -6 17 C-6.6896868 11.4825056 -6.44252427 7.95480298 -3 3.4375 C-2.02037689 2.27419755 -1.02697231 1.12172274 0 0 Z " fill="#EB6308" transform="translate(84,42)"/>
<path d="M0 0 C0.99 0 1.98 0 3 0 C1.55829417 6.12724976 0.01000468 9.93431052 -5.390625 13.640625 C-11.55770985 17.32709472 -15.83804138 18.79577318 -23 18 C-23.66 17.67 -24.32 17.34 -25 17 C-25 16.34 -25 15.68 -25 15 C-26.4540625 15.0309375 -26.4540625 15.0309375 -27.9375 15.0625 C-31 15 -31 15 -32 14 C-34.01973067 13.8932301 -36.04099345 13.81498529 -38.0625 13.75 C-44.14159677 13.31625544 -48.55418956 12.30901627 -53 8 C-55 4.6875 -55 4.6875 -56 2 C-53.03 2.33 -50.06 2.66 -47 3 C-47.33 3.66 -47.66 4.32 -48 5 C-48.99 5 -49.98 5 -51 5 C-46.36332758 10.36877859 -39.75653766 10.64495928 -33.125 11.5625 C-32.25230469 11.68818359 -31.37960938 11.81386719 -30.48046875 11.94335938 C-28.77470363 12.18832264 -27.068331 12.42909932 -25.36132812 12.6652832 C-23.87356768 12.87617232 -22.38747196 13.09954294 -20.90429688 13.34057617 C-15.32321256 14.23837102 -12.65101857 13.10067904 -8 10 C-6.68 10 -5.36 10 -4 10 C-2.26337666 6.77484237 -1.1094072 3.48670834 0 0 Z " fill="#FE911F" transform="translate(85,58)"/>
<path d="M0 0 C0.625 1.8125 0.625 1.8125 1 4 C-1.27941234 7.41911851 -1.40474917 7.10118729 -5 8 C-7.69195459 12.03793188 -8.91495658 16.29814518 -10 21 C-9.34 21.33 -8.68 21.66 -8 22 C-7.67 22.99 -7.34 23.98 -7 25 C-8.21484375 26.75390625 -8.21484375 26.75390625 -9.9375 28.5625 C-12.40596278 30.88854831 -12.40596278 30.88854831 -13 34 C-5.74 34 1.52 34 9 34 C9 34.33 9 34.66 9 35 C8.32453125 35.04898438 7.6490625 35.09796875 6.953125 35.1484375 C6.06109375 35.22320312 5.1690625 35.29796875 4.25 35.375 C2.92742188 35.47941406 2.92742188 35.47941406 1.578125 35.5859375 C-0.99229916 35.86284005 -0.99229916 35.86284005 -3.0546875 37.05078125 C-6.59137693 38.77651525 -10.26655889 37.81245869 -14 37 C-17.5625 35.4375 -17.5625 35.4375 -20 34 C-19.01 31.03 -19.01 31.03 -18 28 C-14.04 27.505 -14.04 27.505 -10 27 C-10.27617533 25.05925139 -10.27617533 25.05925139 -11 23 C-11.99 22.34 -12.98 21.68 -14 21 C-14.44496112 17.58863139 -14.47331015 15.72025458 -12.5625 12.8125 C-12.046875 12.214375 -11.53125 11.61625 -11 11 C-10.67 10.01 -10.34 9.02 -10 8 C-8.25 5.8125 -8.25 5.8125 -6 4 C-3.25 3.75 -3.25 3.75 -1 4 C-0.67 2.68 -0.34 1.36 0 0 Z " fill="#EB750C" transform="translate(58,29)"/>
<path d="M0 0 C3.20065992 0.71567551 5.09328037 1.19009738 7 4 C6.50532583 9.02220052 4.29746424 11.75512162 0.98046875 15.38671875 C-1 17 -1 17 -4.8125 17.625 C-8 17 -8 17 -10 15 C-10 13.68 -10 12.36 -10 11 C-9.278125 10.5875 -8.55625 10.175 -7.8125 9.75 C-3.89059856 7.30970577 -2.21497509 3.9681043 0 0 Z " fill="#FECF34" transform="translate(76,37)"/>
<path d="M0 0 C1.2734375 1.64453125 1.2734375 1.64453125 2.375 3.8125 C4.76937448 7.8700328 6.3353573 9.58394775 11 11 C14.28290355 11.34735238 17.55539361 11.56897471 20.8515625 11.75 C24.50873188 12.04039558 27.55096941 12.79684979 31 14 C27.63648987 16.24234009 26.37689944 16.27098215 22.4375 16.25 C21.46683594 16.25515625 20.49617188 16.2603125 19.49609375 16.265625 C17 16 17 16 15 14 C12.66706666 13.95679753 10.3329866 13.95977609 8 14 C4.4306589 13.79003876 3.90605135 12.89710386 1.375 10.125 C-0.1431609 8.12741987 -1.60825081 6.08762379 -3 4 C-5.24362573 3.7715451 -5.24362573 3.7715451 -7.125 6 C-7.74375 6.66 -8.3625 7.32 -9 8 C-7.07834179 2.53066508 -6.10288444 0 0 0 Z " fill="#C15209" transform="translate(29,59)"/>
<path d="M0 0 C3.86614848 0.08404671 5.51461392 0.52773246 8.3125 3.25 C9.97118528 5.95304268 10.64290612 7.87542858 11 11 C7.17010894 12.80230168 4.21878192 13.19622241 0 13 C-0.34274406 11.33524314 -0.67364302 9.66804677 -1 8 C-1.226875 6.948125 -1.45375 5.89625 -1.6875 4.8125 C-1.790625 3.884375 -1.89375 2.95625 -2 2 C-1.34 1.34 -0.68 0.68 0 0 Z " fill="#266C0F" transform="translate(53,10)"/>
<path d="M0 0 C2.475 0.99 2.475 0.99 5 2 C5.33 1.34 5.66 0.68 6 0 C6.66 0 7.32 0 8 0 C8.33 0.66 8.66 1.32 9 2 C9.763125 2.28875 10.52625 2.5775 11.3125 2.875 C15.34698788 4.56385539 17.2914223 6.42454532 19.1015625 10.44921875 C19.81276673 12.24257906 20.50249602 14.04464057 21.16796875 15.85546875 C21.81416488 17.94865249 21.81416488 17.94865249 23 19 C23.04080783 20.99958364 23.04254356 23.00045254 23 25 C22.67 25 22.34 25 22 25 C21 22 20 19 19 16 C18.34 16 17.68 16 17 16 C16.5359375 14.081875 16.5359375 14.081875 16.0625 12.125 C15.3519891 9.88100276 15.3519891 9.88100276 14 8 C11.0576382 6.69576161 8.19336065 6.26778706 5 6 C4.67 7.32 4.34 8.64 4 10 C1.125 3.375 1.125 3.375 0 0 Z " fill="#EBAD27" transform="translate(70,25)"/>
<path d="M0 0 C1.14926266 0.95421808 2.29430541 1.91352045 3.4375 2.875 C4.39462891 3.67550781 4.39462891 3.67550781 5.37109375 4.4921875 C7.71823706 6.66484294 7.98141135 7.70877775 8.1875 10.9375 C8 14 8 14 6 17 C2.79044993 19.49002877 0.17230921 21.099771 -3.9375 20.75 C-4.618125 20.5025 -5.29875 20.255 -6 20 C-6.33 19.01 -6.66 18.02 -7 17 C-6.36191406 16.78085938 -5.72382812 16.56171875 -5.06640625 16.3359375 C-2.56421368 15.37565767 -0.28960251 14.39609909 2 13 C3.49381107 10.12157781 3.49381107 10.12157781 3 7 C1.64599355 4.27018168 1.64599355 4.27018168 0 2 C0 1.34 0 0.68 0 0 Z " fill="#278C24" transform="translate(98,53)"/>
<path d="M0 0 C3.3 0.33 6.6 0.66 10 1 C10.66 3.97 11.32 6.94 12 10 C12.66 10 13.32 10 14 10 C17.27037599 13.27037599 17.56856013 16.5130254 18 21 C17.34 21.33 16.68 21.66 16 22 C15.5978125 20.63875 15.5978125 20.63875 15.1875 19.25 C14.09365038 16.25630631 13.19576514 14.28359575 11 12 C10.01 12 9.02 12 8 12 C6.64613064 10.34997172 5.31321858 8.6825613 4 7 C3.01 6.67 2.02 6.34 1 6 C0.67 4.02 0.34 2.04 0 0 Z " fill="#F0820C" transform="translate(75,31)"/>
<path d="M0 0 C2.64593748 1.0749121 2.74730912 2.30711824 4 4.8125 C4.86625 5.3075 5.7325 5.8025 6.625 6.3125 C7.40875 6.8075 8.1925 7.3025 9 7.8125 C9 9.1325 9 10.4525 9 11.8125 C6.29120665 13.16689668 3.99066732 12.87751451 1 12.8125 C0.731875 12.214375 0.46375 11.61625 0.1875 11 C-0.86180044 8.76957307 -0.86180044 8.76957307 -2.625 7.375 C-4 5.8125 -4 5.8125 -4.1875 3.125 C-4.125625 2.361875 -4.06375 1.59875 -4 0.8125 C-2 -0.1875 -2 -0.1875 0 0 Z " fill="#FCBB2E" transform="translate(39,44.1875)"/>
<path d="M0 0 C0.99 0.33 1.98 0.66 3 1 C4.7529462 4.57331341 6.21769326 8.08846628 7 12 C5.02 10.35 3.04 8.7 1 7 C1 10.63 1 14.26 1 18 C-0.65 18.33 -2.3 18.66 -4 19 C-4.02709444 16.91673869 -4.04643873 14.83337559 -4.0625 12.75 C-4.07410156 11.58984375 -4.08570312 10.4296875 -4.09765625 9.234375 C-3.95074627 4.36871642 -3.95074627 4.36871642 -3 2 C-2.01 1.34 -1.02 0.68 0 0 Z " fill="#102804" transform="translate(95,51)"/>
<path d="M0 0 C0.556875 0.226875 1.11375 0.45375 1.6875 0.6875 C-0.10286458 1.6640625 -1.89322917 2.640625 -3.68359375 3.6171875 C-5.47868315 4.60160024 -5.47868315 4.60160024 -6.3125 6.6875 C-4.9925 6.3575 -3.6725 6.0275 -2.3125 5.6875 C-2.71082031 6.13480469 -3.10914063 6.58210938 -3.51953125 7.04296875 C-4.31423828 7.94982422 -4.31423828 7.94982422 -5.125 8.875 C-5.64707031 9.46667969 -6.16914062 10.05835938 -6.70703125 10.66796875 C-10.35847241 15.26114412 -11.86752241 19.22975703 -13 25 C-13.25136719 26.25425781 -13.50273437 27.50851563 -13.76171875 28.80078125 C-13.94347656 29.75339844 -14.12523438 30.70601562 -14.3125 31.6875 C-14.6425 31.6875 -14.9725 31.6875 -15.3125 31.6875 C-15.5578242 25.76656729 -14.8706756 21.1013066 -13 15.5 C-12.67999023 14.47229492 -12.67999023 14.47229492 -12.35351562 13.42382812 C-10.72217196 8.36422793 -9.15095877 4.10169905 -4.875 0.8125 C-2.3125 -0.3125 -2.3125 -0.3125 0 0 Z " fill="#E2D369" transform="translate(40.3125,20.3125)"/>
<path d="M0 0 C0 0.66 0 1.32 0 2 C-0.66 2 -1.32 2 -2 2 C-2 3.32 -2 4.64 -2 6 C-4.3125 7.5625 -4.3125 7.5625 -7 9 C-9.76687646 11.32962396 -11.04799662 13.86810559 -12.5625 17.125 C-14.77903683 21.88951841 -14.77903683 21.88951841 -17 23 C-16.505 18.545 -16.505 18.545 -16 14 C-15.01 14 -14.02 14 -13 14 C-12.979375 13.154375 -12.95875 12.30875 -12.9375 11.4375 C-11.63138666 6.64841775 -8.74119253 4.1363808 -5 1 C-3 0 -3 0 0 0 Z " fill="#EF9E16" transform="translate(45,30)"/>
<path d="M0 0 C4.95 0 9.9 0 15 0 C15 1.32 15 2.64 15 4 C17.97 4 20.94 4 24 4 C24 4.66 24 5.32 24 6 C18.14758839 7.95080387 12.70485399 7.16784451 7 5 C6.67 4.01 6.34 3.02 6 2 C5.01 2 4.02 2 3 2 C3 2.66 3 3.32 3 4 C2.34 4 1.68 4 1 4 C1 4.66 1 5.32 1 6 C0.34 5.67 -0.32 5.34 -1 5 C-0.67 3.35 -0.34 1.7 0 0 Z " fill="#1D4D09" transform="translate(19,75)"/>
<path d="M0 0 C0.66 0 1.32 0 2 0 C0.99308773 2.16873412 -0.00144131 4.00180164 -1.5 5.875 C-3.31672049 8.44868736 -4.1118177 10.99384452 -5 14 C-4.34 14 -3.68 14 -3 14 C-2.67 14.66 -2.34 15.32 -2 16 C0.12563103 15.88623383 2.2505261 15.75864369 4.375 15.625 C5.55835938 15.55539063 6.74171875 15.48578125 7.9609375 15.4140625 C11.10562319 15.29782654 11.10562319 15.29782654 13 13 C12.67 14.65 12.34 16.3 12 18 C-2.78132118 19.33257403 -2.78132118 19.33257403 -9 18 C-8.34 17.67 -7.68 17.34 -7 17 C-7.103125 16.195625 -7.20625 15.39125 -7.3125 14.5625 C-6.81966834 8.94421904 -3.98227268 3.98227268 0 0 Z " fill="#4EB339" transform="translate(24,57)"/>
<path d="M0 0 C0.33 0 0.66 0 1 0 C2.39879438 9.72911448 3.30384747 19.14183749 3 29 C1.68 28.67 0.36 28.34 -1 28 C-1.02912348 24.27084983 -1.04684037 20.5417291 -1.0625 16.8125 C-1.07087891 15.75740234 -1.07925781 14.70230469 -1.08789062 13.61523438 C-1.09111328 12.59365234 -1.09433594 11.57207031 -1.09765625 10.51953125 C-1.10289307 9.58214111 -1.10812988 8.64475098 -1.11352539 7.67895508 C-1.00082657 5.01950523 -0.59376649 2.59079427 0 0 Z " fill="#DA4506" transform="translate(58,33)"/>
<path d="M0 0 C0.625 1.8125 0.625 1.8125 1 4 C-1.27941234 7.41911851 -1.40474917 7.10118729 -5 8 C-6.99919476 10.99879215 -7.91200025 13.59093411 -9 17 C-9.33 17.66 -9.66 18.32 -10 19 C-10.35169068 20.32860925 -10.68770276 21.66158328 -11 23 C-11.99 22.34 -12.98 21.68 -14 21 C-14.44496112 17.58863139 -14.47331015 15.72025458 -12.5625 12.8125 C-12.046875 12.214375 -11.53125 11.61625 -11 11 C-10.67 10.01 -10.34 9.02 -10 8 C-8.25 5.8125 -8.25 5.8125 -6 4 C-3.25 3.75 -3.25 3.75 -1 4 C-0.67 2.68 -0.34 1.36 0 0 Z " fill="#EF8911" transform="translate(58,29)"/>
<path d="M0 0 C0.66 0.66 1.32 1.32 2 2 C-0.21229599 4.54414039 -1.65126671 5.54746847 -5 6 C-7.67286275 6.07182357 -10.32490846 6.04458486 -13 6 C-13.66 4.68 -14.32 3.36 -15 2 C-10.29669569 -0.50842897 -5.21221812 -0.62731121 0 0 Z " fill="#5C5E0B" transform="translate(61,84)"/>
<path d="M0 0 C3.09563453 0.6208162 4.1362711 1.17559837 6.11328125 3.57421875 C6.69078125 4.56421875 7.26828125 5.55421875 7.86328125 6.57421875 C7.24839844 6.49042969 6.63351563 6.40664063 6 6.3203125 C5.19175781 6.21847656 4.38351563 6.11664062 3.55078125 6.01171875 C2.75027344 5.90730469 1.94976562 5.80289062 1.125 5.6953125 C-1.30488991 5.42666697 -1.30488991 5.42666697 -4.13671875 6.57421875 C-4.46671875 7.23421875 -4.79671875 7.89421875 -5.13671875 8.57421875 C-5.46671875 6.92421875 -5.79671875 5.27421875 -6.13671875 3.57421875 C-6.92046875 4.08984375 -7.70421875 4.60546875 -8.51171875 5.13671875 C-9.37796875 5.61109375 -10.24421875 6.08546875 -11.13671875 6.57421875 C-11.79671875 6.24421875 -12.45671875 5.91421875 -13.13671875 5.57421875 C-10.15380619 -0.39160637 -6.06055908 -0.21459855 0 0 Z " fill="#EEBA32" transform="translate(64.13671875,24.42578125)"/>
<path d="M0 0 C10.8552282 -0.56910905 10.8552282 -0.56910905 15 3 C20.01145091 7.73522921 23.36252075 13.25810267 25 20 C24.59765625 22.30078125 24.59765625 22.30078125 24 24 C23.3291288 22.3767313 22.66342971 20.75132422 22 19.125 C21.62875 18.22007813 21.2575 17.31515625 20.875 16.3828125 C20 14 20 14 20 12 C19.401875 11.7525 18.80375 11.505 18.1875 11.25 C15.68373081 9.81927475 14.51927612 8.4308418 13 6 C13 5.34 13 4.68 13 4 C10.03821227 2.32889958 7.62928808 1.67317248 4.25 1.375 C3.45078125 1.30023437 2.6515625 1.22546875 1.828125 1.1484375 C1.22484375 1.09945313 0.6215625 1.05046875 0 1 C0 0.67 0 0.34 0 0 Z " fill="#F0D763" transform="translate(67,19)"/>
<path d="M0 0 C2.31 0.66 4.62 1.32 7 2 C7 4.31 7 6.62 7 9 C5.56138706 8.91253716 4.12402492 8.80434652 2.6875 8.6875 C1.88699219 8.62949219 1.08648437 8.57148437 0.26171875 8.51171875 C-2.36272334 7.91793306 -3.30820672 7.04219706 -5 5 C-3.68 4.67 -2.36 4.34 -1 4 C-0.67 2.68 -0.34 1.36 0 0 Z " fill="#E25B08" transform="translate(33,53)"/>
<path d="M0 0 C0 1.32 0 2.64 0 4 C0.66 4.66 1.32 5.32 2 6 C1.34 6 0.68 6 0 6 C-0.33 7.32 -0.66 8.64 -1 10 C-2.65 10 -4.3 10 -6 10 C-7.33827893 3.55192878 -7.33827893 3.55192878 -5.8125 1.0625 C-4 0 -4 0 0 0 Z " fill="#1E9323" transform="translate(17,70)"/>
<path d="M0 0 C0.66 0 1.32 0 2 0 C1.125 5.875 1.125 5.875 0 7 C-5.74116691 7.37394574 -11.34445544 6.98357297 -17 6 C-17 5.67 -17 5.34 -17 5 C-15.35 5 -13.7 5 -12 5 C-12 4.01 -12 3.02 -12 2 C-8.37 2.33 -4.74 2.66 -1 3 C-0.67 2.01 -0.34 1.02 0 0 Z " fill="#18540C" transform="translate(17,76)"/>
<path d="M0 0 C2.82249951 1.03491649 3.83374226 1.69915265 5.3125 4.375 C6.02770914 7.10579853 5.9659657 8.39189261 5 11 C1.20411134 10.45773019 -0.47211993 8.79872437 -3 6 C-1.125 1.125 -1.125 1.125 0 0 Z " fill="#154507" transform="translate(108,37)"/>
<path d="M0 0 C3.90807404 0.08495813 5.51993984 0.51993984 8.3125 3.3125 C9.82453277 5.72055219 10.41618072 7.2889976 11 10 C9.8274869 9.04882866 8.66212985 8.08882991 7.5 7.125 C6.8503125 6.59132813 6.200625 6.05765625 5.53125 5.5078125 C5.0259375 5.01023437 4.520625 4.51265625 4 4 C4 3.34 4 2.68 4 2 C3.01 2 2.02 2 1 2 C1.66 5.63 2.32 9.26 3 13 C1.68 12.67 0.36 12.34 -1 12 C-1.22162329 10.37675914 -1.42689803 8.751279 -1.625 7.125 C-1.74101563 6.22007813 -1.85703125 5.31515625 -1.9765625 4.3828125 C-1.98429687 3.59648437 -1.99203125 2.81015625 -2 2 C-1.34 1.34 -0.68 0.68 0 0 Z " fill="#40CA5A" transform="translate(53,10)"/>
<path d="M0 0 C2.8125 0.1875 2.8125 0.1875 6 1 C7.875 3.5625 7.875 3.5625 9 6 C7.68 6.33 6.36 6.66 5 7 C4.67 6.01 4.34 5.02 4 4 C3.34 4 2.68 4 2 4 C1.67 5.32 1.34 6.64 1 8 C0.67 7.34 0.34 6.68 0 6 C-1.65051288 4.88365848 -1.65051288 4.88365848 -3.5625 3.875 C-4.696875 3.25625 -5.83125 2.6375 -7 2 C-7 1.67 -7 1.34 -7 1 C-4.69 1 -2.38 1 0 1 C0 0.67 0 0.34 0 0 Z " fill="#F0C238" transform="translate(74,21)"/>
<path d="M0 0 C7.625 2.625 7.625 2.625 11 6 C14.10839021 6.7269226 14.10839021 6.7269226 17 7 C17 7.33 17 7.66 17 8 C12.05 8 7.1 8 2 8 C1.34 5.36 0.68 2.72 0 0 Z " fill="#42BC49" transform="translate(103,70)"/>
<path d="M0 0 C0.66 0 1.32 0 2 0 C1.69972789 6.00544215 -1.03257164 9.72535927 -5 14 C-7.25734028 15.87359243 -9.52128302 17.41362113 -12 19 C-12.99 18.01 -13.98 17.02 -15 16 C-14.11248047 15.56300781 -14.11248047 15.56300781 -13.20703125 15.1171875 C-7.9181087 12.373505 -4.32375734 9.98563601 -1 5 C-0.13457301 2.27886497 -0.13457301 2.27886497 0 0 Z " fill="#9D3104" transform="translate(89,57)"/>
<path d="M0 0 C0.99 0.33 1.98 0.66 3 1 C3 1.99 3 2.98 3 4 C8.445 3.01 8.445 3.01 14 2 C13.34 3.65 12.68 5.3 12 7 C7.545 7.495 7.545 7.495 3 8 C1.68 6.02 0.36 4.04 -1 2 C-0.67 1.34 -0.34 0.68 0 0 Z " fill="#113D07" transform="translate(99,49)"/>
<path d="M0 0 C3.057952 1.73559438 5.63379989 3.38472619 8 6 C5.36 5.67 2.72 5.34 0 5 C-0.33 5.99 -0.66 6.98 -1 8 C-1.99 8.33 -2.98 8.66 -4 9 C-4.66 9.99 -5.32 10.98 -6 12 C-7.13764556 8.58706332 -7.22600107 7.35106958 -6 4 C-2.9375 1.6875 -2.9375 1.6875 0 0 Z " fill="#EE760A" transform="translate(33,49)"/>
<path d="M0 0 C3 0 3 0 5.0625 1.9375 C5.701875 2.618125 6.34125 3.29875 7 4 C10.171738 5.585869 13.63513822 5.37866445 17.125 5.5625 C18.25615234 5.62727539 18.25615234 5.62727539 19.41015625 5.69335938 C21.27321888 5.7994832 23.13658524 5.90025001 25 6 C22.46685224 8.53314776 21.51173624 8.29753521 18 8.3125 C11.81117061 8.20649897 4.55275219 7.55275219 0 3 C0 2.01 0 1.02 0 0 Z " fill="#091701" transform="translate(22,77)"/>
<path d="M0 0 C1.9375 0.3125 1.9375 0.3125 4 1 C4.33 1.99 4.66 2.98 5 4 C4.34 4 3.68 4 3 4 C3.33 5.98 3.66 7.96 4 10 C1.69 9.67 -0.62 9.34 -3 9 C-2.67 7.35 -2.34 5.7 -2 4 C-1.34 4 -0.68 4 0 4 C0 2.68 0 1.36 0 0 Z " fill="#1A5B0D" transform="translate(17,47)"/>
<path d="M0 0 C0.66 0.66 1.32 1.32 2 2 C-0.5625 4.125 -0.5625 4.125 -4 6 C-7.8125 5.375 -7.8125 5.375 -11 4 C-11.33 3.34 -11.66 2.68 -12 2 C-7.84782943 0.41822074 -4.45263035 -0.40478458 0 0 Z " fill="#060F01" transform="translate(61,76)"/>
<path d="M0 0 C-0.73605469 0.39832031 -1.47210938 0.79664062 -2.23046875 1.20703125 C-3.20628906 1.73683594 -4.18210937 2.26664063 -5.1875 2.8125 C-6.63189453 3.59560547 -6.63189453 3.59560547 -8.10546875 4.39453125 C-9.06066406 4.92433594 -10.01585937 5.45414063 -11 6 C-11.8971875 6.474375 -12.794375 6.94875 -13.71875 7.4375 C-16.2498353 9.17112007 -17.08456368 10.4132735 -18.3125 13.1875 C-18.63863281 13.90292969 -18.96476562 14.61835937 -19.30078125 15.35546875 C-19.53152344 15.89816406 -19.76226563 16.44085938 -20 17 C-20.87473402 14.59981519 -21.19755251 13.46033462 -20.171875 11.0703125 C-15.94416742 5.28625102 -7.76265104 -3.04310499 0 0 Z " fill="#F0C53B" transform="translate(49,25)"/>
<path d="M0 0 C0.99 0 1.98 0 3 0 C1.84936575 4.89019557 0.85655915 8.53898538 -3 12 C-5.9620443 12.98223231 -8.91441446 13.55826019 -12 14 C-10.25 12 -10.25 12 -8 10 C-6.68 10 -5.36 10 -4 10 C-2.26337666 6.77484237 -1.1094072 3.48670834 0 0 Z " fill="#FCB01C" transform="translate(85,58)"/>
<path d="M0 0 C0.99 0.33 1.98 0.66 3 1 C4.7529462 4.57331341 6.21769326 8.08846628 7 12 C5.53515625 10.66536458 4.0703125 9.33072917 2.60546875 7.99609375 C2.07566406 7.66738281 1.54585938 7.33867188 1 7 C0.01 7.33 -0.98 7.66 -2 8 C-2.125 5.125 -2.125 5.125 -2 2 C-1.34 1.34 -0.68 0.68 0 0 Z " fill="#114307" transform="translate(95,51)"/>
<path d="M0 0 C0 0.99 0 1.98 0 3 C-0.99 3 -1.98 3 -3 3 C-3.12375 4.134375 -3.2475 5.26875 -3.375 6.4375 C-3.58125 7.613125 -3.7875 8.78875 -4 10 C-4.99 10.495 -4.99 10.495 -6 11 C-5.34 8.69 -4.68 6.38 -4 4 C-5.65 3.67 -7.3 3.34 -9 3 C-8.67 2.01 -8.34 1.02 -8 0 C-4.71023192 -1.09658936 -3.28696233 -0.79953138 0 0 Z " fill="#CD4806" transform="translate(92,54)"/>
<path d="M0 0 C0.1875 2.875 0.1875 2.875 0 6 C-0.99 6.66 -1.98 7.32 -3 8 C-4.5 6.8125 -4.5 6.8125 -6 5 C-6.1875 2.3125 -6.1875 2.3125 -6 0 C-3.50907189 -1.24546405 -2.58919267 -0.7767578 0 0 Z " fill="#FED43B" transform="translate(41,45)"/>
<path d="M0 0 C2.97 0.33 5.94 0.66 9 1 C8.67 1.66 8.34 2.32 8 3 C7.01 3 6.02 3 5 3 C7.35277269 5.72426311 9.62496331 6.8141763 13 8 C12.67 8.66 12.34 9.32 12 10 C7.15175132 9.58443583 5.11963138 7.62551755 2 4 C1.34 2.68 0.68 1.36 0 0 Z " fill="#F8AF1F" transform="translate(29,60)"/>
<path d="M0 0 C0.66 0 1.32 0 2 0 C0.99308773 2.16873412 -0.00144131 4.00180164 -1.5 5.875 C-3.31672049 8.44868736 -4.1118177 10.99384452 -5 14 C-4.34 14 -3.68 14 -3 14 C-2.67 14.99 -2.34 15.98 -2 17 C-2.99 17 -3.98 17 -5 17 C-5 16.34 -5 15.68 -5 15 C-5.66 15 -6.32 15 -7 15 C-6.57352731 9.31369743 -4.06314998 4.06314998 0 0 Z " fill="#6DB827" transform="translate(24,57)"/>
<path d="M0 0 C0 0.33 0 0.66 0 1 C-0.67546875 1.04898438 -1.3509375 1.09796875 -2.046875 1.1484375 C-2.93890625 1.22320312 -3.8309375 1.29796875 -4.75 1.375 C-6.07257812 1.47941406 -6.07257812 1.47941406 -7.421875 1.5859375 C-9.99081085 1.86034014 -9.99081085 1.86034014 -12.03515625 3.0546875 C-14.49461899 4.23796779 -16.00077857 4.0875055 -18.6875 3.75 C-19.47511719 3.66234375 -20.26273438 3.5746875 -21.07421875 3.484375 C-21.70972656 3.32453125 -22.34523437 3.1646875 -23 3 C-23.33 2.34 -23.66 1.68 -24 1 C-15.97875848 0.28586721 -8.05358138 -0.14525497 0 0 Z " fill="#EA8120" transform="translate(67,63)"/>
<path d="M0 0 C0 1.32 0 2.64 0 4 C-1.32 4.33 -2.64 4.66 -4 5 C-4 4.01 -4 3.02 -4 2 C-4.70125 2.28875 -5.4025 2.5775 -6.125 2.875 C-9.05452503 4.02133588 -12.00921653 5.02625654 -15 6 C-9.52533382 0.38126366 -7.60105179 -0.12259761 0 0 Z " fill="#207912" transform="translate(107,47)"/>
<path d="M0 0 C0.99 0 1.98 0 3 0 C-1.46875 9.28125 -1.46875 9.28125 -6 11 C-5.55443866 5.95030484 -3.44186399 3.52381313 0 0 Z " fill="#EED053" transform="translate(52,24)"/>
<path d="M0 0 C-1.98 0.99 -1.98 0.99 -4 2 C-4 2.66 -4 3.32 -4 4 C-3.01 4.33 -2.02 4.66 -1 5 C-2.6254308 4.85904936 -4.25034051 4.71207913 -5.875 4.5625 C-6.77992187 4.48128906 -7.68484375 4.40007812 -8.6171875 4.31640625 C-11 4 -11 4 -13 3 C-13 2.34 -13 1.68 -13 1 C-8.61414671 0.29826347 -4.44209357 -0.10834375 0 0 Z " fill="#FEE65B" transform="translate(59,66)"/>
<path d="M0 0 C1.05960938 0.0721875 2.11921875 0.144375 3.2109375 0.21875 C4.59895597 0.31253503 5.98697693 0.40628311 7.375 0.5 C8.42300781 0.57154297 8.42300781 0.57154297 9.4921875 0.64453125 C13.2427781 0.90655786 13.2427781 0.90655786 17 1 C17 1.66 17 2.32 17 3 C10.98900126 5.00366625 5.82758708 3.90288558 0 2 C0 1.34 0 0.68 0 0 Z " fill="#B79F0F" transform="translate(26,78)"/>
<path d="M0 0 C0.66 0.33 1.32 0.66 2 1 C2 1.99 2 2.98 2 4 C1.34 4 0.68 4 0 4 C-0.06058594 4.59167969 -0.12117188 5.18335938 -0.18359375 5.79296875 C-0.62012371 9.90978208 -1.08671346 13.95544533 -2 18 C-2.66 17.67 -3.32 17.34 -4 17 C-3.58411954 10.80481527 -2.39748106 5.73310689 0 0 Z " fill="#DBAB2A" transform="translate(29,40)"/>
<path d="M0 0 C0.66 0 1.32 0 2 0 C0.43977363 3.82964655 -1.87555571 6.32190489 -5 9 C-6.32 9 -7.64 9 -9 9 C-9.33 8.01 -9.66 7.02 -10 6 C-9.36191406 5.73445313 -8.72382812 5.46890625 -8.06640625 5.1953125 C-7.24011719 4.84210938 -6.41382812 4.48890625 -5.5625 4.125 C-4.73878906 3.77695313 -3.91507812 3.42890625 -3.06640625 3.0703125 C-0.84253285 2.1755063 -0.84253285 2.1755063 0 0 Z " fill="#B0BA10" transform="translate(101,64)"/>
<path d="M0 0 C0.66 0.33 1.32 0.66 2 1 C-3.01709263 4.82775459 -6.7603518 6.5593624 -13.1171875 6.37109375 C-15 6 -15 6 -17 4 C-14.03 4.33 -11.06 4.66 -8 5 C-8 4.01 -8 3.02 -8 2 C-6.2984375 1.7834375 -6.2984375 1.7834375 -4.5625 1.5625 C-1.19222799 1.38828522 -1.19222799 1.38828522 0 0 Z " fill="#E1530C" transform="translate(77,70)"/>
<path d="M0 0 C0.66 0.99 1.32 1.98 2 3 C1.32453125 2.98839844 0.6490625 2.97679688 -0.046875 2.96484375 C-0.93890625 2.95582031 -1.8309375 2.94679688 -2.75 2.9375 C-3.63171875 2.92589844 -4.5134375 2.91429688 -5.421875 2.90234375 C-7.7818838 2.99173802 -9.74498524 3.33087179 -12 4 C-8.33697157 -0.05549576 -5.4019965 -2.1607986 0 0 Z " fill="#501B01" transform="translate(45,73)"/>
<path d="M0 0 C2 3.875 2 3.875 2 5 C-1.3 5.66 -4.6 6.32 -8 7 C-8 6.34 -8 5.68 -8 5 C-7.34 5 -6.68 5 -6 5 C-5.67 3.68 -5.34 2.36 -5 1 C-3.35 0.67 -1.7 0.34 0 0 Z " fill="#E46F11" transform="translate(77,55)"/>
<path d="M0 0 C0 1.32 0 2.64 0 4 C-3.3 4.33 -6.6 4.66 -10 5 C-10 4.01 -10 3.02 -10 2 C-8.7090864 1.66376204 -7.41723903 1.33110751 -6.125 1 C-5.40570312 0.814375 -4.68640625 0.62875 -3.9453125 0.4375 C-2 0 -2 0 0 0 Z " fill="#154C0A" transform="translate(16,46)"/>
<path d="M0 0 C0 0.66 0 1.32 0 2 C-1.41601714 2.48108275 -2.83284437 2.95978141 -4.25 3.4375 C-5.03890625 3.70433594 -5.8278125 3.97117187 -6.640625 4.24609375 C-8.74821988 4.91954708 -10.84753973 5.49150595 -13 6 C-12.06896676 3.67241689 -11.34617872 2.25642868 -9.3125 0.75 C-6.16454282 -0.27095909 -3.28456632 -0.12632947 0 0 Z " fill="#F0CE40" transform="translate(47,21)"/>
<path d="M0 0 C1 3 1 3 0.0390625 5.04296875 C-0.42757812 5.75066406 -0.89421875 6.45835938 -1.375 7.1875 C-1.83648438 7.90292969 -2.29796875 8.61835937 -2.7734375 9.35546875 C-3.17820312 9.89816406 -3.58296875 10.44085938 -4 11 C-4.33 11 -4.66 11 -5 11 C-4.93993922 9.54052295 -4.8511311 8.08220728 -4.75 6.625 C-4.70359375 5.81289063 -4.6571875 5.00078125 -4.609375 4.1640625 C-4 2 -4 2 -1.953125 0.7109375 C-1.30859375 0.47632813 -0.6640625 0.24171875 0 0 Z " fill="#E69619" transform="translate(33,42)"/>
<path d="M0 0 C5.28 0.33 10.56 0.66 16 1 C12.65418921 3.23054053 11.35990189 3.29683128 7.4375 3.3125 C6.46683594 3.32925781 5.49617188 3.34601563 4.49609375 3.36328125 C3.26052734 3.18345703 3.26052734 3.18345703 2 3 C1.34 2.01 0.68 1.02 0 0 Z " fill="#B32904" transform="translate(44,72)"/>
<path d="M0 0 C0.33 0.66 0.66 1.32 1 2 C1.66 2 2.32 2 3 2 C6.27037599 5.27037599 6.56856013 8.5130254 7 13 C6.01 13.495 6.01 13.495 5 14 C4.731875 13.0925 4.46375 12.185 4.1875 11.25 C3.19729814 8.03932599 3.19729814 8.03932599 1.375 5.875 C0 4 0 4 0 0 Z " fill="#E08F17" transform="translate(86,39)"/>
<path d="M0 0 C0.33 0.66 0.66 1.32 1 2 C0.01873444 4.00925805 -0.9849911 6.00757511 -2 8 C-2.77068925 10.31671045 -3.38503124 12.63473553 -4 15 C-4.66 15 -5.32 15 -6 15 C-5.25749403 10.91621717 -4.17076699 6.98060777 -3 3 C-2.34 3 -1.68 3 -1 3 C-0.67 2.01 -0.34 1.02 0 0 Z " fill="#DF8320" transform="translate(46,29)"/>
<path d="M0 0 C0.66 0 1.32 0 2 0 C2 1.32 2 2.64 2 4 C-0.29141286 4.05384521 -2.58318188 4.09272087 -4.875 4.125 C-6.78925781 4.15980469 -6.78925781 4.15980469 -8.7421875 4.1953125 C-12 4 -12 4 -14 2 C-9.38 2 -4.76 2 0 2 C0 1.34 0 0.68 0 0 Z " fill="#404106" transform="translate(43,79)"/>
<path d="M0 0 C0.66 0 1.32 0 2 0 C2.35882213 3.22939919 2.27258004 4.61209763 0.375 7.3125 C-2.60457419 9.42956587 -4.42236811 9.32523926 -8 9 C-8 8.67 -8 8.34 -8 8 C-6.35 8 -4.7 8 -3 8 C-3 7.34 -3 6.68 -3 6 C-2.34 6 -1.68 6 -1 6 C-1.020625 5.195625 -1.04125 4.39125 -1.0625 3.5625 C-1 1 -1 1 0 0 Z " fill="#082B03" transform="translate(23,52)"/>
<path d="M0 0 C-0.33 1.65 -0.66 3.3 -1 5 C-1.99 5 -2.98 5 -4 5 C-5.6875 3 -5.6875 3 -7 1 C-4.53721199 -0.231394 -2.7204945 -0.07159196 0 0 Z " fill="#0F3004" transform="translate(13,50)"/>
<path d="M0 0 C2.97 0.33 5.94 0.66 9 1 C9 2.65 9 4.3 9 6 C7.68277821 5.57692877 6.37127336 5.13602514 5.0625 4.6875 C4.33160156 4.44386719 3.60070312 4.20023438 2.84765625 3.94921875 C1 3 1 3 0 0 Z " fill="#EF9714" transform="translate(76,31)"/>
<path d="M0 0 C-1 3 -1 3 -4.0625 4.6875 C-5.031875 5.120625 -6.00125 5.55375 -7 6 C-7.66 5.01 -8.32 4.02 -9 3 C-5.55930376 0.70620251 -4.27709699 0 0 0 Z " fill="#8E1D02" transform="translate(83,70)"/>
<path d="M0 0 C0.99 0 1.98 0 3 0 C3 4.01474237 1.33218233 5.81975137 -1 9 C-1.33 9 -1.66 9 -2 9 C-1.125 2.25 -1.125 2.25 0 0 Z " fill="#EBBB33" transform="translate(45,33)"/>
<path d="M0 0 C-0.53109375 0.31453125 -1.0621875 0.6290625 -1.609375 0.953125 C-5.51541152 3.31955588 -8.93604926 5.55305542 -12 9 C-10.68745073 5.0623522 -9.1247232 2.7341328 -6 0 C-3.50907189 -1.24546405 -2.58919267 -0.7767578 0 0 Z " fill="#EFE584" transform="translate(42,21)"/>
<path d="M0 0 C0.66 3.63 1.32 7.26 2 11 C0.68 10.67 -0.64 10.34 -2 10 C-2.33 7.03 -2.66 4.06 -3 1 C-1 0 -1 0 0 0 Z " fill="#22AD3C" transform="translate(54,12)"/>
<path d="M0 0 C0.350625 0.66 0.70125 1.32 1.0625 2 C2.94674739 4.37192969 2.94674739 4.37192969 6.5 4.375 C10.10936483 4.26140863 10.10936483 4.26140863 13 2 C13 3.32 13 4.64 13 6 C11.20866022 6.05391993 9.41686101 6.09275571 7.625 6.125 C6.62726563 6.14820313 5.62953125 6.17140625 4.6015625 6.1953125 C2 6 2 6 0 4 C0 2.68 0 1.36 0 0 Z " fill="#F49416" transform="translate(65,49)"/>
<path d="M0 0 C2.4375 0.75 2.4375 0.75 5 2 C5.9375 3.875 5.9375 3.875 6 6 C5.0625 8.25 5.0625 8.25 4 10 C1.125 3.375 1.125 3.375 0 0 Z " fill="#E7AB31" transform="translate(70,25)"/>
<path d="M0 0 C-1.10789408 3.32368224 -1.48436217 3.61563093 -4.375 5.25 C-5.28378906 5.78367187 -5.28378906 5.78367187 -6.2109375 6.328125 C-8 7 -8 7 -11 6 C-4.07692308 0 -4.07692308 0 0 0 Z " fill="#24420A" transform="translate(105,67)"/>
<path d="M0 0 C0.99 0 1.98 0 3 0 C3.33 1.65 3.66 3.3 4 5 C2.35 5.33 0.7 5.66 -1 6 C-0.67 4.02 -0.34 2.04 0 0 Z " fill="#2E4B0C" transform="translate(92,64)"/>
<path d="M0 0 C0.66 0.66 1.32 1.32 2 2 C1.34 3.98 0.68 5.96 0 8 C-2.64 8 -5.28 8 -8 8 C-8 7.34 -8 6.68 -8 6 C-5.69 6.33 -3.38 6.66 -1 7 C-1.33 5.02 -1.66 3.04 -2 1 C-1.34 0.67 -0.68 0.34 0 0 Z " fill="#155109" transform="translate(22,50)"/>
<path d="M0 0 C0.33 1.65 0.66 3.3 1 5 C0.4225 4.7525 -0.155 4.505 -0.75 4.25 C-1.4925 4.1675 -2.235 4.085 -3 4 C-5.27144074 5.85432087 -5.27144074 5.85432087 -7 8 C-4.18918919 0 -4.18918919 0 0 0 Z " fill="#1F3A08" transform="translate(27,59)"/>
<path d="M0 0 C0.99 0.33 1.98 0.66 3 1 C3 2.98 3 4.96 3 7 C1.35 6.67 -0.3 6.34 -2 6 C-1.34 4.02 -0.68 2.04 0 0 Z " fill="#DC8017" transform="translate(40,57)"/>
<path d="M0 0 C1.15941038 3.47823115 0.70820884 5.45895578 0 9 C-2.7839183 7.60804085 -2.97898997 5.84424221 -4 3 C-3.34 3 -2.68 3 -2 3 C-2 2.34 -2 1.68 -2 1 C-1.34 0.67 -0.68 0.34 0 0 Z " fill="#F0B026" transform="translate(44,41)"/>
<path d="M0 0 C0.66 0.66 1.32 1.32 2 2 C-4.625 5.125 -4.625 5.125 -8 4 C-5.42910583 1.88819408 -3.36939433 0.33693943 0 0 Z " fill="#FB8E18" transform="translate(81,67)"/>
<path d="M0 0 C0.66 0.33 1.32 0.66 2 1 C-0.06007659 4.60513403 -2.3513141 7.80331012 -5 11 C-4.46884894 6.48521602 -2.63379708 3.65333143 0 0 Z " fill="#E5C24A" transform="translate(33,31)"/>
<path d="M0 0 C1.65 0 3.3 0 5 0 C3.35 1.98 1.7 3.96 0 6 C-0.66 5.67 -1.32 5.34 -2 5 C-1.34 3.35 -0.68 1.7 0 0 Z " fill="#ECD96B" transform="translate(33,26)"/>
<path d="M0 0 C3.3 0.33 6.6 0.66 10 1 C10 1.99 10 2.98 10 4 C6.7 3.34 3.4 2.68 0 2 C0 1.34 0 0.68 0 0 Z " fill="#DBC849" transform="translate(49,22)"/>
<path d="M0 0 C-1.55500981 3.81684226 -4.03595495 6.19195732 -7 9 C-4.4 0 -4.4 0 0 0 Z " fill="#18B23A" transform="translate(26,57)"/>
<path d="M0 0 C2.97 0.33 5.94 0.66 9 1 C5.5647952 3.29013653 4.014669 3.17842973 0 3 C0 2.01 0 1.02 0 0 Z " fill="#071F02" transform="translate(102,54)"/>
<path d="M0 0 C2.51083114 1.25541557 2.87125446 2.50063488 4 5 C1.36 4.67 -1.28 4.34 -4 4 C-2.68 2.68 -1.36 1.36 0 0 Z " fill="#1B5D0D" transform="translate(104,43)"/>
<path d="M0 0 C0.625 1.8125 0.625 1.8125 1 4 C0.01 5.485 0.01 5.485 -1 7 C-1.33 7.66 -1.66 8.32 -2 9 C-3 8 -3 8 -3.25 5.625 C-3 3 -3 3 -1.5 1.1875 C-1.005 0.795625 -0.51 0.40375 0 0 Z " fill="#EF7C0A" transform="translate(49,41)"/>
<path d="M0 0 C3.79588866 0.54226981 5.47211993 2.20127563 8 5 C7.67 5.66 7.34 6.32 7 7 C6.67 6.01 6.34 5.02 6 4 C4.35 3.67 2.7 3.34 1 3 C0.67 2.01 0.34 1.02 0 0 Z " fill="#ECB434" transform="translate(80,28)"/>
<path d="M0 0 C3.3 0 6.6 0 10 0 C10 0.99 10 1.98 10 3 C3.375 2.25 3.375 2.25 0 0 Z " fill="#F1D04A" transform="translate(66,20)"/>
<path d="M0 0 C0.5625 1.9375 0.5625 1.9375 1 4 C0 5 0 5 -2.50390625 5.09765625 C-4.01791016 5.08025391 -4.01791016 5.08025391 -5.5625 5.0625 C-6.57441406 5.05347656 -7.58632813 5.04445313 -8.62890625 5.03515625 C-9.41136719 5.02355469 -10.19382812 5.01195313 -11 5 C-11 4.67 -11 4.34 -11 4 C-10.37351562 3.96261719 -9.74703125 3.92523438 -9.1015625 3.88671875 C-8.28429687 3.82097656 -7.46703125 3.75523438 -6.625 3.6875 C-5.81289063 3.62949219 -5.00078125 3.57148437 -4.1640625 3.51171875 C-1.62078662 3.17009472 -1.62078662 3.17009472 0 0 Z " fill="#34971B" transform="translate(36,70)"/>
<path d="M0 0 C0.99 0.33 1.98 0.66 3 1 C2.67 2.98 2.34 4.96 2 7 C1.34 7 0.68 7 0 7 C0 4.69 0 2.38 0 0 Z " fill="#CC4809" transform="translate(78,52)"/>
<path d="M0 0 C2.52259061 1.97420135 2.9929808 2.96745642 3.6875 6.1875 C3.790625 7.115625 3.89375 8.04375 4 9 C3.01 8.67 2.02 8.34 1 8 C0.67 5.36 0.34 2.72 0 0 Z " fill="#DA720D" transform="translate(88,45)"/>
<path d="M0 0 C1 2 1 2 0.875 4 C0 6 0 6 -2.5625 7.25 C-3.366875 7.4975 -4.17125 7.745 -5 8 C-3.62845496 5.04590299 -2.01136276 2.55991624 0 0 Z " fill="#F38713" transform="translate(71,40)"/>
<path d="M0 0 C2.96404505 2.80804268 5.44499019 5.18315774 7 9 C4.0625 7.875 4.0625 7.875 1 6 C0.125 2.8125 0.125 2.8125 0 0 Z " fill="#ED7912" transform="translate(75,31)"/>
<path d="M0 0 C1.25541557 3.76624671 0.37061958 5.37188934 -1 9 C-3 6 -3 6 -2.75 3.375 C-2.5025 2.59125 -2.255 1.8075 -2 1 C-1.34 0.67 -0.68 0.34 0 0 Z " fill="#D17F11" transform="translate(29,52)"/>
<path d="M0 0 C2.475 0.495 2.475 0.495 5 1 C4.67 1.99 4.34 2.98 4 4 C2.68 3.67 1.36 3.34 0 3 C0 2.01 0 1.02 0 0 Z " fill="#206F0D" transform="translate(15,53)"/>
</svg>
